<svg xmlns="http://www.w3.org/2000/svg" width="20.937" height="21" viewBox="0 0 20.937 21"><g transform="translate(-0.063 0)"><path d="M4.9,2.1a.7.7,0,0,0,.7-.7V.7A.7.7,0,0,0,4.9,0H.7A.7.7,0,0,0,0,.7v.7a.7.7,0,0,0,.7.7ZM.7.7H4.9v.7H.7Z" transform="translate(1.778 6.3)" fill="#1c1f2c"/><path d="M1.05,0A1.05,1.05,0,1,0,2.1,1.05,1.05,1.05,0,0,0,1.05,0Zm0,1.4a.35.35,0,1,1,.35-.35A.35.35,0,0,1,1.05,1.4Z" transform="translate(2.128 9.1)" fill="#1c1f2c"/><path d="M1.05,0A1.05,1.05,0,1,0,2.1,1.05,1.05,1.05,0,0,0,1.05,0Zm0,1.4a.35.35,0,1,1,.35-.35A.35.35,0,0,1,1.05,1.4Z" transform="translate(2.128 11.55)" fill="#1c1f2c"/><path d="M1.05,0A1.05,1.05,0,1,0,2.1,1.05,1.05,1.05,0,0,0,1.05,0Zm0,1.4a.35.35,0,1,1,.35-.35A.35.35,0,0,1,1.05,1.4Z" transform="translate(2.128 14)" fill="#1c1f2c"/><path d="M1.05,0A1.05,1.05,0,1,0,2.1,1.05,1.05,1.05,0,0,0,1.05,0Zm0,1.4a.35.35,0,1,1,.35-.35A.35.35,0,0,1,1.05,1.4Z" transform="translate(4.928 9.1)" fill="#1c1f2c"/><path d="M1.05,0A1.05,1.05,0,1,0,2.1,1.05,1.05,1.05,0,0,0,1.05,0Zm0,1.4a.35.35,0,1,1,.35-.35A.35.35,0,0,1,1.05,1.4Z" transform="translate(4.928 11.55)" fill="#1c1f2c"/><path d="M1.05,0A1.05,1.05,0,1,0,2.1,1.05,1.05,1.05,0,0,0,1.05,0Zm0,1.4a.35.35,0,1,1,.35-.35A.35.35,0,0,1,1.05,1.4Z" transform="translate(4.928 14)" fill="#1c1f2c"/><path d="M3.5,2.45a.35.35,0,1,0,.7,0A1.881,1.881,0,0,0,2.45.726V.35a.35.35,0,1,0-.7,0V.726A1.882,1.882,0,0,0,0,2.45,1.881,1.881,0,0,0,1.75,4.174V6.263A1.158,1.158,0,0,1,.7,5.25a.35.35,0,1,0-.7,0A1.881,1.881,0,0,0,1.75,6.974V7.35a.35.35,0,1,0,.7,0V6.974A1.882,1.882,0,0,0,4.2,5.25,1.881,1.881,0,0,0,2.45,3.526V1.437A1.158,1.158,0,0,1,3.5,2.45Zm-2.8,0A1.158,1.158,0,0,1,1.75,1.437V3.463A1.158,1.158,0,0,1,.7,2.45Zm2.8,2.8A1.158,1.158,0,0,1,2.45,6.263V4.237A1.158,1.158,0,0,1,3.5,5.25Z" transform="translate(13.3 11.55)" fill="#1c1f2c"/><path d="M13.238,10.212V7.35l4.715,2.108a2.1,2.1,0,0,0,1.715-3.834l-6.43-2.876v-.3A1.752,1.752,0,0,1,14.988.7a.35.35,0,0,0,0-.7H6.616a2.453,2.453,0,0,0-2.45,2.45V4.9h-2.8A1.05,1.05,0,0,0,.316,5.95v10.5a1.05,1.05,0,0,0,1.05,1.05h2.8v.7H.7a.7.7,0,0,0-.69.82A2.454,2.454,0,0,0,2.416,21h8.372a2.443,2.443,0,0,0,1.758-.753,5.6,5.6,0,1,0,.692-10.035ZM10.46,4.779l.725-1.614.768-.009-.984,2.2ZM9.041,3.169h1.375L9.952,4.2Zm2.917,1.692c2.085.932,1.955.888,2.06.888a.35.35,0,0,0,.143-.67l-1.917-.859.429-.959,4.792,2.143-.428.958-1.6-.714a.35.35,0,0,0-.286.639L16.75,7l-.429.959L11.529,5.818Zm6.785,1.117L17.6,8.534l-.639-.286L18.1,5.693ZM20.12,7.04a1.4,1.4,0,0,1-1.881,1.78l1.143-2.555a1.4,1.4,0,0,1,.738.774Zm-19.1,9.41V5.95a.35.35,0,0,1,.35-.35h6.3a.35.35,0,0,1,.35.35v10.5a.35.35,0,0,1-.35.35h-6.3A.35.35,0,0,1,1.016,16.45ZM.7,18.9H8.366a2.438,2.438,0,0,0,.713,1.4H2.416A1.745,1.745,0,0,1,.7,18.9Zm8.357-.1a.7.7,0,0,0-.692-.6h-3.5v-.7h2.8a1.05,1.05,0,0,0,1.05-1.05V5.95A1.05,1.05,0,0,0,7.666,4.9h-2.8V2.45A1.752,1.752,0,0,1,6.616.7h6.657a2.443,2.443,0,0,0-.735,1.758L12.5,2.45l-.006.007H8.268A.358.358,0,0,0,8,3.048c3.24,3.675,2.788,3.171,2.92,3.266l1.613.723v3.521a5.585,5.585,0,0,0-.586,9.292A1.747,1.747,0,0,1,9.059,18.8Zm6.28,1.5a4.9,4.9,0,1,1,4.9-4.9A4.9,4.9,0,0,1,15.338,20.3Z" transform="translate(0.063 0)" fill="#1c1f2c"/><path d="M1.055.048A.35.35,0,0,0,.576.174,4.283,4.283,0,0,0,.39,4.105a.35.35,0,1,0,.636-.292A3.586,3.586,0,0,1,1.181.526.35.35,0,0,0,1.055.048Z" transform="translate(11.2 13.081)" fill="#1c1f2c"/><path d="M.174.048A.35.35,0,0,0,.047.526,3.586,3.586,0,0,1,.2,3.813a.35.35,0,1,0,.636.292A4.283,4.283,0,0,0,.653.174.35.35,0,0,0,.174.048Z" transform="translate(18.372 13.081)" fill="#1c1f2c"/></g></svg>