<svg xmlns="http://www.w3.org/2000/svg" width="20" height="19.702" viewBox="0 0 20 19.702"><g transform="translate(0 -0.149)"><path d="M17.29,7.731a1.319,1.319,0,0,0-.731-2.25l-4.376-.636a.264.264,0,0,1-.2-.144L10.028.735a1.319,1.319,0,0,0-2.365,0L5.705,4.7a.264.264,0,0,1-.2.144L1.13,5.481A1.319,1.319,0,0,0,.4,7.731l3.167,3.087a.264.264,0,0,1,.076.234l-.748,4.358A1.319,1.319,0,0,0,4.808,16.8l3.914-2.058a.264.264,0,0,1,.246,0L12.882,16.8A1.319,1.319,0,0,0,14.8,15.409l-.748-4.358a.264.264,0,0,1,.076-.234Zm-4.282,3.5.748,4.359a.264.264,0,0,1-.383.278L9.459,13.808a1.319,1.319,0,0,0-1.227,0L4.317,15.866a.264.264,0,0,1-.383-.278l.748-4.358A1.319,1.319,0,0,0,4.3,10.062L1.136,6.975a.264.264,0,0,1,.146-.45l4.376-.636a1.319,1.319,0,0,0,.993-.722L8.608,1.2a.264.264,0,0,1,.473,0h0l1.957,3.965a1.319,1.319,0,0,0,.993.722l4.376.636a.264.264,0,0,1,.146.45l-3.167,3.087A1.319,1.319,0,0,0,13.008,11.229Z" transform="translate(1.156 0.149)" fill="#1c1f2c"/><path d="M1.4.1A.528.528,0,0,0,.661.218L.1.988a.528.528,0,0,0,.854.62l.56-.771A.528.528,0,0,0,1.4.1Z" transform="translate(14.765 0.783)" fill="#1c1f2c"/><path d="M1.514.988.954.217A.528.528,0,0,0,.1.838l.56.771a.528.528,0,1,0,.854-.62Z" transform="translate(3.617 0.78)" fill="#1c1f2c"/><path d="M1.936.365A.528.528,0,0,0,1.271.026L.365.32a.528.528,0,1,0,.326,1L1.6,1.029A.528.528,0,0,0,1.936.365Z" transform="translate(0 11.621)" fill="#1c1f2c"/><path d="M.528,0A.528.528,0,0,0,0,.528V1.48a.528.528,0,1,0,1.055,0V.528A.528.528,0,0,0,.528,0Z" transform="translate(9.473 17.843)" fill="#1c1f2c"/><path d="M1.6.32.691.026a.528.528,0,0,0-.326,1l.906.294A.528.528,0,0,0,1.6.32Z" transform="translate(18.038 11.622)" fill="#1c1f2c"/></g></svg>