<svg xmlns="http://www.w3.org/2000/svg" width="19" height="18.989" viewBox="0 0 19 18.989"><g transform="translate(0 -0.018)"><path d="M18.3,7.163l-6-6.006a3.965,3.965,0,0,0-5.6,0L.7,7.163A2.358,2.358,0,0,0,0,8.842v7.772a2.375,2.375,0,0,0,2.375,2.375h14.25A2.375,2.375,0,0,0,19,16.614V8.842a2.358,2.358,0,0,0-.7-1.679ZM11.875,17.405H7.125V14.291a2.375,2.375,0,0,1,4.75,0Zm5.542-.792a.792.792,0,0,1-.792.792H13.458V14.291a3.958,3.958,0,0,0-7.917,0v3.114H2.375a.792.792,0,0,1-.792-.792V8.842a.8.8,0,0,1,.232-.56l6-6a2.381,2.381,0,0,1,3.36,0l6,6.006a.8.8,0,0,1,.232.557Z" transform="translate(0 0.018)" fill="#1c1f2c"/></g></svg>