<svg xmlns="http://www.w3.org/2000/svg" width="20" height="20" viewBox="0 0 20 20"><path d="M19.749,4.821,10.2.048a.455.455,0,0,0-.407,0L.251,4.821A.454.454,0,0,0,0,5.227v9.545a.455.455,0,0,0,.251.407L9.8,19.952a.455.455,0,0,0,.407,0l9.545-4.773A.455.455,0,0,0,20,14.773V5.227a.455.455,0,0,0-.251-.407ZM10,.963l8.529,4.265L16.7,6.14,8.176,1.875Zm3.068,7L4.539,3.693l2.62-1.31,8.529,4.265Zm.341.846L16.136,7.44v3.381l-.872-.623a.454.454,0,0,0-.638.111l-1.217,1.758ZM3.523,4.2l8.529,4.265L10,9.492,1.471,5.227ZM.909,5.963l8.636,4.318V18.81L.909,14.492ZM10.455,18.81V10.281L12.5,9.258v4.265a.455.455,0,0,0,.828.259l1.783-2.575,1.216.868a.454.454,0,0,0,.718-.37V6.985l2.045-1.023v8.529Z" fill="#1c1f2c"/></svg>