<svg xmlns="http://www.w3.org/2000/svg" width="19" height="19" viewBox="0 0 19 19"><path d="M14.646,8.708H1.188A1.189,1.189,0,0,1,0,7.521V.4A.4.4,0,0,1,.792.4V7.521a.4.4,0,0,0,.4.4H14.646a.4.4,0,0,0,.4-.4V.4a.4.4,0,0,1,.792,0V7.521A1.189,1.189,0,0,1,14.646,8.708Z" transform="translate(1.583 10.292)" fill="#1c1f2c"/><path d="M18.6,9.9H16.229a.4.4,0,0,1-.4-.4,6.333,6.333,0,1,0-12.667,0,.4.4,0,0,1-.4.4H.4A.4.4,0,0,1,0,9.5a9.5,9.5,0,1,1,19,0A.4.4,0,0,1,18.6,9.9ZM16.614,9.1H18.2A8.709,8.709,0,0,0,.8,9.1H2.386a7.125,7.125,0,0,1,14.228,0Z" transform="translate(0 1.187)" fill="#1c1f2c"/><path d="M2.771,5.938a.4.4,0,0,1-.4-.4V.792H.792V3.167a.4.4,0,1,1-.792,0V.4A.4.4,0,0,1,.4,0H2.771a.4.4,0,0,1,.4.4V5.542A.4.4,0,0,1,2.771,5.938Z" transform="translate(14.25 0)" fill="#1c1f2c"/><path d="M5.937,5.542H.4a.4.4,0,0,1-.4-.4V.4A.4.4,0,0,1,.4,0H5.937a.4.4,0,0,1,.4.4v4.75A.4.4,0,0,1,5.937,5.542ZM.792,4.75h4.75V.792H.792Z" transform="translate(9.104 13.458)" fill="#1c1f2c"/><path d="M5.937,5.542H.4a.4.4,0,0,1-.4-.4V.4A.4.4,0,0,1,.4,0H5.937a.4.4,0,0,1,.4.4v4.75A.4.4,0,0,1,5.937,5.542ZM.792,4.75h4.75V.792H.792Z" transform="translate(6.333 8.708)" fill="#1c1f2c"/><path d="M5.937,5.542H.4a.4.4,0,0,1-.4-.4V.4A.4.4,0,0,1,.4,0H5.937a.4.4,0,0,1,.4.4v4.75A.4.4,0,0,1,5.937,5.542ZM.792,4.75h4.75V.792H.792Z" transform="translate(3.562 13.458)" fill="#1c1f2c"/><path d="M.4,1.979a.4.4,0,0,1-.4-.4V.4A.4.4,0,1,1,.792.4V1.583A.4.4,0,0,1,.4,1.979Z" transform="translate(9.104 8.708)" fill="#1c1f2c"/><path d="M.4,1.979a.4.4,0,0,1-.4-.4V.4A.4.4,0,0,1,.792.4V1.583A.4.4,0,0,1,.4,1.979Z" transform="translate(6.333 13.458)" fill="#1c1f2c"/><path d="M.4,1.979a.4.4,0,0,1-.4-.4V.4A.4.4,0,1,1,.792.4V1.583A.4.4,0,0,1,.4,1.979Z" transform="translate(11.875 13.458)" fill="#1c1f2c"/></svg>