<svg xmlns="http://www.w3.org/2000/svg" width="18" height="18" viewBox="0 0 18 18"><path d="M16.875,12H1.125A1.126,1.126,0,0,1,0,10.875V.375A.375.375,0,0,1,.375,0h17.25A.375.375,0,0,1,18,.375v10.5A1.126,1.126,0,0,1,16.875,12ZM.75.75V10.875a.375.375,0,0,0,.375.375h15.75a.375.375,0,0,0,.375-.375V.75Z" transform="translate(0 6)" fill="#1c1f2c"/><path d="M5.625,3.75H.375A.375.375,0,0,1,0,3.375v-3A.375.375,0,0,1,.375,0h5.25A.375.375,0,0,1,6,.375v3A.375.375,0,0,1,5.625,3.75ZM.75,3h4.5V.75H.75Z" transform="translate(9.75 12)" fill="#1c1f2c"/><path d="M17.625,6.75a.375.375,0,0,1-.351-.243L15.115.75H2.885L.726,6.507a.375.375,0,1,1-.7-.264l2.25-6A.375.375,0,0,1,2.625,0h12.75a.375.375,0,0,1,.351.243l2.25,6a.375.375,0,0,1-.219.483.37.37,0,0,1-.132.024Z" transform="translate(0 0)" fill="#1c1f2c"/><path d="M.375,6.75A.375.375,0,0,1,0,6.375v-6a.375.375,0,1,1,.75,0v6A.375.375,0,0,1,.375,6.75Z" transform="translate(8.625 0)" fill="#1c1f2c"/></svg>