<svg xmlns="http://www.w3.org/2000/svg" width="19" height="21" viewBox="0 0 19 21"><path d="M18.99,19.907l-2.2-15.272a.946.946,0,0,0-.924-.816H12.3V2.864a2.8,2.8,0,1,0-5.6,0v.955H3.132a.946.946,0,0,0-.924.816L.01,19.907a.967.967,0,0,0,.217.763A.924.924,0,0,0,.934,21H18.066a.925.925,0,0,0,.707-.331.968.968,0,0,0,.217-.763ZM7.632,2.864a1.868,1.868,0,1,1,3.736,0v.955H7.632ZM.934,20.045l2.2-15.273H6.7V6.288a1.4,1.4,0,1,0,.934,0V4.773h3.736V6.288a1.4,1.4,0,1,0,.934,0V4.773h3.566l2.2,15.273Zm6.7-12.409a.467.467,0,1,1-.467-.477A.473.473,0,0,1,7.632,7.636Zm4.67,0a.467.467,0,1,1-.467-.477A.473.473,0,0,1,12.3,7.636Z" fill="#1c1f2c"/></svg>