<svg xmlns="http://www.w3.org/2000/svg" width="20" height="18" viewBox="0 0 20 18"><path d="M17.727,3.157V1.385A1.376,1.376,0,0,0,16.364,0H9.545a.451.451,0,0,0-.321.135L.133,9.366a.466.466,0,0,0,0,.653L7.86,17.865a.449.449,0,0,0,.643,0l4.726-4.8a3.452,3.452,0,0,0,2.68,1.473c2.256,0,4.091-2.691,4.091-6A6.66,6.66,0,0,0,17.727,3.157ZM8.182,16.886,1.1,9.692,9.734.923h6.63a.459.459,0,0,1,.455.462V8.117l-3.44,3.493a7.194,7.194,0,0,1-.65-3.071,7.66,7.66,0,0,1,.238-1.891,2.238,2.238,0,0,0,.444.045,2.308,2.308,0,1,0-2.273-2.308,2.316,2.316,0,0,0,.984,1.9,8.55,8.55,0,0,0-.3,2.255,7.871,7.871,0,0,0,.9,3.744Zm5.55-12.818a.451.451,0,0,0-.635.1,6.086,6.086,0,0,0-.656,1.192,1.391,1.391,0,0,1-.4-.974,1.364,1.364,0,1,1,1.364,1.385,1.344,1.344,0,0,1-.15-.009,5.194,5.194,0,0,1,.571-1.048.466.466,0,0,0-.1-.645Zm2.177,9.548a2.609,2.609,0,0,1-2.046-1.193l3.731-3.789a.465.465,0,0,0,.133-.326V4.39a6.4,6.4,0,0,1,1.364,4.148C19.091,11.338,17.664,13.615,15.909,13.615Z" fill="#1c1f2c"/></svg>