<svg xmlns="http://www.w3.org/2000/svg" width="21" height="13.696" viewBox="0 0 21 13.696"><g transform="translate(0 -3.652)"><path d="M3.2,0a3.2,3.2,0,1,0,3.2,3.2A3.2,3.2,0,0,0,3.2,0Zm0,5.478A2.283,2.283,0,1,1,5.478,3.2,2.286,2.286,0,0,1,3.2,5.478Z" transform="translate(7.304 3.652)" fill="#1c1f2c"/><path d="M2.283,0A2.283,2.283,0,1,0,4.565,2.283,2.286,2.286,0,0,0,2.283,0Zm0,3.652a1.37,1.37,0,1,1,1.37-1.37A1.371,1.371,0,0,1,2.283,3.652Z" transform="translate(14.609 7.304)" fill="#1c1f2c"/><path d="M2.283,0A2.283,2.283,0,1,0,4.565,2.283,2.285,2.285,0,0,0,2.283,0Zm0,3.652a1.37,1.37,0,1,1,1.37-1.37A1.371,1.371,0,0,1,2.283,3.652Z" transform="translate(1.891 7.304)" fill="#1c1f2c"/><path d="M5.935,0A5.942,5.942,0,0,0,0,5.935a.457.457,0,1,0,.913,0,5.022,5.022,0,0,1,10.043,0,.457.457,0,1,0,.913,0A5.942,5.942,0,0,0,5.935,0Z" transform="translate(4.565 10.957)" fill="#1c1f2c"/><path d="M2.348,0A4.109,4.109,0,0,0,.219.593a.457.457,0,0,0,.474.781,3.2,3.2,0,0,1,4.85,2.735.457.457,0,1,0,.913,0A4.114,4.114,0,0,0,2.348,0Z" transform="translate(14.544 12.783)" fill="#1c1f2c"/><path d="M6.236.593A4.11,4.11,0,0,0,0,4.109a.457.457,0,1,0,.913,0A3.2,3.2,0,0,1,5.762,1.373.457.457,0,0,0,6.236.593Z" transform="translate(0 12.783)" fill="#1c1f2c"/></g></svg>