<svg xmlns="http://www.w3.org/2000/svg" width="19.319" height="20.253" viewBox="0 0 19.319 20.253"><g transform="translate(-1371.71 -663.747)"><path d="M18.451,2.532a1.406,1.406,0,0,0-1.089-.511H6.468a.4.4,0,0,0,0,.808H17.362a.592.592,0,0,1,.465.217.619.619,0,0,1,.129.512L16.34,11.637a.61.61,0,0,1-.6.49H6.759L3.05.958A1.437,1.437,0,0,0,1.684,0h0C1.156.018.622.018.491.009A.4.4,0,0,0,.118.69C.244.815.286.857,1.7.808a.622.622,0,0,1,.587.41l3.8,11.44a.4.4,0,0,0,.384.277h9.277A1.415,1.415,0,0,0,17.132,11.8l1.618-8.087A1.427,1.427,0,0,0,18.451,2.532Z" transform="translate(1372 664)" fill="#1c1f2c" stroke="#1c1f2c" stroke-width="0.5"/><path d="M9.5,3.032H2.143a.617.617,0,0,1-.567-.412L.787.276A.4.4,0,0,0,.021.533l.79,2.349a1.419,1.419,0,0,0,1.332.958H9.5a.4.4,0,1,0,0-.808Z" transform="translate(1378.063 676.127)" fill="#1c1f2c" stroke="#1c1f2c" stroke-width="0.5"/><path d="M1.415,0A1.415,1.415,0,1,0,2.83,1.415,1.416,1.416,0,0,0,1.415,0Zm0,2.021a.606.606,0,1,1,.606-.606A.607.607,0,0,1,1.415,2.021Z" transform="translate(1379.074 681.17)" fill="#1c1f2c"/><path d="M1.415,0A1.415,1.415,0,1,0,2.83,1.415,1.417,1.417,0,0,0,1.415,0Zm0,2.021a.606.606,0,1,1,.606-.606A.607.607,0,0,1,1.415,2.021Z" transform="translate(1386.148 681.17)" fill="#1c1f2c"/></g></svg>