<svg xmlns="http://www.w3.org/2000/svg" width="18.937" height="18.937" viewBox="0 0 18.937 18.937"><g transform="translate(-2.032 -2.032)"><path d="M8.548,17.087a8.554,8.554,0,0,0,8.539-8.548.481.481,0,0,0-.479-.479H9.028V.479A.481.481,0,0,0,8.548,0a8.544,8.544,0,1,0,0,17.087ZM8.069.968V8.539a.475.475,0,0,0,.479.479h7.571A7.588,7.588,0,1,1,8.069.968Z" transform="translate(2.032 3.881)" fill="#1c1f2c"/><path d="M.479,9.028H8.548a.487.487,0,0,0,.479-.479A8.556,8.556,0,0,0,.479,0,.487.487,0,0,0,0,.479V8.548a.487.487,0,0,0,.479.479ZM.958.978A7.6,7.6,0,0,1,8.05,8.069H.958Z" transform="translate(11.941 2.032)" fill="#1c1f2c"/></g></svg>