<svg xmlns="http://www.w3.org/2000/svg" width="18.5" height="18.5" viewBox="0 0 18.5 18.5"><g transform="translate(0.25 0.25)" fill="#1c1f2c"><path d="M 9.000046730041504 18.125 L 8.999956130981445 18.125 L 8.999855995178223 18.125 C 7.173545837402344 18.12228012084961 5.403281688690186 17.57024955749512 3.876182556152344 16.52796745300293 L 0.4348963499069214 17.67480087280273 C 0.390456348657608 17.68959999084473 0.3447563350200653 17.69709968566895 0.2990463376045227 17.69709968566895 C 0.1639163494110107 17.69709968566895 0.03530634939670563 17.63059043884277 -0.04499365016818047 17.51918983459473 C -0.1254036575555801 17.40763092041016 -0.1464236527681351 17.26835060119629 -0.1026736497879028 17.13706970214844 L 1.099105000495911 13.53045272827148 C 0.3014425337314606 12.14433765411377 -0.1213881596922874 10.57934761047363 -0.1243136525154114 9.000510215759277 C -0.1243136525154114 3.968580007553101 3.968996286392212 -0.125 9.000346183776855 -0.125 C 14.03169631958008 -0.124889999628067 18.12499618530273 3.968600034713745 18.12499618530273 9.000060081481934 C 18.1250057220459 14.03145980834961 14.03157615661621 18.1248893737793 9.000046730041504 18.125 Z M 3.932326316833496 15.63656044006348 C 4.021986484527588 15.63656044006348 4.107646465301514 15.66431999206543 4.180036544799805 15.71683979034424 C 5.596246242523193 16.73592948913574 7.26331615447998 17.27474021911621 9.000636100769043 17.27474021911621 C 13.56306648254395 17.27462005615234 17.27487564086914 13.56256008148193 17.27487564086914 8.999939918518066 C 17.27486610412598 4.437270164489746 13.56292629241943 0.7252600193023682 9.000346183776855 0.7252600193023682 L 9.00014591217041 0.7252600193023682 C 4.437796115875244 0.7252600193023682 0.7258063554763794 4.437320232391357 0.7255163192749023 9.000069618225098 C 0.7284163236618042 10.50652027130127 1.142566323280334 11.98390007019043 1.923196315765381 13.27225971221924 C 1.987796306610107 13.37884998321533 2.002366304397583 13.50798034667969 1.963166356086731 13.62652969360352 L 0.9724892377853394 16.59994125366211 L 3.79715633392334 15.65861034393311 C 3.840746402740479 15.64400005340576 3.886296272277832 15.63656044006348 3.932326316833496 15.63656044006348 Z M 11.99290657043457 10.02488040924072 C 11.42762660980225 10.02488040924072 10.9677267074585 9.565090179443359 10.96771621704102 8.999939918518066 C 10.96771621704102 8.434789657592773 11.42761611938477 7.975009918212891 11.99290657043457 7.975009918212891 C 12.26496601104736 7.975009918212891 12.52187633514404 8.082099914550781 12.71630668640137 8.27655029296875 C 12.91072654724121 8.470990180969238 13.01780605316162 8.727890014648438 13.01779651641846 8.999939918518066 C 13.01778602600098 9.565090179443359 12.55801677703857 10.02488040924072 11.99290657043457 10.02488040924072 Z M 11.99290657043457 8.824930191040039 C 11.89310646057129 8.824930191040039 11.81784629821777 8.90017032623291 11.81784629821777 8.999939918518066 C 11.81784629821777 9.099780082702637 11.89310646057129 9.175069808959961 11.99290657043457 9.175069808959961 C 12.09253597259521 9.175069808959961 12.1676664352417 9.099780082702637 12.16767597198486 8.999930381774902 C 12.16767597198486 8.90017032623291 12.0925464630127 8.824930191040039 11.99290657043457 8.824930191040039 Z M 9.000346183776855 10.02488040924072 C 8.435226440429688 10.02488040924072 7.975456237792969 9.565090179443359 7.975446224212646 8.999939918518066 C 7.975446224212646 8.434789657592773 8.435215950012207 7.975009918212891 9.000346183776855 7.975009918212891 C 9.565476417541504 7.975009918212891 10.02523612976074 8.434789657592773 10.02523612976074 8.999939918518066 C 10.02522659301758 9.565090179443359 9.565456390380859 10.02488040924072 9.000346183776855 10.02488040924072 Z M 9.000346183776855 8.824930191040039 C 8.90053653717041 8.824930191040039 8.825276374816895 8.90017032623291 8.825276374816895 8.999939918518066 C 8.825285911560059 9.099780082702637 8.900546073913574 9.175069808959961 9.000346183776855 9.175069808959961 C 9.099976539611816 9.175069808959961 9.175106048583984 9.099780082702637 9.175106048583984 8.999939918518066 C 9.175106048583984 8.951450347900391 9.157406806945801 8.90701961517334 9.125246047973633 8.87483024597168 C 9.093106269836426 8.842650413513184 9.04875659942627 8.824930191040039 9.000346183776855 8.824930191040039 Z M 5.993056297302246 10.02488040924072 C 5.4279465675354 10.02488040924072 4.968176364898682 9.565090179443359 4.968166351318359 8.999939918518066 C 4.968166351318359 8.434789657592773 5.427926540374756 7.975009918212891 5.993056297302246 7.975009918212891 C 6.558186531066895 7.975009918212891 7.017956256866455 8.434789657592773 7.017956256866455 8.999939918518066 C 7.017946243286133 9.565090179443359 6.558176517486572 10.02488040924072 5.993056297302246 10.02488040924072 Z M 5.993056297302246 8.824930191040039 C 5.893256187438965 8.824930191040039 5.817996501922607 8.90017032623291 5.817996501922607 8.999939918518066 C 5.817996501922607 9.099780082702637 5.893256187438965 9.175069808959961 5.993056297302246 9.175069808959961 C 6.092856407165527 9.175069808959961 6.168116569519043 9.099780082702637 6.168126583099365 8.999930381774902 C 6.168126583099365 8.90017032623291 6.09286642074585 8.824930191040039 5.993056297302246 8.824930191040039 Z" stroke="none"/><path d="M 9.000046730041504 18 C 13.96715641021729 17.9998893737793 18.0000057220459 13.96700000762939 17.99999618530273 9.000060081481934 C 17.99999618530273 4.032999992370605 13.96715641021729 0.0001100000008591451 9.000346183776855 0 C 4.033516407012939 0 0.0006863482412882149 4.032989978790283 0.0006863482412882149 9.000280380249023 C 0.003636348294094205 10.58983039855957 0.4352563619613647 12.14535999298096 1.235506296157837 13.51651954650879 L 0.01591634750366211 17.17659950256348 C -0.06227365136146545 17.41119003295898 0.1608263552188873 17.63432312011719 0.3953763544559479 17.55620956420898 L 3.895706415176392 16.38969993591309 C 5.395986557006836 17.42831039428711 7.172436237335205 17.99728012084961 9.000046730041504 18 M 3.932324886322021 15.76156425476074 C 3.900217771530151 15.76156425476074 3.867920875549316 15.76673030853271 3.836676359176636 15.77719974517822 L 0.7748963236808777 16.79755020141602 L 1.844486355781555 13.5872802734375 C 1.872236371040344 13.50337028503418 1.861916303634644 13.41232013702393 1.816286325454712 13.33703994750977 C 1.023816347122192 12.02914047241211 0.6034563779830933 10.52974033355713 0.6005163192749023 9.000060081481934 C 0.6008163094520569 4.357280254364014 4.359241962432861 0.600567638874054 9.000346183776855 0.6002600193023682 C 13.64290618896484 0.6002600193023682 17.39986610412598 4.357729911804199 17.39987564086914 8.999939918518066 L 17.39987564086914 9.000399589538574 C 17.39987564086914 9.000399589538574 17.39987564086914 9.000399589538574 17.39987564086914 8.999939918518066 C 17.39987564086914 13.64260959625244 13.64307594299316 17.39962005615234 9.000636100769043 17.39974021911621 C 7.24397611618042 17.39974021911621 5.532476425170898 16.84403991699219 4.106636524200439 15.81801986694336 C 4.055200576782227 15.78070640563965 3.994120597839355 15.76156425476074 3.932324886322021 15.76156425476074 M 11.99290657043457 9.899880409240723 C 12.4863862991333 9.899880409240723 12.89278602600098 9.493510246276855 12.89279651641846 8.999939918518066 C 12.89280605316162 8.506489753723145 12.48639678955078 8.100009918212891 11.99290657043457 8.100009918212891 C 11.49941635131836 8.100009918212891 11.09271621704102 8.506489753723145 11.09271621704102 8.999939918518066 C 11.0927267074585 9.493510246276855 11.49942588806152 9.899880409240723 11.99290657043457 9.899880409240723 M 11.99290657043457 8.699930191040039 C 12.16213607788086 8.699930191040039 12.29267597198486 8.830769538879395 12.29267597198486 8.999939918518066 C 12.2926664352417 9.169230461120605 12.16213607788086 9.300069808959961 11.99290657043457 9.300069808959961 C 11.82367610931396 9.300069808959961 11.69284629821777 9.169230461120605 11.69284629821777 8.999939918518066 C 11.69284629821777 8.830769538879395 11.82367610931396 8.699930191040039 11.99290657043457 8.699930191040039 M 9.000346183776855 9.899880409240723 C 9.493825912475586 9.899880409240723 9.900226593017578 9.493510246276855 9.900236129760742 8.999939918518066 C 9.900236129760742 8.506489753723145 9.493836402893066 8.100009918212891 9.000346183776855 8.100009918212891 C 8.506855964660645 8.100009918212891 8.100446701049805 8.506489753723145 8.100446701049805 8.999939918518066 C 8.100456237792969 9.493510246276855 8.506855964660645 9.899880409240723 9.000346183776855 9.899880409240723 M 9.000346183776855 8.699930191040039 C 9.169576644897461 8.699930191040039 9.300116539001465 8.830769538879395 9.300106048583984 8.999939918518066 C 9.300106048583984 9.169230461120605 9.169576644897461 9.300069808959961 9.000346183776855 9.300069808959961 C 8.831106185913086 9.300069808959961 8.700285911560059 9.169230461120605 8.700276374816895 8.999939918518066 C 8.700276374816895 8.830769538879395 8.831106185913086 8.699930191040039 9.000346183776855 8.699930191040039 M 5.993056297302246 9.899880409240723 C 6.486546516418457 9.899880409240723 6.892946243286133 9.493510246276855 6.892956256866455 8.999939918518066 C 6.892956256866455 8.506489753723145 6.486546516418457 8.100009918212891 5.993056297302246 8.100009918212891 C 5.499576568603516 8.100009918212891 5.093166351318359 8.506489753723145 5.093166351318359 8.999939918518066 C 5.093176364898682 9.493510246276855 5.499576568603516 9.899880409240723 5.993056297302246 9.899880409240723 M 5.993056297302246 8.699930191040039 C 6.162296295166016 8.699930191040039 6.293126583099365 8.830769538879395 6.293126583099365 8.999939918518066 C 6.293116569519043 9.169230461120605 6.162286281585693 9.300069808959961 5.993056297302246 9.300069808959961 C 5.823826313018799 9.300069808959961 5.692996501922607 9.169230461120605 5.692996501922607 8.999939918518066 C 5.692996501922607 8.830769538879395 5.823826313018799 8.699930191040039 5.993056297302246 8.699930191040039 M 9.000056266784668 18.25 L 8.999676704406738 18.25 C 7.16862678527832 18.24727249145508 5.393310070037842 17.70001029968262 3.85715126991272 16.66606903076172 L 0.4744163453578949 17.79339027404785 C 0.4172163605690002 17.81244087219238 0.3582163453102112 17.82209968566895 0.2990463376045227 17.82209968566895 C 0.1238463446497917 17.82209968566895 -0.04267365112900734 17.73619079589844 -0.1463936567306519 17.5922908782959 C -0.2505836486816406 17.44774055480957 -0.2778736650943756 17.26741981506348 -0.2212536484003067 17.09754943847656 L 0.9628499746322632 13.54395771026611 C 0.1724481135606766 12.15113925933838 -0.2463732808828354 10.58276748657227 -0.2493136525154114 9.000740051269531 C -0.2493136525154114 3.899660110473633 3.900066375732422 -0.25 9.000346183776855 -0.25 C 14.10062599182129 -0.249889999628067 18.24999618530273 3.899669885635376 18.24999618530273 9.000060081481934 C 18.2500057220459 14.10037994384766 14.10049629211426 18.2498893737793 9.000056266784668 18.25 Z M 3.932326316833496 15.51156044006348 C 4.048506259918213 15.51156044006348 4.159536361694336 15.54755020141602 4.253416538238525 15.61565017700195 C 5.64785623550415 16.61907005310059 7.28968620300293 17.14974021911621 9.000636100769043 17.14974021911621 C 13.49413681030273 17.14962005615234 17.14987564086914 13.49363994598389 17.14987564086914 8.999939918518066 C 17.14986610412598 4.506189823150635 13.49400615692139 0.8502600193023682 9.000346183776855 0.8502600193023682 C 4.506716251373291 0.8502600193023682 0.8508063554763794 4.506249904632568 0.8505163192749023 9.000080108642578 C 0.8533663749694824 10.48351955413818 1.261266350746155 11.93859004974365 2.030096292495728 13.20748996734619 C 2.113686323165894 13.34539031982422 2.132556438446045 13.5124397277832 2.081846237182617 13.66578006744385 L 1.170082688331604 16.4023323059082 L 3.757636308670044 15.54001998901367 C 3.813856363296509 15.52118015289307 3.872766256332397 15.51156044006348 3.932326316833496 15.51156044006348 Z M 11.99290657043457 10.14988040924072 C 11.3587064743042 10.14988040924072 10.8427267074585 9.63401985168457 10.84271621704102 8.999950408935547 C 10.84271621704102 8.365870475769043 11.35868644714355 7.850009918212891 11.99290657043457 7.850009918212891 C 12.29835605621338 7.850009918212891 12.58665657043457 7.970099925994873 12.80469608306885 8.188159942626953 C 13.02272605895996 8.406209945678711 13.14280605316162 8.694510459899902 13.14279651641846 8.999950408935547 C 13.14278602600098 9.63401985168457 12.62694644927979 10.14988040924072 11.99290657043457 10.14988040924072 Z M 9.000346183776855 10.14988040924072 C 8.366306304931641 10.14988040924072 7.850456237792969 9.63401985168457 7.850446224212646 8.999950408935547 C 7.850446224212646 8.365870475769043 8.366286277770996 7.850009918212891 9.000346183776855 7.850009918212891 C 9.634396553039551 7.850009918212891 10.15023612976074 8.365870475769043 10.15023612976074 8.999939918518066 C 10.15022659301758 9.63401985168457 9.63438606262207 10.14988040924072 9.000346183776855 10.14988040924072 Z M 5.993056297302246 10.14988040924072 C 5.359016418457031 10.14988040924072 4.843176364898682 9.63401985168457 4.843166351318359 8.999950408935547 C 4.843166351318359 8.365870475769043 5.359006404876709 7.850009918212891 5.993056297302246 7.850009918212891 C 6.627116203308105 7.850009918212891 7.142956256866455 8.365870475769043 7.142956256866455 8.999939918518066 C 7.142946243286133 9.63401985168457 6.627096176147461 10.14988040924072 5.993056297302246 10.14988040924072 Z" stroke="none" fill="#1c1f2c"/></g></svg>