<svg xmlns="http://www.w3.org/2000/svg" width="18.405" height="19" viewBox="0 0 18.405 19"><g transform="translate(-0.297)"><path d="M15.71,2.7A9.2,9.2,0,0,0,1.18,13.714,9.267,9.267,0,0,0,4.165,16.9v.926A1.172,1.172,0,0,0,5.335,19H13.07a1.172,1.172,0,0,0,1.171-1.171V16.9a9.19,9.19,0,0,0,4.165-7.7A9.142,9.142,0,0,0,15.71,2.7ZM13.684,17.829a.615.615,0,0,1-.614.614H5.335a.615.615,0,0,1-.614-.614V15.152a.615.615,0,0,1,.614-.614H13.07a.615.615,0,0,1,.614.614v2.677ZM16.74,13.44a8.711,8.711,0,0,1-2.5,2.789V15.152a1.172,1.172,0,0,0-1.171-1.171H5.335a1.172,1.172,0,0,0-1.171,1.171v1.077A8.634,8.634,0,0,1,.557,9.2,8.646,8.646,0,0,1,15.316,3.089,8.651,8.651,0,0,1,16.74,13.44Z" transform="translate(0.297)" fill="#1c1f2c"/><path d="M1.008,2.081h0l-.449,0V.278A.278.278,0,1,0,0,.278V2.359a.278.278,0,0,0,.231.274A1.891,1.891,0,0,0,.5,2.639l.511,0a.278.278,0,0,0,0-.557Z" transform="translate(5.989 15.171)" fill="#1c1f2c"/><path d="M.278,0A.278.278,0,0,0,0,.278V2.361a.278.278,0,1,0,.557,0V.278A.278.278,0,0,0,.278,0Z" transform="translate(7.837 15.171)" fill="#1c1f2c"/><path d="M1.148.557a.278.278,0,1,0,0-.557H.278A.278.278,0,0,0,0,.278V2.342a.278.278,0,0,0,.278.278h.869a.278.278,0,1,0,0-.557H.557V1.588h.527a.278.278,0,1,0,0-.557H.557V.557h.591Z" transform="translate(11.598 15.181)" fill="#1c1f2c"/><path d="M1.847.018a.278.278,0,0,0-.352.176l-.465,1.4L.541.187A.278.278,0,1,0,.015.37L.728,2.423a.326.326,0,0,0,.307.216h0a.326.326,0,0,0,.306-.222L2.023.37A.278.278,0,0,0,1.847.018Z" transform="translate(8.967 15.171)" fill="#1c1f2c"/><path d="M13.678,2.347a8.013,8.013,0,0,0-11.647,11,.278.278,0,1,0,.415-.371,7.456,7.456,0,1,1,11.131,0,.278.278,0,0,0,.415.371,8.013,8.013,0,0,0-.315-11Z" transform="translate(1.487 1.19)" fill="#1c1f2c"/></g></svg>