<svg xmlns="http://www.w3.org/2000/svg" width="18" height="18" viewBox="0 0 18 18"><g transform="translate(0)"><path d="M18,.34a.366.366,0,0,0-.012-.061.406.406,0,0,0-.026-.063C17.953.2,17.951.192,17.944.181a.241.241,0,0,0-.016-.018.406.406,0,0,0-.044-.05.382.382,0,0,0-.05-.044c-.007,0-.011-.011-.018-.015S17.793.045,17.781.04a.407.407,0,0,0-.065-.026A.412.412,0,0,0,17.658,0a.4.4,0,0,0-.068,0,.352.352,0,0,0-.063.011.361.361,0,0,0-.04.007L.265,5.888a.391.391,0,0,0-.014.735L8.3,9.715l3.477,8.049a.392.392,0,0,0,.359.236h.02a.392.392,0,0,0,.353-.272L17.986.506a.293.293,0,0,0,.005-.037A.37.37,0,0,0,18,.4.39.39,0,0,0,18,.34ZM1.54,6.28,16.145,1.3,8.494,8.952ZM12.077,16.493,9.056,9.5l7.7-7.7Z" transform="translate(0 0)" fill="#1c1f2c"/><path d="M6.148.115a.391.391,0,0,0-.553,0L.115,5.594a.391.391,0,1,0,.553.553L6.148.668A.391.391,0,0,0,6.148.115Z" transform="translate(0 11.738)" fill="#1c1f2c"/><path d="M2.854.115.115,2.854a.391.391,0,1,0,.553.553L3.408.668A.391.391,0,1,0,2.854.115Z" transform="translate(4.306 14.477)" fill="#1c1f2c"/><path d="M.391,3.523a.39.39,0,0,0,.277-.115L3.408.668A.391.391,0,1,0,2.855.115L.115,2.855a.391.391,0,0,0,.277.668Z" transform="translate(0 10.172)" fill="#1c1f2c"/></g></svg>