<svg width="23" height="31" viewBox="0 0 23 31" fill="none" xmlns="http://www.w3.org/2000/svg">
<path d="M16.6108 0.333984H6.38879C4.695 0.336013 3.07116 1.00977 1.87347 2.20746C0.675783 3.40515 0.0020289 5.02898 0 6.72277V29.7224C0.000180018 29.9548 0.0637428 30.1828 0.183846 30.3817C0.303949 30.5807 0.476043 30.7432 0.681604 30.8516C0.887165 30.96 1.11841 31.0103 1.35044 30.9971C1.58247 30.9839 1.8065 30.9076 1.99841 30.7766L4.68937 28.9379L7.38033 30.7766C7.59293 30.9221 7.84459 31.0001 8.10226 31.0001C8.35993 31.0001 8.61159 30.9221 8.82419 30.7766L11.5075 28.9379L14.1908 30.7766C14.4035 30.9224 14.6554 31.0005 14.9133 31.0005C15.1713 31.0005 15.4232 30.9224 15.6359 30.7766L18.3192 28.9391L21.0025 30.7753C21.1943 30.906 21.4181 30.9819 21.6498 30.995C21.8815 31.0081 22.1125 30.9578 22.3178 30.8496C22.5231 30.7413 22.695 30.5792 22.8152 30.3806C22.9353 30.1821 22.9991 29.9545 22.9996 29.7224V6.72277C22.9976 5.02898 22.3239 3.40515 21.1262 2.20746C19.9285 1.00977 18.3046 0.336013 16.6108 0.333984V0.333984ZM20.4441 27.2947L19.0386 26.3338C18.8257 26.1877 18.5736 26.1094 18.3154 26.1094C18.0572 26.1094 17.805 26.1877 17.5922 26.3338L14.9089 28.1725L12.2256 26.3338C12.0128 26.1879 11.761 26.1099 11.503 26.1099C11.2451 26.1099 10.9932 26.1879 10.7804 26.3338L8.09715 28.1725L5.41386 26.3338C5.20138 26.1885 4.94998 26.1107 4.69256 26.1107C4.43515 26.1107 4.18375 26.1885 3.97127 26.3338L2.55552 27.2947V6.72277C2.55552 5.70613 2.95938 4.73112 3.67825 4.01224C4.39713 3.29336 5.37214 2.8895 6.38879 2.8895H16.6108C17.6275 2.8895 18.6025 3.29336 19.3214 4.01224C20.0403 4.73112 20.4441 5.70613 20.4441 6.72277V27.2947Z" fill="#1C1F2C"/>
<path d="M16.6108 10.5566H6.38872C5.68303 10.5566 5.11096 11.1287 5.11096 11.8344C5.11096 12.5401 5.68303 13.1122 6.38872 13.1122H16.6108C17.3165 13.1122 17.8885 12.5401 17.8885 11.8344C17.8885 11.1287 17.3165 10.5566 16.6108 10.5566Z" fill="#FDB933"/>
<path d="M14.0553 15.667H6.38872C5.68303 15.667 5.11096 16.2391 5.11096 16.9447C5.11096 17.6504 5.68303 18.2225 6.38872 18.2225H14.0553C14.761 18.2225 15.333 17.6504 15.333 16.9447C15.333 16.2391 14.761 15.667 14.0553 15.667Z" fill="#FDB933"/>
</svg>
