<svg width="28" height="28" viewBox="0 0 28 28" fill="none" xmlns="http://www.w3.org/2000/svg">
<path d="M23.1898 4.80712C20.7349 2.35215 17.4705 1 13.9985 1C10.5265 1 7.26214 2.35215 4.80712 4.80712C2.35215 7.26214 1 10.5265 1 13.9985C1 17.4705 2.35215 20.7349 4.80712 23.1898C9.88723 28.2699 18.1096 28.2701 23.1898 23.1898C28.27 18.1097 28.2701 9.88738 23.1898 4.80712ZM13.9985 25.4737C7.67083 25.4737 2.52323 20.3261 2.52323 13.9985C2.52323 7.67083 7.67088 2.52329 13.9985 2.52329C20.3261 2.52329 25.4737 7.67088 25.4737 13.9985C25.4737 20.3261 20.3261 25.4737 13.9985 25.4737V25.4737Z" fill="#1C1F2C" stroke="#1C1F2C" stroke-width="0.5"/>
<path d="M22.4399 11.0232L17.9697 8.69059L14.5418 5.19979C14.2392 4.89073 13.7478 4.89993 13.4532 5.20182L10.0518 8.69059L5.55864 11.0222C5.17823 11.2199 5.03493 11.6934 5.24435 12.0697L7.61101 16.3074L8.24319 21.4433C8.29839 21.8881 8.72424 22.1906 9.16375 22.0937L14.0108 21.0224L18.8324 22.0937C19.2712 22.1912 19.6963 21.8896 19.7535 21.4468L20.4105 16.3074L22.7543 12.0666C22.9609 11.6927 22.8192 11.2213 22.4399 11.0232V11.0232ZM19.007 15.6981C18.9603 15.7824 18.9304 15.8743 18.9182 15.9697L18.3485 20.4258L14.1762 19.4986C14.0675 19.4742 13.9554 19.4742 13.8467 19.4981L9.65267 20.4258L9.10479 15.9733C9.0926 15.8758 9.06214 15.7813 9.01389 15.695L6.95751 12.0128L10.8626 9.98633C10.9347 9.94875 11.0003 9.9 11.0571 9.8416L14.0006 6.8225L16.9674 9.84363C17.0232 9.90051 17.0877 9.94824 17.1583 9.98531L21.0436 12.0128L19.007 15.6981Z" fill="#1C1F2C" stroke="#1C1F2C" stroke-width="0.5"/>
<path d="M13.9716 11.1045H12.36C11.9393 11.1045 11.5984 11.4478 11.5984 11.8663V11.8681V11.8686V11.8751V17.6543C11.5984 18.0749 11.9394 18.4159 12.36 18.4159C12.7806 18.4159 13.1216 18.0749 13.1216 17.6543V15.8977C13.4359 15.8961 13.7746 15.8946 13.9716 15.8946C15.31 15.8946 16.3986 14.8202 16.3986 13.4996C16.3986 12.1789 15.31 11.1045 13.9716 11.1045ZM13.9716 14.3713C13.7751 14.3713 13.441 14.3729 13.1287 14.3744C13.124 13.3686 13.1274 13.8576 13.1237 12.6277H13.9716C14.4616 12.6277 14.8754 13.0273 14.8754 13.4995C14.8754 13.9723 14.4616 14.3713 13.9716 14.3713Z" fill="#FDB933" stroke="#FDB933" stroke-width="0.5"/>
</svg>
