<svg width="42" height="33" viewBox="0 0 42 33" fill="none" xmlns="http://www.w3.org/2000/svg">
<path d="M20.7273 29.8984C22.8102 31.7797 25.4641 32.8211 28.2859 32.8547C35.5422 32.8547 41.4547 25.4977 41.4547 16.4273C41.4547 7.35703 35.5422 0 28.2859 0C25.4977 0.0335938 22.8102 1.075 20.7273 2.95625C18.6781 1.075 15.9906 0.0335938 13.2023 0C5.9125 0 0 7.35703 0 16.4273C0 25.4977 5.9125 32.8547 13.1687 32.8547C15.9906 32.8211 18.6781 31.7797 20.7273 29.8984ZM28.2859 1.17578C34.9039 1.17578 40.2789 8.02891 40.2789 16.4273C40.2789 24.8258 34.9039 31.6789 28.2859 31.6789C25.8 31.6453 23.4484 30.7383 21.6008 29.0922C22.2727 28.3867 22.8773 27.5805 22.9109 27.5469C24.3219 28.9914 26.2703 29.8313 28.2859 29.8648C32.8211 29.8648 36.4828 25.632 36.4828 20.4586C36.4828 15.2852 32.7875 11.0523 28.2859 11.0523C27.4125 11.0523 26.5727 11.2203 25.7664 11.4891C25.0609 8.63359 23.6164 5.84531 21.6008 3.7625C23.4148 2.11641 25.8 1.20938 28.2859 1.17578ZM26.0016 12.6648C26.707 12.3625 27.4797 12.2281 28.2523 12.2281C32.1156 12.2281 35.2734 15.9234 35.2734 20.4586C35.2734 24.9938 32.1156 28.6891 28.2523 28.6891C26.4719 28.6555 24.7586 27.9164 23.5492 26.5727C25.2289 23.9188 26.3375 20.2906 26.3375 16.4609C26.3711 15.2516 26.2031 13.7398 26.0016 12.6648ZM1.17578 16.4273C1.17578 8.02891 6.55078 1.17578 13.1687 1.17578C20.3914 1.17578 25.1953 8.80156 25.1953 16.4273C25.1953 25.6992 19.1484 31.6789 13.2023 31.6789C6.58437 31.6789 1.17578 24.8258 1.17578 16.4273Z" fill="#CACACA"/>
<path d="M5.07267 14.714C4.73673 14.6804 4.46798 14.9492 4.43438 15.2515C4.40079 15.6211 3.8297 23.9859 8.56642 27.8492C8.80157 28.0507 9.2047 28.0172 9.40626 27.782C9.60782 27.5468 9.57423 27.1437 9.33907 26.9422C5.07267 23.4484 5.61017 15.4195 5.61017 15.3187C5.64376 15.0164 5.4086 14.714 5.07267 14.714Z" fill="#CACACA"/>
<path d="M16.9648 5.94614C17.2 5.71099 17.2 5.34146 16.9648 5.1063C16.7297 4.87114 16.3601 4.87114 16.125 5.1063C15.8898 5.34146 15.8898 5.71099 16.125 5.94614C16.3601 6.1813 16.7297 6.1813 16.9648 5.94614Z" fill="#CACACA"/>
<path d="M16.2593 9.27183C16.5953 9.27183 16.8304 9.00308 16.864 8.70073C16.864 8.3648 16.5953 8.12964 16.2929 8.12964C15.957 8.12964 15.6882 8.39839 15.6882 8.70073C15.6882 9.00308 15.957 9.27183 16.2593 9.27183Z" fill="#CACACA"/>
<path d="M19.8875 7.2227C19.8875 6.92036 19.6523 6.65161 19.3164 6.65161C18.9804 6.65161 18.7117 6.92036 18.7117 7.2227C18.7117 7.55864 18.9804 7.82739 19.3164 7.7938C19.6187 7.7938 19.8875 7.55864 19.8875 7.2227Z" fill="#CACACA"/>
</svg>
