<svg width="28" height="37" viewBox="0 0 28 37" fill="none" xmlns="http://www.w3.org/2000/svg">
<path d="M17.4482 5.30409L21.1227 3.4409C21.5511 3.22223 21.8757 2.8431 22.0259 2.38612C22.176 1.92914 22.1395 1.43134 21.9242 1.00118C21.9177 0.988417 21.9106 0.975949 21.9028 0.96348C21.6797 0.543608 21.3008 0.228035 20.8474 0.0845882C20.3941 -0.0588586 19.9026 -0.0187279 19.4786 0.196355L14.9477 2.49446C14.5629 2.6907 14.2599 3.0167 14.0924 3.41478L13.0762 5.86014H5.38828C4.9063 5.86069 4.44422 6.05242 4.10343 6.39326C3.76264 6.7341 3.57099 7.19622 3.57052 7.6782V9.60789L0.0555157 16.5978C0.0191766 16.6702 0.000171167 16.7501 0 16.8312V34.937C0.000550017 35.4189 0.192241 35.8809 0.533019 36.2217C0.873797 36.5625 1.33583 36.7542 1.81777 36.7547H25.6432C26.1246 36.7527 26.5858 36.5605 26.9263 36.2201C27.2667 35.8796 27.4589 35.4184 27.4609 34.937V17.1117C27.4566 16.8371 27.3899 16.5671 27.2659 16.322L23.8904 9.6061V7.67642C23.8896 7.19464 23.6978 6.73283 23.3571 6.39225C23.0163 6.05166 22.5544 5.86009 22.0727 5.85954H17.016L17.084 5.69626C17.1542 5.52594 17.2836 5.38669 17.4482 5.30409ZM23.8904 11.9197L26.3373 16.7884C26.3903 16.893 26.4192 17.0081 26.4219 17.1254V34.0487L23.8904 29.0107V11.9197ZM23.8904 31.3243L26.0398 35.602C25.9204 35.6752 25.7832 35.7145 25.6432 35.7157H23.8916L23.8904 31.3243ZM19.9479 1.1232C20.0389 1.07647 20.1382 1.04835 20.2402 1.0405C20.3421 1.03265 20.4446 1.04522 20.5417 1.07748C20.639 1.1093 20.729 1.16004 20.8066 1.22678C20.8842 1.29353 20.9478 1.37496 20.9938 1.46639C20.9983 1.4747 21.003 1.48331 21.0081 1.49192C21.0923 1.67504 21.1025 1.88364 21.0366 2.07412C20.9706 2.2646 20.8336 2.42222 20.6542 2.51406L18.2934 3.71165L16.9462 2.64676L19.9479 1.1232ZM14.4344 5.29696L15.7065 6.30011L15.6732 6.38056L15.6973 6.32118L15.705 6.30248L15.6973 6.32118L13.27 12.1634H11.5811L14.4344 5.29696ZM4.60958 7.67761C4.60981 7.47113 4.69192 7.27317 4.8379 7.12713C4.98387 6.9811 5.1818 6.89892 5.38828 6.8986H12.6436L11.682 9.20948H4.60958V7.67761ZM19.2841 35.7148H1.81777C1.61131 35.7145 1.41338 35.6324 1.2674 35.4864C1.12142 35.3405 1.0393 35.1425 1.03906 34.9361V29.6517H19.2841V35.7148ZM19.2841 28.6126H1.03906V22.7909H19.2841V28.6126ZM19.2841 21.751H1.03906V17.3507H19.2841V21.751ZM1.36206 16.3116L4.41037 10.2485H11.2513L10.4556 12.1634H8.80234C8.66456 12.1634 8.53241 12.2181 8.43498 12.3156C8.33755 12.413 8.28281 12.5451 8.28281 12.6829C8.28281 12.8207 8.33755 12.9529 8.43498 13.0503C8.53241 13.1477 8.66456 13.2024 8.80234 13.2024H16.2005C16.3383 13.2024 16.4704 13.1477 16.5678 13.0503C16.6653 12.9529 16.72 12.8207 16.72 12.6829C16.72 12.5451 16.6653 12.413 16.5678 12.3156C16.4704 12.2181 16.3383 12.1634 16.2005 12.1634H14.3955L15.1914 10.2485H22.5284L19.48 16.3116H1.36206ZM22.8514 35.7148H20.6432L22.8514 31.321V35.7148ZM22.8514 29.009L20.3232 34.0377V16.9478C20.5743 16.4479 22.5753 12.4683 22.8514 11.9191V29.009ZM22.0727 6.8986C22.2791 6.89892 22.4771 6.9811 22.623 7.12713C22.769 7.27317 22.8511 7.47113 22.8514 7.67761V9.20948H15.6233L16.584 6.8986H22.0727ZM16.9789 4.37695C16.5924 4.5717 16.2889 4.899 16.1239 5.29904L16.1218 5.30439L14.8485 4.30006L15.0492 3.81704C15.1213 3.64598 15.2514 3.50584 15.4167 3.42131L15.9256 3.16303L17.2728 4.22792L16.9789 4.37695Z" fill="#CACACA"/>
<path d="M15.6973 6.32356L15.7048 6.30542L15.6973 6.32356Z" fill="#CACACA"/>
<path d="M6.36238 27.6993C6.50017 27.6993 6.63232 27.6445 6.72975 27.5471C6.82718 27.4497 6.88191 27.3175 6.88191 27.1797V24.5821C6.88192 24.4793 6.85144 24.3788 6.79434 24.2934C6.73724 24.2079 6.65607 24.1413 6.56111 24.102C6.46615 24.0627 6.36166 24.0524 6.26086 24.0725C6.16007 24.0926 6.06749 24.1421 5.99485 24.2148L5.06386 25.1461L4.13286 24.2151C4.06022 24.1425 3.9677 24.0931 3.86698 24.0731C3.76626 24.053 3.66187 24.0633 3.56698 24.1026C3.47209 24.1418 3.39097 24.2083 3.33386 24.2937C3.27674 24.379 3.2462 24.4794 3.24609 24.5821V27.1788C3.24609 27.3166 3.30083 27.4488 3.39826 27.5462C3.49569 27.6436 3.62784 27.6984 3.76562 27.6984C3.90341 27.6984 4.03556 27.6436 4.13299 27.5462C4.23042 27.4488 4.28515 27.3166 4.28515 27.1788V25.8367L4.69662 26.2481C4.74482 26.2964 4.80206 26.3347 4.86508 26.3608C4.92809 26.387 4.99564 26.4004 5.06386 26.4004C5.13207 26.4004 5.19962 26.387 5.26263 26.3608C5.32565 26.3347 5.38289 26.2964 5.43109 26.2481L5.84285 25.8367V27.1791C5.84274 27.2474 5.85609 27.3151 5.88215 27.3782C5.90821 27.4413 5.94647 27.4986 5.99472 27.547C6.04298 27.5953 6.1003 27.6336 6.16338 27.6597C6.22647 27.6859 6.2941 27.6993 6.36238 27.6993Z" fill="#CACACA"/>
<path d="M8.82935 27.1791V24.582C8.82935 24.4442 8.77461 24.3121 8.67718 24.2147C8.57975 24.1172 8.4476 24.0625 8.30981 24.0625C8.17203 24.0625 8.03988 24.1172 7.94245 24.2147C7.84502 24.3121 7.79028 24.4442 7.79028 24.582V27.1788C7.79028 27.3166 7.84502 27.4487 7.94245 27.5462C8.03988 27.6436 8.17203 27.6983 8.30981 27.6983C8.4476 27.6983 8.57975 27.6436 8.67718 27.5462C8.77461 27.4487 8.82935 27.3166 8.82935 27.1788V27.1791Z" fill="#CACACA"/>
<path d="M13.5031 24.0627C13.3653 24.0628 13.2332 24.1176 13.1358 24.215C13.0384 24.3124 12.9836 24.4445 12.9835 24.5823V27.179C12.9835 27.3168 13.0383 27.449 13.1357 27.5464C13.2331 27.6438 13.3653 27.6986 13.5031 27.6986C13.6408 27.6986 13.773 27.6438 13.8704 27.5464C13.9678 27.449 14.0226 27.3168 14.0226 27.179V26.4858L15.0278 27.4914C15.0757 27.541 15.133 27.5806 15.1964 27.6078C15.2598 27.6351 15.328 27.6494 15.397 27.65C15.4659 27.6506 15.5344 27.6375 15.5982 27.6114C15.6621 27.5853 15.7201 27.5467 15.7689 27.4979C15.8177 27.4492 15.8562 27.3912 15.8824 27.3273C15.9085 27.2635 15.9217 27.1951 15.9211 27.1261C15.9205 27.0571 15.9062 26.9889 15.879 26.9255C15.8518 26.8622 15.8122 26.8048 15.7626 26.7569L14.6416 25.6359L15.4509 24.9887C15.5041 24.9461 15.5485 24.8934 15.5814 24.8336C15.6143 24.7738 15.6351 24.7081 15.6426 24.6403C15.6502 24.5725 15.6443 24.5039 15.6253 24.4383C15.6063 24.3728 15.5745 24.3117 15.5319 24.2584C15.4893 24.2051 15.4366 24.1608 15.3768 24.1278C15.317 24.0949 15.2513 24.0741 15.1835 24.0666C15.1157 24.0591 15.0471 24.065 14.9815 24.084C14.916 24.103 14.8549 24.1347 14.8016 24.1773L14.0226 24.8008V24.582C14.0225 24.4442 13.9677 24.3122 13.8703 24.2148C13.7729 24.1174 13.6408 24.0627 13.5031 24.0627Z" fill="#CACACA"/>
<path d="M10.2571 24.0627C10.1193 24.0627 9.98715 24.1175 9.88972 24.2149C9.79229 24.3123 9.73755 24.4445 9.73755 24.5823V27.179C9.73743 27.2473 9.75079 27.315 9.77685 27.3781C9.80291 27.4412 9.84116 27.4986 9.88942 27.5469C9.93768 27.5952 9.99499 27.6335 10.0581 27.6596C10.1212 27.6858 10.1888 27.6992 10.2571 27.6992H11.8801C12.0179 27.6992 12.15 27.6444 12.2475 27.547C12.3449 27.4496 12.3996 27.3174 12.3996 27.1796C12.3996 27.0418 12.3449 26.9097 12.2475 26.8123C12.15 26.7148 12.0179 26.6601 11.8801 26.6601H10.7769V24.582C10.7767 24.4442 10.7219 24.3121 10.6244 24.2148C10.527 24.1174 10.3948 24.0627 10.2571 24.0627Z" fill="#CACACA"/>
</svg>
