<svg width="42" height="42" viewBox="0 0 42 42" fill="none" xmlns="http://www.w3.org/2000/svg">
<g clip-path="url(#clip0_0_1190)">
<path d="M23.8547 0.984465C23.6906 0.721965 23.3297 0.65634 23.0672 0.820403C23.0016 0.853215 22.9688 0.886028 22.9359 0.951653C21.9516 2.23134 20.6719 3.24853 19.1625 3.87197C17.4563 4.4954 16.1438 5.93915 15.6516 7.67822C13.65 8.4329 12.1734 10.2048 11.8125 12.3376C11.7797 12.3704 10.2375 13.6501 10.0078 16.1438H7.61251C7.12032 16.1438 6.66095 16.3407 6.30001 16.6688C5.57814 17.3907 5.57814 18.5392 6.30001 19.261C6.66095 19.622 7.12032 19.786 7.61251 19.786H8.20314C8.23595 19.9173 10.5328 38.1282 10.3688 36.947C10.4672 37.6688 10.9594 38.2595 11.6813 38.4892V39.4407C11.6813 40.4251 12.4688 41.2454 13.4859 41.2454H28.4813C29.4656 41.2454 30.2859 40.4251 30.2859 39.4407V38.4892C30.975 38.2923 31.5 37.6688 31.5984 36.947C31.8938 34.4204 33.6656 20.7376 33.7641 19.786H34.3875C35.4047 19.786 36.225 18.9657 36.225 17.9485C36.225 16.9313 35.4047 16.111 34.3875 16.111H31.9922C31.8609 14.7001 31.2375 13.3876 30.2203 12.3704L33.8953 8.20322C34.9781 6.95634 34.8797 5.05322 33.6328 3.93759C32.3859 2.82197 30.4828 2.95322 29.3672 4.20009L26.3484 7.6454C26.3484 7.6454 26.3484 7.6454 26.3156 7.6454C25.9547 6.23447 25.0359 5.05322 23.7891 4.29853C24.7406 3.11728 24.2813 1.67353 23.8547 0.984465ZM29.1375 39.4735C29.1375 39.8345 28.8422 40.1298 28.4813 40.1298H13.4859C13.125 40.1298 12.8297 39.8345 12.8297 39.4735V38.6204H29.1375V39.4735ZM30.45 36.8485C30.4172 37.2095 30.1219 37.4392 29.7609 37.472H12.2063C11.8453 37.472 11.55 37.2095 11.5172 36.8813L11.2219 34.3876H30.7453L30.45 36.8485ZM31.2375 30.8438H29.0391C27.9891 30.8438 27.1359 29.9907 27.1359 28.9407C27.1359 27.8907 27.9891 27.0376 29.0391 27.0376H31.7297L31.2375 30.8438ZM31.8609 25.8892H29.0063C27.3328 25.8892 25.9547 27.2673 25.9547 28.9407C25.9547 30.6142 27.3328 31.9923 29.0063 31.9923H31.0734L30.9094 33.2063H11.0906C10.7953 31.0079 10.2375 26.7423 9.97501 24.6751H32.025L31.8609 25.8892ZM32.1891 23.5267H9.81095L9.35157 19.8517H32.6156L32.1891 23.5267ZM34.4203 17.2923C34.8141 17.2923 35.1094 17.5876 35.1094 17.9813C35.1094 18.3751 34.8141 18.6704 34.4203 18.6704H7.5797C7.21876 18.6704 6.89064 18.3751 6.89064 17.9813C6.89064 17.5876 7.18595 17.2923 7.5797 17.2923H34.4203ZM30.2859 5.0204C30.975 4.2329 32.1563 4.16728 32.9109 4.85634C33.6656 5.5454 33.7641 6.72665 33.075 7.48134L29.8594 11.1235C29.4328 10.0079 28.5141 8.89228 27.4313 8.23603L30.2859 5.0204ZM25.1672 7.71103C24.4125 8.03915 23.7234 8.49853 23.1328 9.08915C22.9031 9.31884 22.9031 9.67978 23.1328 9.90947C23.3625 10.1392 23.7234 10.1392 23.9531 9.90947C24.4781 9.38447 25.1344 8.9579 25.8234 8.72822C27.2344 9.2204 28.3828 10.3688 28.875 11.911C27.3328 11.6813 24.5766 11.4845 23.1328 12.7313C22.9031 12.9282 22.8703 13.2892 23.0672 13.5517C23.2641 13.7813 23.625 13.8142 23.8875 13.6173C25.0359 12.6329 27.8578 12.8626 29.3344 13.1579C30.1547 13.9454 30.6797 15.0282 30.8109 16.1438H11.1234C11.2547 15.061 11.7141 14.0767 12.4688 13.2892C14.1094 12.6329 18.3094 11.1892 21.7875 12.3048C22.0828 12.4032 22.4109 12.2392 22.5094 11.9438C22.6078 11.6485 22.4438 11.3204 22.1484 11.222C18.9328 10.172 15.2578 11.0907 13.0922 11.8126C13.5844 10.336 14.7328 9.18759 16.2094 8.6954C16.9641 8.72822 18.8016 8.99072 19.7203 9.90947C19.95 10.1392 20.3109 10.1392 20.5406 9.90947C20.7703 9.67978 20.7703 9.31884 20.5406 9.08915C19.4906 8.03915 17.8172 7.71103 16.8656 7.57978C17.325 6.3329 18.3094 5.38134 19.5563 4.92197C20.9344 4.36415 22.1813 3.51103 23.1656 2.3954C23.2969 3.01884 23.0344 3.67509 22.5094 4.03603C22.1484 4.29853 22.2469 4.85634 22.6406 5.0204C23.8219 5.51259 24.7734 6.46415 25.1672 7.71103Z" fill="#CACACA"/>
</g>
<defs>
<clipPath id="clip0_0_1190">
<rect width="42" height="42" fill="white"/>
</clipPath>
</defs>
</svg>
