<?xml version="1.0" standalone="no"?>
<!DOCTYPE svg PUBLIC "-//W3C//DTD SVG 1.1//EN" "http://www.w3.org/Graphics/SVG/1.1/DTD/svg11.dtd" >
<svg xmlns="http://www.w3.org/2000/svg" xmlns:xlink="http://www.w3.org/1999/xlink" version="1.1">
<metadata>
Created by FontForge 20190801 at Tue Mar 12 16:34:47 2019
 By Jimmy Wärting
Copyright (c) - ARABIC - Boutros International, 2019. Copyright (c) - LATIN - URW Type Foundry, 2019. All rights reserved.
</metadata>
<defs>
<font id="URWDINArabic-Regular" horiz-adv-x="540" >
  <font-face 
    font-family="URW DIN Arabic"
    font-weight="400"
    font-stretch="normal"
    units-per-em="1000"
    panose-1="0 0 0 0 0 0 0 0 0 0"
    ascent="750"
    descent="-250"
    x-height="502"
    cap-height="714"
    bbox="-136 -600 1414 1028"
    underline-thickness="59"
    underline-position="-174"
    unicode-range="U+0020-FEFC"
  />
<missing-glyph horiz-adv-x="200" 
d="M20 0v667h160v-667h-160zM160 20v627h-120v-627h120z" />
    <glyph glyph-name="fi" unicode="fi" horiz-adv-x="587" 
d="M110 436h-62v66h62v81q0 81 35 108q31 24 106 23h46v-65h-29q-47 2 -63 -13.5t-16 -62.5v-71h114v-66h-114v-436h-79v436zM420 611v106h79v-106h-79zM420 0v502h79v-502h-79z" />
    <glyph glyph-name="fl" unicode="fl" horiz-adv-x="624" 
d="M110 436h-62v66h62v81q0 81 35 108q31 24 106 23h46v-65h-29q-47 2 -63 -13.5t-16 -62.5v-71h114v-66h-114v-436h-79v436zM419 714h79v-554q0 -54 18 -74t67 -19h26v-67h-29q-101 0 -133 39q-28 35 -28 128v547z" />
    <glyph glyph-name="uni067E0649" unicode="&#xfb58;&#xfef0;" horiz-adv-x="1074" 
d="M987 485v-278q0 -107 -57 -161q-49 -46 -134 -46h-110q0 -52 -29 -108q-35 -66 -99 -105q-76 -47 -181 -47q-152 0 -238 95q-76 83 -76 214q0 107 49 188l57 -38q-33 -70 -33 -141q0 -126 76 -193q64 -57 166 -57q118 0 185 78q45 52 45 102q0 12 -12 12h-138v65h338
q57 0 87 41q26 36 26 94v285h78zM846 -210h-67v102h67v-102zM985 -210h-67v102h67v-102zM914 -346h-63v90h63v-90z" />
    <glyph glyph-name="uni067E0649.fina" unicode="&#xfb59;&#xfef0;" horiz-adv-x="1090" 
d="M1107 0h-120q-57 0 -71 30q-43 -30 -114 -30h-116q0 -52 -29 -108q-35 -66 -99 -105q-76 -47 -181 -47q-152 0 -238 95q-76 83 -76 214q0 107 49 188l57 -38q-33 -70 -33 -141q0 -126 76 -193q64 -57 166 -57q118 0 185 78q45 52 45 102q0 12 -12 12h-138v65h344
q58 0 88 41q25 35 25 94v285h78v-278q0 -84 -39 -132q8 -10 33 -10h120v-65zM845 -108v-102h-67v102h67zM985 -108v-102h-67v102h67zM913 -346h-63v90h63v-90z" />
    <glyph glyph-name="uni067E064A" unicode="&#xfb58;&#xfef2;" horiz-adv-x="1074" 
d="M987 485v-278q0 -107 -57 -161q-49 -46 -134 -46h-110q0 -52 -29 -108q-35 -66 -99 -105q-76 -47 -181 -47q-152 0 -238 95q-76 83 -76 214q0 107 49 188l57 -38q-33 -70 -33 -141q0 -126 76 -193q64 -57 166 -57q118 0 185 78q45 52 45 102q0 12 -12 12h-138v65h338
q57 0 87 41q26 36 26 94v285h78zM846 -210h-67v102h67v-102zM985 -210h-67v102h67v-102zM914 -346h-63v90h63v-90zM337 -464h-67v102h67v-102zM476 -464h-67v102h67v-102z" />
    <glyph glyph-name="uni067E064A.fina" unicode="&#xfb59;&#xfef2;" horiz-adv-x="1090" 
d="M1107 0h-120q-57 0 -71 30q-43 -30 -114 -30h-116q0 -52 -29 -108q-35 -66 -99 -105q-76 -47 -181 -47q-152 0 -238 95q-76 83 -76 214q0 107 49 188l57 -38q-33 -70 -33 -141q0 -126 76 -193q64 -57 166 -57q118 0 185 78q45 52 45 102q0 12 -12 12h-138v65h344
q58 0 88 41q25 35 25 94v285h78v-278q0 -84 -39 -132q8 -10 33 -10h120v-65zM845 -108v-102h-67v102h67zM985 -108v-102h-67v102h67zM913 -346h-63v90h63v-90zM339 -464h-67v102h67v-102zM478 -464h-67v102h67v-102z" />
    <glyph glyph-name="uni067E0626" unicode="&#xfb58;&#xfe8a;" horiz-adv-x="1074" 
d="M232 340h-167v43h32q-13 18 -13 42q0 32 21.5 52.5t54.5 20.5q20 0 39 -11t26 -27l-35 -20l-1 1q-12 18 -30 18q-29 0 -29 -36q0 -17 12.5 -28t32.5 -12h57v-43zM987 485v-278q0 -107 -57 -161q-49 -46 -134 -46h-110q0 -52 -29 -108q-35 -66 -99 -105q-76 -47 -181 -47
q-152 0 -238 95q-76 83 -76 214q0 107 49 188l57 -38q-33 -70 -33 -141q0 -126 76 -193q64 -57 166 -57q118 0 185 78q45 52 45 102q0 12 -12 12h-138v65h338q57 0 87 41q26 36 26 94v285h78zM846 -210h-67v102h67v-102zM985 -210h-67v102h67v-102zM914 -346h-63v90h63v-90z
" />
    <glyph glyph-name="uni067E0626.fina" unicode="&#xfb59;&#xfe8a;" horiz-adv-x="1090" 
d="M232 340h-167v43h32q-13 18 -13 42q0 32 21.5 52.5t54.5 20.5q20 0 39 -11t26 -27l-35 -20l-1 1q-12 18 -30 18q-29 0 -29 -36q0 -17 12.5 -28t32.5 -12h57v-43zM1107 0h-120q-57 0 -71 30q-43 -30 -114 -30h-116q0 -52 -29 -108q-35 -66 -99 -105q-76 -47 -181 -47
q-152 0 -238 95q-76 83 -76 214q0 107 49 188l57 -38q-33 -70 -33 -141q0 -126 76 -193q64 -57 166 -57q118 0 185 78q45 52 45 102q0 12 -12 12h-138v65h344q58 0 88 41q25 35 25 94v285h78v-278q0 -84 -39 -132q8 -10 33 -10h120v-65zM845 -108v-102h-67v102h67zM985 -108
v-102h-67v102h67zM913 -346h-63v90h63v-90z" />
    <glyph glyph-name="uni06440671" unicode="&#xfedf;&#xfb51;" horiz-adv-x="661" 
d="M179 757q26 75 92 78h6q40 0 64 -25q20 -21 20 -51q0 -35 -21 -56.5t-56 -21.5h-6q-25 1 -60 18q-2 0 -3 1l-3 1q-31 15 -48 15q-20 0 -33 -28l-35 22q27 49 65 49q8 0 18 -2zM222 744q42 -22 57 -22q16 0 25.5 9t9.5 25q0 39 -41 39q-14 0 -28 -14t-23 -37zM56 0v65h139
v501h78v-501h110q57 0 87 41q26 36 26 94v514h77v-507q0 -108 -56 -161q-48 -46 -134 -46h-327z" />
    <glyph glyph-name="uni06440671.fina" unicode="&#xfee0;&#xfb51;" horiz-adv-x="661" 
d="M275 835q42 0 66 -25q20 -20 20 -51q0 -36 -21.5 -57t-57.5 -21q-26 0 -67 19l-3 1q-31 15 -48 15q-20 0 -33 -28l-35 22q27 49 65 49q8 0 18 -2q27 78 96 78zM275 795q-14 0 -29.5 -14.5t-23.5 -36.5q42 -22 58 -22q15 0 24.5 9.5t9.5 24.5q0 39 -39 39zM573 714v-507
q0 -108 -56 -161q-48 -46 -134 -46h-327v65h138v501h78v-501h111q57 0 87 41q26 36 26 94v514h77z" />
    <glyph glyph-name="uni064A0626" unicode="&#xfef3;&#xfe8a;" horiz-adv-x="1074" 
d="M232 340h-167v43h32q-13 18 -13 42q0 32 21.5 52.5t54.5 20.5q20 0 39 -11t26 -27l-35 -20l-1 1q-12 18 -30 18q-29 0 -29 -36q0 -17 12.5 -28t32.5 -12h57v-43zM986 485v-278q0 -107 -57 -161q-49 -46 -134 -46h-109q0 -52 -29 -108q-35 -66 -99 -105q-76 -47 -181 -47
q-152 0 -238 95q-76 83 -76 214q0 107 49 188l57 -38q-33 -70 -33 -141q0 -126 76 -193q64 -57 166 -57q118 0 185 78q45 52 45 102q0 12 -12 12h-138v65h337q58 0 88 41q25 35 25 94v285h78zM779 -108h67v-102h-67v102zM918 -108h67v-102h-67v102z" />
    <glyph glyph-name="uni064A0626.fina" unicode="&#xfef4;&#xfe8a;" horiz-adv-x="1090" 
d="M232 340h-167v43h32q-13 18 -13 42q0 32 21.5 52.5t54.5 20.5q20 0 39 -11t26 -27l-35 -20l-1 1q-12 18 -30 18q-29 0 -29 -36q0 -17 12.5 -28t32.5 -12h57v-43zM1107 0h-120q-57 0 -71 30q-43 -30 -114 -30h-116q0 -52 -29 -108q-35 -66 -99 -105q-76 -47 -181 -47
q-152 0 -238 95q-76 83 -76 214q0 107 49 188l57 -38q-33 -70 -33 -141q0 -126 76 -193q64 -57 166 -57q118 0 185 78q45 52 45 102q0 12 -12 12h-138v65h344q58 0 88 41q25 35 25 94v285h78v-278q0 -84 -39 -132q8 -10 33 -10h120v-65zM845 -108v-102h-67v102h67zM985 -108
v-102h-67v102h67z" />
    <glyph glyph-name="ff" unicode="ff" horiz-adv-x="637" 
d="M110 436h-62v66h62v81q0 81 35 108q31 24 106 23h42v-65h-25q-47 2 -63 -13.5t-16 -62.5v-71h100v-66h-100v-436h-79v436zM416 436h-63v66h63v81q0 81 35 108q31 24 106 23h45v-65h-28q-48 1 -63.5 -13.5t-15.5 -62.5v-71h113v-66h-113v-436h-79v436z" />
    <glyph glyph-name="ffi" unicode="ffi" horiz-adv-x="892" 
d="M110 436h-62v66h62v81q0 81 35 108q31 24 106 23h42v-65h-25q-47 2 -63 -13.5t-16 -62.5v-71h100v-66h-100v-436h-79v436zM415 436h-62v66h62v81q0 81 35 108q31 24 106 23h46v-65h-29q-47 2 -63 -13.5t-16 -62.5v-71h114v-66h-114v-436h-79v436zM725 611v106h79v-106
h-79zM725 0v502h79v-502h-79z" />
    <glyph glyph-name="ffl" unicode="ffl" horiz-adv-x="928" 
d="M110 436h-62v66h62v81q0 81 35 108q31 24 106 23h42v-65h-25q-47 2 -63 -13.5t-16 -62.5v-71h100v-66h-100v-436h-79v436zM415 436h-62v66h62v81q0 81 35 108q31 24 106 23h46v-65h-29q-47 2 -63 -13.5t-16 -62.5v-71h114v-66h-114v-436h-79v436zM724 714h79v-554
q0 -54 18 -74t67 -19h26v-67h-29q-101 0 -133 39q-28 35 -28 128v547z" />
    <glyph glyph-name="uniFC59" unicode="&#xfef3;&#xfef0;" horiz-adv-x="1074" arabic-form="isolated" 
d="M986 485v-278q0 -107 -57 -161q-49 -46 -134 -46h-109q0 -52 -29 -108q-35 -66 -99 -105q-76 -47 -181 -47q-152 0 -238 95q-76 83 -76 214q0 107 49 188l57 -38q-33 -70 -33 -141q0 -126 76 -193q64 -57 166 -57q118 0 185 78q45 52 45 102q0 12 -12 12h-138v65h337
q58 0 88 41q25 35 25 94v285h78zM779 -108h67v-102h-67v102zM918 -108h67v-102h-67v102z" />
    <glyph glyph-name="uniFC5A" unicode="&#xfef3;&#xfef2;" horiz-adv-x="1074" arabic-form="isolated" 
d="M986 485v-278q0 -107 -57 -161q-49 -46 -134 -46h-109q0 -52 -29 -108q-35 -66 -99 -105q-76 -47 -181 -47q-152 0 -238 95q-76 83 -76 214q0 107 49 188l57 -38q-33 -70 -33 -141q0 -126 76 -193q64 -57 166 -57q118 0 185 78q45 52 45 102q0 12 -12 12h-138v65h337
q58 0 88 41q25 35 25 94v285h78zM779 -108h67v-102h-67v102zM918 -108h67v-102h-67v102zM272 -362h67v-102h-67v102zM411 -362h67v-102h-67v102z" />
    <glyph glyph-name="uniFC95" unicode="&#xfef4;&#xfef0;" horiz-adv-x="1090" arabic-form="final" 
d="M1107 0h-120q-57 0 -71 30q-43 -30 -114 -30h-116q0 -52 -29 -108q-35 -66 -99 -105q-76 -47 -181 -47q-152 0 -238 95q-76 83 -76 214q0 107 49 188l57 -38q-33 -70 -33 -141q0 -126 76 -193q64 -57 166 -57q118 0 185 78q45 52 45 102q0 12 -12 12h-138v65h344
q58 0 88 41q25 35 25 94v285h78v-278q0 -84 -39 -132q8 -10 33 -10h120v-65zM845 -108v-102h-67v102h67zM985 -108v-102h-67v102h67z" />
    <glyph glyph-name="uniFC96" unicode="&#xfef4;&#xfef2;" horiz-adv-x="1090" arabic-form="final" 
d="M1107 0h-120q-57 0 -71 30q-43 -30 -114 -30h-116q0 -52 -29 -108q-35 -66 -99 -105q-76 -47 -181 -47q-152 0 -238 95q-76 83 -76 214q0 107 49 188l57 -38q-33 -70 -33 -141q0 -126 76 -193q64 -57 166 -57q118 0 185 78q45 52 45 102q0 12 -12 12h-138v65h344
q58 0 88 41q25 35 25 94v285h78v-278q0 -84 -39 -132q8 -10 33 -10h120v-65zM845 -108v-102h-67v102h67zM985 -108v-102h-67v102h67zM339 -464h-67v102h67v-102zM478 -464h-67v102h67v-102z" />
    <glyph glyph-name="uniFDF2" unicode="&#x627;&#xfedf;&#xfee0;&#xfeea;" horiz-adv-x="1250" arabic-form="isolated" 
d="M811 869h-46v159h46v-159zM922 808v-80q0 -80 -82 -80q-33 0 -52 16q-19 -16 -52 -16q-82 0 -82 80v80h46v-84q0 -33 33 -33q32 0 32 33v69h46v-69q0 -33 32 -33q33 0 33 33v84h46zM1163 539v-332q0 -107 -57 -161q-49 -46 -134 -46h-152q-55 0 -71 30q-45 -30 -113 -30
h-55q-102 0 -149 79q-27 -24 -72.5 -39.5t-87.5 -15.5q-195 0 -195 216v39q0 216 196 216q72 0 127 -29v48h78v-314q0 -65 31 -102q29 -33 76 -33h51q57 0 87 41q26 36 26 94v339h77v-332q0 -84 -39 -132q8 -10 33 -10h152q57 0 87 41q26 36 26 94v339h78zM278 431
q-124 0 -124 -145v-53q0 -145 122 -145q34 0 69.5 14.5t60.5 38.5q-6 24 -6 91v161q-44 38 -122 38z" />
    <glyph glyph-name="uniFEF5" unicode="&#xfedf;&#xfe82;" horiz-adv-x="661" arabic-form="isolated" 
d="M186 753q19 0 45 -13q1 -1 6 -4q27 -15 39 -15q16 0 31 28l34 -22q-27 -48 -64 -48q-19 0 -49 18q-25 14 -39 14q-18 0 -33 -28l-34 22q27 48 64 48zM573 714v-507q0 -108 -56 -161q-48 -46 -134 -46h-327v65h138v501h78v-501h111q57 0 87 41q26 36 26 94v514h77z" />
    <glyph glyph-name="uniFEF6" unicode="&#xfee0;&#xfe82;" horiz-adv-x="670" arabic-form="final" 
d="M186 753q19 0 45 -13q1 -1 6 -4q27 -15 39 -15q16 0 31 28l34 -22q-27 -48 -64 -48q-19 0 -49 18q-25 14 -39 14q-18 0 -33 -28l-34 22q27 48 64 48zM687 0h-120q-55 0 -71 29q-44 -29 -113 -29h-327v65h138v501h78v-501h111q57 0 87 41q26 36 26 94v514h77v-507
q0 -85 -39 -132q9 -10 33 -10h120v-65z" />
    <glyph glyph-name="uniFEF7" unicode="&#xfedf;&#xfe84;" horiz-adv-x="661" arabic-form="isolated" 
d="M315 679h-167v43h32q-13 18 -13 42q0 32 21.5 52.5t54.5 20.5q20 0 39 -11t26 -27l-35 -20l-1 1q-12 18 -30 18q-29 0 -29 -36q0 -17 12.5 -28t32.5 -12h57v-43zM573 714v-507q0 -108 -56 -161q-48 -46 -134 -46h-327v65h138v501h78v-501h111q57 0 87 41q26 36 26 94v514
h77z" />
    <glyph glyph-name="uniFEF8" unicode="&#xfee0;&#xfe84;" horiz-adv-x="670" arabic-form="final" 
d="M315 679h-167v43h32q-13 18 -13 42q0 32 21.5 52.5t54.5 20.5q20 0 39 -11t26 -27l-35 -20l-1 1q-12 18 -30 18q-29 0 -29 -36q0 -17 12.5 -28t32.5 -12h57v-43zM687 0h-120q-55 0 -71 29q-44 -29 -113 -29h-327v65h138v501h78v-501h111q57 0 87 41q26 36 26 94v514h77
v-507q0 -85 -39 -132q9 -10 33 -10h120v-65z" />
    <glyph glyph-name="uniFEF9" unicode="&#xfedf;&#xfe88;" horiz-adv-x="661" arabic-form="isolated" 
d="M573 714v-507q0 -108 -56 -161q-48 -46 -134 -46h-327v65h138v501h78v-501h111q57 0 87 41q26 36 26 94v514h77zM313 -265h-167v43h32q-13 18 -13 41q0 32 21.5 53t54.5 21q20 0 39 -11t26 -27l-35 -20l-1 1q-12 18 -30 18q-29 0 -29 -36q0 -17 12.5 -28t32.5 -12h57v-43
z" />
    <glyph glyph-name="uniFEFA" unicode="&#xfee0;&#xfe88;" horiz-adv-x="670" arabic-form="final" 
d="M687 0h-120q-55 0 -71 29q-44 -29 -113 -29h-327v65h138v501h78v-501h111q57 0 87 41q26 36 26 94v514h77v-507q0 -85 -39 -132q9 -10 33 -10h120v-65zM313 -265h-167v43h32q-13 18 -13 41q0 32 21.5 53t54.5 21q20 0 39 -11t26 -27l-35 -20l-1 1q-12 18 -30 18
q-29 0 -29 -36q0 -17 12.5 -28t32.5 -12h57v-43z" />
    <glyph glyph-name="uniFEFB" unicode="&#xfedf;&#xfe8e;" horiz-adv-x="661" arabic-form="isolated" 
d="M573 714v-507q0 -108 -56 -161q-48 -46 -134 -46h-327v65h138v501h78v-501h111q57 0 87 41q26 36 26 94v514h77z" />
    <glyph glyph-name="uniFEFC" unicode="&#xfee0;&#xfe8e;" horiz-adv-x="670" arabic-form="final" 
d="M687 0h-120q-55 0 -71 29q-44 -29 -113 -29h-327v65h138v501h78v-501h111q57 0 87 41q26 36 26 94v514h77v-507q0 -85 -39 -132q9 -10 33 -10h120v-65z" />
    <glyph glyph-name="uniFB51" unicode="&#x671;" horiz-adv-x="273" arabic-form="final" 
d="M171 915q42 0 66 -25q20 -20 20 -51q0 -36 -21.5 -57t-57.5 -21q-26 0 -67 19l-3 1q-31 15 -48 15q-20 0 -33 -28l-35 22q27 49 65 49q8 0 18 -2q27 78 96 78zM171 875q-14 0 -29.5 -14.5t-23.5 -36.5q42 -22 58 -22q15 0 24.5 9.5t9.5 24.5q0 39 -39 39zM165 658v-458
q0 -72 36 -106q31 -29 71 -29h20v-65h-24q-79 1 -128 49q-53 55 -53 158v451h78z" />
    <glyph glyph-name="uniFB57" unicode="&#x67e;" horiz-adv-x="890" arabic-form="final" 
d="M907 0h-120q-53 0 -70 30q-45 -30 -113 -30h-321q-110 0 -172 76q-48 60 -48 141q0 128 76 214l55 -38q-60 -72 -60 -170q0 -69 46 -114q44 -44 117 -44h307q57 0 87 41q25 35 25 94v285h78v-278q0 -84 -39 -132q9 -10 32 -10h120v-65zM401 -210h-67v102h67v-102z
M540 -210h-67v102h67v-102zM469 -346h-63v90h63v-90z" />
    <glyph glyph-name="uniFB58" unicode="&#x67e;" horiz-adv-x="328" arabic-form="initial" 
d="M240 485v-278q0 -107 -57 -161q-48 -46 -133 -46h-50v65h50q57 0 87 41q25 35 25 94v285h78zM100 -210h-67v102h67v-102zM239 -210h-67v102h67v-102zM168 -346h-63v90h63v-90z" />
    <glyph glyph-name="uniFB59" unicode="&#x67e;" horiz-adv-x="337" arabic-form="medial" 
d="M354 0h-120q-57 0 -71 30q-45 -30 -113 -30h-50v65h50q57 0 87 41q25 35 25 94v285h78v-278q0 -85 -39 -132q8 -10 33 -10h120v-65zM94 -210h-67v102h67v-102zM233 -210h-67v102h67v-102zM162 -346h-63v90h63v-90z" />
    <glyph glyph-name="uniFB67" unicode="&#x679;" horiz-adv-x="890" arabic-form="final" 
d="M406 744v-73q27 33 72 33q40 0 62 -22t22 -61q0 -75 -78 -75h-155v43h32l-1 155h46zM479 665q-25 0 -45 -21.5t-28 -54.5h83q12 0 19.5 9.5t7.5 24.5q0 19 -10 30.5t-27 11.5zM907 0h-120q-53 0 -70 30q-45 -30 -113 -30h-321q-110 0 -172 76q-48 60 -48 141
q0 128 76 214l55 -38q-60 -72 -60 -170q0 -69 46 -114q44 -44 117 -44h307q57 0 87 41q25 35 25 94v285h78v-278q0 -84 -39 -132q9 -10 32 -10h120v-65z" />
    <glyph glyph-name="uniFB68" unicode="&#x679;" horiz-adv-x="328" arabic-form="initial" 
d="M158 797v-73q28 33 72 33q40 0 62 -22t22 -61q0 -75 -78 -75h-155v43h32l-1 155h46zM232 718q-24 0 -44.5 -21.5t-28.5 -54.5h83q12 0 19.5 9.5t7.5 23.5q0 20 -10 31.5t-27 11.5zM240 485v-278q0 -107 -57 -161q-48 -46 -133 -46h-50v65h50q57 0 87 41q25 35 25 94v285
h78z" />
    <glyph glyph-name="uniFB69" unicode="&#x679;" horiz-adv-x="337" arabic-form="medial" 
d="M158 797v-73q28 33 72 33q40 0 62 -22t22 -61q0 -75 -78 -75h-155v43h32l-1 155h46zM232 718q-24 0 -44.5 -21.5t-28.5 -54.5h83q12 0 19.5 9.5t7.5 23.5q0 20 -10 31.5t-27 11.5zM354 0h-120q-57 0 -71 30q-45 -30 -113 -30h-50v65h50q57 0 87 41q25 35 25 94v285h78
v-278q0 -85 -39 -132q8 -10 33 -10h120v-65z" />
    <glyph glyph-name="uniFB6B" unicode="&#x6a4;" horiz-adv-x="1020" arabic-form="final" 
d="M765 747h-63v90h63v-90zM697 599h-67v102h67v-102zM836 599h-67v102h67v-102zM1037 0h-233q-45 0 -70 13q-25 -13 -70 -13h-381q-110 0 -172 76q-48 60 -48 141q0 128 76 214l55 -38q-60 -72 -60 -170q0 -69 46 -114q44 -44 117 -44h337q-45 30 -76 90t-31 121
q0 107 60 166q55 54 147 54q105 0 161 -69q46 -58 46 -151q0 -70 -39 -136q-30 -49 -68 -75h203v-65zM734 431q-70 0 -104 -58q-24 -41 -24 -95q0 -65 40 -122q34 -49 88 -80q63 36 97 94q31 51 31 108q0 64 -32 107q-35 46 -96 46z" />
    <glyph glyph-name="uniFB6C" unicode="&#x6a4;" horiz-adv-x="641" arabic-form="initial" 
d="M395 747h-63v90h63v-90zM327 599h-67v102h67v-102zM466 599h-67v102h67v-102zM364 496q108 0 156 -59q44 -53 44 -158v-63q0 -119 -57 -171q-49 -45 -143 -45h-364v65h217q-54 45 -54 151v63q0 119 58 172q49 45 143 45zM363 431q-123 0 -123 -145v-77q0 -78 33 -113
q30 -31 90 -31q68 0 98 41q25 35 25 103v77q0 78 -33 113q-30 32 -90 32z" />
    <glyph glyph-name="uniFB6D" unicode="&#x6a4;" horiz-adv-x="632" arabic-form="medial" 
d="M377 747h-63v90h63v-90zM309 599h-67v102h67v-102zM448 599h-67v102h67v-102zM346 496q105 0 161 -69q46 -58 46 -151q0 -70 -39 -136q-30 -49 -68 -75h203v-65h-233q-45 0 -70 13q-25 -13 -70 -13h-276v65h246q-45 30 -76 90t-31 121q0 107 60 166q55 54 147 54z
M346 431q-70 0 -104 -58q-24 -41 -24 -95q0 -65 40 -122q34 -49 88 -80q63 36 97 94q31 51 31 108q0 64 -32 107q-35 46 -96 46z" />
    <glyph glyph-name="uniFB7B" unicode="&#x686;" horiz-adv-x="649" arabic-form="final" 
d="M298 496q136 0 194 -99q20 -33 27.5 -65.5t15.5 -112.5q7 -71 25 -107q13 -27 30 -37t48 -10h27v-65h-293q-73 0 -120 -15q-58 -18 -89 -63q-28 -40 -28 -90q0 -73 53 -123q40 -37 93 -45q10 -2 27 -2l29 -62q-13 -2 -34 -2q-14 0 -38 2q-93 13 -152 76q-57 61 -57 151
q0 77 39 132q38 54 109 82q52 19 146 24h151q-18 23 -27 54.5t-17 98.5q-12 101 -34 143q-17 33 -50 51.5t-76 18.5q-73 0 -128 -73l-60 36q31 48 81 75t108 27zM402 -195h-54v88h54v-88zM523 -195h-54v88h54v-88zM462 -314h-51v78h51v-78z" />
    <glyph glyph-name="uniFB7C" unicode="&#x686;" horiz-adv-x="702" arabic-form="initial" 
d="M304 496q135 0 195 -99q19 -33 27 -65.5t16 -112.5q7 -71 24 -107q13 -27 30 -37t48 -10h2v-65h-646v65h507q-18 23 -27 54.5t-16 98.5q-11 101 -34 143q-37 70 -127 70q-73 0 -128 -73l-60 36q31 48 81 75t108 27zM277 -210h-67v102h67v-102zM416 -210h-67v102h67v-102z
M345 -346h-63v90h63v-90z" />
    <glyph glyph-name="uniFB7D" unicode="&#x686;" horiz-adv-x="651" arabic-form="medial" 
d="M304 496q135 0 195 -99q19 -33 27 -65.5t16 -112.5q7 -71 24 -107q13 -27 30 -37t48 -10h24v-65h-668v65h507q-18 23 -27 54.5t-16 98.5q-11 101 -34 143q-37 70 -127 70q-73 0 -128 -73l-60 36q31 48 81 75t108 27zM277 -210h-67v102h67v-102zM416 -210h-67v102h67v-102
zM345 -346h-63v90h63v-90z" />
    <glyph glyph-name="uniFB89" unicode="&#x688;" horiz-adv-x="530" arabic-form="final" 
d="M240 796v-73q27 33 72 33q40 0 62 -22t22 -61q0 -75 -78 -75h-155v43h32l-1 155h46zM313 717q-25 0 -45 -21.5t-28 -54.5h83q12 0 19.5 9.5t7.5 24.5q0 19 -10 30.5t-27 11.5zM546 0h-102q-55 0 -71 30q-46 -30 -121 -30h-196v65h196q122 -1 122 142q0 113 -65 170
q-49 43 -137 58l32 61q247 -41 247 -287q0 -91 -39 -134q9 -10 32 -10h102v-65z" />
    <glyph glyph-name="uniFB8B" unicode="&#x698;" horiz-adv-x="353" arabic-form="final" 
d="M249 747h-63v90h63v-90zM181 599h-67v102h67v-102zM320 599h-67v102h67v-102zM369 65v-65h-83q-16 0 -30 3q-1 -75 -8.5 -117t-27.5 -75q-43 -71 -146 -71q-67 0 -114 25l24 60q35 -18 79 -18q65 0 90.5 43t25.5 153v482h77v-414q10 -6 29 -6h84z" />
    <glyph glyph-name="uniFB8D" unicode="&#x691;" horiz-adv-x="353" arabic-form="final" 
d="M331 674q0 -75 -78 -75h-155v43h32l-1 155h46v-73q28 33 72 33q40 0 62 -22t22 -61zM248 718q-24 0 -44.5 -21.5t-28.5 -54.5h83q12 0 19.5 9.5t7.5 23.5q0 20 -10 31.5t-27 11.5zM369 65v-65h-83q-16 0 -30 3q-1 -75 -8.5 -117t-27.5 -75q-43 -71 -146 -71
q-67 0 -114 25l24 60q35 -18 79 -18q65 0 90.5 43t25.5 153v482h77v-414q10 -6 29 -6h84z" />
    <glyph glyph-name="uniFB8F" unicode="&#x6a9;" horiz-adv-x="890" arabic-form="final" 
d="M907 0h-120q-53 0 -70 30q-45 -30 -113 -30h-321q-110 0 -172 76q-48 60 -48 141q0 128 76 214l55 -38q-60 -72 -60 -170q0 -69 46 -114q44 -44 117 -44h307q58 0 87 41q25 35 25 94v85q0 67 -33 103q-29 32 -79 32h-213v27q0 21 8 37.5t32 46.5l151 183h88l-188 -229
h122q97 0 146 -60q44 -53 44 -147v-71q0 -84 -39 -132q9 -10 33 -10h119v-65z" />
    <glyph glyph-name="uniFB90" unicode="&#x6a9;" horiz-adv-x="599" arabic-form="initial" 
d="M211 485h121q98 0 147 -60q44 -53 44 -147v-71q0 -107 -57 -161q-49 -46 -134 -46h-332v65h332q58 0 88 41q25 35 25 94v85q0 67 -33 103q-29 32 -80 32h-212v28q0 21 8 37.5t32 45.5l150 183h89z" />
    <glyph glyph-name="uniFB91" unicode="&#x6a9;" horiz-adv-x="620" arabic-form="medial" 
d="M636 0h-120q-55 0 -71 30q-43 -30 -113 -30h-332v65h332q58 0 88 41q25 35 25 94v85q0 67 -33 103q-29 32 -80 32h-212v28q0 21 8 37.5t32 45.5l150 183h89l-188 -229h121q98 0 147 -60q44 -53 44 -147v-71q0 -84 -40 -132q9 -10 34 -10h119v-65z" />
    <glyph glyph-name="uniFB93" unicode="&#x6af;" horiz-adv-x="1000" arabic-form="final" 
d="M1017 0h-120q-53 0 -70 30q-45 -30 -114 -30h-430q-110 0 -172 76q-48 60 -48 141q0 126 79 214l55 -38q-63 -70 -63 -169q0 -69 45 -115q45 -44 118 -44h416q58 0 88 41q25 35 25 94v85q0 67 -33 103q-30 32 -80 32h-212v28q0 22 7 37t33 46l150 183h89l-188 -229h121
q98 0 147 -60q44 -53 44 -147v-71q0 -84 -40 -132q9 -10 34 -10h119v-65zM315 485l188 229h59l-189 -229h-58z" />
    <glyph glyph-name="uniFB94" unicode="&#x6af;" horiz-adv-x="787" arabic-form="initial" 
d="M399 485h121q98 0 147 -60q43 -53 43 -147v-71q0 -107 -56 -161q-49 -46 -134 -46h-520v65h520q58 0 88 41q25 35 25 94v85q0 67 -33 103q-30 32 -80 32h-213v28q0 22 6.5 36t33.5 47l151 183h88zM180 485h-58l188 229h59z" />
    <glyph glyph-name="uniFB95" unicode="&#x6af;" horiz-adv-x="807" arabic-form="medial" 
d="M824 0h-120q-56 0 -71 29q-46 -29 -113 -29h-520v65h520q58 0 88 41q25 35 25 94v85q0 67 -33 103q-30 32 -80 32h-213v28q0 22 6.5 36t33.5 47l151 183h88l-187 -229h121q98 0 147 -60q43 -53 43 -147v-71q0 -85 -39 -132q9 -10 33 -10h120v-65zM122 485l188 229h59
l-189 -229h-58z" />
    <glyph glyph-name="uniFB9F" unicode="&#x6ba;" horiz-adv-x="750" arabic-form="final" 
d="M653 485v-411q8 -9 31 -9h83v-65h-81q-18 0 -35 5q-11 -136 -95 -204q-74 -61 -196 -61q-78 0 -145 35q-69 36 -108 101q-43 71 -43 164q0 68 21.5 134t59.5 114l56 -38q-30 -41 -47.5 -95t-17.5 -108q0 -121 79 -187q61 -52 146 -52q105 0 162 65q53 60 53 166v446h77z
" />
    <glyph glyph-name="uniFBA7" unicode="&#x6c1;" horiz-adv-x="872" arabic-form="final" 
d="M567 496q108 0 156 -59q44 -53 44 -158v-79q-1 -59 30 -98q28 -37 73 -37h18v-65h-22q-92 3 -138 66q-39 53 -39 141v79q0 78 -33 113q-30 32 -89 32q-69 0 -99 -42q-25 -35 -25 -103v-77q0 -78 34 -113q30 -31 90 -31v-65h-284q-110 0 -172 76q-48 59 -48 140
q0 129 76 215l55 -38q-28 -32 -44 -77.5t-16 -91.5q0 -68 45 -114q45 -45 118 -45h119q-50 44 -50 151v63q0 119 58 172q49 45 143 45z" />
    <glyph glyph-name="uniFBA8" unicode="&#x6c1;" horiz-adv-x="369" arabic-form="initial" 
d="M281 485v-278q0 -134 -86 -182l-108 -132h19v-103h-78v103l69 107h-97v65h91q57 0 87 41q26 36 26 94v285h77z" />
    <glyph glyph-name="uniFBA9" unicode="&#x6c1;" horiz-adv-x="532" arabic-form="medial" 
d="M129 91q5 0 5 -6q0 -2 -1 -5q-7 -23 -12.5 -60t-5.5 -60q0 -77 35 -116q32 -36 88 -36q80 0 111 69q19 44 20 120v5q1 27 11 40q17 23 59 23h110v-65h-89q-11 0 -14.5 -3t-3.5 -12q0 -245 -206 -245q-107 0 -156 75q-37 56 -37 144q0 27 3 41h-46v65h29q34 0 50.5 4
t41.5 19q5 3 8 3z" />
    <glyph glyph-name="uniFBAB" unicode="&#x6be;" horiz-adv-x="866" arabic-form="final" 
d="M884 0h-102q-56 0 -71 30q-45 -30 -112 -30h-169h-12q-53 -1 -81 14q-27 -15 -78 -14h-14h-189v65h184q-25 14 -45.5 57t-20.5 83q0 83 47 133q43 47 115 47q82 0 126 -60q36 -48 36 -120q0 -44 -24 -90q-20 -38 -42 -50h166q58 0 88 42q25 35 25 96q0 107 -61 170
q-56 58 -147 58q-99 0 -194 -43l32 72q76 36 173 36q130 -2 204 -80q71 -76 71 -207q0 -87 -36 -138q10 -6 29 -6h102v-65zM336 72q49 11 77 57q22 37 22 80q0 51 -25 85q-27 35 -74 35q-53 0 -80 -44q-19 -32 -19 -76q0 -50 29 -90q28 -37 70 -47z" />
    <glyph glyph-name="uniFBAC" unicode="&#x6be;" horiz-adv-x="795" arabic-form="initial" 
d="M0 65h184q-25 14 -45.5 57t-20.5 83q0 83 47 133q43 47 115 47q82 0 126 -60q36 -48 36 -120q0 -44 -24 -90q-20 -38 -42 -50h166q58 0 88 42q25 35 25 96q0 107 -61 170q-56 58 -147 58q-99 0 -194 -43l32 72q76 36 173 36q130 -2 204 -80q71 -76 71 -207
q0 -108 -56 -162q-49 -47 -134 -47h-169h-12q-53 -1 -81 14q-27 -15 -78 -14h-14h-189v65zM280 72q49 11 77 57q22 37 22 80q0 51 -25 85q-27 35 -74 35q-53 0 -80 -44q-19 -32 -19 -76q0 -50 29 -90q28 -37 70 -47z" />
    <glyph glyph-name="uniFBAD" unicode="&#x6be;" horiz-adv-x="811" arabic-form="medial" 
d="M828 0h-102q-56 0 -71 30q-45 -30 -112 -30h-169h-12q-53 -1 -81 14q-27 -15 -78 -14h-14h-189v65h184q-25 14 -45.5 57t-20.5 83q0 83 47 133q43 47 115 47q82 0 126 -60q36 -48 36 -120q0 -44 -24 -90q-20 -38 -42 -50h166q58 0 88 42q25 35 25 96q0 107 -61 170
q-56 58 -147 58q-99 0 -194 -43l32 72q76 36 173 36q130 -2 204 -80q71 -76 71 -207q0 -87 -36 -138q10 -6 29 -6h102v-65zM280 72q49 11 77 57q22 37 22 80q0 51 -25 85q-27 35 -74 35q-53 0 -80 -44q-19 -32 -19 -76q0 -50 29 -90q28 -37 70 -47z" />
    <glyph glyph-name="uniFBAF" unicode="&#x6d2;" horiz-adv-x="588" arabic-form="final" 
d="M605 0h-233q-73 0 -120 -15q-58 -18 -89 -63q-28 -40 -28 -90q0 -76 57 -125q43 -37 100 -45q20 -3 45 -3q91 0 183 49l27 -58q-97 -58 -214 -58q-28 0 -39 1q-103 9 -170 72q-68 64 -68 162q0 77 39 132q38 54 109 82q52 19 146 24h255v-65z" />
    <glyph glyph-name="uniFBB1" unicode="&#x6d3;" horiz-adv-x="588" arabic-form="final" 
d="M371 178h-167v43h32q-13 18 -13 42q0 32 21.5 52.5t54.5 20.5q20 0 39 -11t26 -27l-35 -20l-1 1q-12 18 -30 18q-29 0 -29 -36q0 -17 12.5 -28t32.5 -12h57v-43zM605 0h-233q-73 0 -120 -15q-58 -18 -89 -63q-28 -40 -28 -90q0 -76 57 -125q43 -37 100 -45q20 -3 45 -3
q91 0 183 49l27 -58q-97 -58 -214 -58q-28 0 -39 1q-103 9 -170 72q-68 64 -68 162q0 77 39 132q38 54 109 82q52 19 146 24h255v-65z" />
    <glyph glyph-name="uniFBFD" unicode="&#x6cc;" horiz-adv-x="703" arabic-form="final" 
d="M720 0h-34q0 -52 -29 -108q-35 -66 -99 -105q-76 -47 -181 -47q-152 0 -238 95q-76 83 -76 214q0 107 49 188l57 -38q-33 -70 -33 -141q0 -126 76 -193q64 -57 166 -57q118 0 185 78q45 52 45 102q0 12 -12 12h-138v65h262v-65zM339 -464h-67v102h67v-102zM478 -464h-67
v102h67v-102zM407 -600h-63v90h63v-90z" />
    <glyph glyph-name="uniFBFE" unicode="&#x6cc;" horiz-adv-x="328" arabic-form="initial" 
d="M240 485v-278q0 -107 -57 -161q-48 -46 -133 -46h-50v65h50q57 0 87 41q25 35 25 94v285h78zM100 -210h-67v102h67v-102zM239 -210h-67v102h67v-102zM168 -346h-63v90h63v-90z" />
    <glyph glyph-name="uniFBFF" unicode="&#x6cc;" horiz-adv-x="337" arabic-form="medial" 
d="M354 0h-120q-57 0 -71 30q-45 -30 -113 -30h-50v65h50q57 0 87 41q25 35 25 94v285h78v-278q0 -85 -39 -132q8 -10 33 -10h120v-65zM94 -210h-67v102h67v-102zM233 -210h-67v102h67v-102zM162 -346h-63v90h63v-90z" />
    <glyph glyph-name="uniFC5E" unicode="&#xfc5e;" horiz-adv-x="0" arabic-form="isolated" 
d="M57 975q39 0 61 -28q18 -22 18 -52q0 -46 -32 -74q-28 -23 -68 -23q-63 0 -95 21l-6 3q-8 6 -11 6q-4 0 -20 -23l-35 24l28 40q7 10 16 10t19 -8q41 -33 73 -35q-26 19 -26 60q0 34 22 56.5t56 22.5zM58 937q-15 0 -24.5 -11.5t-9.5 -30.5q0 -37 33 -54q14 4 24 20.5
t10 35.5q0 17 -9 28t-24 12zM136 725v-80q0 -80 -82 -80q-33 0 -52 16q-19 -16 -52 -16q-82 0 -82 80v80h46v-84q0 -33 33 -33q32 0 32 33v69h46v-69q0 -33 32 -33q33 0 33 33v84h46z" />
    <glyph glyph-name="uniFC5F" unicode="&#xfc5f;" horiz-adv-x="0" arabic-form="isolated" 
d="M134 958v-80q0 -80 -82 -80q-33 0 -52 16q-19 -16 -52 -16q-82 0 -82 80v80h46v-84q0 -33 33 -33q32 0 32 33v69h46v-69q0 -33 32 -33q33 0 33 33v84h46zM82 675h-167v42h167v-42zM82 562h-167v43h167v-43z" />
    <glyph glyph-name="uniFC60" unicode="&#xfc60;" horiz-adv-x="0" arabic-form="isolated" 
d="M85 801h-167v43h167v-43zM136 725v-80q0 -80 -82 -80q-33 0 -52 16q-19 -16 -52 -16q-82 0 -82 80v80h46v-84q0 -33 33 -33q32 0 32 33v69h46v-69q0 -33 32 -33q33 0 33 33v84h46z" />
    <glyph glyph-name="uniFC61" unicode="&#xfc61;" horiz-adv-x="0" arabic-form="isolated" 
d="M36 1002q39 0 61 -27q17 -22 17 -51q-1 -38 -21 -59t-72 -39q-11 -4 -32 -11q-54 -18 -86 -26l-17 34q59 15 104 35q-30 24 -30 66q0 33 21.5 55.5t54.5 22.5zM34 874q15 2 25.5 17t10.5 33t-9.5 29.5t-24.5 11.5q-14 0 -23 -11.5t-9 -28.5q0 -36 30 -51zM136 725v-80
q0 -80 -82 -80q-33 0 -52 16q-19 -16 -52 -16q-82 0 -82 80v80h46v-84q0 -33 33 -33q32 0 32 33v69h46v-69q0 -33 32 -33q33 0 33 33v84h46z" />
    <glyph glyph-name="uniFC62" unicode="&#xfc62;" horiz-adv-x="0" arabic-form="isolated" 
d="M132 824v-80q0 -80 -82 -80q-33 0 -52 16q-19 -16 -52 -16q-82 0 -82 80v80h46v-84q0 -33 33 -33q32 0 32 33v69h46v-69q0 -33 32 -33q33 0 33 33v84h46zM81 564h-167v43h167v-43z" />
    <glyph glyph-name="uniFC63" unicode="&#xfc63;" horiz-adv-x="0" arabic-form="isolated" 
d="M21 788h-46v159h46v-159zM132 727v-80q0 -80 -82 -80q-33 0 -52 16q-19 -16 -52 -16q-82 0 -82 80v80h46v-84q0 -33 33 -33q32 0 32 33v69h46v-69q0 -33 32 -33q33 0 33 33v84h46z" />
    <glyph glyph-name="uniFE82" unicode="&#x622;" horiz-adv-x="273" arabic-form="final" 
d="M78 838q19 0 45 -13q1 -1 6 -4q27 -15 39 -15q16 0 31 28l34 -22q-27 -48 -64 -48q-19 0 -49 18q-25 14 -39 14q-18 0 -33 -28l-34 22q27 48 64 48zM165 658v-458q0 -72 36 -106q31 -29 71 -29h20v-65h-24q-83 1 -130 47q-51 53 -51 160v451h78z" />
    <glyph glyph-name="uniFE84" unicode="&#x623;" horiz-adv-x="273" arabic-form="final" 
d="M208 764h-167v43h32q-13 18 -13 42q0 32 21.5 52.5t54.5 20.5q20 0 39 -11t26 -27l-35 -20l-1 1q-12 18 -30 18q-29 0 -29 -36q0 -17 12.5 -28t32.5 -12h57v-43zM165 658v-458q0 -72 36 -106q31 -29 71 -29h20v-65h-24q-79 1 -128 49q-53 55 -53 158v451h78z" />
    <glyph glyph-name="uniFE86" unicode="&#x624;" horiz-adv-x="574" arabic-form="final" 
d="M357 599h-167v43h32q-13 18 -13 42q0 32 21.5 52.5t54.5 20.5q20 0 39 -11t26 -27l-35 -20l-1 1q-12 18 -30 18q-29 0 -29 -36q0 -17 12.5 -28t32.5 -12h57v-43zM278 496q107 0 156 -59q43 -53 43 -158v-214h114v-65h-114v-30q-1 -122 -64 -180q-55 -50 -151 -50
q-86 0 -161 39l26 60q60 -32 127 -32q146 0 146 156v37h-129q-194 0 -194 216v63q0 119 58 172q49 45 143 45zM277 431q-123 0 -123 -145v-77q0 -78 33 -113q30 -31 90 -31h122v221q0 78 -32 113q-30 32 -90 32z" />
    <glyph glyph-name="uniFE88" unicode="&#x625;" horiz-adv-x="273" arabic-form="final" 
d="M165 714v-514q0 -65 32 -102q28 -33 75 -33h17v-65h-21q-92 0 -140 62q-41 54 -41 145v507h78zM185 -232h-167v43h32q-13 18 -13 41q0 32 21.5 53t54.5 21q20 0 39 -11t26 -27l-35 -20l-1 1q-12 18 -30 18q-29 0 -29 -36q0 -17 12.5 -28t32.5 -12h57v-43z" />
    <glyph glyph-name="uniFE8A" unicode="&#x626;" horiz-adv-x="703" arabic-form="final" 
d="M232 340h-167v43h32q-13 18 -13 42q0 32 21.5 52.5t54.5 20.5q20 0 39 -11t26 -27l-35 -20l-1 1q-12 18 -30 18q-29 0 -29 -36q0 -17 12.5 -28t32.5 -12h57v-43zM720 0h-34q0 -52 -29 -108q-35 -66 -99 -105q-76 -47 -181 -47q-152 0 -238 95q-76 83 -76 214
q0 107 49 188l57 -38q-33 -70 -33 -141q0 -126 76 -193q64 -57 166 -57q118 0 185 78q45 52 45 102q0 12 -12 12h-138v65h262v-65z" />
    <glyph glyph-name="uniFE8B" unicode="&#x626;" horiz-adv-x="328" arabic-form="initial" 
d="M284 598h-167v43h32q-13 18 -13 42q0 32 21.5 52.5t54.5 20.5q20 0 39 -11t26 -27l-35 -20l-1 1q-12 18 -30 18q-29 0 -29 -36q0 -17 12.5 -28t32.5 -12h57v-43zM240 485v-278q0 -107 -57 -161q-48 -46 -133 -46h-50v65h50q57 0 87 41q25 35 25 94v285h78z" />
    <glyph glyph-name="uniFE8C" unicode="&#x626;" horiz-adv-x="337" arabic-form="medial" 
d="M284 598h-167v43h32q-13 18 -13 42q0 32 21.5 52.5t54.5 20.5q20 0 39 -11t26 -27l-35 -20l-1 1q-12 18 -30 18q-29 0 -29 -36q0 -17 12.5 -28t32.5 -12h57v-43zM354 0h-120q-57 0 -71 30q-45 -30 -113 -30h-50v65h50q57 0 87 41q25 35 25 94v285h78v-278q0 -85 -39 -132
q8 -10 33 -10h120v-65z" />
    <glyph glyph-name="uniFE8E" unicode="&#x627;" horiz-adv-x="273" arabic-form="final" 
d="M165 714v-514q0 -65 32 -102q28 -33 75 -33h17v-65h-21q-92 0 -140 62q-41 54 -41 145v507h78z" />
    <glyph glyph-name="uniFE90" unicode="&#x628;" horiz-adv-x="890" arabic-form="final" 
d="M907 0h-120q-53 0 -70 30q-45 -30 -113 -30h-321q-110 0 -172 76q-48 60 -48 141q0 128 76 214l55 -38q-60 -72 -60 -170q0 -69 46 -114q44 -44 117 -44h307q57 0 87 41q25 35 25 94v285h78v-278q0 -84 -39 -132q9 -10 32 -10h120v-65zM472 -210h-78v103h78v-103z" />
    <glyph glyph-name="uniFE91" unicode="&#x628;" horiz-adv-x="328" arabic-form="initial" 
d="M240 485v-278q0 -107 -57 -161q-48 -46 -133 -46h-50v65h50q57 0 87 41q25 35 25 94v285h78zM169 -210h-78v103h78v-103z" />
    <glyph glyph-name="uniFE92" unicode="&#x628;" horiz-adv-x="337" arabic-form="medial" 
d="M354 0h-120q-57 0 -71 30q-45 -30 -113 -30h-50v65h50q57 0 87 41q25 35 25 94v285h78v-278q0 -85 -39 -132q8 -10 33 -10h120v-65zM185 -210h-78v103h78v-103z" />
    <glyph glyph-name="uniFE94" unicode="&#x629;" horiz-adv-x="583" arabic-form="final" 
d="M242 606h-67v102h67v-102zM381 606h-67v102h67v-102zM478 514v-314q0 -65 31 -102q29 -33 76 -33h17v-65h-21q-102 0 -149 79q-27 -24 -72.5 -39.5t-87.5 -15.5q-195 0 -195 216v39q0 216 196 216q72 0 127 -29v48h78zM278 431q-124 0 -124 -145v-53q0 -145 122 -145
q34 0 69.5 14.5t60.5 38.5q-6 24 -6 91v161q-44 38 -122 38z" />
    <glyph glyph-name="uniFE96" unicode="&#x62a;" horiz-adv-x="890" arabic-form="final" 
d="M408 546h-67v102h67v-102zM547 546h-67v102h67v-102zM907 0h-120q-53 0 -70 30q-45 -30 -113 -30h-321q-110 0 -172 76q-48 60 -48 141q0 128 76 214l55 -38q-60 -72 -60 -170q0 -69 46 -114q44 -44 117 -44h307q57 0 87 41q25 35 25 94v285h78v-278q0 -84 -39 -132
q9 -10 32 -10h120v-65z" />
    <glyph glyph-name="uniFE97" unicode="&#x62a;" horiz-adv-x="328" arabic-form="initial" 
d="M165 599h-67v102h67v-102zM304 599h-67v102h67v-102zM240 485v-278q0 -107 -57 -161q-48 -46 -133 -46h-50v65h50q57 0 87 41q25 35 25 94v285h78z" />
    <glyph glyph-name="uniFE98" unicode="&#x62a;" horiz-adv-x="337" arabic-form="medial" 
d="M165 599h-67v102h67v-102zM304 599h-67v102h67v-102zM354 0h-120q-57 0 -71 30q-45 -30 -113 -30h-50v65h50q57 0 87 41q25 35 25 94v285h78v-278q0 -85 -39 -132q8 -10 33 -10h120v-65z" />
    <glyph glyph-name="uniFE9A" unicode="&#x62b;" horiz-adv-x="890" arabic-form="final" 
d="M476 694h-63v90h63v-90zM408 546h-67v102h67v-102zM547 546h-67v102h67v-102zM907 0h-120q-53 0 -70 30q-45 -30 -113 -30h-321q-110 0 -172 76q-48 60 -48 141q0 128 76 214l55 -38q-60 -72 -60 -170q0 -69 46 -114q44 -44 117 -44h307q57 0 87 41q25 35 25 94v285h78
v-278q0 -84 -39 -132q9 -10 32 -10h120v-65z" />
    <glyph glyph-name="uniFE9B" unicode="&#x62b;" horiz-adv-x="328" arabic-form="initial" 
d="M233 747h-63v90h63v-90zM165 599h-67v102h67v-102zM304 599h-67v102h67v-102zM240 485v-278q0 -107 -57 -161q-48 -46 -133 -46h-50v65h50q57 0 87 41q25 35 25 94v285h78z" />
    <glyph glyph-name="uniFE9C" unicode="&#x62b;" horiz-adv-x="337" arabic-form="medial" 
d="M233 747h-63v90h63v-90zM165 599h-67v102h67v-102zM304 599h-67v102h67v-102zM354 0h-120q-57 0 -71 30q-45 -30 -113 -30h-50v65h50q57 0 87 41q25 35 25 94v285h78v-278q0 -85 -39 -132q8 -10 33 -10h120v-65z" />
    <glyph glyph-name="uniFE9E" unicode="&#x62c;" horiz-adv-x="645" arabic-form="final" 
d="M252 -15q-58 -18 -89 -63q-28 -40 -28 -90q0 -76 57 -125q43 -37 100 -45q20 -3 45 -3q91 0 183 49l27 -58q-97 -58 -214 -58q-28 0 -39 1q-103 9 -170 72q-68 64 -68 162q0 77 39 132q38 54 109 82q52 19 146 24h151q-18 23 -27 54.5t-17 98.5q-12 101 -34 143
q-17 33 -50 51.5t-76 18.5q-73 0 -128 -73l-60 36q31 48 81 75t108 27q136 0 194 -99q20 -33 27.5 -65.5t15.5 -112.5q7 -71 25 -107q13 -27 30 -37t48 -10h24v-65h-290q-73 0 -120 -15zM411 -209h-78v103h78v-103z" />
    <glyph glyph-name="uniFE9F" unicode="&#x62c;" horiz-adv-x="702" arabic-form="initial" 
d="M304 496q135 0 195 -99q19 -33 27 -65.5t16 -112.5q7 -71 24 -107q13 -27 30 -37t48 -10h2v-65h-646v65h507q-18 23 -27 54.5t-16 98.5q-11 101 -34 143q-37 70 -127 70q-73 0 -128 -73l-60 36q31 48 81 75t108 27zM345 -210h-78v103h78v-103z" />
    <glyph glyph-name="uniFEA0" unicode="&#x62c;" horiz-adv-x="651" arabic-form="medial" 
d="M304 496q135 0 195 -99q19 -33 27 -65.5t16 -112.5q7 -71 24 -107q13 -27 30 -37t48 -10h24v-65h-668v65h507q-18 23 -27 54.5t-16 98.5q-11 101 -34 143q-37 70 -127 70q-73 0 -128 -73l-60 36q31 48 81 75t108 27zM345 -210h-78v103h78v-103z" />
    <glyph glyph-name="uniFEA2" unicode="&#x62d;" horiz-adv-x="645" arabic-form="final" 
d="M252 -15q-58 -18 -89 -63q-28 -40 -28 -90q0 -76 57 -125q43 -37 100 -45q20 -3 45 -3q91 0 183 49l27 -58q-97 -58 -214 -58q-28 0 -39 1q-103 9 -170 72q-68 64 -68 162q0 77 39 132q38 54 109 82q52 19 146 24h151q-18 23 -27 54.5t-17 98.5q-12 101 -34 143
q-17 33 -50 51.5t-76 18.5q-73 0 -128 -73l-60 36q31 48 81 75t108 27q136 0 194 -99q20 -33 27.5 -65.5t15.5 -112.5q7 -71 25 -107q13 -27 30 -37t48 -10h24v-65h-290q-73 0 -120 -15z" />
    <glyph glyph-name="uniFEA3" unicode="&#x62d;" horiz-adv-x="702" arabic-form="initial" 
d="M304 496q135 0 195 -99q19 -33 27 -65.5t16 -112.5q7 -71 24 -107q13 -27 30 -37t48 -10h2v-65h-646v65h507q-18 23 -27 54.5t-16 98.5q-11 101 -34 143q-37 70 -127 70q-73 0 -128 -73l-60 36q31 48 81 75t108 27z" />
    <glyph glyph-name="uniFEA4" unicode="&#x62d;" horiz-adv-x="651" arabic-form="medial" 
d="M304 496q135 0 195 -99q19 -33 27 -65.5t16 -112.5q7 -71 24 -107q13 -27 30 -37t48 -10h24v-65h-668v65h507q-18 23 -27 54.5t-16 98.5q-11 101 -34 143q-37 70 -127 70q-73 0 -128 -73l-60 36q31 48 81 75t108 27z" />
    <glyph glyph-name="uniFEA6" unicode="&#x62e;" horiz-adv-x="645" arabic-form="final" 
d="M342 599h-78v102h78v-102zM252 -15q-58 -18 -89 -63q-28 -40 -28 -90q0 -76 57 -125q43 -37 100 -45q20 -3 45 -3q91 0 183 49l27 -58q-97 -58 -214 -58q-28 0 -39 1q-103 9 -170 72q-68 64 -68 162q0 77 39 132q38 54 109 82q52 19 146 24h151q-18 23 -27 54.5t-17 98.5
q-12 101 -34 143q-17 33 -50 51.5t-76 18.5q-73 0 -128 -73l-60 36q31 48 81 75t108 27q136 0 194 -99q20 -33 27.5 -65.5t15.5 -112.5q7 -71 25 -107q13 -27 30 -37t48 -10h24v-65h-290q-73 0 -120 -15z" />
    <glyph glyph-name="uniFEA7" unicode="&#x62e;" horiz-adv-x="702" arabic-form="initial" 
d="M347 599h-78v102h78v-102zM304 496q135 0 195 -99q19 -33 27 -65.5t16 -112.5q7 -71 24 -107q13 -27 30 -37t48 -10h2v-65h-646v65h507q-18 23 -27 54.5t-16 98.5q-11 101 -34 143q-37 70 -127 70q-73 0 -128 -73l-60 36q31 48 81 75t108 27z" />
    <glyph glyph-name="uniFEA8" unicode="&#x62e;" horiz-adv-x="651" arabic-form="medial" 
d="M347 600h-78v102h78v-102zM304 496q135 0 195 -99q19 -33 27 -65.5t16 -112.5q7 -71 24 -107q13 -27 30 -37t48 -10h24v-65h-668v65h507q-18 23 -27 54.5t-16 98.5q-11 101 -34 143q-37 70 -127 70q-73 0 -128 -73l-60 36q31 48 81 75t108 27z" />
    <glyph glyph-name="uniFEAA" unicode="&#x62f;" horiz-adv-x="530" arabic-form="final" 
d="M546 0h-102q-55 0 -71 30q-46 -30 -121 -30h-196v65h196q122 -1 122 142q0 113 -65 170q-49 43 -137 58l32 61q247 -41 247 -287q0 -91 -39 -134q9 -10 32 -10h102v-65z" />
    <glyph glyph-name="uniFEAC" unicode="&#x630;" horiz-adv-x="530" arabic-form="final" 
d="M251 599h-78v102h78v-102zM546 0h-102q-55 0 -71 30q-46 -30 -121 -30h-196v65h196q122 -1 122 142q0 113 -65 170q-49 43 -137 58l32 61q247 -41 247 -287q0 -91 -39 -134q9 -10 32 -10h102v-65z" />
    <glyph glyph-name="uniFEAE" unicode="&#x631;" horiz-adv-x="353" arabic-form="final" 
d="M369 65v-65h-83q-16 0 -30 3q-1 -75 -8.5 -117t-27.5 -75q-43 -71 -146 -71q-67 0 -114 25l24 60q35 -18 79 -18q65 0 90.5 43t25.5 153v482h77v-414q10 -6 29 -6h84z" />
    <glyph glyph-name="uniFEB0" unicode="&#x632;" horiz-adv-x="353" arabic-form="final" 
d="M256 599h-78v102h78v-102zM369 65v-65h-83q-16 0 -30 3q-1 -75 -8.5 -117t-27.5 -75q-43 -71 -146 -71q-67 0 -114 25l24 60q35 -18 79 -18q65 0 90.5 43t25.5 153v482h77v-414q10 -6 29 -6h84z" />
    <glyph glyph-name="uniFEB2" unicode="&#x633;" horiz-adv-x="1396" arabic-form="final" 
d="M1414 0h-156q-51 0 -67 27q-46 -37 -123 -37q-107 0 -151 75q-42 -74 -147 -74q-79 0 -118 47v-8q-5 -149 -90 -224q-75 -66 -202 -66q-78 0 -145 35q-69 36 -108 101q-43 71 -43 164q0 68 21.5 134t59.5 114l56 -38q-30 -41 -47.5 -95t-17.5 -108q0 -121 79 -187
q61 -52 146 -52q105 0 162 65q53 60 53 166v446h77v-296q0 -67 33 -102q29 -32 79 -32q58 0 88 41q25 34 25 93v296h77v-297q0 -67 33 -102q29 -31 80 -31q57 0 87 41q25 34 25 93v295h77v-289q0 -74 -28 -124q8 -6 29 -6h156v-65z" />
    <glyph glyph-name="uniFEB3" unicode="&#x633;" horiz-adv-x="991" arabic-form="initial" 
d="M904 484v-289q0 -106 -57 -159q-48 -46 -133 -46q-107 0 -149 77q-44 -76 -153 -76q-113 0 -156 82q-47 -73 -147 -73h-109v65h109q57 0 87 41q26 36 26 94v285h77v-296q0 -67 33 -103q29 -31 80 -31q57 0 87 41q25 34 25 93v296h78v-296q0 -67 33 -103q29 -31 79 -31
q58 0 87 41q25 34 25 93v295h78z" />
    <glyph glyph-name="uniFEB4" unicode="&#x633;" horiz-adv-x="1042" arabic-form="medial" 
d="M1059 0h-154q-52 0 -69 26q-46 -36 -122 -36q-107 0 -149 77q-44 -76 -153 -76q-113 0 -156 82q-47 -73 -147 -73h-109v65h109q57 0 87 41q26 36 26 94v285h77v-296q0 -67 33 -103q29 -31 80 -31q57 0 87 41q25 34 25 93v296h78v-296q0 -67 33 -103q29 -31 79 -31
q58 0 87 41q25 34 25 93v295h78v-289q0 -73 -28 -123q9 -7 29 -7h154v-65z" />
    <glyph glyph-name="uniFEB6" unicode="&#x634;" horiz-adv-x="1396" arabic-form="final" 
d="M948 747h-63v90h63v-90zM880 599h-67v102h67v-102zM1019 599h-67v102h67v-102zM1414 0h-156q-51 0 -67 27q-46 -37 -123 -37q-107 0 -151 75q-42 -74 -147 -74q-79 0 -118 47v-8q-5 -149 -90 -224q-75 -66 -202 -66q-78 0 -145 35q-69 36 -108 101q-43 71 -43 164
q0 68 21.5 134t59.5 114l56 -38q-30 -41 -47.5 -95t-17.5 -108q0 -121 79 -187q61 -52 146 -52q105 0 162 65q53 60 53 166v446h77v-296q0 -67 33 -102q29 -32 79 -32q58 0 88 41q25 34 25 93v296h77v-297q0 -67 33 -102q29 -31 80 -31q57 0 87 41q25 34 25 93v295h77v-289
q0 -74 -28 -124q8 -6 29 -6h156v-65z" />
    <glyph glyph-name="uniFEB7" unicode="&#x634;" horiz-adv-x="991" arabic-form="initial" 
d="M595 747h-63v90h63v-90zM527 599h-67v102h67v-102zM666 599h-67v102h67v-102zM904 484v-289q0 -106 -57 -159q-48 -46 -133 -46q-107 0 -149 77q-44 -76 -153 -76q-113 0 -156 82q-47 -73 -147 -73h-109v65h109q57 0 87 41q26 36 26 94v285h77v-296q0 -67 33 -103
q29 -31 80 -31q57 0 87 41q25 34 25 93v296h78v-296q0 -67 33 -103q29 -31 79 -31q58 0 87 41q25 34 25 93v295h78z" />
    <glyph glyph-name="uniFEB8" unicode="&#x634;" horiz-adv-x="1042" arabic-form="medial" 
d="M596 747h-63v90h63v-90zM528 599h-67v102h67v-102zM667 599h-67v102h67v-102zM1059 0h-154q-52 0 -69 26q-46 -36 -122 -36q-107 0 -149 77q-44 -76 -153 -76q-113 0 -156 82q-47 -73 -147 -73h-109v65h109q57 0 87 41q26 36 26 94v285h77v-296q0 -67 33 -103
q29 -31 80 -31q57 0 87 41q25 34 25 93v296h78v-296q0 -67 33 -103q29 -31 79 -31q58 0 87 41q25 34 25 93v295h78v-289q0 -73 -28 -123q9 -7 29 -7h154v-65z" />
    <glyph glyph-name="uniFEBA" unicode="&#x635;" horiz-adv-x="1301" arabic-form="final" 
d="M652 485v-188q46 98 136 152q78 47 170 47q140 0 211 -99q54 -76 54 -190q0 -87 -40 -133q9 -9 32 -9h102v-65h-102q-56 0 -71 29q-43 -29 -111 -29h-383q-13 -133 -97 -200q-74 -60 -194 -60q-78 0 -145 35q-69 36 -108 101q-43 71 -43 164q0 68 21.5 134t59.5 114
l56 -38q-30 -41 -47.5 -95t-17.5 -108q0 -121 79 -187q61 -52 146 -52q105 0 162 65q53 60 53 166v446h77zM653 65h380q57 0 87 42q26 36 26 94q0 109 -55 171q-51 59 -138 59q-128 0 -217 -133q-68 -102 -83 -233z" />
    <glyph glyph-name="uniFEBB" unicode="&#x635;" horiz-adv-x="873" arabic-form="initial" 
d="M240 485v-188q46 98 136 152q78 47 170 47q140 0 210 -99q54 -76 54 -190q0 -109 -58 -163q-49 -44 -132 -44h-381l1 -73h-78l1 73h-163v65h162v420h78zM539 431q-128 0 -217 -133q-68 -102 -83 -233h380q57 0 87 42q26 36 26 94q0 108 -55 171q-51 59 -138 59z" />
    <glyph glyph-name="uniFEBC" unicode="&#x635;" horiz-adv-x="888" arabic-form="medial" 
d="M240 485v-188q46 98 136 152q78 47 170 47q140 0 210 -99q54 -76 54 -190q0 -88 -39 -133q9 -9 32 -9h102v-65h-102q-56 0 -71 29q-43 -29 -112 -29h-381l1 -73h-78l1 73h-163v65h162v420h78zM239 65h380q57 0 87 42q26 36 26 94q0 108 -55 171q-51 59 -138 59
q-128 0 -217 -133q-68 -102 -83 -233z" />
    <glyph glyph-name="uniFEBE" unicode="&#x636;" horiz-adv-x="1301" arabic-form="final" 
d="M982 599h-78v102h78v-102zM652 485v-188q46 98 136 152q78 47 170 47q140 0 211 -99q54 -76 54 -190q0 -87 -40 -133q9 -9 32 -9h102v-65h-102q-56 0 -71 29q-43 -29 -111 -29h-383q-13 -133 -97 -200q-74 -60 -194 -60q-78 0 -145 35q-69 36 -108 101q-43 71 -43 164
q0 68 21.5 134t59.5 114l56 -38q-30 -41 -47.5 -95t-17.5 -108q0 -121 79 -187q61 -52 146 -52q105 0 162 65q53 60 53 166v446h77zM653 65h380q57 0 87 42q26 36 26 94q0 109 -55 171q-51 59 -138 59q-128 0 -217 -133q-68 -102 -83 -233z" />
    <glyph glyph-name="uniFEBF" unicode="&#x636;" horiz-adv-x="873" arabic-form="initial" 
d="M568 599h-78v102h78v-102zM240 485v-188q46 98 136 152q78 47 170 47q140 0 210 -99q54 -76 54 -190q0 -109 -58 -163q-49 -44 -132 -44h-381l1 -73h-78l1 73h-163v65h162v420h78zM539 431q-128 0 -217 -133q-68 -102 -83 -233h380q57 0 87 42q26 36 26 94q0 108 -55 171
q-51 59 -138 59z" />
    <glyph glyph-name="uniFEC0" unicode="&#x636;" horiz-adv-x="888" arabic-form="medial" 
d="M568 599h-78v102h78v-102zM240 485v-188q46 98 136 152q78 47 170 47q140 0 210 -99q54 -76 54 -190q0 -88 -39 -133q9 -9 32 -9h102v-65h-102q-56 0 -71 29q-43 -29 -112 -29h-381l1 -73h-78l1 73h-163v65h162v420h78zM239 65h380q57 0 87 42q26 36 26 94q0 108 -55 171
q-51 59 -138 59q-128 0 -217 -133q-68 -102 -83 -233z" />
    <glyph glyph-name="uniFEC2" unicode="&#x637;" horiz-adv-x="922" arabic-form="final" 
d="M273 714v-417q46 98 135 152q78 47 170 47q140 0 211 -99q54 -76 54 -190q0 -86 -39 -133q9 -9 32 -9h102v-65h-102q-56 0 -71 29q-43 -29 -112 -29h-597v65h139v649h78zM272 65h380q57 0 87 42q26 36 26 94q0 108 -55 171q-51 59 -138 59q-128 0 -217 -133
q-68 -102 -83 -233z" />
    <glyph glyph-name="uniFEC3" unicode="&#x637;" horiz-adv-x="873" arabic-form="initial" 
d="M240 714v-417q46 98 135 152q78 47 170 47q140 0 211 -99q54 -76 54 -190q0 -109 -58 -163q-49 -44 -132 -44h-620v65h162v649h78zM539 431q-128 0 -217 -133q-68 -102 -83 -233h380q57 0 87 42q26 36 26 94q0 108 -55 171q-51 59 -138 59z" />
    <glyph glyph-name="uniFEC4" unicode="&#x637;" horiz-adv-x="888" arabic-form="medial" 
d="M240 714v-417q46 98 136 152q78 47 170 47q140 0 210 -99q54 -76 54 -190q0 -88 -39 -133q9 -9 32 -9h102v-65h-103q-55 0 -70 29q-43 -29 -112 -29h-620v65h162v649h78zM239 65h380q57 0 87 42q26 36 26 94q0 108 -55 171q-51 59 -138 59q-127 0 -216 -133
q-69 -103 -84 -233z" />
    <glyph glyph-name="uniFEC6" unicode="&#x638;" horiz-adv-x="922" arabic-form="final" 
d="M273 714v-417q46 98 135 152q78 47 170 47q140 0 211 -99q54 -76 54 -190q0 -86 -39 -133q9 -9 32 -9h102v-65h-102q-56 0 -71 29q-43 -29 -112 -29h-597v65h139v649h78zM606 599h-78v102h78v-102zM272 65h380q57 0 87 42q26 36 26 94q0 108 -55 171q-51 59 -138 59
q-128 0 -217 -133q-68 -102 -83 -233z" />
    <glyph glyph-name="uniFEC7" unicode="&#x638;" horiz-adv-x="873" arabic-form="initial" 
d="M240 714v-417q46 98 135 152q78 47 170 47q140 0 211 -99q54 -76 54 -190q0 -109 -58 -163q-49 -44 -132 -44h-620v65h162v649h78zM570 599h-78v102h78v-102zM539 431q-128 0 -217 -133q-68 -102 -83 -233h380q57 0 87 42q26 36 26 94q0 108 -55 171q-51 59 -138 59z" />
    <glyph glyph-name="uniFEC8" unicode="&#x638;" horiz-adv-x="888" arabic-form="medial" 
d="M240 714v-417q46 98 136 152q78 47 170 47q140 0 210 -99q54 -76 54 -190q0 -88 -39 -133q9 -9 32 -9h102v-65h-103q-55 0 -70 29q-43 -29 -112 -29h-620v65h162v649h78zM570 599h-78v102h78v-102zM239 65h380q57 0 87 42q26 36 26 94q0 108 -55 171q-51 59 -138 59
q-127 0 -216 -133q-69 -103 -84 -233z" />
    <glyph glyph-name="uniFECA" unicode="&#x639;" horiz-adv-x="637" arabic-form="final" 
d="M338 496q106 0 166 -68q56 -62 59 -167q-109 -82 -151 -196h241v-65h-239h-6q-51 0 -73 14q-8 -11 -53 -23q-32 -9 -52 -19q-47 -19 -73 -60q-22 -36 -22 -80q0 -76 57 -125q42 -36 100 -45q21 -3 45 -3q91 0 183 49l27 -58q-97 -58 -214 -58q-28 0 -39 1q-103 9 -170 72
q-68 64 -68 162q0 114 87 178q51 37 124 52q-13 33 -27 57q-52 90 -128 147q3 120 75 183q59 52 151 52zM338 429q-62 0 -103 -42q-40 -41 -45 -109q94 -68 143 -198q1 -4 5 -4q3 0 4 4q49 130 143 198q-7 78 -55 119q-39 32 -92 32z" />
    <glyph glyph-name="uniFECB" unicode="&#x639;" horiz-adv-x="640" arabic-form="initial" 
d="M374 496q67 0 122 -32q44 -26 67 -66l-61 -34q-49 67 -130 67q-64 0 -109 -51q-44 -49 -44 -123q1 -112 71 -161q46 -31 110 -31h184v-65h-584v65h226q-40 31 -62 78.5t-22 104.5q0 116 71 186q64 62 161 62z" />
    <glyph glyph-name="uniFECC" unicode="&#x639;" horiz-adv-x="665" arabic-form="medial" 
d="M366 496q106 0 167 -68q56 -62 59 -167q-109 -82 -151 -196h241v-65h-234h-6q-54 0 -76 15q-14 -9 -29.5 -12t-52.5 -3h-284v65h291q-42 113 -150 196q3 121 75 183q58 52 150 52zM367 429q-62 0 -103 -42q-40 -41 -45 -109q43 -31 75.5 -76.5t67.5 -121.5q1 -4 5 -4
q3 0 4 4q49 130 143 198q-7 78 -55 119q-39 32 -92 32z" />
    <glyph glyph-name="uniFECE" unicode="&#x63a;" horiz-adv-x="637" arabic-form="final" 
d="M378 599h-78v102h78v-102zM338 496q106 0 166 -68q56 -62 59 -167q-109 -82 -151 -196h241v-65h-239h-6q-51 0 -73 14q-8 -11 -53 -23q-32 -9 -52 -19q-47 -19 -73 -60q-22 -36 -22 -80q0 -76 57 -125q42 -36 100 -45q21 -3 45 -3q91 0 183 49l27 -58q-97 -58 -214 -58
q-28 0 -39 1q-103 9 -170 72q-68 64 -68 162q0 114 87 178q51 37 124 52q-13 33 -27 57q-52 90 -128 147q3 120 75 183q59 52 151 52zM338 429q-62 0 -103 -42q-40 -41 -45 -109q94 -68 143 -198q1 -4 5 -4q3 0 4 4q49 130 143 198q-7 78 -55 119q-39 32 -92 32z" />
    <glyph glyph-name="uniFECF" unicode="&#x63a;" horiz-adv-x="640" arabic-form="initial" 
d="M411 600h-78v102h78v-102zM374 496q67 0 122 -32q44 -26 67 -66l-61 -34q-49 67 -130 67q-64 0 -109 -51q-44 -49 -44 -123q1 -112 71 -161q46 -31 110 -31h184v-65h-584v65h226q-40 31 -62 78.5t-22 104.5q0 116 71 186q64 62 161 62z" />
    <glyph glyph-name="uniFED0" unicode="&#x63a;" horiz-adv-x="665" arabic-form="medial" 
d="M406 599h-78v102h78v-102zM366 496q106 0 167 -68q56 -62 59 -167q-109 -82 -151 -196h241v-65h-234h-6q-54 0 -76 15q-14 -9 -29.5 -12t-52.5 -3h-284v65h291q-42 113 -150 196q3 121 75 183q58 52 150 52zM367 429q-62 0 -103 -42q-40 -41 -45 -109q43 -31 75.5 -76.5
t67.5 -121.5q1 -4 5 -4q3 0 4 4q49 130 143 198q-7 78 -55 119q-39 32 -92 32z" />
    <glyph glyph-name="uniFED2" unicode="&#x641;" horiz-adv-x="1020" arabic-form="final" 
d="M773 599h-78v102h78v-102zM1037 0h-233q-45 0 -70 13q-25 -13 -70 -13h-381q-110 0 -172 76q-48 60 -48 141q0 128 76 214l55 -38q-60 -72 -60 -170q0 -69 46 -114q44 -44 117 -44h337q-45 30 -76 90t-31 121q0 107 60 166q55 54 147 54q105 0 161 -69q46 -58 46 -151
q0 -70 -39 -136q-30 -49 -68 -75h203v-65zM734 431q-70 0 -104 -58q-24 -41 -24 -95q0 -65 40 -122q34 -49 88 -80q63 36 97 94q31 51 31 108q0 64 -32 107q-35 46 -96 46z" />
    <glyph glyph-name="uniFED3" unicode="&#x641;" horiz-adv-x="641" arabic-form="initial" 
d="M402 599h-78v102h78v-102zM364 496q108 0 156 -59q44 -53 44 -158v-63q0 -119 -57 -171q-49 -45 -143 -45h-364v65h217q-54 45 -54 151v63q0 119 58 172q49 45 143 45zM363 431q-123 0 -123 -145v-77q0 -78 33 -113q30 -31 90 -31q68 0 98 41q25 35 25 103v77
q0 78 -33 113q-30 32 -90 32z" />
    <glyph glyph-name="uniFED4" unicode="&#x641;" horiz-adv-x="632" arabic-form="medial" 
d="M386 599h-78v102h78v-102zM346 496q105 0 161 -69q46 -58 46 -151q0 -70 -39 -136q-30 -49 -68 -75h203v-65h-233q-45 0 -70 13q-25 -13 -70 -13h-276v65h246q-45 30 -76 90t-31 121q0 107 60 166q55 54 147 54zM346 431q-70 0 -104 -58q-24 -41 -24 -95q0 -65 40 -122
q34 -49 88 -80q63 36 97 94q31 51 31 108q0 64 -32 107q-35 46 -96 46z" />
    <glyph glyph-name="uniFED6" unicode="&#x642;" horiz-adv-x="791" arabic-form="final" 
d="M455 599h-67v102h67v-102zM594 599h-67v102h67v-102zM806 0h-117q-16 -115 -93 -185q-83 -75 -219 -75q-152 0 -238 95q-76 83 -76 214q0 107 49 188l57 -38q-33 -70 -33 -141q0 -126 76 -193q64 -57 166 -57q111 0 175 69q46 50 58 123h-125q-194 0 -194 216v63
q0 119 58 172q49 45 143 45q107 0 156 -59q43 -53 43 -158v-214h114v-65zM492 431q-123 0 -123 -145v-77q0 -78 33 -113q30 -31 90 -31h122v221q0 78 -32 113q-30 32 -90 32z" />
    <glyph glyph-name="uniFED7" unicode="&#x642;" horiz-adv-x="641" arabic-form="initial" 
d="M327 600h-67v102h67v-102zM466 600h-67v102h67v-102zM364 496q108 0 156 -59q44 -53 44 -158v-63q0 -119 -57 -171q-49 -45 -143 -45h-364v65h217q-54 45 -54 151v63q0 119 58 172q49 45 143 45zM363 431q-123 0 -123 -145v-77q0 -78 33 -113q30 -31 90 -31q68 0 98 41
q25 35 25 103v77q0 78 -33 113q-30 32 -90 32z" />
    <glyph glyph-name="uniFED8" unicode="&#x642;" horiz-adv-x="632" arabic-form="medial" 
d="M307 600h-67v102h67v-102zM446 600h-67v102h67v-102zM346 496q105 0 161 -69q46 -58 46 -151q0 -70 -39 -136q-30 -49 -68 -75h203v-65h-233q-45 0 -70 13q-25 -13 -70 -13h-276v65h246q-45 30 -76 90t-31 121q0 107 60 166q55 54 147 54zM346 431q-70 0 -104 -58
q-24 -41 -24 -95q0 -65 40 -122q34 -49 88 -80q63 36 97 94q31 51 31 108q0 64 -32 107q-35 46 -96 46z" />
    <glyph glyph-name="uniFEDA" unicode="&#x643;" horiz-adv-x="891" arabic-form="final" 
d="M908 0h-120q-54 0 -71 30q-43 -30 -113 -30h-321q-110 0 -172 76q-48 60 -48 141q0 128 76 214l55 -38q-60 -72 -60 -170q0 -69 46 -114q44 -44 117 -44h307q57 0 87 41q25 35 25 94v514h78v-507q0 -84 -39 -132q9 -10 33 -10h120v-65zM547 407q0 -36 -22.5 -56.5
t-63.5 -20.5h-89v42h92q16 0 26 9.5t10 24.5q0 16 -9.5 25.5t-26.5 9.5h-68v14q0 25 19 49l30 37h50l-47 -57h13q42 0 64 -21q22 -20 22 -56z" />
    <glyph glyph-name="uniFEDB" unicode="&#x643;" horiz-adv-x="599" arabic-form="initial" 
d="M211 485h121q98 0 147 -60q44 -53 44 -147v-71q0 -107 -57 -161q-49 -46 -134 -46h-332v65h332q58 0 88 41q25 35 25 94v85q0 67 -33 103q-29 32 -80 32h-212v28q0 21 8 37.5t32 45.5l150 183h89z" />
    <glyph glyph-name="uniFEDC" unicode="&#x643;" horiz-adv-x="620" arabic-form="medial" 
d="M636 0h-120q-55 0 -71 30q-43 -30 -113 -30h-332v65h332q58 0 88 41q25 35 25 94v85q0 67 -33 103q-29 32 -80 32h-212v28q0 21 8 37.5t32 45.5l150 183h89l-188 -229h121q98 0 147 -60q44 -53 44 -147v-71q0 -84 -40 -132q9 -10 34 -10h119v-65z" />
    <glyph glyph-name="uniFEDE" unicode="&#x644;" horiz-adv-x="750" arabic-form="final" 
d="M767 0h-81q-18 0 -35 5q-11 -136 -95 -204q-74 -61 -196 -61q-78 0 -145 35q-69 36 -108 101q-43 71 -43 164q0 68 21.5 134t59.5 114l56 -38q-30 -41 -47.5 -95t-17.5 -108q0 -121 79 -187q61 -52 146 -52q105 0 162 65q53 60 53 166v675h77v-640q8 -9 31 -9h83v-65z
" />
    <glyph glyph-name="uniFEDF" unicode="&#x644;" horiz-adv-x="328" arabic-form="initial" 
d="M240 714v-507q0 -107 -57 -161q-48 -46 -133 -46h-50v65h50q57 0 87 41q25 35 25 94v514h78z" />
    <glyph glyph-name="uniFEE0" unicode="&#x644;" horiz-adv-x="337" arabic-form="medial" 
d="M354 0h-120q-57 0 -71 30q-45 -30 -113 -30h-50v65h50q57 0 87 41q25 35 25 94v514h78v-507q0 -85 -39 -132q8 -10 33 -10h120v-65z" />
    <glyph glyph-name="uniFEE2" unicode="&#x645;" horiz-adv-x="699" arabic-form="final" 
d="M392 496q108 0 156 -59q44 -53 44 -158v-79q0 -65 32 -102q29 -33 75 -33h17v-65h-21q-84 3 -127 63q-40 -103 -176 -103q-137 0 -176 101q-43 -4 -62 -23.5t-19 -61.5v-324h-78v315q0 86 42 124q32 29 95 35q-3 24 -3 50v103q0 119 58 172q49 45 143 45zM391 431
q-123 0 -123 -145v-117q0 -145 123 -145q68 0 98 42q25 35 25 103v117q0 78 -33 113q-30 32 -90 32z" />
    <glyph glyph-name="uniFEE3" unicode="&#x645;" horiz-adv-x="640" arabic-form="initial" 
d="M364 496q107 0 155 -59q44 -53 44 -158v-104q0 -118 -57 -171q-49 -45 -142 -45q-138 0 -178 104q-44 -63 -136 -63h-50v65h50q57 0 87 41q25 35 25 94v79q0 119 58 172q50 45 144 45zM486 169v117q0 78 -33 113q-30 32 -90 32q-123 0 -123 -145v-117q0 -145 123 -145
q68 0 98 42q25 35 25 103z" />
    <glyph glyph-name="uniFEE4" unicode="&#x645;" horiz-adv-x="671" arabic-form="medial" 
d="M688 0h-21q-84 3 -127 63q-40 -104 -176 -104q-138 0 -178 104q-44 -63 -136 -63h-50v65h50q57 0 87 41q25 35 25 94v79q0 119 58 172q50 45 144 45q107 0 155 -59q44 -53 44 -158v-79q0 -65 32 -102q29 -33 76 -33h17v-65zM486 169v117q0 78 -33 113q-30 32 -90 32
q-123 0 -123 -145v-117q0 -145 123 -145q68 0 98 42q25 35 25 103z" />
    <glyph glyph-name="uniFEE6" unicode="&#x646;" horiz-adv-x="750" arabic-form="final" 
d="M402 521h-78v102h78v-102zM653 485v-411q8 -9 31 -9h83v-65h-81q-18 0 -35 5q-11 -136 -95 -204q-74 -61 -196 -61q-78 0 -145 35q-69 36 -108 101q-43 71 -43 164q0 68 21.5 134t59.5 114l56 -38q-30 -41 -47.5 -95t-17.5 -108q0 -121 79 -187q61 -52 146 -52
q105 0 162 65q53 60 53 166v446h77z" />
    <glyph glyph-name="uniFEE7" unicode="&#x646;" horiz-adv-x="328" arabic-form="initial" 
d="M240 599h-78v102h78v-102zM240 485v-278q0 -107 -57 -161q-48 -46 -133 -46h-50v65h50q57 0 87 41q25 35 25 94v285h78z" />
    <glyph glyph-name="uniFEE8" unicode="&#x646;" horiz-adv-x="337" arabic-form="medial" 
d="M240 599h-78v102h78v-102zM354 0h-120q-57 0 -71 30q-45 -30 -113 -30h-50v65h50q57 0 87 41q25 35 25 94v285h78v-278q0 -85 -39 -132q8 -10 33 -10h120v-65z" />
    <glyph glyph-name="uniFEEA" unicode="&#x647;" horiz-adv-x="585" arabic-form="final" 
d="M478 514v-314q0 -65 31 -102q29 -33 76 -33h17v-65h-21q-102 0 -149 79q-27 -24 -72.5 -39.5t-87.5 -15.5q-195 0 -195 216v39q0 216 196 216q72 0 127 -29v48h78zM278 431q-124 0 -124 -145v-53q0 -145 122 -145q34 0 69.5 14.5t60.5 38.5q-6 24 -6 91v161
q-44 38 -122 38z" />
    <glyph glyph-name="uniFEEB" unicode="&#x647;" horiz-adv-x="795" arabic-form="initial" 
d="M0 65h184q-25 14 -45.5 57t-20.5 83q0 83 47 133q43 47 115 47q82 0 126 -60q36 -48 36 -120q0 -44 -24 -90q-20 -38 -42 -50h166q58 0 88 42q25 35 25 96q0 107 -61 170q-56 58 -147 58q-99 0 -194 -43l32 72q76 36 173 36q130 -2 204 -80q71 -76 71 -207
q0 -108 -56 -162q-49 -47 -134 -47h-169h-12q-53 -1 -81 14q-27 -15 -78 -14h-14h-189v65zM280 72q49 11 77 57q22 37 22 80q0 51 -25 85q-27 35 -74 35q-53 0 -80 -44q-19 -32 -19 -76q0 -50 29 -90q28 -37 70 -47z" />
    <glyph glyph-name="uniFEEC" unicode="&#x647;" horiz-adv-x="811" arabic-form="medial" 
d="M828 0h-102q-56 0 -71 30q-45 -30 -112 -30h-169h-12q-53 -1 -81 14q-27 -15 -78 -14h-14h-189v65h184q-25 14 -45.5 57t-20.5 83q0 83 47 133q43 47 115 47q82 0 126 -60q36 -48 36 -120q0 -44 -24 -90q-20 -38 -42 -50h166q58 0 88 42q25 35 25 96q0 107 -61 170
q-56 58 -147 58q-99 0 -194 -43l32 72q76 36 173 36q130 -2 204 -80q71 -76 71 -207q0 -87 -36 -138q10 -6 29 -6h102v-65zM280 72q49 11 77 57q22 37 22 80q0 51 -25 85q-27 35 -74 35q-53 0 -80 -44q-19 -32 -19 -76q0 -50 29 -90q28 -37 70 -47z" />
    <glyph glyph-name="uniFEEE" unicode="&#x648;" horiz-adv-x="574" arabic-form="final" 
d="M278 496q107 0 156 -59q43 -53 43 -158v-214h114v-65h-114v-30q-1 -122 -64 -180q-55 -50 -151 -50q-86 0 -161 39l26 60q60 -32 127 -32q146 0 146 156v37h-129q-194 0 -194 216v63q0 119 58 172q49 45 143 45zM277 431q-123 0 -123 -145v-77q0 -78 33 -113
q30 -31 90 -31h122v221q0 78 -32 113q-30 32 -90 32z" />
    <glyph glyph-name="uniFEF0" unicode="&#x649;" horiz-adv-x="703" arabic-form="final" 
d="M720 0h-34q0 -52 -29 -108q-35 -66 -99 -105q-76 -47 -181 -47q-152 0 -238 95q-76 83 -76 214q0 107 49 188l57 -38q-33 -70 -33 -141q0 -126 76 -193q64 -57 166 -57q118 0 185 78q45 52 45 102q0 12 -12 12h-138v65h262v-65z" />
    <glyph glyph-name="uniFEF2" unicode="&#x64a;" horiz-adv-x="703" arabic-form="final" 
d="M720 0h-34q0 -52 -29 -108q-35 -66 -99 -105q-76 -47 -181 -47q-152 0 -238 95q-76 83 -76 214q0 107 49 188l57 -38q-33 -70 -33 -141q0 -126 76 -193q64 -57 166 -57q118 0 185 78q45 52 45 102q0 12 -12 12h-138v65h262v-65zM339 -464h-67v102h67v-102zM478 -464h-67
v102h67v-102z" />
    <glyph glyph-name="uniFEF3" unicode="&#x64a;" horiz-adv-x="328" arabic-form="initial" 
d="M240 485v-278q0 -107 -57 -161q-48 -46 -133 -46h-50v65h50q57 0 87 41q25 35 25 94v285h78zM93 -210h-67v102h67v-102zM232 -210h-67v102h67v-102z" />
    <glyph glyph-name="uniFEF4" unicode="&#x64a;" horiz-adv-x="337" arabic-form="medial" 
d="M354 0h-120q-57 0 -71 30q-45 -30 -113 -30h-50v65h50q57 0 87 41q25 35 25 94v285h78v-278q0 -85 -39 -132q8 -10 33 -10h120v-65zM94 -210h-67v102h67v-102zM233 -210h-67v102h67v-102z" />
    <glyph glyph-name=".notdef" horiz-adv-x="200" 
d="M20 0v667h160v-667h-160zM160 20v627h-120v-627h120z" />
    <glyph glyph-name="glyph1" horiz-adv-x="0" 
 />
    <glyph glyph-name="glyph2" horiz-adv-x="200" 
 />
    <glyph glyph-name="space" unicode=" " horiz-adv-x="200" 
 />
    <glyph glyph-name="exclam" unicode="!" horiz-adv-x="310" 
d="M122 191l-12 523h90l-12 -523h-66zM116 0v100h80v-100h-80z" />
    <glyph glyph-name="quotedbl" unicode="&#x22;" horiz-adv-x="410" 
d="M87 450l-6 264h83l-6 -264h-71zM251 450l-5 264h82l-5 -264h-72z" />
    <glyph glyph-name="numbersign" unicode="#" 
d="M140 287l15 117h-112l9 55h113l26 186h69l-27 -186h107l27 186h69l-27 -186h114l-9 -55h-114l-15 -117h112l-9 -55h-113l-24 -190h-69l25 190h-107l-25 -190h-69l25 190h-114l9 55h114zM209 287h107l15 117h-107z" />
    <glyph glyph-name="dollar" unicode="$" 
d="M23 112l64 42q48 -77 178 -77q83 0 126 35q37 31 37 83q0 59 -44 87q-20 14 -37 19t-96 24q-116 27 -164 78q-42 45 -42 118q0 52 23 93.5t64 63.5q35 20 101 26v108h79v-110q56 -6 99 -28.5t63 -57.5l-63 -41q-44 62 -148 62q-69 0 -105 -33q-32 -29 -32 -77
q0 -55 42 -85q38 -27 124 -47q71 -17 97 -26t52 -26q68 -45 68 -141q0 -170 -197 -191v-144h-79v142q-79 4 -136 34q-50 27 -74 69z" />
    <glyph glyph-name="percent" unicode="%" horiz-adv-x="883" 
d="M44 476v89q0 88 41 125q36 33 108 33q83 0 119 -43q31 -38 31 -115v-89q0 -87 -41 -124q-36 -33 -109 -33q-82 0 -118 43q-31 38 -31 114zM275 484v73q0 113 -81 113q-82 0 -82 -113v-73q0 -112 82 -112q81 0 81 112zM539 149v89q0 87 41 124q36 33 109 33q83 0 119 -43
q31 -38 31 -114v-89q0 -88 -41 -125q-36 -33 -109 -33q-83 0 -119 43q-31 38 -31 115zM771 157v73q0 112 -82 112t-82 -112v-73q0 -113 82 -113t82 113zM292 0l224 714h75l-224 -714h-75z" />
    <glyph glyph-name="ampersand" unicode="&#x26;" horiz-adv-x="814" 
d="M602 0l-58 76q-52 -52 -124 -81q-63 -26 -124 -26q-98 0 -150 55q-46 49 -46 129q0 101 94 175q32 25 101 64q-57 76 -75 111.5t-18 72.5q0 75 56 119q48 38 123 38q89 0 140 -50q45 -43 45 -110q0 -57 -35.5 -103.5t-119.5 -100.5l141 -187q51 68 71 146h79
q-34 -117 -103 -202l100 -126h-97zM363 427q66 37 95 70.5t29 73.5q0 47 -32 73q-28 23 -71 23q-50 0 -78 -29q-25 -24 -25 -62q0 -25 16 -54.5t66 -94.5zM499 129l-154 204q-65 -36 -89 -54q-73 -51 -73 -125q0 -58 38 -88q33 -27 88 -27q97 0 190 90z" />
    <glyph glyph-name="quotesingle" unicode="'" horiz-adv-x="245" 
d="M87 450l-6 264h83l-6 -264h-71z" />
    <glyph glyph-name="parenleft" unicode="(" horiz-adv-x="434" 
d="M354 -84l-59 -37q-87 126 -122 242q-31 102 -31 224q0 139 41 254q36 101 112 211l59 -37q-48 -83 -74 -144q-55 -128 -55 -285q0 -163 63 -301q30 -66 66 -127z" />
    <glyph glyph-name="parenright" unicode=")" horiz-adv-x="434" 
d="M80 773l59 37q87 -125 122 -242q31 -101 31 -223q0 -139 -41 -254q-36 -102 -112 -212l-59 37q42 72 74 144q55 128 55 285q0 163 -63 301q-25 55 -66 127z" />
    <glyph glyph-name="asterisk" unicode="*" 
d="M270 516l-91 -150l-67 46l106 142l-165 35l20 75l163 -52l-7 164h82l-7 -164l162 52l21 -75l-165 -35l106 -142l-67 -46z" />
    <glyph glyph-name="plus" unicode="+" 
d="M35 330v66h200v204h71v-204h199v-66h-199v-203h-71v203h-200z" />
    <glyph glyph-name="comma" unicode="," horiz-adv-x="281" 
d="M57 -188l47 287h90l-68 -287h-69z" />
    <glyph glyph-name="hyphen" unicode="-" horiz-adv-x="476" 
d="M97 328v70h281v-70h-281z" />
    <glyph glyph-name="period" unicode="." horiz-adv-x="282" 
d="M100 0v100h83v-100h-83z" />
    <glyph glyph-name="slash" unicode="/" horiz-adv-x="409" 
d="M46 -22l238 758h80l-238 -758h-80z" />
    <glyph glyph-name="zero" unicode="0" 
d="M69 252v210q0 135 44 192q53 69 157 69q111 0 164 -81q36 -57 36 -180v-210q0 -135 -44 -192q-53 -69 -156 -69q-112 0 -165 81q-36 57 -36 180zM388 260v194q0 113 -31 159q-28 40 -87 40q-68 0 -95 -53q-24 -46 -24 -146v-194q0 -113 32 -159q27 -40 87 -40q67 0 94 53
q24 46 24 146z" />
    <glyph glyph-name="one" unicode="1" 
d="M244 0v626l-123 -54l-26 66l175 76h57v-714h-83z" />
    <glyph glyph-name="two" unicode="2" 
d="M55 0v55l198 257q108 141 108 237q0 104 -107 104q-96 0 -120 -107l-75 7q9 87 68 131q51 39 132 39q95 0 143 -52q42 -46 42 -126q0 -65 -27.5 -123t-108.5 -165l-143 -187h284v-70h-394z" />
    <glyph glyph-name="three" unicode="3" 
d="M170 343v67h60q63 0 99 38q32 33 32 84q0 61 -33 93q-29 28 -78 28q-44 0 -73 -22.5t-38 -62.5l-74 7q20 148 189 148q98 0 147 -55q43 -49 43 -134q0 -59 -21 -94.5t-72 -62.5q59 -27 85 -70t26 -112q0 -106 -62 -159q-53 -45 -150 -45q-98 0 -151 45q-46 39 -54 108
l79 10q18 -93 124 -93q66 0 101 41q30 35 30 95q0 69 -45 110q-40 36 -99 36h-65z" />
    <glyph glyph-name="four" unicode="4" 
d="M341 0v132h-290v52l228 530h88l-222 -513h196v219h76v-219h71v-70h-71v-131h-76z" />
    <glyph glyph-name="five" unicode="5" 
d="M91 344l34 370h322v-70h-253l-24 -227q50 27 107 27q49 0 89.5 -18.5t63.5 -50.5q38 -51 38 -157q0 -112 -46 -162q-56 -65 -166 -65q-176 0 -196 153l79 10q9 -48 43 -72q30 -21 76 -21q66 0 98 44q29 39 29 108q0 89 -33 129q-30 34 -88 34q-65 0 -113 -45z" />
    <glyph glyph-name="six" unicode="6" 
d="M379 714l-160 -290q28 18 74 18q92 0 141 -68q35 -50 35 -156q0 -122 -48 -173q-52 -54 -150 -54q-108 0 -159 65q-39 48 -39 162q0 58 10.5 97.5t42.5 99.5l160 299h93zM273 376q-65 0 -93 -43q-24 -38 -24 -114q0 -87 32 -125q28 -33 83 -33q63 0 91 43q24 38 24 114
q0 86 -31 125q-28 33 -82 33z" />
    <glyph glyph-name="seven" unicode="7" 
d="M145 0l227 644h-289v70h376v-50l-226 -664h-88z" />
    <glyph glyph-name="eight" unicode="8" 
d="M150 378q-39 28 -54 62t-15 92q0 191 189 191q188 0 188 -191q0 -58 -15 -92t-54 -62q47 -23 68 -64.5t21 -112.5q0 -115 -58 -166q-50 -44 -150 -44q-114 0 -165 58q-44 51 -44 152q0 71 21 112.5t68 64.5zM271 657q-61 0 -88 -34q-23 -31 -23 -91q0 -70 30 -100
q27 -26 80 -26q60 0 86 35q23 30 23 91q0 125 -108 125zM271 340q-70 0 -101 -38q-26 -34 -26 -102q0 -76 35 -110q30 -29 91 -29q69 0 99 39q26 33 26 100q0 140 -124 140z" />
    <glyph glyph-name="nine" unicode="9" 
d="M162 0l161 313q-39 -12 -76 -12q-72 0 -118 38q-31 25 -44.5 65t-13.5 105q0 118 55 169q48 45 144 45q106 0 157 -60q40 -49 40 -151q0 -54 -8 -87.5t-32 -81.5l-172 -343h-93zM271 653q-117 0 -117 -143q0 -144 115 -144t115 143q0 144 -113 144z" />
    <glyph glyph-name="colon" unicode=":" horiz-adv-x="282" 
d="M100 0v100h83v-100h-83zM100 403v100h83v-100h-83z" />
    <glyph glyph-name="semicolon" unicode=";" horiz-adv-x="282" 
d="M57 -188l47 287h90l-68 -287h-69zM107 403v100h83v-100h-83z" />
    <glyph glyph-name="less" unicode="&#x3c;" 
d="M142 366l316 -157v-76l-409 207v51l409 208v-76z" />
    <glyph glyph-name="equal" unicode="=" 
d="M49 252v63h443v-63h-443zM49 412v63h443v-63h-443z" />
    <glyph glyph-name="greater" unicode="&#x3e;" 
d="M398 366l-316 157v76l409 -208v-51l-409 -207v76z" />
    <glyph glyph-name="question" unicode="?" horiz-adv-x="584" 
d="M254 190v35q-1 58 18 93.5t76 84.5q43 38 57 57q28 38 28 80q0 54 -41 86q-35 28 -87 28q-74 0 -115 -55q-19 -27 -34 -85l-77 13q40 197 228 197q102 0 159 -58q50 -50 50 -129q0 -73 -54 -133q-21 -21 -81 -72q-62 -55 -61 -114v-28h-66zM248 0v100h80v-100h-80z" />
    <glyph glyph-name="at" unicode="@" horiz-adv-x="898" 
d="M599 516h54l-52 -243q-7 -35 -7 -53q0 -43 46 -43q62 0 102 68q35 59 35 141q0 54 -17 104.5t-46 84.5q-42 47 -115 73q-64 22 -138 22q-166 0 -259 -114q-80 -99 -80 -257q0 -174 98 -254q89 -72 245 -72q130 0 246 53l22 -50q-65 -33 -127.5 -47t-140.5 -14
q-214 0 -318 110q-91 97 -91 270q0 213 124 330q109 102 284 102q185 0 287 -105q90 -91 90 -236q0 -124 -67 -200q-57 -66 -141 -66q-45 0 -66.5 19t-25.5 63q-31 -45 -64 -64.5t-77 -19.5q-66 0 -100 41q-29 36 -29 98q0 114 65 198q55 72 141 72q40 0 65 -15.5t43 -51.5z
M481 470q-60 0 -99 -65q-41 -66 -41 -145q0 -83 70 -83q63 0 106 72q42 68 42 138q0 40 -24 63q-21 20 -54 20z" />
    <glyph glyph-name="A" unicode="A" horiz-adv-x="600" 
d="M457 156h-313l-54 -156h-90l261 714h79l261 -714h-90zM436 225l-135 383l-135 -383h270z" />
    <glyph glyph-name="B" unicode="B" horiz-adv-x="639" 
d="M104 0v714h263q54 0 88 -10t60 -33q55 -52 55 -142q0 -107 -84 -156l9 -6q28 -17 38.5 -26t19.5 -26q31 -49 31 -122q0 -104 -63 -155q-25 -21 -56.5 -29.5t-83.5 -8.5h-277zM187 401h174q60 0 90 26q36 33 36 96q0 69 -41 100q-30 22 -85 22h-174v-244zM187 69h189
q58 0 89 28q16 15 26 42.5t10 59.5q0 74 -41 108q-31 25 -84 25h-189v-263z" />
    <glyph glyph-name="C" unicode="C" horiz-adv-x="632" 
d="M481 177l77 -9q-6 -91 -74 -137q-59 -40 -158 -40q-136 0 -196 90q-23 35 -33 81t-10 121v147q0 81 12 130t41 85q62 77 187 77q110 0 169 -53q51 -47 55 -127l-76 -6q-8 60 -51 90q-37 26 -96 26q-90 0 -126 -60q-32 -53 -32 -166v-138q0 -130 42 -182q37 -45 117 -45
q69 0 109 34q35 30 43 82z" />
    <glyph glyph-name="D" unicode="D" horiz-adv-x="678" 
d="M104 0v714h228q139 2 205 -77q57 -69 54 -195v-170q4 -144 -71 -213q-66 -60 -188 -59h-228zM187 69h131q105 -2 150 56q40 51 40 155v154q0 118 -52 169q-46 44 -138 42h-131v-576z" />
    <glyph glyph-name="E" unicode="E" horiz-adv-x="579" 
d="M104 0v714h417v-70h-335v-248h286v-70h-286v-256h336v-70h-418z" />
    <glyph glyph-name="F" unicode="F" horiz-adv-x="546" 
d="M104 0v714h414v-70h-331v-253h281v-70h-281v-321h-83z" />
    <glyph glyph-name="G" unicode="G" horiz-adv-x="663" 
d="M356 308v67h231v-112q0 -71 -12 -115.5t-41 -79.5q-65 -77 -196 -77q-142 0 -207 90q-24 35 -34 80.5t-10 121.5v146q0 83 12.5 132t42.5 84q64 77 190 77q114 0 174 -53q53 -46 58 -127l-77 -6q-8 59 -53 90q-39 26 -100 26q-93 0 -131 -60q-33 -53 -33 -167v-138
q0 -129 44 -181q39 -45 123 -45q93 0 135 59q33 44 33 126v62h-149z" />
    <glyph glyph-name="H" unicode="H" horiz-adv-x="681" 
d="M104 0v714h83v-318h306v318h83v-714h-83v326h-306v-326h-83z" />
    <glyph glyph-name="I" unicode="I" horiz-adv-x="291" 
d="M104 0v714h83v-714h-83z" />
    <glyph glyph-name="J" unicode="J" horiz-adv-x="465" 
d="M283 714h83v-435q0 -91 -5 -131t-21 -69q-47 -88 -172 -88q-54 0 -95.5 16t-81.5 53l46 57q56 -56 126 -56q82 0 108 75q12 35 12 141v437z" />
    <glyph glyph-name="K" unicode="K" horiz-adv-x="618" 
d="M105 0v714h82v-391l306 391h98l-232 -288l256 -426h-95l-214 368l-119 -148v-220h-82z" />
    <glyph glyph-name="L" unicode="L" horiz-adv-x="533" 
d="M104 0v714h83v-644h336v-70h-419z" />
    <glyph glyph-name="M" unicode="M" horiz-adv-x="816" 
d="M104 0v714h80l224 -467l224 467h80v-714h-80v551l-197 -405h-53l-198 405v-551h-80z" />
    <glyph glyph-name="N" unicode="N" horiz-adv-x="721" 
d="M104 0v714h80l352 -572v572h81v-714h-80l-352 572v-572h-81z" />
    <glyph glyph-name="O" unicode="O" horiz-adv-x="676" 
d="M87 269v176q0 74 13.5 121t45.5 83q67 74 192 74q136 0 203 -86q26 -34 37 -78.5t11 -113.5v-176q0 -76 -13.5 -122.5t-45.5 -81.5q-67 -74 -192 -74q-136 0 -202 86q-26 34 -37.5 78.5t-11.5 113.5zM506 277v160q0 60 -9 96t-30 63q-42 57 -129 57q-93 0 -136 -66
q-32 -51 -32 -150v-160q0 -60 9 -96t30 -63q42 -57 129 -57q93 0 136 66q32 51 32 150z" />
    <glyph glyph-name="P" unicode="P" horiz-adv-x="607" 
d="M188 278v-278h-83v714h230q67 0 108 -13t69 -44q52 -55 52 -161q0 -115 -61 -170q-28 -26 -67 -37t-101 -11h-147zM187 347h148q80 0 115 41q31 37 31 108q0 82 -40 117q-36 32 -106 32h-148v-298z" />
    <glyph glyph-name="Q" unicode="Q" horiz-adv-x="676" 
d="M594 -18l-81 65q-65 -56 -175 -56q-136 0 -202 86q-26 34 -37.5 78.5t-11.5 113.5v176q0 74 13.5 121t45.5 83q67 74 192 74q136 0 203 -86q26 -34 37 -78.5t11 -113.5v-176q0 -61 -8 -99t-27 -72l82 -66zM450 98l-107 86l43 49l101 -81q11 27 15 52.5t4 72.5v160
q0 60 -9 96t-30 63q-42 57 -129 57q-93 0 -136 -66q-32 -51 -32 -150v-160q0 -60 9 -96t30 -63q42 -57 129 -57q71 0 112 37z" />
    <glyph glyph-name="R" unicode="R" horiz-adv-x="646" 
d="M188 308v-308h-83v714h245q63 0 102.5 -12t67.5 -40q51 -52 51 -147q0 -93 -41 -142q-36 -43 -106 -56l157 -317h-92l-147 308h-154zM187 377h164q137 0 137 134q0 73 -40 106q-36 28 -106 28h-155v-268z" />
    <glyph glyph-name="S" unicode="S" horiz-adv-x="579" 
d="M45 96l65 42q46 -77 176 -77q83 0 126 38q38 33 38 90q0 62 -43 92q-20 14 -36.5 20t-95.5 25q-117 29 -163 81q-41 45 -41 122q0 98 66 149q57 45 153 45q147 0 206 -90l-63 -41q-45 62 -146 62q-67 0 -104 -36q-31 -32 -31 -84q0 -58 42 -90q36 -28 122 -50
q70 -17 95.5 -26t52.5 -28q67 -46 67 -147q0 -104 -72 -156q-63 -46 -173 -46q-175 0 -241 105z" />
    <glyph glyph-name="T" unicode="T" horiz-adv-x="554" 
d="M237 0v644h-206v70h493v-70h-204v-644h-83z" />
    <glyph glyph-name="U" unicode="U" horiz-adv-x="690" 
d="M101 714h83v-452q0 -53 6 -83.5t20 -54.5q22 -33 53.5 -48t81.5 -15q53 0 87 17.5t54 55.5q20 40 20 128v452h83v-452q0 -76 -9 -116.5t-34 -71.5q-33 -43 -81 -63t-120 -20q-149 0 -210 95q-19 30 -26.5 68t-7.5 108v452z" />
    <glyph glyph-name="V" unicode="V" horiz-adv-x="568" 
d="M249 0l-238 714h84l189 -593l189 593h84l-238 -714h-70z" />
    <glyph glyph-name="W" unicode="W" horiz-adv-x="876" 
d="M208 0l-180 714h84l135 -586l161 586h59l161 -586l136 586h84l-180 -714h-71l-159 569l-159 -569h-71z" />
    <glyph glyph-name="X" unicode="X" horiz-adv-x="564" 
d="M234 376l-193 338h91l158 -277l151 277h88l-196 -350l209 -364h-91l-174 303l-165 -303h-88z" />
    <glyph glyph-name="Y" unicode="Y" horiz-adv-x="532" 
d="M225 0v258l-225 456h88l179 -371l178 371h88l-225 -456v-258h-83z" />
    <glyph glyph-name="Z" unicode="Z" horiz-adv-x="543" 
d="M51 0v59l330 585h-312v70h405v-59l-330 -585h346v-70h-439z" />
    <glyph glyph-name="bracketleft" unicode="[" horiz-adv-x="434" 
d="M162 -98v885h191v-60h-111v-765h111v-60h-191z" />
    <glyph glyph-name="backslash" unicode="\" horiz-adv-x="409" 
d="M362 -22h-80l-238 758h80z" />
    <glyph glyph-name="bracketright" unicode="]" horiz-adv-x="434" 
d="M272 787v-885h-191v60h110v765h-110v60h191z" />
    <glyph glyph-name="asciicircum" unicode="^" 
d="M270 625l-141 -244h-92l210 338h45l210 -338h-92z" />
    <glyph glyph-name="underscore" unicode="_" horiz-adv-x="470" 
d="M-25 -175v59h520v-59h-520z" />
    <glyph glyph-name="grave" unicode="`" horiz-adv-x="500" 
d="M303 582h-61l-111 142h97z" />
    <glyph glyph-name="a" unicode="a" horiz-adv-x="525" 
d="M361 295v35q0 54 -18 80q-27 36 -92 36q-75 0 -120 -51l-55 42q65 75 182 75q118 0 161 -73q21 -38 21 -121v-318h-63l-6 36q-24 -25 -56.5 -35t-89.5 -10q-103 0 -142 39q-34 33 -34 110q0 92 48 126q42 29 143 29h121zM361 235h-113q-71 0 -99 -24q-24 -22 -24 -69
q0 -51 29 -69q26 -16 89 -16q78 0 104 33q14 18 14 67v78z" />
    <glyph glyph-name="b" unicode="b" horiz-adv-x="565" 
d="M89 0v714h79v-250q52 48 137 48q104 0 149 -62q40 -54 40 -161v-76q0 -123 -52 -176q-47 -47 -139 -47q-75 0 -118 29q-7 4 -29 24l-5 -43h-62zM415 218v66q0 162 -122 162q-125 0 -125 -154v-82q0 -154 125 -154q122 0 122 162z" />
    <glyph glyph-name="c" unicode="c" horiz-adv-x="475" 
d="M386 106l59 -36q-56 -79 -172 -79q-202 0 -202 234v41q0 133 56 193q48 53 143 53q115 0 166 -82l-61 -35q-22 29 -44 40t-56 11q-125 0 -125 -174v-55q0 -160 127 -160q70 0 109 49z" />
    <glyph glyph-name="d" unicode="d" horiz-adv-x="565" 
d="M414 0l-5 43l-3 -3l-2 -1q-9 -9 -14 -13q-16 -16 -52 -25.5t-77 -9.5q-104 0 -150 62q-40 53 -40 160v76q0 122 52 176q46 47 136 47q66 0 110 -25l2 -1q14 -11 26 -22v250h79v-714h-62zM150 284v-66q0 -161 122 -161q125 0 125 153v82q0 154 -125 154q-122 0 -122 -162z
" />
    <glyph glyph-name="e" unicode="e" horiz-adv-x="543" 
d="M151 235v-21q0 -82 41 -122q35 -35 99 -35q40 0 66.5 11.5t48.5 37.5l59 -38q-30 -41 -73 -59t-109 -18q-115 0 -167 66q-45 58 -45 171v43q0 133 56 190q49 51 148 51q113 0 161 -66q43 -59 43 -175v-36h-328zM151 295h252v8q0 62 -27 100q-30 43 -98 43q-40 0 -65 -12
t-41 -39q-21 -39 -21 -92v-8z" />
    <glyph glyph-name="f" unicode="f" horiz-adv-x="332" 
d="M110 436h-62v66h62v81q0 81 35 108q31 24 106 23h46v-65h-29q-47 2 -63 -13.5t-16 -62.5v-71h114v-66h-114v-436h-79v436z" />
    <glyph glyph-name="g" unicode="g" horiz-adv-x="565" 
d="M397 -8l1 47q-47 -48 -139 -48q-103 0 -148 62q-40 53 -40 160v76q0 122 52 176q46 47 138 47q98 0 147 -55l6 45h62v-502q0 -234 -214 -234q-120 0 -175 79l59 36q22 -27 48 -39t65 -12q74 0 107 44q29 39 31 118zM150 284v-66q0 -161 122 -161q125 0 125 153v82
q0 154 -125 154q-122 0 -122 -162z" />
    <glyph glyph-name="h" unicode="h" horiz-adv-x="565" 
d="M88 0v714h79v-252q44 50 132 50q132 0 167 -97q15 -43 15 -127v-288h-79v281q0 93 -30 130q-27 33 -84 33q-69 0 -97 -50q-24 -43 -24 -135v-259h-79z" />
    <glyph glyph-name="i" unicode="i" horiz-adv-x="255" 
d="M88 611v106h79v-106h-79zM88 0v502h79v-502h-79z" />
    <glyph glyph-name="j" unicode="j" horiz-adv-x="261" 
d="M93 502h79v-514q2 -133 -48 -178q-44 -41 -155 -40v67q73 -3 101 35q25 34 23 108v522zM93 611v106h79v-106h-79z" />
    <glyph glyph-name="k" unicode="k" horiz-adv-x="511" 
d="M88 0v714h79v-497l223 285h91l-171 -213l190 -289h-88l-150 230l-95 -118v-112h-79z" />
    <glyph glyph-name="l" unicode="l" horiz-adv-x="292" 
d="M87 714h79v-554q0 -54 18 -74t67 -19h26v-67h-29q-101 0 -133 39q-28 35 -28 128v547z" />
    <glyph glyph-name="m" unicode="m" horiz-adv-x="841" 
d="M88 0v502h61l6 -56q42 66 132 66q107 0 144 -82q22 43 58 62.5t92 19.5q128 0 161 -97q14 -41 14 -127v-288h-79v281q0 65 -12 101q-24 62 -93 62q-63 0 -89 -50q-22 -43 -22 -135v-259h-79v281q0 93 -28 130q-24 33 -76 33q-64 0 -89 -50q-22 -44 -22 -139v-255h-79z
" />
    <glyph glyph-name="n" unicode="n" horiz-adv-x="565" 
d="M88 0v502h61l6 -56q43 66 142 66q135 0 169 -97q15 -43 15 -127v-288h-79v281q0 93 -30 130q-27 33 -84 33q-69 0 -97 -50q-24 -44 -24 -139v-255h-79z" />
    <glyph glyph-name="o" unicode="o" horiz-adv-x="557" 
d="M71 212v78q0 121 57 175q50 47 149 47q115 0 165 -61q44 -54 44 -161v-78q0 -122 -58 -174q-50 -47 -151 -47q-113 0 -162 61q-44 54 -44 160zM407 217v68q0 88 -36 127q-31 34 -93 34q-70 0 -101 -45q-27 -39 -27 -116v-68q0 -87 36 -126q31 -34 92 -34q70 0 102 45
q27 39 27 115z" />
    <glyph glyph-name="p" unicode="p" horiz-adv-x="565" 
d="M89 -225v727h62l8 -42q49 52 146 52q104 0 149 -62q40 -54 40 -161v-76q0 -122 -52 -175q-46 -47 -137 -47q-85 0 -137 46v-262h-79zM415 218v66q0 162 -122 162q-125 0 -125 -154v-82q0 -153 125 -153q122 0 122 161z" />
    <glyph glyph-name="q" unicode="q" horiz-adv-x="565" 
d="M397 -225l1 262q-52 -46 -138 -46q-104 0 -149 62q-40 53 -40 160v76q0 122 52 176q46 47 137 47q97 0 146 -52l8 42h62v-727h-79zM150 284v-66q0 -161 122 -161q125 0 125 153v82q0 154 -125 154q-122 0 -122 -162z" />
    <glyph glyph-name="r" unicode="r" horiz-adv-x="375" 
d="M88 0v502h62l8 -47q40 57 120 57q50 0 97 -26l-33 -68q-36 24 -71 24q-58 0 -83 -53q-21 -47 -21 -144v-245h-79z" />
    <glyph glyph-name="s" unicode="s" horiz-adv-x="473" 
d="M29 69l58 37q27 -27 56.5 -38t78.5 -11q127 0 127 84q0 45 -34 62q-23 12 -93 21q-53 8 -80 17t-45 24q-40 34 -40 98q0 77 49 115q43 34 117 34q125 0 182 -80l-60 -37q-23 28 -49.5 39.5t-66.5 11.5q-96 0 -96 -79q0 -39 31 -58q21 -11 79 -19q59 -8 88 -16.5t49 -23.5
q45 -33 45 -111q0 -148 -200 -148q-142 0 -196 78z" />
    <glyph glyph-name="t" unicode="t" horiz-adv-x="334" 
d="M105 436h-61v66h61l4 161h75v-161h99v-66h-99v-277q0 -53 18 -73t67 -19h17v-67h-18q-68 0 -100 13q-35 14 -49 48.5t-14 105.5v269z" />
    <glyph glyph-name="u" unicode="u" horiz-adv-x="555" 
d="M84 502h79v-280q0 -66 13 -101q24 -62 96 -62q66 0 93 50q23 43 23 138v255h79v-502h-61l-6 56q-42 -65 -138 -65q-130 0 -163 97q-15 42 -15 126v288z" />
    <glyph glyph-name="v" unicode="v" horiz-adv-x="488" 
d="M208 0l-182 502h81l137 -398l137 398h81l-182 -502h-72z" />
    <glyph glyph-name="w" unicode="w" horiz-adv-x="771" 
d="M193 0l-155 502h81l110 -394l129 394h55l129 -394l111 394h81l-155 -502h-65l-128 378l-129 -378h-64z" />
    <glyph glyph-name="x" unicode="x" horiz-adv-x="464" 
d="M187 257l-151 245h90l113 -184l112 184h87l-160 -248l157 -254h-90l-118 192l-117 -192h-87z" />
    <glyph glyph-name="y" unicode="y" horiz-adv-x="488" 
d="M207 1l-185 501h80l147 -412l131 412h80l-197 -583q-20 -57 -37 -84.5t-39 -41.5q-35 -22 -127 -23v67q59 0 82 19q20 17 40 71z" />
    <glyph glyph-name="z" unicode="z" horiz-adv-x="475" 
d="M45 0v51l255 385h-235v66h334v-51l-255 -385h271v-66h-370z" />
    <glyph glyph-name="braceleft" unicode="{" horiz-adv-x="434" 
d="M242 571v-51q2 -79 -10 -108.5t-55 -46.5q44 -19 56 -53q11 -29 9 -102v-92q-1 -104 20 -133q19 -25 76 -26h20v-57h-36q-67 0 -101 16t-47.5 56.5t-11.5 121.5v113q2 85 -16 108q-15 21 -67 23h-8v50h8q32 1 48 8t24 22q13 24 11 100v73q-3 123 34 161q34 33 126 33h36
v-57h-20q-35 0 -53.5 -8.5t-27.5 -27.5q-16 -30 -15 -123z" />
    <glyph glyph-name="bar" unicode="|" 
d="M235 -98v885h71v-885h-71z" />
    <glyph glyph-name="braceright" unicode="}" horiz-adv-x="434" 
d="M192 118v92q-2 77 10.5 107t54.5 48q-45 18 -57 51q-10 30 -8 104v51q1 104 -20 133q-19 25 -75 26h-20v57h36q67 0 100 -16q34 -16 47.5 -56.5t11.5 -121.5v-73q-2 -85 16 -108q16 -20 68 -22h8v-50h-8q-58 -2 -73 -30q-13 -25 -11 -101v-113q3 -123 -34 -161
q-33 -33 -125 -33h-36v57h20q35 0 53 8.5t28 27.5q15 30 14 123z" />
    <glyph glyph-name="asciitilde" unicode="~" 
d="M96 298l-52 12q21 68 51 96.5t79 28.5q29 0 51.5 -8.5t58.5 -33.5q35 -24 51 -31t33 -7q49 0 77 71l51 -15q-22 -67 -56 -95q-29 -24 -75 -24q-27 0 -48.5 8.5t-56.5 32.5q-36 25 -51.5 32t-34.5 7q-51 0 -78 -74z" />
    <glyph glyph-name="Adieresis" unicode="&#xc4;" horiz-adv-x="600" 
d="M457 156h-313l-54 -156h-90l261 714h79l261 -714h-90zM436 225l-135 383l-135 -383h270zM166 797v104h72v-104h-72zM361 797v104h72v-104h-72z" />
    <glyph glyph-name="Aring" unicode="&#xc5;" horiz-adv-x="600" 
d="M457 156h-313l-54 -156h-90l261 714h79l261 -714h-90zM436 225l-135 383l-135 -383h270zM302 984q50 0 78 -31q25 -27 25 -70q0 -49 -33 -77q-28 -25 -72 -25q-51 0 -80 32q-25 27 -25 70q0 50 33 77q28 24 74 24zM301 942q-51 0 -51 -60q0 -59 50 -59t50 59q0 60 -49 60
z" />
    <glyph glyph-name="Ccedilla" unicode="&#xc7;" horiz-adv-x="632" 
d="M481 177l77 -9q-6 -91 -74 -137q-59 -40 -158 -40q-136 0 -196 90q-23 35 -33 81t-10 121v147q0 81 12 130t41 85q62 77 187 77q110 0 169 -53q51 -47 55 -127l-76 -6q-8 60 -51 90q-37 26 -96 26q-90 0 -126 -60q-32 -53 -32 -166v-138q0 -130 42 -182q37 -45 117 -45
q69 0 109 34q35 30 43 82zM236 -222l52 153h83l-79 -153h-56z" />
    <glyph glyph-name="Eacute" unicode="&#xc9;" horiz-adv-x="579" 
d="M104 0v714h417v-70h-335v-248h286v-70h-286v-256h336v-70h-418zM270 789l75 142h97l-112 -142h-60z" />
    <glyph glyph-name="Ntilde" unicode="&#xd1;" horiz-adv-x="721" 
d="M104 0v714h80l352 -572v572h81v-714h-80l-352 572v-572h-81zM258 804h-51q13 52 25 71q25 43 72 43q37 0 73 -32t53 -32q15 0 24 12.5t17 43.5h51q-12 -50 -23 -73q-23 -41 -71 -41q-38 0 -75 34q-21 18 -31 24t-21 6q-29 0 -43 -56z" />
    <glyph glyph-name="Odieresis" unicode="&#xd6;" horiz-adv-x="676" 
d="M87 269v176q0 74 13.5 121t45.5 83q67 74 192 74q136 0 203 -86q26 -34 37 -78.5t11 -113.5v-176q0 -76 -13.5 -122.5t-45.5 -81.5q-67 -74 -192 -74q-136 0 -202 86q-26 34 -37.5 78.5t-11.5 113.5zM506 277v160q0 60 -9 96t-30 63q-42 57 -129 57q-93 0 -136 -66
q-32 -51 -32 -150v-160q0 -60 9 -96t30 -63q42 -57 129 -57q93 0 136 66q32 51 32 150zM204 797v104h72v-104h-72zM399 797v104h72v-104h-72z" />
    <glyph glyph-name="Udieresis" unicode="&#xdc;" horiz-adv-x="690" 
d="M101 714h83v-452q0 -53 6 -83.5t20 -54.5q22 -33 53.5 -48t81.5 -15q53 0 87 17.5t54 55.5q20 40 20 128v452h83v-452q0 -76 -9 -116.5t-34 -71.5q-33 -43 -81 -63t-120 -20q-149 0 -210 95q-19 30 -26.5 68t-7.5 108v452zM211 797v104h72v-104h-72zM406 797v104h72v-104
h-72z" />
    <glyph glyph-name="aacute" unicode="&#xe1;" horiz-adv-x="525" 
d="M361 295v35q0 54 -18 80q-27 36 -92 36q-75 0 -120 -51l-55 42q65 75 182 75q118 0 161 -73q21 -38 21 -121v-318h-63l-6 36q-24 -25 -56.5 -35t-89.5 -10q-103 0 -142 39q-34 33 -34 110q0 92 48 126q42 29 143 29h121zM361 235h-113q-71 0 -99 -24q-24 -22 -24 -69
q0 -51 29 -69q26 -16 89 -16q78 0 104 33q14 18 14 67v78zM220 582l75 142h97l-112 -142h-60z" />
    <glyph glyph-name="agrave" unicode="&#xe0;" horiz-adv-x="525" 
d="M361 295v35q0 54 -18 80q-27 36 -92 36q-75 0 -120 -51l-55 42q65 75 182 75q118 0 161 -73q21 -38 21 -121v-318h-63l-6 36q-24 -25 -56.5 -35t-89.5 -10q-103 0 -142 39q-34 33 -34 110q0 92 48 126q42 29 143 29h121zM361 235h-113q-71 0 -99 -24q-24 -22 -24 -69
q0 -51 29 -69q26 -16 89 -16q78 0 104 33q14 18 14 67v78zM326 582h-61l-111 142h97z" />
    <glyph glyph-name="acircumflex" unicode="&#xe2;" horiz-adv-x="525" 
d="M361 295v35q0 54 -18 80q-27 36 -92 36q-75 0 -120 -51l-55 42q65 75 182 75q118 0 161 -73q21 -38 21 -121v-318h-63l-6 36q-24 -25 -56.5 -35t-89.5 -10q-103 0 -142 39q-34 33 -34 110q0 92 48 126q42 29 143 29h121zM361 235h-113q-71 0 -99 -24q-24 -22 -24 -69
q0 -51 29 -69q26 -16 89 -16q78 0 104 33q14 18 14 67v78zM262 667l-68 -81h-84l127 134h51l127 -134h-84z" />
    <glyph glyph-name="adieresis" unicode="&#xe4;" horiz-adv-x="525" 
d="M361 295v35q0 54 -18 80q-27 36 -92 36q-75 0 -120 -51l-55 42q65 75 182 75q118 0 161 -73q21 -38 21 -121v-318h-63l-6 36q-24 -25 -56.5 -35t-89.5 -10q-103 0 -142 39q-34 33 -34 110q0 92 48 126q42 29 143 29h121zM361 235h-113q-71 0 -99 -24q-24 -22 -24 -69
q0 -51 29 -69q26 -16 89 -16q78 0 104 33q14 18 14 67v78zM130 590v104h72v-104h-72zM323 590v104h72v-104h-72z" />
    <glyph glyph-name="atilde" unicode="&#xe3;" horiz-adv-x="525" 
d="M361 295v35q0 54 -18 80q-27 36 -92 36q-75 0 -120 -51l-55 42q65 75 182 75q118 0 161 -73q21 -38 21 -121v-318h-63l-6 36q-24 -25 -56.5 -35t-89.5 -10q-103 0 -142 39q-34 33 -34 110q0 92 48 126q42 29 143 29h121zM361 235h-113q-71 0 -99 -24q-24 -22 -24 -69
q0 -51 29 -69q26 -16 89 -16q78 0 104 33q14 18 14 67v78zM156 596h-51q13 52 25 72q25 43 72 43q37 0 73 -32t53 -32q15 0 24 12.5t17 43.5h51q-12 -52 -23 -73q-22 -42 -71 -42q-38 0 -75 34q-34 30 -51 30q-30 0 -44 -56z" />
    <glyph glyph-name="aring" unicode="&#xe5;" horiz-adv-x="525" 
d="M361 295v35q0 54 -18 80q-27 36 -92 36q-75 0 -120 -51l-55 42q65 75 182 75q118 0 161 -73q21 -38 21 -121v-318h-63l-6 36q-24 -25 -56.5 -35t-89.5 -10q-103 0 -142 39q-34 33 -34 110q0 92 48 126q42 29 143 29h121zM361 235h-113q-71 0 -99 -24q-24 -22 -24 -69
q0 -51 29 -69q26 -16 89 -16q78 0 104 33q14 18 14 67v78zM267 777q50 0 79 -32q25 -27 25 -69q0 -50 -33 -78q-28 -25 -72 -25q-51 0 -80 32q-25 28 -25 71q0 50 32 77q29 24 74 24zM267 735q-51 0 -51 -60t50 -60t50 60t-49 60z" />
    <glyph glyph-name="ccedilla" unicode="&#xe7;" horiz-adv-x="475" 
d="M386 106l59 -36q-56 -79 -172 -79q-202 0 -202 234v41q0 133 56 193q48 53 143 53q115 0 166 -82l-61 -35q-22 29 -44 40t-56 11q-125 0 -125 -174v-55q0 -160 127 -160q70 0 109 49zM168 -222l52 153h83l-79 -153h-56z" />
    <glyph glyph-name="eacute" unicode="&#xe9;" horiz-adv-x="543" 
d="M151 235v-21q0 -82 41 -122q35 -35 99 -35q40 0 66.5 11.5t48.5 37.5l59 -38q-30 -41 -73 -59t-109 -18q-115 0 -167 66q-45 58 -45 171v43q0 133 56 190q49 51 148 51q113 0 161 -66q43 -59 43 -175v-36h-328zM151 295h252v8q0 62 -27 100q-30 43 -98 43q-40 0 -65 -12
t-41 -39q-21 -39 -21 -92v-8zM230 582l75 142h97l-112 -142h-60z" />
    <glyph glyph-name="egrave" unicode="&#xe8;" horiz-adv-x="543" 
d="M151 235v-21q0 -82 41 -122q35 -35 99 -35q40 0 66.5 11.5t48.5 37.5l59 -38q-30 -41 -73 -59t-109 -18q-115 0 -167 66q-45 58 -45 171v43q0 133 56 190q49 51 148 51q113 0 161 -66q43 -59 43 -175v-36h-328zM151 295h252v8q0 62 -27 100q-30 43 -98 43q-40 0 -65 -12
t-41 -39q-21 -39 -21 -92v-8zM332 582h-61l-111 142h97z" />
    <glyph glyph-name="ecircumflex" unicode="&#xea;" horiz-adv-x="543" 
d="M151 235v-21q0 -82 41 -122q35 -35 99 -35q40 0 66.5 11.5t48.5 37.5l59 -38q-30 -41 -73 -59t-109 -18q-115 0 -167 66q-45 58 -45 171v43q0 133 56 190q49 51 148 51q113 0 161 -66q43 -59 43 -175v-36h-328zM151 295h252v8q0 62 -27 100q-30 43 -98 43q-40 0 -65 -12
t-41 -39q-21 -39 -21 -92v-8zM279 667l-68 -81h-84l127 134h51l127 -134h-84z" />
    <glyph glyph-name="edieresis" unicode="&#xeb;" horiz-adv-x="543" 
d="M151 235v-21q0 -82 41 -122q35 -35 99 -35q40 0 66.5 11.5t48.5 37.5l59 -38q-30 -41 -73 -59t-109 -18q-115 0 -167 66q-45 58 -45 171v43q0 133 56 190q49 51 148 51q113 0 161 -66q43 -59 43 -175v-36h-328zM151 295h252v8q0 62 -27 100q-30 43 -98 43q-40 0 -65 -12
t-41 -39q-21 -39 -21 -92v-8zM147 590v104h72v-104h-72zM340 590v104h72v-104h-72z" />
    <glyph glyph-name="iacute" unicode="&#xed;" horiz-adv-x="255" 
d="M84 0v502h79v-502h-79zM78 582l75 142h97l-112 -142h-60z" />
    <glyph glyph-name="igrave" unicode="&#xec;" horiz-adv-x="255" 
d="M88 0v502h79v-502h-79zM174 582h-61l-111 142h97z" />
    <glyph glyph-name="icircumflex" unicode="&#xee;" horiz-adv-x="255" 
d="M88 0v502h79v-502h-79zM127 667l-68 -81h-84l127 134h51l127 -134h-84z" />
    <glyph glyph-name="idieresis" unicode="&#xef;" horiz-adv-x="255" 
d="M87 0v502h79v-502h-79zM-6 590v104h72v-104h-72zM187 590v104h72v-104h-72z" />
    <glyph glyph-name="ntilde" unicode="&#xf1;" horiz-adv-x="565" 
d="M88 0v502h61l6 -56q43 66 142 66q135 0 169 -97q15 -43 15 -127v-288h-79v281q0 93 -30 130q-27 33 -84 33q-69 0 -97 -50q-24 -44 -24 -139v-255h-79zM176 596h-51q13 52 25 72q25 43 72 43q37 0 73 -32t53 -32q15 0 24 12.5t17 43.5h51q-12 -52 -23 -73
q-22 -42 -71 -42q-38 0 -75 34q-34 30 -51 30q-30 0 -44 -56z" />
    <glyph glyph-name="oacute" unicode="&#xf3;" horiz-adv-x="557" 
d="M71 212v78q0 121 57 175q50 47 149 47q115 0 165 -61q44 -54 44 -161v-78q0 -122 -58 -174q-50 -47 -151 -47q-113 0 -162 61q-44 54 -44 160zM407 217v68q0 88 -36 127q-31 34 -93 34q-70 0 -101 -45q-27 -39 -27 -116v-68q0 -87 36 -126q31 -34 92 -34q70 0 102 45
q27 39 27 115zM228 582l75 142h97l-112 -142h-60z" />
    <glyph glyph-name="ograve" unicode="&#xf2;" horiz-adv-x="557" 
d="M71 212v78q0 121 57 175q50 47 149 47q115 0 165 -61q44 -54 44 -161v-78q0 -122 -58 -174q-50 -47 -151 -47q-113 0 -162 61q-44 54 -44 160zM407 217v68q0 88 -36 127q-31 34 -93 34q-70 0 -101 -45q-27 -39 -27 -116v-68q0 -87 36 -126q31 -34 92 -34q70 0 102 45
q27 39 27 115zM331 582h-61l-111 142h97z" />
    <glyph glyph-name="ocircumflex" unicode="&#xf4;" horiz-adv-x="557" 
d="M71 212v78q0 121 57 175q50 47 149 47q115 0 165 -61q44 -54 44 -161v-78q0 -122 -58 -174q-50 -47 -151 -47q-113 0 -162 61q-44 54 -44 160zM407 217v68q0 88 -36 127q-31 34 -93 34q-70 0 -101 -45q-27 -39 -27 -116v-68q0 -87 36 -126q31 -34 92 -34q70 0 102 45
q27 39 27 115zM278 667l-68 -81h-84l127 134h51l127 -134h-84z" />
    <glyph glyph-name="odieresis" unicode="&#xf6;" horiz-adv-x="557" 
d="M71 212v78q0 121 57 175q50 47 149 47q115 0 165 -61q44 -54 44 -161v-78q0 -122 -58 -174q-50 -47 -151 -47q-113 0 -162 61q-44 54 -44 160zM407 217v68q0 88 -36 127q-31 34 -93 34q-70 0 -101 -45q-27 -39 -27 -116v-68q0 -87 36 -126q31 -34 92 -34q70 0 102 45
q27 39 27 115zM145 590v104h72v-104h-72zM338 590v104h72v-104h-72z" />
    <glyph glyph-name="otilde" unicode="&#xf5;" horiz-adv-x="557" 
d="M71 212v78q0 121 57 175q50 47 149 47q115 0 165 -61q44 -54 44 -161v-78q0 -122 -58 -174q-50 -47 -151 -47q-113 0 -162 61q-44 54 -44 160zM407 217v68q0 88 -36 127q-31 34 -93 34q-70 0 -101 -45q-27 -39 -27 -116v-68q0 -87 36 -126q31 -34 92 -34q70 0 102 45
q27 39 27 115zM172 596h-51q13 52 25 72q25 43 72 43q37 0 73 -32t53 -32q15 0 24 12.5t17 43.5h51q-12 -52 -23 -73q-22 -42 -71 -42q-38 0 -75 34q-34 30 -51 30q-30 0 -44 -56z" />
    <glyph glyph-name="uacute" unicode="&#xfa;" horiz-adv-x="555" 
d="M84 502h79v-280q0 -66 13 -101q24 -62 96 -62q66 0 93 50q23 43 23 138v255h79v-502h-61l-6 56q-42 -65 -138 -65q-130 0 -163 97q-15 42 -15 126v288zM227 582l75 142h97l-112 -142h-60z" />
    <glyph glyph-name="ugrave" unicode="&#xf9;" horiz-adv-x="555" 
d="M84 502h79v-280q0 -66 13 -101q24 -62 96 -62q66 0 93 50q23 43 23 138v255h79v-502h-61l-6 56q-42 -65 -138 -65q-130 0 -163 97q-15 42 -15 126v288zM330 582h-61l-111 142h97z" />
    <glyph glyph-name="ucircumflex" unicode="&#xfb;" horiz-adv-x="555" 
d="M84 502h79v-280q0 -66 13 -101q24 -62 96 -62q66 0 93 50q23 43 23 138v255h79v-502h-61l-6 56q-42 -65 -138 -65q-130 0 -163 97q-15 42 -15 126v288zM277 667l-68 -81h-84l127 134h51l127 -134h-84z" />
    <glyph glyph-name="udieresis" unicode="&#xfc;" horiz-adv-x="555" 
d="M84 502h79v-280q0 -66 13 -101q24 -62 96 -62q66 0 93 50q23 43 23 138v255h79v-502h-61l-6 56q-42 -65 -138 -65q-130 0 -163 97q-15 42 -15 126v288zM145 590v104h72v-104h-72zM338 590v104h72v-104h-72z" />
    <glyph glyph-name="dagger" unicode="&#x2020;" 
d="M230 422h-166v70h166v222h81v-222h165v-70h-165v-579h-81v579z" />
    <glyph glyph-name="degree" unicode="&#xb0;" horiz-adv-x="401" 
d="M203 744q82 0 128 -52q40 -45 40 -116q0 -83 -52 -128q-45 -40 -118 -40q-84 0 -131 51q-40 45 -40 116q0 84 53 130q45 39 120 39zM202 686q-54 0 -82 -33q-24 -28 -24 -77q0 -55 31 -85q28 -25 74 -25q52 0 80 33q24 29 24 77q0 55 -31 84q-27 26 -72 26z" />
    <glyph glyph-name="cent" unicode="&#xa2;" 
d="M257 32v115q-86 8 -129 75q-37 59 -36 155v42q-3 221 165 242v109h79v-111q81 -14 120 -76l-60 -34q-20 28 -43 39.5t-57 11.5q-69 0 -99 -49q-27 -43 -27 -126v-56q0 -84 37 -125q32 -36 90 -36q73 0 110 49l59 -34q-43 -62 -130 -75v-116h-79z" />
    <glyph glyph-name="sterling" unicode="&#xa3;" 
d="M61 0v60q54 19 87 72q28 46 28 98q0 32 -14 75h-103v70h71q-31 59 -40.5 87t-9.5 64q0 98 60 151q52 46 138 46q98 0 151 -49q47 -43 67 -131l-70 -19q-13 51 -33 79q-40 52 -110 52q-59 0 -91 -38q-29 -32 -29 -84q0 -32 12 -65t46 -93h171v-70h-148q11 -41 11 -70
q0 -97 -78 -165h330v-70h-446z" />
    <glyph glyph-name="section" unicode="&#xa7;" 
d="M70 -29l54 44q52 -51 123 -51q54 0 84 26q26 23 26 59q0 34 -19 56q-13 14 -33 23t-75 25q-99 29 -133 64q-30 32 -30 89q0 72 48 112q9 8 39 27q-32 21 -45.5 47t-13.5 68q0 82 52 125q46 38 121 38q68 0 118 -29q10 -6 44 -35l-54 -44q-41 40 -101 40q-48 0 -75 -26
q-24 -23 -24 -59q0 -35 19 -56q12 -13 33.5 -22.5t74.5 -26.5q55 -16 82 -29t45 -30q36 -34 36 -97q0 -47 -19 -77t-68 -60q32 -21 45 -46t13 -66q0 -83 -55 -126q-48 -38 -128 -38q-58 0 -98.5 16.5t-85.5 58.5zM267 401l-55 18q-42 -24 -55 -42t-13 -52q0 -46 26 -67
q23 -18 96 -42l55 -18l6 4q2 1 7 4q8 4 12 7q43 26 43 76q0 41 -20 63q-12 13 -32.5 23t-69.5 26z" />
    <glyph glyph-name="bullet" unicode="&#x2022;" 
d="M270 529q78 0 128 -54q43 -47 43 -113q0 -76 -55 -124q-48 -42 -115 -42q-79 0 -129 54q-43 47 -43 114q0 75 56 123q48 42 115 42z" />
    <glyph glyph-name="paragraph" unicode="&#xb6;" horiz-adv-x="597" 
d="M233 -136v477h-28q-47 0 -69.5 4.5t-44.5 17.5q-38 22 -60 66.5t-22 99.5q0 61 26 107q22 41 59 59q26 13 50 16t115 3h235v-850h-76v783h-110v-783h-75z" />
    <glyph glyph-name="germandbls" unicode="&#xdf;" horiz-adv-x="569" 
d="M88 0v536q0 101 52 146q46 40 135 40q98 0 147 -46q42 -40 42 -111q0 -39 -10 -63t-40 -56q46 -20 66.5 -66.5t19.5 -130.5v-37q1 -124 -46 -171q-41 -42 -134 -41h-48v66h40q67 -1 90 33q19 30 19 108v46q0 95 -25 125q-22 27 -80 25h-19v60h17q75 0 75 93
q0 102 -111 102q-62 0 -88 -33q-23 -28 -23 -88v-537h-79z" />
    <glyph glyph-name="registered" unicode="&#xae;" horiz-adv-x="667" 
d="M281 553v-111h-55v274h123q62 0 89 -22q23 -19 23 -59q0 -32 -14.5 -50t-47.5 -27l71 -116h-61l-64 111h-64zM280 588h69q57 0 57 44t-61 44h-65v-88zM337 861q129 0 211 -91q71 -79 71 -191q0 -130 -92 -212q-80 -70 -194 -70q-132 0 -214 90q-72 79 -72 191
q0 133 92 213q80 70 198 70zM336 808q-104 0 -166 -63q-64 -67 -64 -166q0 -46 17 -90t47 -76q60 -63 163 -63t163 63q64 67 64 166t-64 166q-61 63 -160 63z" />
    <glyph glyph-name="copyright" unicode="&#xa9;" horiz-adv-x="822" 
d="M499 280l60 -6q-6 -93 -143 -93q-82 0 -120 45q-26 33 -26 104v54q0 44 7.5 68t25.5 42q38 39 113 39q132 0 139 -95l-59 -3q-8 49 -78 49q-44 0 -64 -22.5t-20 -72.5v-64q0 -50 20 -72.5t64 -22.5q72 0 81 50zM416 727q104 0 189 -49q83 -48 131 -131q49 -86 49 -190
q0 -105 -49 -191q-48 -83 -132 -130q-87 -49 -193 -49q-107 0 -193 49q-85 47 -133 130q-49 85 -49 190q0 83 31 155q28 64 75 110q107 106 274 106zM415 671q-142 0 -233 -95q-82 -90 -82 -220q0 -145 99 -235q87 -78 212 -78q144 0 233 101q77 87 77 213q0 88 -40 161
q-40 71 -109 111q-71 42 -157 42z" />
    <glyph glyph-name="trademark" unicode="&#x2122;" horiz-adv-x="873" 
d="M144 286v375h-131v53h327v-53h-130v-375h-66zM400 286v428h63l137 -262l137 262h63v-428h-64v304l-114 -218h-44l-114 218v-304h-64z" />
    <glyph glyph-name="acute" unicode="&#xb4;" horiz-adv-x="500" 
d="M200 582l75 142h97l-112 -142h-60z" />
    <glyph glyph-name="dieresis" unicode="&#xa8;" horiz-adv-x="500" 
d="M117 590v104h72v-104h-72zM310 590v104h72v-104h-72z" />
    <glyph glyph-name="notequal" unicode="&#x2260;" 
d="M49 252v63h163l45 97h-208v63h237l54 118l60 -27l-42 -91h134v-63h-163l-45 -97h208v-63h-237l-54 -118l-60 27l42 91h-134z" />
    <glyph glyph-name="AE" unicode="&#xc6;" horiz-adv-x="950" 
d="M476 165h-316l-105 -165h-96l469 714h465v-70h-335v-248h285v-70h-285v-256h335v-70h-417v165zM476 234v410h-11l-265 -410h276z" />
    <glyph glyph-name="Oslash" unicode="&#xd8;" horiz-adv-x="675" 
d="M601 692l-49 -73q20 -35 28 -73.5t8 -100.5v-176q0 -76 -13.5 -122.5t-45.5 -81.5q-34 -39 -80.5 -56.5t-114.5 -17.5q-105 0 -165 51l-41 -62l-54 39l49 74q-37 63 -37 176v176q0 74 13.5 121t45.5 83q67 74 192 74q107 0 170 -52l40 60zM496 534l-282 -425
q44 -48 123 -48q93 0 136 66q18 28 25 61t7 89v160q0 65 -9 97zM179 177l283 426q-43 50 -125 50q-93 0 -136 -66q-32 -51 -32 -150v-160q0 -66 10 -100z" />
    <glyph glyph-name="infinity" unicode="&#x221e;" horiz-adv-x="746" 
d="M373 415l7 9q22 30 31.5 40.5t27.5 22.5q43 28 100 28q75 0 117 -47q36 -41 36 -105q0 -75 -47 -116q-41 -36 -107 -36q-71 0 -121 45q-10 9 -44 55q-4 -6 -7 -10q-19 -28 -29.5 -39t-28.5 -23q-44 -28 -100 -28q-75 0 -117 47q-36 40 -36 105q0 74 47 116q41 36 106 36
q71 0 122 -45q7 -6 43 -55zM341 363l-6 10q-24 38 -56.5 60t-64.5 22q-45 0 -71 -29q-23 -25 -23 -63q0 -44 29 -70q26 -23 65 -23q64 0 120 82zM406 363l7 -11q55 -82 119 -82q46 0 72 29q23 25 23 64q0 44 -29 69q-26 23 -65 23q-33 0 -65 -21.5t-56 -60.5z" />
    <glyph glyph-name="plusminus" unicode="&#xb1;" 
d="M35 341v66h200v199h71v-199h199v-66h-199v-198h-71v198h-200zM35 0v66h470v-66h-470z" />
    <glyph glyph-name="lessequal" unicode="&#x2264;" 
d="M142 377l316 -150v-76l-409 200v51l409 201v-77zM49 0v66h409v-66h-409z" />
    <glyph glyph-name="greaterequal" unicode="&#x2265;" 
d="M398 377l-316 149v77l409 -201v-51l-409 -200v76zM82 0v66h409v-66h-409z" />
    <glyph glyph-name="yen" unicode="&#xa5;" 
d="M230 0v151h-154v58h154v51h-154v58h130l-195 396h88l173 -361l171 361h89l-195 -396h129v-58h-153v-51h153v-58h-153v-151h-83z" />
    <glyph glyph-name="mu" unicode="&#xb5;" 
d="M80 502h78v-283q0 -89 30 -127q26 -33 79 -33q67 0 93 49q23 44 23 139v255h78v-502h-55l-11 68q-36 -77 -133 -77q-35 0 -58.5 9.5t-45.5 33.5v-259h-78v727z" />
    <glyph glyph-name="partialdiff" unicode="&#x2202;" 
d="M362 473l-1 2l-8 15q-35 70 -39 76q-70 82 -174 100l10 53q74 -8 135 -43q53 -30 88 -77q51 -66 79 -156q23 -79 24 -161v-70q0 -121 -58 -174q-51 -47 -150 -47q-111 0 -161 62q-44 54 -44 159v70q0 221 194 221q65 0 105 -30zM398 216v62q0 88 -36 127q-31 34 -92 34
q-129 0 -129 -161v-62q0 -87 36 -126q31 -34 93 -34q70 0 101 45q27 39 27 115z" />
    <glyph glyph-name="summation" unicode="&#x2211;" horiz-adv-x="561" 
d="M58 -206v51l210 437l-200 377v55h458v-70h-356l194 -362l-196 -418h369v-70h-479z" />
    <glyph glyph-name="product" unicode="&#x220f;" horiz-adv-x="583" 
d="M69 -206v920h444v-920h-81v848h-282v-848h-81z" />
    <glyph glyph-name="glyph155" horiz-adv-x="200" 
 />
    <glyph glyph-name="integral" unicode="&#x222b;" horiz-adv-x="434" 
d="M87 -93l14 64q24 -8 39 -8q44 0 57 33q8 21 8 88v503q0 58 4 87.5t14 53.5q29 63 111 63q32 0 68 -9l-14 -65q-24 8 -40 8q-42 0 -56 -33q-8 -21 -8 -85v-506q0 -59 -4 -88t-15 -54q-27 -62 -110 -62q-32 0 -68 10z" />
    <glyph glyph-name="ordfeminine" unicode="&#xaa;" horiz-adv-x="340" 
d="M227 583v25q0 62 -65 62q-43 0 -78 -30l-38 32q44 48 121 48q79 0 108 -44q14 -25 14 -75v-202h-51l-3 20q-29 -25 -90 -25q-65 0 -91 20.5t-26 71.5q0 57 34 78q31 19 101 19h64zM229 537h-65q-43 0 -60 -10.5t-17 -37.5q0 -25 16 -35t55 -10t55 10.5t16 35.5v47z" />
    <glyph glyph-name="ordmasculine" unicode="&#xba;" horiz-adv-x="357" 
d="M41 528v56q0 76 38 108q33 28 100 28q77 0 109 -37q29 -32 29 -99v-56q0 -75 -38 -107q-33 -28 -100 -28q-77 0 -109 37q-29 32 -29 98zM255 531v51q0 88 -76 88t-76 -88v-51q0 -88 76 -88t76 88z" />
    <glyph glyph-name="glyph159" horiz-adv-x="200" 
 />
    <glyph glyph-name="ae" unicode="&#xe6;" horiz-adv-x="834" 
d="M131 395l-55 42q63 75 181 75q108 0 153 -67q26 35 63.5 51t95.5 16q111 0 160 -67q42 -58 42 -174v-36h-329v-21q0 -82 41 -122q35 -35 99 -35q76 0 115 49l60 -38q-30 -41 -73 -59t-108 -18q-62 0 -103.5 19t-69.5 60q-28 -45 -66 -62t-112 -17q-103 0 -142 39
q-34 33 -34 110q0 92 48 126q42 29 143 29h121v35q0 54 -18 80q-27 36 -92 36q-75 0 -120 -51zM361 235h-113q-71 0 -99 -24q-24 -22 -24 -69q0 -50 30 -69q26 -16 86 -16q41 0 64.5 8.5t37.5 28.5q18 26 18 87v54zM442 295h253v8q0 62 -27 100q-30 43 -99 43
q-77 0 -105 -51q-22 -38 -22 -92v-8z" />
    <glyph glyph-name="oslash" unicode="&#xf8;" horiz-adv-x="557" 
d="M487 490l-37 -52q36 -49 36 -148v-77q0 -121 -58 -175q-50 -47 -150 -47q-81 0 -127 31l-33 -46l-48 37l37 51q-36 53 -35 149v77q0 122 57 175q51 47 150 47q79 0 127 -31l33 46zM397 364l-202 -280q30 -27 83 -27q129 0 129 161v67q0 42 -10 79zM161 139l201 280
q-31 27 -82 27q-129 0 -129 -161v-67q0 -49 10 -79z" />
    <glyph glyph-name="questiondown" unicode="&#xbf;" horiz-adv-x="584" 
d="M337 312v-35q1 -59 -18 -94.5t-76 -83.5q-44 -37 -57 -57q-28 -38 -28 -80q0 -54 41 -86q35 -28 87 -28q74 0 114 55q13 16 19.5 32t15.5 53l77 -13q-40 -197 -229 -197q-101 0 -158 58q-50 50 -50 129q0 74 54 133q14 15 80 72q63 55 62 114v28h66zM343 502v-100h-80
v100h80z" />
    <glyph glyph-name="exclamdown" unicode="&#xa1;" horiz-adv-x="310" 
d="M188 311l12 -523h-90l12 523h66zM194 502v-100h-80v100h80z" />
    <glyph glyph-name="logicalnot" unicode="&#xac;" 
d="M46 330v66h416v-281h-77v215h-339z" />
    <glyph glyph-name="radical" unicode="&#x221a;" 
d="M201 0l-105 298h-76v68h135l84 -259l203 763h256v-59h-192l-221 -811h-84z" />
    <glyph glyph-name="glyph166" horiz-adv-x="200" 
 />
    <glyph glyph-name="approxequal" unicode="&#x2248;" 
d="M96 214l-52 12q21 68 51 96.5t79 28.5q29 0 51.5 -8.5t58.5 -33.5q34 -24 50.5 -31.5t33.5 -7.5q49 0 77 71l51 -15q-22 -67 -56 -95q-29 -24 -75 -24q-27 0 -48 8.5t-57 33.5t-51.5 32t-34.5 7q-50 0 -78 -74zM96 383l-52 12q21 68 51 96.5t79 28.5q29 0 51 -8.5
t59 -34.5q35 -24 51 -31.5t33 -7.5q49 0 77 72l51 -15q-21 -63 -51.5 -91t-79.5 -28q-28 0 -49.5 8.5t-55.5 33.5q-36 25 -51.5 32t-34.5 7q-50 0 -78 -74z" />
    <glyph glyph-name="Delta" unicode="&#x2206;" 
d="M572 0h-601l266 714h70zM460 67l-188 530l-189 -530h377z" />
    <glyph glyph-name="guillemotleft" unicode="&#xab;" horiz-adv-x="430" 
d="M305 295l89 -124l-48 -35l-129 159l129 159l48 -35zM125 295l88 -124l-47 -35l-130 159l130 159l47 -35z" />
    <glyph glyph-name="guillemotright" unicode="&#xbb;" horiz-adv-x="430" 
d="M124 295l-89 124l48 35l129 -159l-129 -159l-48 35zM304 295l-88 124l47 35l130 -159l-130 -159l-47 35z" />
    <glyph glyph-name="ellipsis" unicode="&#x2026;" horiz-adv-x="846" 
d="M100 0v100h83v-100h-83zM382 0v100h83v-100h-83zM664 0v100h83v-100h-83z" />
    <glyph glyph-name="glyph172" 
 />
    <glyph glyph-name="Agrave" unicode="&#xc0;" horiz-adv-x="600" 
d="M457 156h-313l-54 -156h-90l261 714h79l261 -714h-90zM436 225l-135 383l-135 -383h270zM348 789h-61l-111 142h97z" />
    <glyph glyph-name="Atilde" unicode="&#xc3;" horiz-adv-x="600" 
d="M457 156h-313l-54 -156h-90l261 714h79l261 -714h-90zM436 225l-135 383l-135 -383h270zM193 804h-51q13 52 25 71q25 43 72 43q37 0 73 -32t53 -32q15 0 24 12.5t17 43.5h51q-12 -50 -23 -73q-23 -41 -71 -41q-38 0 -75 34q-21 18 -31 24t-21 6q-29 0 -43 -56z" />
    <glyph glyph-name="Otilde" unicode="&#xd5;" horiz-adv-x="676" 
d="M87 269v176q0 74 13.5 121t45.5 83q67 74 192 74q136 0 203 -86q26 -34 37 -78.5t11 -113.5v-176q0 -76 -13.5 -122.5t-45.5 -81.5q-67 -74 -192 -74q-136 0 -202 86q-26 34 -37.5 78.5t-11.5 113.5zM506 277v160q0 60 -9 96t-30 63q-42 57 -129 57q-93 0 -136 -66
q-32 -51 -32 -150v-160q0 -60 9 -96t30 -63q42 -57 129 -57q93 0 136 66q32 51 32 150zM231 804h-51q13 52 25 71q25 43 72 43q37 0 73 -32t53 -32q15 0 24 12.5t17 43.5h51q-12 -50 -23 -73q-23 -41 -71 -41q-38 0 -75 34q-21 18 -31 24t-21 6q-29 0 -43 -56z" />
    <glyph glyph-name="OE" unicode="&#x152;" horiz-adv-x="981" 
d="M519 0v67q-33 -42 -74.5 -59.5t-109.5 -17.5q-72 0 -119.5 20.5t-81.5 66.5q-47 64 -47 190v178q0 75 13 122t44 82q34 40 79 57.5t113 17.5q67 0 110 -16.5t73 -54.5v61h405v-70h-334v-248h284v-70h-284v-256h335v-70h-406zM170 437v-162q0 -59 9 -95t30 -64
q43 -56 129 -56q170 0 170 215v162q0 217 -170 217q-94 0 -136 -67q-32 -50 -32 -150z" />
    <glyph glyph-name="oe" unicode="&#x153;" horiz-adv-x="879" 
d="M71 213v76q0 121 57 176q50 47 147 47q64 0 104.5 -19t66.5 -62q41 81 168 81q110 0 159 -66q42 -59 42 -175v-36h-329v-21q0 -82 41 -122q35 -35 99 -35q75 0 115 49l60 -36q-30 -41 -73 -60t-107 -19q-66 0 -106 19t-69 63q-26 -45 -64.5 -63.5t-105.5 -18.5
q-112 0 -162 62q-43 54 -43 160zM406 218v67q0 161 -128 161t-128 -161v-67q0 -161 128 -161t128 161zM486 295h253v8q0 62 -27 99q-30 43 -99 43q-76 0 -105 -50q-22 -38 -22 -92v-8z" />
    <glyph glyph-name="endash" unicode="&#x2013;" horiz-adv-x="367" 
d="M387 0h-387v65h387v-65z" />
    <glyph glyph-name="emdash" unicode="&#x2014;" horiz-adv-x="814" 
d="M834 0h-834v65h834v-65z" />
    <glyph glyph-name="quotedblleft" unicode="&#x201c;" horiz-adv-x="368" 
d="M335 714l-36 -238h-84l55 238h65zM154 714l-36 -238h-85l55 238h66z" />
    <glyph glyph-name="quotedblright" unicode="&#x201d;" horiz-adv-x="368" 
d="M33 476l36 238h85l-55 -238h-66zM215 476l36 238h84l-54 -238h-66z" />
    <glyph glyph-name="quoteleft" unicode="&#x2018;" horiz-adv-x="187" 
d="M154 714l-36 -238h-85l55 238h66z" />
    <glyph glyph-name="quoteright" unicode="&#x2019;" horiz-adv-x="187" 
d="M33 476l36 238h85l-55 -238h-66z" />
    <glyph glyph-name="divide" unicode="&#xf7;" 
d="M35 330v66h470v-66h-470zM234 157v90h73v-90h-73zM234 479v90h73v-90h-73z" />
    <glyph glyph-name="lozenge" unicode="&#x25ca;" 
d="M7 348l263 377l262 -377l-262 -376zM96 348l174 -253l173 253l-173 254z" />
    <glyph glyph-name="ydieresis" unicode="&#xff;" horiz-adv-x="488" 
d="M207 1l-185 501h80l147 -412l131 412h80l-197 -583q-20 -57 -37 -84.5t-39 -41.5q-35 -22 -127 -23v67q59 0 82 19q20 17 40 71zM111 590v104h72v-104h-72zM304 590v104h72v-104h-72z" />
    <glyph glyph-name="Ydieresis" unicode="&#x178;" horiz-adv-x="532" 
d="M225 0v258l-225 456h88l179 -371l178 371h88l-225 -456v-258h-83zM132 797v104h72v-104h-72zM327 797v104h72v-104h-72z" />
    <glyph glyph-name="fraction" unicode="&#x2044;" horiz-adv-x="161" 
d="M-62 0l224 714h76l-225 -714h-75z" />
    <glyph glyph-name="currency" unicode="&#xa4;" 
d="M62 79l-42 39l86 89q-24 33 -33.5 61.5t-9.5 65.5q0 38 9.5 66.5t33.5 61.5l-86 89l42 38l84 -87q32 22 60 31t64 9q65 0 123 -40l84 87l42 -38l-86 -89q24 -34 33.5 -62t9.5 -66q0 -37 -9.5 -65.5t-33.5 -61.5l86 -89l-42 -39l-84 87q-57 -40 -123 -40q-67 0 -124 40z
M271 482q-67 0 -105 -46q-34 -40 -34 -102q0 -70 43 -112q38 -36 95 -36q65 0 104 47q33 40 33 101q0 69 -43 111q-37 37 -93 37z" />
    <glyph glyph-name="guilsinglleft" unicode="&#x2039;" horiz-adv-x="249" 
d="M125 295l88 -124l-47 -35l-130 159l130 159l47 -35z" />
    <glyph glyph-name="guilsinglright" unicode="&#x203a;" horiz-adv-x="249" 
d="M124 295l-89 124l48 35l129 -159l-129 -159l-48 35z" />
    <glyph glyph-name="daggerdbl" unicode="&#x2021;" 
d="M230 422h-166v70h166v222h81v-222h165v-70h-165v-156h153v-70h-153v-353h-81v353h-153v70h153v156z" />
    <glyph glyph-name="periodcentered" unicode="&#xb7;" horiz-adv-x="281" 
d="M100 314v99h83v-99h-83z" />
    <glyph glyph-name="quotesinglbase" unicode="&#x201a;" horiz-adv-x="187" 
d="M33 -139l36 238h85l-55 -238h-66z" />
    <glyph glyph-name="quotedblbase" unicode="&#x201e;" horiz-adv-x="368" 
d="M33 -139l36 238h85l-55 -238h-66zM215 -139l36 238h84l-54 -238h-66z" />
    <glyph glyph-name="perthousand" unicode="&#x2030;" horiz-adv-x="1247" 
d="M44 476v89q0 88 41 125q36 33 108 33q83 0 119 -43q31 -38 31 -115v-89q0 -87 -41 -124q-36 -33 -109 -33q-82 0 -118 43q-31 38 -31 114zM275 484v73q0 113 -81 113q-82 0 -82 -113v-73q0 -112 82 -112q81 0 81 112zM539 149v89q0 87 41 124q36 33 109 33q83 0 119 -43
q31 -38 31 -114v-89q0 -88 -41 -125q-36 -33 -109 -33q-83 0 -119 43q-31 38 -31 115zM771 157v73q0 112 -82 112t-82 -112v-73q0 -113 82 -113t82 113zM903 149v89q0 87 41 124q36 33 108 33q83 0 119 -43q31 -38 31 -114v-89q0 -88 -41 -125q-36 -33 -109 -33
q-82 0 -118 43q-31 38 -31 115zM1134 157v73q0 112 -81 112q-82 0 -82 -112v-73q0 -113 82 -113q81 0 81 113zM292 0l224 714h75l-224 -714h-75z" />
    <glyph glyph-name="Acircumflex" unicode="&#xc2;" horiz-adv-x="600" 
d="M457 156h-313l-54 -156h-90l261 714h79l261 -714h-90zM436 225l-135 383l-135 -383h270zM300 874l-68 -80h-84l127 133h51l127 -133h-84z" />
    <glyph glyph-name="Ecircumflex" unicode="&#xca;" horiz-adv-x="579" 
d="M104 0v714h417v-70h-335v-248h286v-70h-286v-256h336v-70h-418zM315 874l-68 -80h-84l127 133h51l127 -133h-84z" />
    <glyph glyph-name="Aacute" unicode="&#xc1;" horiz-adv-x="600" 
d="M457 156h-313l-54 -156h-90l261 714h79l261 -714h-90zM436 225l-135 383l-135 -383h270zM256 789l75 142h97l-112 -142h-60z" />
    <glyph glyph-name="Edieresis" unicode="&#xcb;" horiz-adv-x="579" 
d="M104 0v714h417v-70h-335v-248h286v-70h-286v-256h336v-70h-418zM183 797v104h72v-104h-72zM378 797v104h72v-104h-72z" />
    <glyph glyph-name="Egrave" unicode="&#xc8;" horiz-adv-x="579" 
d="M104 0v714h417v-70h-335v-248h286v-70h-286v-256h336v-70h-418zM372 789h-61l-111 142h97z" />
    <glyph glyph-name="Iacute" unicode="&#xcd;" horiz-adv-x="291" 
d="M100 0v714h83v-714h-83zM95 789l75 142h97l-112 -142h-60z" />
    <glyph glyph-name="Icircumflex" unicode="&#xce;" horiz-adv-x="291" 
d="M104 0v714h83v-714h-83zM145 874l-68 -80h-84l127 133h51l127 -133h-84z" />
    <glyph glyph-name="Idieresis" unicode="&#xcf;" horiz-adv-x="291" 
d="M104 0v714h83v-714h-83zM12 797v104h72v-104h-72zM207 797v104h72v-104h-72z" />
    <glyph glyph-name="Igrave" unicode="&#xcc;" horiz-adv-x="291" 
d="M105 0v714h83v-714h-83zM195 789h-61l-111 142h97z" />
    <glyph glyph-name="Oacute" unicode="&#xd3;" horiz-adv-x="676" 
d="M87 269v176q0 74 13.5 121t45.5 83q67 74 192 74q136 0 203 -86q26 -34 37 -78.5t11 -113.5v-176q0 -76 -13.5 -122.5t-45.5 -81.5q-67 -74 -192 -74q-136 0 -202 86q-26 34 -37.5 78.5t-11.5 113.5zM506 277v160q0 60 -9 96t-30 63q-42 57 -129 57q-93 0 -136 -66
q-32 -51 -32 -150v-160q0 -60 9 -96t30 -63q42 -57 129 -57q93 0 136 66q32 51 32 150zM288 789l75 142h97l-112 -142h-60z" />
    <glyph glyph-name="Ocircumflex" unicode="&#xd4;" horiz-adv-x="676" 
d="M87 269v176q0 74 13.5 121t45.5 83q67 74 192 74q136 0 203 -86q26 -34 37 -78.5t11 -113.5v-176q0 -76 -13.5 -122.5t-45.5 -81.5q-67 -74 -192 -74q-136 0 -202 86q-26 34 -37.5 78.5t-11.5 113.5zM506 277v160q0 60 -9 96t-30 63q-42 57 -129 57q-93 0 -136 -66
q-32 -51 -32 -150v-160q0 -60 9 -96t30 -63q42 -57 129 -57q93 0 136 66q32 51 32 150zM338 874l-68 -80h-84l127 133h51l127 -133h-84z" />
    <glyph glyph-name="glyph210" horiz-adv-x="200" 
 />
    <glyph glyph-name="Ograve" unicode="&#xd2;" horiz-adv-x="676" 
d="M87 269v176q0 74 13.5 121t45.5 83q67 74 192 74q136 0 203 -86q26 -34 37 -78.5t11 -113.5v-176q0 -76 -13.5 -122.5t-45.5 -81.5q-67 -74 -192 -74q-136 0 -202 86q-26 34 -37.5 78.5t-11.5 113.5zM506 277v160q0 60 -9 96t-30 63q-42 57 -129 57q-93 0 -136 -66
q-32 -51 -32 -150v-160q0 -60 9 -96t30 -63q42 -57 129 -57q93 0 136 66q32 51 32 150zM391 789h-61l-111 142h97z" />
    <glyph glyph-name="Uacute" unicode="&#xda;" horiz-adv-x="690" 
d="M101 714h83v-452q0 -53 6 -83.5t20 -54.5q22 -33 53.5 -48t81.5 -15q53 0 87 17.5t54 55.5q20 40 20 128v452h83v-452q0 -76 -9 -116.5t-34 -71.5q-33 -43 -81 -63t-120 -20q-149 0 -210 95q-19 30 -26.5 68t-7.5 108v452zM302 789l75 142h97l-112 -142h-60z" />
    <glyph glyph-name="Ucircumflex" unicode="&#xdb;" horiz-adv-x="690" 
d="M101 714h83v-452q0 -53 6 -83.5t20 -54.5q22 -33 53.5 -48t81.5 -15q53 0 87 17.5t54 55.5q20 40 20 128v452h83v-452q0 -76 -9 -116.5t-34 -71.5q-33 -43 -81 -63t-120 -20q-149 0 -210 95q-19 30 -26.5 68t-7.5 108v452zM344 874l-68 -80h-84l127 133h51l127 -133h-84z
" />
    <glyph glyph-name="Ugrave" unicode="&#xd9;" horiz-adv-x="690" 
d="M101 714h83v-452q0 -53 6 -83.5t20 -54.5q22 -33 53.5 -48t81.5 -15q53 0 87 17.5t54 55.5q20 40 20 128v452h83v-452q0 -76 -9 -116.5t-34 -71.5q-33 -43 -81 -63t-120 -20q-149 0 -210 95q-19 30 -26.5 68t-7.5 108v452zM408 789h-61l-111 142h97z" />
    <glyph glyph-name="dotlessi" unicode="&#x131;" horiz-adv-x="255" 
d="M88 0v502h79v-502h-79z" />
    <glyph glyph-name="circumflex" unicode="&#x2c6;" horiz-adv-x="500" 
d="M250 667l-68 -81h-84l127 134h51l127 -134h-84z" />
    <glyph glyph-name="tilde" unicode="&#x2dc;" horiz-adv-x="500" 
d="M143 596h-51q13 52 25 72q25 43 72 43q37 0 73 -32t53 -32q15 0 24 12.5t17 43.5h51q-12 -52 -23 -73q-22 -42 -71 -42q-38 0 -75 34q-34 30 -51 30q-30 0 -44 -56z" />
    <glyph glyph-name="macron" unicode="&#xaf;" horiz-adv-x="500" 
d="M122 619v58h257v-58h-257z" />
    <glyph glyph-name="breve" unicode="&#x2d8;" horiz-adv-x="500" 
d="M111 715h54q5 -43 24 -60t61 -17q43 0 61.5 17t23.5 60h55q-4 -59 -18 -85q-30 -53 -122 -53q-97 0 -126 62q-10 22 -13 76z" />
    <glyph glyph-name="dotaccent" unicode="&#x2d9;" horiz-adv-x="500" 
d="M211 590v104h78v-104h-78z" />
    <glyph glyph-name="ring" unicode="&#x2da;" horiz-adv-x="500" 
d="M251 777q50 0 79 -32q25 -27 25 -69q0 -50 -33 -78q-28 -25 -72 -25q-51 0 -80 32q-25 28 -25 71q0 50 32 77q29 24 74 24zM251 735q-51 0 -51 -60t50 -60t50 60t-49 60z" />
    <glyph glyph-name="cedilla" unicode="&#xb8;" horiz-adv-x="500" 
d="M185 -222l52 153h83l-79 -153h-56z" />
    <glyph glyph-name="hungarumlaut" unicode="&#x2dd;" horiz-adv-x="500" 
d="M147 582l60 142h90l-93 -142h-57zM282 582l60 142h89l-92 -142h-57z" />
    <glyph glyph-name="ogonek" unicode="&#x2db;" horiz-adv-x="500" 
d="M293 0h72q-97 -55 -97 -105q0 -41 51 -41q25 0 58 10l8 -46q-39 -14 -80 -14q-109 0 -109 79q0 35 25.5 65.5t71.5 51.5z" />
    <glyph glyph-name="caron" unicode="&#x2c7;" horiz-adv-x="500" 
d="M251 638l68 80h84l-127 -133h-51l-127 133h84z" />
    <glyph glyph-name="Lslash" unicode="&#x141;" horiz-adv-x="533" 
d="M104 0v218l-76 -51v76l76 51v420h83v-371l204 137v-77l-204 -136v-197h337v-70h-420z" />
    <glyph glyph-name="lslash" unicode="&#x142;" horiz-adv-x="303" 
d="M93 366v348h79v-300l117 78v-78l-117 -78v-176q0 -54 18 -74t67 -19h26v-67h-29q-96 -1 -130 36q-30 31 -31 109v143l-94 -63v78z" />
    <glyph glyph-name="Scaron" unicode="&#x160;" horiz-adv-x="579" 
d="M45 96l65 42q46 -77 176 -77q83 0 126 38q38 33 38 90q0 62 -43 92q-20 14 -36.5 20t-95.5 25q-117 29 -163 81q-41 45 -41 122q0 98 66 149q57 45 153 45q147 0 206 -90l-63 -41q-45 62 -146 62q-67 0 -104 -36q-31 -32 -31 -84q0 -58 42 -90q36 -28 122 -50
q70 -17 95.5 -26t52.5 -28q67 -46 67 -147q0 -104 -72 -156q-63 -46 -173 -46q-175 0 -241 105zM298 845l68 81h84l-127 -134h-51l-127 134h84z" />
    <glyph glyph-name="scaron" unicode="&#x161;" horiz-adv-x="473" 
d="M29 69l58 37q27 -27 56.5 -38t78.5 -11q127 0 127 84q0 45 -34 62q-23 12 -93 21q-53 8 -80 17t-45 24q-40 34 -40 98q0 77 49 115q43 34 117 34q125 0 182 -80l-60 -37q-23 28 -49.5 39.5t-66.5 11.5q-96 0 -96 -79q0 -39 31 -58q21 -11 79 -19q59 -8 88 -16.5t49 -23.5
q45 -33 45 -111q0 -148 -200 -148q-142 0 -196 78zM235 638l68 80h84l-127 -133h-51l-127 133h84z" />
    <glyph glyph-name="Zcaron" unicode="&#x17d;" horiz-adv-x="543" 
d="M51 0v59l330 585h-312v70h405v-59l-330 -585h346v-70h-439zM291 845l68 81h84l-127 -134h-51l-127 134h84z" />
    <glyph glyph-name="zcaron" unicode="&#x17e;" horiz-adv-x="475" 
d="M45 0v51l255 385h-235v66h334v-51l-255 -385h271v-66h-370zM246 638l68 80h84l-127 -133h-51l-127 133h84z" />
    <glyph glyph-name="brokenbar" unicode="&#xa6;" horiz-adv-x="500" 
d="M211 453v261h77v-261h-77zM211 0v251h77v-251h-77z" />
    <glyph glyph-name="Eth" unicode="&#xd0;" horiz-adv-x="678" 
d="M104 396v318h227q139 2 205 -77q57 -69 54 -194v-171q4 -144 -71 -213q-66 -60 -188 -59h-227v327h-84v69h84zM187 396h170v-69h-170v-258h131q104 -2 149 56q40 51 40 155v154q0 118 -52 169q-46 44 -137 42h-131v-249z" />
    <glyph glyph-name="eth" unicode="&#xf0;" horiz-adv-x="557" 
d="M71 212v70q0 222 195 222q65 0 104 -31q-28 73 -52 100l-115 -55l-31 51l98 47q-55 40 -123 49l11 54q102 -11 179 -72l84 40l31 -51l-70 -33q50 -64 78 -157q25 -83 26 -164v-70q0 -122 -58 -174q-50 -47 -151 -47q-113 0 -162 61q-44 54 -44 160zM407 217v61
q0 87 -36 126q-31 34 -93 34q-70 0 -101 -45q-27 -39 -27 -115v-61q0 -87 36 -126q31 -34 92 -34q70 0 102 45q27 39 27 115z" />
    <glyph glyph-name="Yacute" unicode="&#xdd;" horiz-adv-x="532" 
d="M225 0v258l-225 456h88l179 -371l178 371h88l-225 -456v-258h-83zM227 789l75 142h97l-112 -142h-60z" />
    <glyph glyph-name="yacute" unicode="&#xfd;" horiz-adv-x="488" 
d="M207 1l-185 501h80l147 -412l131 412h80l-197 -583q-20 -57 -37 -84.5t-39 -41.5q-35 -22 -127 -23v67q59 0 82 19q20 17 40 71zM204 582l75 142h97l-112 -142h-60z" />
    <glyph glyph-name="Thorn" unicode="&#xde;" horiz-adv-x="607" 
d="M188 162v-162h-83v714h83v-115h147q67 0 108 -13t69 -44q52 -55 52 -161q0 -116 -61 -171q-28 -26 -67 -37t-101 -11h-147zM188 231h147q80 0 115 42q31 36 31 108q0 82 -40 117q-36 32 -106 32h-147v-299z" />
    <glyph glyph-name="thorn" unicode="&#xfe;" horiz-adv-x="565" 
d="M168 37v-262h-79v939h79v-245q50 43 138 43q103 0 148 -62q40 -54 40 -161v-76q0 -122 -52 -175q-46 -47 -137 -47q-85 0 -137 46zM415 218v66q0 162 -122 162q-125 0 -125 -154v-82q0 -153 125 -153q122 0 122 161z" />
    <glyph glyph-name="minus" unicode="&#x2212;" 
d="M35 330v66h470v-66h-470z" />
    <glyph glyph-name="multiply" unicode="&#xd7;" 
d="M225 363l-159 159l46 46l158 -159l159 159l45 -46l-158 -159l158 -158l-45 -46l-159 158l-158 -158l-46 46z" />
    <glyph glyph-name="onesuperior" unicode="&#xb9;" horiz-adv-x="236" 
d="M97 386v363l-77 -30l-18 49l115 46h46v-428h-66z" />
    <glyph glyph-name="twosuperior" unicode="&#xb2;" horiz-adv-x="342" 
d="M42 386v42l126 150q64 75 64 125q0 30 -17 47t-47 17q-59 0 -73 -63l-61 7q9 51 31 74q37 35 105 35q128 0 128 -119q0 -40 -17 -74t-66 -91l-81 -97h163v-53h-255z" />
    <glyph glyph-name="threesuperior" unicode="&#xb3;" horiz-adv-x="342" 
d="M105 587v47h44q35 0 57 22q20 20 20 46q0 29 -18.5 46.5t-48.5 17.5q-55 0 -69 -50l-59 7q8 50 38.5 73t91.5 23q131 0 131 -115q0 -35 -12 -56t-42 -37q66 -32 66 -107q0 -123 -145 -123q-82 0 -118 39q-15 16 -23 57l62 11q13 -54 77 -54q38 0 59.5 19.5t21.5 53.5
q0 38 -27 60q-24 20 -59 20h-47z" />
    <glyph glyph-name="onehalf" unicode="&#xbd;" horiz-adv-x="860" 
d="M149 286v363l-77 -30l-18 49l115 46h46v-428h-66zM226 0l224 714h75l-224 -714h-75zM517 0v42l126 150q64 75 64 125q0 30 -17 47t-47 17q-59 0 -73 -63l-61 7q10 58 42 83.5t94 25.5q128 0 128 -119q0 -40 -17 -74t-65 -91l-82 -97h163v-53h-255z" />
    <glyph glyph-name="onequarter" unicode="&#xbc;" horiz-adv-x="860" 
d="M151 286v363l-77 -30l-18 49l115 46h46v-428h-66zM237 0l224 714h75l-224 -714h-75zM672 0v80h-187v39l147 309h70l-141 -296h111v93h59v-93h45v-53h-45v-79h-59z" />
    <glyph glyph-name="threequarters" unicode="&#xbe;" horiz-adv-x="860" 
d="M113 487v47h44q35 0 57 22q20 20 20 46q0 29 -18.5 46.5t-48.5 17.5q-55 0 -69 -50l-59 7q8 50 38.5 73t91.5 23q131 0 131 -115q0 -35 -12 -56t-42 -37q66 -32 66 -107q0 -123 -145 -123q-82 0 -118 39q-15 16 -23 57l62 11q13 -54 77 -54q38 0 59.5 19.5t21.5 53.5
q0 38 -27 60q-24 20 -59 20h-47zM699 0v80h-186v39l146 309h70l-141 -296h111v93h60v-93h45v-53h-45v-79h-60zM283 0l225 714h75l-224 -714h-76z" />
    <glyph glyph-name="franc" unicode="&#x20a3;" horiz-adv-x="744" 
d="M90 0v714h334v-70h-253v-253h203v-70h-203v-321h-81zM448 0v444h61l9 -52q23 33 51.5 47t72.5 14q46 0 91 -23l-32 -66q-35 22 -67 22q-61 0 -86 -54q-22 -47 -22 -145v-187h-78z" />
    <glyph glyph-name="Gbreve" unicode="&#x11e;" horiz-adv-x="663" 
d="M356 308v67h231v-112q0 -71 -12 -115.5t-41 -79.5q-65 -77 -196 -77q-142 0 -207 90q-24 35 -34 80.5t-10 121.5v146q0 83 12.5 132t42.5 84q64 77 190 77q114 0 174 -53q53 -46 58 -127l-77 -6q-8 59 -53 90q-39 26 -100 26q-93 0 -131 -60q-33 -53 -33 -167v-138
q0 -129 44 -181q39 -45 123 -45q93 0 135 59q33 44 33 126v62h-149zM194 923h54q5 -43 24 -60t61 -17q43 0 61.5 17t23.5 60h55q-4 -59 -18 -85q-30 -53 -122 -53q-97 0 -126 61q-10 24 -13 77z" />
    <glyph glyph-name="gbreve" unicode="&#x11f;" horiz-adv-x="565" 
d="M397 -8l1 47q-47 -48 -139 -48q-103 0 -148 62q-40 53 -40 160v76q0 122 52 176q46 47 138 47q98 0 147 -55l6 45h62v-502q0 -234 -214 -234q-120 0 -175 79l59 36q22 -27 48 -39t65 -12q74 0 107 44q29 39 31 118zM150 284v-66q0 -161 122 -161q125 0 125 153v82
q0 154 -125 154q-122 0 -122 -162zM155 715h54q5 -43 24 -60t61 -17q43 0 61.5 17t23.5 60h55q-4 -59 -18 -85q-30 -53 -122 -53q-97 0 -126 62q-10 22 -13 76z" />
    <glyph glyph-name="glyph250" horiz-adv-x="200" 
 />
    <glyph glyph-name="Scedilla" unicode="&#x15e;" horiz-adv-x="579" 
d="M45 96l65 42q46 -77 176 -77q83 0 126 38q38 33 38 90q0 62 -43 92q-20 14 -36.5 20t-95.5 25q-117 29 -163 81q-41 45 -41 122q0 98 66 149q57 45 153 45q147 0 206 -90l-63 -41q-45 62 -146 62q-67 0 -104 -36q-31 -32 -31 -84q0 -58 42 -90q36 -28 122 -50
q70 -17 95.5 -26t52.5 -28q67 -46 67 -147q0 -104 -72 -156q-63 -46 -173 -46q-175 0 -241 105zM201 -222l52 153h83l-79 -153h-56z" />
    <glyph glyph-name="scedilla" unicode="&#x15f;" horiz-adv-x="473" 
d="M29 69l58 37q27 -27 56.5 -38t78.5 -11q127 0 127 84q0 45 -34 62q-23 12 -93 21q-53 8 -80 17t-45 24q-40 34 -40 98q0 77 49 115q43 34 117 34q125 0 182 -80l-60 -37q-23 28 -49.5 39.5t-66.5 11.5q-96 0 -96 -79q0 -39 31 -58q21 -11 79 -19q59 -8 88 -16.5t49 -23.5
q45 -33 45 -111q0 -148 -200 -148q-142 0 -196 78zM150 -222l52 153h83l-79 -153h-56z" />
    <glyph glyph-name="Cacute" unicode="&#x106;" horiz-adv-x="632" 
d="M481 177l77 -9q-6 -91 -74 -137q-59 -40 -158 -40q-136 0 -196 90q-23 35 -33 81t-10 121v147q0 81 12 130t41 85q62 77 187 77q110 0 169 -53q51 -47 55 -127l-76 -6q-8 60 -51 90q-37 26 -96 26q-90 0 -126 -60q-32 -53 -32 -166v-138q0 -130 42 -182q37 -45 117 -45
q69 0 109 34q35 30 43 82zM277 789l75 142h97l-112 -142h-60z" />
    <glyph glyph-name="cacute" unicode="&#x107;" horiz-adv-x="475" 
d="M386 106l59 -36q-56 -79 -172 -79q-202 0 -202 234v41q0 133 56 193q48 53 143 53q115 0 166 -82l-61 -35q-22 29 -44 40t-56 11q-125 0 -125 -174v-55q0 -160 127 -160q70 0 109 49zM220 582l75 142h97l-112 -142h-60z" />
    <glyph glyph-name="Ccaron" unicode="&#x10c;" horiz-adv-x="632" 
d="M481 177l77 -9q-6 -91 -74 -137q-59 -40 -158 -40q-136 0 -196 90q-23 35 -33 81t-10 121v147q0 81 12 130t41 85q62 77 187 77q110 0 169 -53q51 -47 55 -127l-76 -6q-8 60 -51 90q-37 26 -96 26q-90 0 -126 -60q-32 -53 -32 -166v-138q0 -130 42 -182q37 -45 117 -45
q69 0 109 34q35 30 43 82zM327 845l68 81h84l-127 -134h-51l-127 134h84z" />
    <glyph glyph-name="ccaron" unicode="&#x10d;" horiz-adv-x="475" 
d="M386 106l59 -36q-56 -79 -172 -79q-202 0 -202 234v41q0 133 56 193q48 53 143 53q115 0 166 -82l-61 -35q-22 29 -44 40t-56 11q-125 0 -125 -174v-55q0 -160 127 -160q70 0 109 49zM273 638l68 80h84l-127 -133h-51l-127 133h84z" />
    <glyph glyph-name="glyph257" horiz-adv-x="200" 
 />
    <glyph glyph-name="nonbreakingspace" unicode="&#xa0;" horiz-adv-x="200" 
 />
    <glyph glyph-name="uni00AD" unicode="&#xad;" horiz-adv-x="476" 
d="M97 328v70h281v-70h-281z" />
    <glyph glyph-name="Amacron" unicode="&#x100;" horiz-adv-x="600" 
d="M457 156h-313l-54 -156h-90l261 714h79l261 -714h-90zM436 225l-135 383l-135 -383h270zM172 827v58h257v-58h-257z" />
    <glyph glyph-name="amacron" unicode="&#x101;" horiz-adv-x="525" 
d="M361 295v35q0 54 -18 80q-27 36 -92 36q-75 0 -120 -51l-55 42q65 75 182 75q118 0 161 -73q21 -38 21 -121v-318h-63l-6 36q-24 -25 -56.5 -35t-89.5 -10q-103 0 -142 39q-34 33 -34 110q0 92 48 126q42 29 143 29h121zM361 235h-113q-71 0 -99 -24q-24 -22 -24 -69
q0 -51 29 -69q26 -16 89 -16q78 0 104 33q14 18 14 67v78zM134 619v58h257v-58h-257z" />
    <glyph glyph-name="Abreve" unicode="&#x102;" horiz-adv-x="600" 
d="M457 156h-313l-54 -156h-90l261 714h79l261 -714h-90zM436 225l-135 383l-135 -383h270zM161 923h54q5 -43 24 -60t61 -17q43 0 61.5 17t23.5 60h55q-4 -59 -18 -85q-30 -53 -122 -53q-97 0 -126 61q-10 24 -13 77z" />
    <glyph glyph-name="abreve" unicode="&#x103;" horiz-adv-x="525" 
d="M361 295v35q0 54 -18 80q-27 36 -92 36q-75 0 -120 -51l-55 42q65 75 182 75q118 0 161 -73q21 -38 21 -121v-318h-63l-6 36q-24 -25 -56.5 -35t-89.5 -10q-103 0 -142 39q-34 33 -34 110q0 92 48 126q42 29 143 29h121zM361 235h-113q-71 0 -99 -24q-24 -22 -24 -69
q0 -51 29 -69q26 -16 89 -16q78 0 104 33q14 18 14 67v78zM125 715h54q5 -43 24 -60t61 -17q43 0 61.5 17t23.5 60h55q-4 -59 -18 -85q-30 -53 -122 -53q-97 0 -126 62q-10 22 -13 76z" />
    <glyph glyph-name="Aogonek" unicode="&#x104;" horiz-adv-x="600" 
d="M340 714l261 -714q-52 -30 -74.5 -54t-22.5 -51q0 -41 51 -41q26 0 59 10l8 -46q-39 -14 -80 -14q-110 0 -110 79q0 35 26.5 66.5t72.5 50.5h-20l-54 156h-313l-54 -156h-90l261 714h79zM436 225l-135 383l-135 -383h270z" />
    <glyph glyph-name="aogonek" unicode="&#x105;" horiz-adv-x="525" 
d="M440 318v-318q-96 -55 -96 -105q0 -41 51 -41q25 0 58 10l8 -46q-41 -14 -80 -14q-109 0 -109 79q0 73 104 120l-5 33q-24 -25 -56.5 -35t-89.5 -10q-103 0 -142 39q-34 33 -34 110q0 92 48 126q42 29 143 29h121v35q0 54 -18 80q-27 36 -92 36q-75 0 -120 -51l-55 42
q65 75 182 75q118 0 161 -73q21 -38 21 -121zM361 235h-113q-71 0 -99 -24q-24 -22 -24 -69q0 -51 29 -69q26 -16 89 -16q78 0 104 33q14 18 14 67v78z" />
    <glyph glyph-name="Ccircumflex" unicode="&#x108;" horiz-adv-x="632" 
d="M481 177l77 -9q-6 -91 -74 -137q-59 -40 -158 -40q-136 0 -196 90q-23 35 -33 81t-10 121v147q0 81 12 130t41 85q62 77 187 77q110 0 169 -53q51 -47 55 -127l-76 -6q-8 60 -51 90q-37 26 -96 26q-90 0 -126 -60q-32 -53 -32 -166v-138q0 -130 42 -182q37 -45 117 -45
q69 0 109 34q35 30 43 82zM326 874l-68 -80h-84l127 133h51l127 -133h-84z" />
    <glyph glyph-name="ccircumflex" unicode="&#x109;" horiz-adv-x="475" 
d="M386 106l59 -36q-56 -79 -172 -79q-202 0 -202 234v41q0 133 56 193q48 53 143 53q115 0 166 -82l-61 -35q-22 29 -44 40t-56 11q-125 0 -125 -174v-55q0 -160 127 -160q70 0 109 49zM266 667l-68 -81h-84l127 134h51l127 -134h-84z" />
    <glyph glyph-name="Cdotaccent" unicode="&#x10a;" horiz-adv-x="632" 
d="M481 177l77 -9q-6 -91 -74 -137q-59 -40 -158 -40q-136 0 -196 90q-23 35 -33 81t-10 121v147q0 81 12 130t41 85q62 77 187 77q110 0 169 -53q51 -47 55 -127l-76 -6q-8 60 -51 90q-37 26 -96 26q-90 0 -126 -60q-32 -53 -32 -166v-138q0 -130 42 -182q37 -45 117 -45
q69 0 109 34q35 30 43 82zM289 797v104h78v-104h-78z" />
    <glyph glyph-name="cdotaccent" unicode="&#x10b;" horiz-adv-x="475" 
d="M386 106l59 -36q-56 -79 -172 -79q-202 0 -202 234v41q0 133 56 193q48 53 143 53q115 0 166 -82l-61 -35q-22 29 -44 40t-56 11q-125 0 -125 -174v-55q0 -160 127 -160q70 0 109 49zM229 590v104h78v-104h-78z" />
    <glyph glyph-name="Dcaron" unicode="&#x10e;" horiz-adv-x="678" 
d="M104 0v714h228q139 2 205 -77q57 -69 54 -195v-170q4 -144 -71 -213q-66 -60 -188 -59h-228zM187 69h131q105 -2 150 56q40 51 40 155v154q0 118 -52 169q-46 44 -138 42h-131v-576zM310 845l68 81h84l-127 -134h-51l-127 134h84z" />
    <glyph glyph-name="dcaron" unicode="&#x10f;" horiz-adv-x="641" 
d="M414 0l-5 43l-3 -3l-2 -1q-9 -9 -14 -13q-16 -16 -52 -25.5t-77 -9.5q-104 0 -150 62q-40 53 -40 160v76q0 122 52 176q46 47 136 47q66 0 110 -25l2 -1q14 -11 26 -22v250h79v-714h-62zM150 284v-66q0 -161 122 -161q125 0 125 153v82q0 154 -125 154q-122 0 -122 -162z
M556 492l26 230h82l-52 -230h-56z" />
    <glyph glyph-name="Dcroat" unicode="&#x110;" horiz-adv-x="678" 
d="M104 396v318h227q139 2 205 -77q57 -69 54 -194v-171q4 -144 -71 -213q-66 -60 -188 -59h-227v327h-84v69h84zM187 396h170v-69h-170v-258h131q104 -2 149 56q40 51 40 155v154q0 118 -52 169q-46 44 -137 42h-131v-249z" />
    <glyph glyph-name="dcroat" unicode="&#x111;" horiz-adv-x="565" 
d="M397 572h-151v56h151v86h79v-86h82v-56h-82v-572h-62l-5 43l-3 -3l-2 -1q-9 -9 -14 -13q-16 -16 -52 -25.5t-77 -9.5q-104 0 -150 62q-40 53 -40 160v76q0 122 52 176q46 47 136 47q49 0 77.5 -10t60.5 -38v108zM150 284v-66q0 -161 122 -161q125 0 125 153v82
q0 154 -125 154q-122 0 -122 -162z" />
    <glyph glyph-name="Emacron" unicode="&#x112;" horiz-adv-x="579" 
d="M104 0v714h417v-70h-335v-248h286v-70h-286v-256h336v-70h-418zM182 827v58h257v-58h-257z" />
    <glyph glyph-name="emacron" unicode="&#x113;" horiz-adv-x="543" 
d="M151 235v-21q0 -82 41 -122q35 -35 99 -35q40 0 66.5 11.5t48.5 37.5l59 -38q-30 -41 -73 -59t-109 -18q-115 0 -167 66q-45 58 -45 171v43q0 133 56 190q49 51 148 51q113 0 161 -66q43 -59 43 -175v-36h-328zM151 295h252v8q0 62 -27 100q-30 43 -98 43q-40 0 -65 -12
t-41 -39q-21 -39 -21 -92v-8zM150 619v58h257v-58h-257z" />
    <glyph glyph-name="Ebreve" unicode="&#x114;" horiz-adv-x="579" 
d="M104 0v714h417v-70h-335v-248h286v-70h-286v-256h336v-70h-418zM173 923h54q5 -43 24 -60t61 -17q43 0 61.5 17t23.5 60h55q-4 -59 -18 -85q-30 -53 -122 -53q-97 0 -126 61q-10 24 -13 77z" />
    <glyph glyph-name="ebreve" unicode="&#x115;" horiz-adv-x="543" 
d="M151 235v-21q0 -82 41 -122q35 -35 99 -35q40 0 66.5 11.5t48.5 37.5l59 -38q-30 -41 -73 -59t-109 -18q-115 0 -167 66q-45 58 -45 171v43q0 133 56 190q49 51 148 51q113 0 161 -66q43 -59 43 -175v-36h-328zM151 295h252v8q0 62 -27 100q-30 43 -98 43q-40 0 -65 -12
t-41 -39q-21 -39 -21 -92v-8zM136 715h54q5 -43 24 -60t61 -17q43 0 61.5 17t23.5 60h55q-4 -59 -18 -85q-30 -53 -122 -53q-97 0 -126 62q-10 22 -13 76z" />
    <glyph glyph-name="Edotaccent" unicode="&#x116;" horiz-adv-x="579" 
d="M104 0v714h417v-70h-335v-248h286v-70h-286v-256h336v-70h-418zM278 797v104h78v-104h-78z" />
    <glyph glyph-name="edotaccent" unicode="&#x117;" horiz-adv-x="543" 
d="M151 235v-21q0 -82 41 -122q35 -35 99 -35q40 0 66.5 11.5t48.5 37.5l59 -38q-30 -41 -73 -59t-109 -18q-115 0 -167 66q-45 58 -45 171v43q0 133 56 190q49 51 148 51q113 0 161 -66q43 -59 43 -175v-36h-328zM151 295h252v8q0 62 -27 100q-30 43 -98 43q-40 0 -65 -12
t-41 -39q-21 -39 -21 -92v-8zM240 590v104h78v-104h-78z" />
    <glyph glyph-name="Eogonek" unicode="&#x118;" horiz-adv-x="579" 
d="M104 0v714h417v-70h-335v-248h286v-70h-286v-256h336v-70q-96 -54 -96 -105q0 -41 51 -41q25 0 58 10l8 -46q-43 -14 -80 -14q-110 0 -110 79q0 71 98 117h-347z" />
    <glyph glyph-name="eogonek" unicode="&#x119;" horiz-adv-x="543" 
d="M153 235v-21q0 -82 41 -122q35 -35 99 -35q75 0 115 49l59 -36q-30 -45 -82 -64l-10 -6q-45 -28 -64.5 -52t-19.5 -52q0 -42 51 -42q25 0 58 10l9 -46q-42 -14 -80 -14q-110 0 -110 80q0 61 69 107q-216 -3 -215 237v43q0 131 57 190q50 51 147 51q113 0 161 -66
q43 -59 43 -175v-36h-328zM153 295h252v8q0 62 -27 99q-30 43 -98 43q-76 0 -106 -50q-21 -39 -21 -92v-8z" />
    <glyph glyph-name="Ecaron" unicode="&#x11a;" horiz-adv-x="579" 
d="M104 0v714h417v-70h-335v-248h286v-70h-286v-256h336v-70h-418zM318 845l68 81h84l-127 -134h-51l-127 134h84z" />
    <glyph glyph-name="ecaron" unicode="&#x11b;" horiz-adv-x="543" 
d="M151 235v-21q0 -82 41 -122q35 -35 99 -35q40 0 66.5 11.5t48.5 37.5l59 -38q-30 -41 -73 -59t-109 -18q-115 0 -167 66q-45 58 -45 171v43q0 133 56 190q49 51 148 51q113 0 161 -66q43 -59 43 -175v-36h-328zM151 295h252v8q0 62 -27 100q-30 43 -98 43q-40 0 -65 -12
t-41 -39q-21 -39 -21 -92v-8zM280 638l68 80h84l-127 -133h-51l-127 133h84z" />
    <glyph glyph-name="Gcircumflex" unicode="&#x11c;" horiz-adv-x="663" 
d="M356 308v67h231v-112q0 -71 -12 -115.5t-41 -79.5q-65 -77 -196 -77q-142 0 -207 90q-24 35 -34 80.5t-10 121.5v146q0 83 12.5 132t42.5 84q64 77 190 77q114 0 174 -53q53 -46 58 -127l-77 -6q-8 59 -53 90q-39 26 -100 26q-93 0 -131 -60q-33 -53 -33 -167v-138
q0 -129 44 -181q39 -45 123 -45q93 0 135 59q33 44 33 126v62h-149zM331 874l-68 -80h-84l127 133h51l127 -133h-84z" />
    <glyph glyph-name="gcircumflex" unicode="&#x11d;" horiz-adv-x="565" 
d="M397 -8l1 47q-47 -48 -139 -48q-103 0 -148 62q-40 53 -40 160v76q0 122 52 176q46 47 138 47q98 0 147 -55l6 45h62v-502q0 -234 -214 -234q-120 0 -175 79l59 36q22 -27 48 -39t65 -12q74 0 107 44q29 39 31 118zM150 284v-66q0 -161 122 -161q125 0 125 153v82
q0 154 -125 154q-122 0 -122 -162zM286 667l-68 -81h-84l127 134h51l127 -134h-84z" />
    <glyph glyph-name="Gdotaccent" unicode="&#x120;" horiz-adv-x="663" 
d="M356 308v67h231v-112q0 -71 -12 -115.5t-41 -79.5q-65 -77 -196 -77q-142 0 -207 90q-24 35 -34 80.5t-10 121.5v146q0 83 12.5 132t42.5 84q64 77 190 77q114 0 174 -53q53 -46 58 -127l-77 -6q-8 59 -53 90q-39 26 -100 26q-93 0 -131 -60q-33 -53 -33 -167v-138
q0 -129 44 -181q39 -45 123 -45q93 0 135 59q33 44 33 126v62h-149zM294 797v104h78v-104h-78z" />
    <glyph glyph-name="gdotaccent" unicode="&#x121;" horiz-adv-x="565" 
d="M397 -8l1 47q-47 -48 -139 -48q-103 0 -148 62q-40 53 -40 160v76q0 122 52 176q46 47 138 47q98 0 147 -55l6 45h62v-502q0 -234 -214 -234q-120 0 -175 79l59 36q22 -27 48 -39t65 -12q74 0 107 44q29 39 31 118zM150 284v-66q0 -161 122 -161q125 0 125 153v82
q0 154 -125 154q-122 0 -122 -162zM257 590v104h78v-104h-78z" />
    <glyph glyph-name="Gcommaaccent" unicode="&#x122;" horiz-adv-x="663" 
d="M356 308v67h231v-112q0 -71 -12 -115.5t-41 -79.5q-65 -77 -196 -77q-142 0 -207 90q-24 35 -34 80.5t-10 121.5v146q0 83 12.5 132t42.5 84q64 77 190 77q114 0 174 -53q53 -46 58 -127l-77 -6q-8 59 -53 90q-39 26 -100 26q-93 0 -131 -60q-33 -53 -33 -167v-138
q0 -129 44 -181q39 -45 123 -45q93 0 135 59q33 44 33 126v62h-149zM255 -222l52 153h83l-79 -153h-56z" />
    <glyph glyph-name="gcommaaccent" unicode="&#x123;" horiz-adv-x="565" 
d="M397 -8l1 47q-47 -48 -139 -48q-103 0 -148 62q-40 53 -40 160v76q0 122 52 176q46 47 138 47q98 0 147 -55l6 45h62v-502q0 -234 -214 -234q-120 0 -175 79l59 36q22 -27 48 -39t65 -12q74 0 107 44q29 39 31 118zM150 284v-66q0 -161 122 -161q125 0 125 153v82
q0 154 -125 154q-122 0 -122 -162zM236 582l111 142h61l-75 -142h-97z" />
    <glyph glyph-name="Hcircumflex" unicode="&#x124;" horiz-adv-x="681" 
d="M104 0v714h83v-318h306v318h83v-714h-83v326h-306v-326h-83zM340 874l-68 -80h-84l127 133h51l127 -133h-84z" />
    <glyph glyph-name="hcircumflex" unicode="&#x125;" horiz-adv-x="565" 
d="M88 0v714h79v-252q44 50 132 50q132 0 167 -97q15 -43 15 -127v-288h-79v281q0 93 -30 130q-27 33 -84 33q-69 0 -97 -50q-24 -43 -24 -135v-259h-79zM162 874l-68 -80h-84l127 133h51l127 -133h-84z" />
    <glyph glyph-name="Hbar" unicode="&#x126;" horiz-adv-x="681" 
d="M104 0v497h-65v61h65v156h83v-156h307v156h83v-156h65v-61h-65v-497h-83v326h-307v-326h-83zM187 396h307v101h-307v-101z" />
    <glyph glyph-name="hbar" unicode="&#x127;" horiz-adv-x="565" 
d="M88 572h-81v56h81v86h79v-86h152v-56h-152v-110q44 50 132 50q133 0 168 -97q15 -43 15 -127v-288h-79v281q0 67 -14 101q-24 62 -101 62q-69 0 -97 -49q-24 -43 -24 -136v-259h-79v572z" />
    <glyph glyph-name="Itilde" unicode="&#x128;" horiz-adv-x="291" 
d="M104 0v714h83v-714h-83zM39 804h-51q13 52 25 71q25 43 72 43q37 0 73 -32t53 -32q15 0 24 12.5t17 43.5h51q-12 -50 -23 -73q-23 -41 -71 -41q-38 0 -75 34q-21 18 -31 24t-21 6q-29 0 -43 -56z" />
    <glyph glyph-name="itilde" unicode="&#x129;" horiz-adv-x="255" 
d="M88 0v502h79v-502h-79zM21 596h-51q13 52 25 72q25 43 72 43q37 0 73 -32t53 -32q15 0 24 12.5t17 43.5h51q-12 -52 -23 -73q-22 -42 -71 -42q-38 0 -75 34q-34 30 -51 30q-30 0 -44 -56z" />
    <glyph glyph-name="Imacron" unicode="&#x12a;" horiz-adv-x="291" 
d="M104 0v714h83v-714h-83zM17 827v58h257v-58h-257z" />
    <glyph glyph-name="imacron" unicode="&#x12b;" horiz-adv-x="255" 
d="M88 0v502h79v-502h-79zM-1 619v58h257v-58h-257z" />
    <glyph glyph-name="Ibreve" unicode="&#x12c;" horiz-adv-x="291" 
d="M104 0v714h83v-714h-83zM6 923h54q5 -43 24 -60t61 -17q43 0 61.5 17t23.5 60h55q-4 -59 -18 -85q-30 -53 -122 -53q-97 0 -126 61q-10 24 -13 77z" />
    <glyph glyph-name="ibreve" unicode="&#x12d;" horiz-adv-x="255" 
d="M88 0v502h79v-502h-79zM-12 715h54q5 -43 24 -60t61 -17q43 0 61.5 17t23.5 60h55q-4 -59 -18 -85q-30 -53 -122 -53q-97 0 -126 62q-10 22 -13 76z" />
    <glyph glyph-name="Iogonek" unicode="&#x12e;" horiz-adv-x="291" 
d="M187 714v-714q-80 -48 -80 -101q0 -45 47 -45q26 0 59 10l8 -46q-41 -14 -81 -14q-105 0 -105 83q0 70 86 113h-17v714h83z" />
    <glyph glyph-name="iogonek" unicode="&#x12f;" horiz-adv-x="255" 
d="M166 502v-502q-78 -51 -78 -102q0 -44 47 -44q25 0 56 10l8 -46q-39 -14 -78 -14q-105 0 -105 81q0 66 80 115h-9v502h79zM87 611v106h79v-106h-79z" />
    <glyph glyph-name="Idotaccent" unicode="&#x130;" horiz-adv-x="291" 
d="M103 0v714h83v-714h-83zM105 797v104h78v-104h-78z" />
    <glyph glyph-name="IJ" unicode="&#x132;" horiz-adv-x="582" 
d="M104 0v714h83v-714h-83zM396 714h83v-669q0 -91 -5 -131t-21 -69q-47 -88 -170 -88q-46 0 -94 16l27 65q32 -11 59 -11q83 0 109 75q12 35 12 141v671z" />
    <glyph glyph-name="ij" unicode="&#x133;" horiz-adv-x="516" 
d="M88 611v106h79v-106h-79zM88 0v502h79v-502h-79zM349 502h79v-514q2 -133 -48 -178q-44 -41 -155 -40v67q73 -3 101 35q25 34 23 108v522zM349 611v106h79v-106h-79z" />
    <glyph glyph-name="Jcircumflex" unicode="&#x134;" horiz-adv-x="465" 
d="M283 714h83v-435q0 -91 -5 -131t-21 -69q-47 -88 -172 -88q-54 0 -95.5 16t-81.5 53l46 57q56 -56 126 -56q82 0 108 75q12 35 12 141v437zM310 874l-68 -80h-84l127 133h51l127 -133h-84z" />
    <glyph glyph-name="jcircumflex" unicode="&#x135;" horiz-adv-x="261" 
d="M90 502h79v-514q2 -133 -48 -178q-44 -41 -155 -40v67q73 -3 101 35q25 34 23 108v522zM127 667l-68 -81h-84l127 134h51l127 -134h-84z" />
    <glyph glyph-name="Kcommaaccent" unicode="&#x136;" horiz-adv-x="618" 
d="M105 0v714h82v-391l306 391h98l-232 -288l256 -426h-95l-214 368l-119 -148v-220h-82zM249 -222l52 153h83l-79 -153h-56z" />
    <glyph glyph-name="kcommaaccent" unicode="&#x137;" horiz-adv-x="511" 
d="M88 0v714h79v-497l223 285h91l-171 -213l190 -289h-88l-150 230l-95 -118v-112h-79zM190 -222l52 153h83l-79 -153h-56z" />
    <glyph glyph-name="kgreenlandic" unicode="&#x138;" horiz-adv-x="511" 
d="M88 0v502h79v-285l223 285h91l-171 -212l190 -290h-88l-150 231l-95 -119v-112h-79z" />
    <glyph glyph-name="Lacute" unicode="&#x139;" horiz-adv-x="533" 
d="M104 0v714h83v-644h336v-70h-419zM124 789l75 142h97l-112 -142h-60z" />
    <glyph glyph-name="lacute" unicode="&#x13a;" horiz-adv-x="292" 
d="M87 714h79v-554q0 -54 18 -74t67 -19h26v-67h-29q-101 0 -133 39q-28 35 -28 128v547zM96 789l75 142h97l-112 -142h-60z" />
    <glyph glyph-name="Lcommaaccent" unicode="&#x13b;" horiz-adv-x="533" 
d="M104 0v714h83v-644h336v-70h-419zM221 -222l52 153h83l-79 -153h-56z" />
    <glyph glyph-name="lcommaaccent" unicode="&#x13c;" horiz-adv-x="292" 
d="M85 714h79v-554q-1 -53 17.5 -73.5t67.5 -19.5h26v-67h-29q-101 0 -133 39q-28 35 -28 128v547zM79 -222l52 153h83l-79 -153h-56z" />
    <glyph glyph-name="Lcaron" unicode="&#x13d;" horiz-adv-x="533" 
d="M104 0v714h83v-644h336v-70h-419zM286 492l26 230h82l-52 -230h-56z" />
    <glyph glyph-name="lcaron" unicode="&#x13e;" horiz-adv-x="344" 
d="M87 714h79v-554q0 -54 18 -74t67 -19h26v-67h-29q-101 0 -133 39q-28 35 -28 128v547zM253 492l26 230h82l-52 -230h-56z" />
    <glyph glyph-name="Ldot" unicode="&#x13f;" horiz-adv-x="533" 
d="M104 0v714h83v-644h336v-70h-419zM367 314v99h73v-99h-73z" />
    <glyph glyph-name="ldot" unicode="&#x140;" horiz-adv-x="324" 
d="M87 714h79v-554q0 -54 18 -74t67 -19h26v-67h-29q-101 0 -133 39q-28 35 -28 128v547zM252 314v99h73v-99h-73z" />
    <glyph glyph-name="Nacute" unicode="&#x143;" horiz-adv-x="721" 
d="M104 0v714h80l352 -572v572h81v-714h-80l-352 572v-572h-81zM327 789l75 142h97l-112 -142h-60z" />
    <glyph glyph-name="nacute" unicode="&#x144;" horiz-adv-x="565" 
d="M88 0v502h61l6 -56q43 66 142 66q135 0 169 -97q15 -43 15 -127v-288h-79v281q0 93 -30 130q-27 33 -84 33q-69 0 -97 -50q-24 -44 -24 -139v-255h-79zM238 582l75 142h97l-112 -142h-60z" />
    <glyph glyph-name="Ncommaaccent" unicode="&#x145;" horiz-adv-x="721" 
d="M104 0v714h80l352 -572v572h81v-714h-80l-352 572v-572h-81zM287 -222l52 153h83l-79 -153h-56z" />
    <glyph glyph-name="ncommaaccent" unicode="&#x146;" horiz-adv-x="565" 
d="M88 0v502h61l6 -56q43 66 142 66q135 0 169 -97q15 -43 15 -127v-288h-79v281q0 93 -30 130q-27 33 -84 33q-69 0 -97 -50q-24 -44 -24 -139v-255h-79zM205 -222l52 153h83l-79 -153h-56z" />
    <glyph glyph-name="Ncaron" unicode="&#x147;" horiz-adv-x="721" 
d="M104 0v714h80l352 -572v572h81v-714h-80l-352 572v-572h-81zM374 845l68 81h84l-127 -134h-51l-127 134h84z" />
    <glyph glyph-name="ncaron" unicode="&#x148;" horiz-adv-x="565" 
d="M88 0v502h61l6 -56q43 66 142 66q135 0 169 -97q15 -43 15 -127v-288h-79v281q0 93 -30 130q-27 33 -84 33q-69 0 -97 -50q-24 -44 -24 -139v-255h-79zM279 638l68 80h84l-127 -133h-51l-127 133h84z" />
    <glyph glyph-name="napostrophe" unicode="&#x149;" horiz-adv-x="609" 
d="M132 0v502h61l6 -56q43 66 142 66q135 0 169 -97q15 -43 15 -127v-288h-79v281q0 93 -30 130q-27 33 -84 33q-69 0 -97 -50q-24 -44 -24 -139v-255h-79zM12 475l36 239h87l-55 -239h-68z" />
    <glyph glyph-name="Eng" unicode="&#x14a;" horiz-adv-x="721" 
d="M104 0v714h80l352 -569v569h81v-727q3 -131 -47 -177q-45 -41 -154 -40v66q71 -3 99 35q25 33 24 105v31l-354 565v-572h-81z" />
    <glyph glyph-name="eng" unicode="&#x14b;" horiz-adv-x="565" 
d="M88 0v502h61l6 -56q43 66 142 66q134 0 169 -97q15 -43 15 -127v-300q2 -133 -48 -178q-44 -41 -155 -40v67q73 -3 101 35q25 34 23 108v301q0 67 -14 101q-24 62 -100 62q-69 0 -97 -50q-24 -44 -24 -139v-255h-79z" />
    <glyph glyph-name="Omacron" unicode="&#x14c;" horiz-adv-x="676" 
d="M87 269v176q0 74 13.5 121t45.5 83q67 74 192 74q136 0 203 -86q26 -34 37 -78.5t11 -113.5v-176q0 -76 -13.5 -122.5t-45.5 -81.5q-67 -74 -192 -74q-136 0 -202 86q-26 34 -37.5 78.5t-11.5 113.5zM506 277v160q0 60 -9 96t-30 63q-42 57 -129 57q-93 0 -136 -66
q-32 -51 -32 -150v-160q0 -60 9 -96t30 -63q42 -57 129 -57q93 0 136 66q32 51 32 150zM210 827v58h257v-58h-257z" />
    <glyph glyph-name="omacron" unicode="&#x14d;" horiz-adv-x="557" 
d="M71 212v78q0 121 57 175q50 47 149 47q115 0 165 -61q44 -54 44 -161v-78q0 -122 -58 -174q-50 -47 -151 -47q-113 0 -162 61q-44 54 -44 160zM407 217v68q0 88 -36 127q-31 34 -93 34q-70 0 -101 -45q-27 -39 -27 -116v-68q0 -87 36 -126q31 -34 92 -34q70 0 102 45
q27 39 27 115zM150 619v58h257v-58h-257z" />
    <glyph glyph-name="Obreve" unicode="&#x14e;" horiz-adv-x="676" 
d="M87 269v176q0 74 13.5 121t45.5 83q67 74 192 74q136 0 203 -86q26 -34 37 -78.5t11 -113.5v-176q0 -76 -13.5 -122.5t-45.5 -81.5q-67 -74 -192 -74q-136 0 -202 86q-26 34 -37.5 78.5t-11.5 113.5zM506 277v160q0 60 -9 96t-30 63q-42 57 -129 57q-93 0 -136 -66
q-32 -51 -32 -150v-160q0 -60 9 -96t30 -63q42 -57 129 -57q93 0 136 66q32 51 32 150zM199 923h54q5 -43 24 -60t61 -17q43 0 61.5 17t23.5 60h55q-4 -59 -18 -85q-30 -53 -122 -53q-97 0 -126 61q-10 24 -13 77z" />
    <glyph glyph-name="obreve" unicode="&#x14f;" horiz-adv-x="557" 
d="M71 212v78q0 121 57 175q50 47 149 47q115 0 165 -61q44 -54 44 -161v-78q0 -122 -58 -174q-50 -47 -151 -47q-113 0 -162 61q-44 54 -44 160zM407 217v68q0 88 -36 127q-31 34 -93 34q-70 0 -101 -45q-27 -39 -27 -116v-68q0 -87 36 -126q31 -34 92 -34q70 0 102 45
q27 39 27 115zM139 715h54q5 -43 24 -60t61 -17q43 0 61.5 17t23.5 60h55q-4 -59 -18 -85q-30 -53 -122 -53q-97 0 -126 62q-10 22 -13 76z" />
    <glyph glyph-name="Ohungarumlaut" unicode="&#x150;" horiz-adv-x="676" 
d="M87 269v176q0 74 13.5 121t45.5 83q67 74 192 74q136 0 203 -86q26 -34 37 -78.5t11 -113.5v-176q0 -76 -13.5 -122.5t-45.5 -81.5q-67 -74 -192 -74q-136 0 -202 86q-26 34 -37.5 78.5t-11.5 113.5zM506 277v160q0 60 -9 96t-30 63q-42 57 -129 57q-93 0 -136 -66
q-32 -51 -32 -150v-160q0 -60 9 -96t30 -63q42 -57 129 -57q93 0 136 66q32 51 32 150zM235 789l60 142h90l-93 -142h-57zM370 789l60 142h89l-92 -142h-57z" />
    <glyph glyph-name="ohungarumlaut" unicode="&#x151;" horiz-adv-x="557" 
d="M71 212v78q0 121 57 175q50 47 149 47q115 0 165 -61q44 -54 44 -161v-78q0 -122 -58 -174q-50 -47 -151 -47q-113 0 -162 61q-44 54 -44 160zM407 217v68q0 88 -36 127q-31 34 -93 34q-70 0 -101 -45q-27 -39 -27 -116v-68q0 -87 36 -126q31 -34 92 -34q70 0 102 45
q27 39 27 115zM175 582l60 142h90l-93 -142h-57zM310 582l60 142h89l-92 -142h-57z" />
    <glyph glyph-name="Racute" unicode="&#x154;" horiz-adv-x="646" 
d="M188 308v-308h-83v714h245q63 0 102.5 -12t67.5 -40q51 -52 51 -147q0 -93 -41 -142q-36 -43 -106 -56l157 -317h-92l-147 308h-154zM187 377h164q137 0 137 134q0 73 -40 106q-36 28 -106 28h-155v-268zM273 789l75 142h97l-112 -142h-60z" />
    <glyph glyph-name="racute" unicode="&#x155;" horiz-adv-x="375" 
d="M88 0v502h62l8 -47q40 57 120 57q50 0 97 -26l-33 -68q-36 24 -71 24q-58 0 -83 -53q-21 -47 -21 -144v-245h-79zM169 582l75 142h97l-112 -142h-60z" />
    <glyph glyph-name="Rcommaaccent" unicode="&#x156;" horiz-adv-x="646" 
d="M188 308v-308h-83v714h245q63 0 102.5 -12t67.5 -40q51 -52 51 -147q0 -93 -41 -142q-36 -43 -106 -56l157 -317h-92l-147 308h-154zM187 377h164q137 0 137 134q0 73 -40 106q-36 28 -106 28h-155v-268zM245 -222l52 153h83l-79 -153h-56z" />
    <glyph glyph-name="rcommaaccent" unicode="&#x157;" horiz-adv-x="375" 
d="M88 0v502h62l8 -47q40 57 120 57q50 0 97 -26l-33 -68q-36 24 -71 24q-58 0 -83 -53q-21 -47 -21 -144v-245h-79zM36 -222l52 153h83l-79 -153h-56z" />
    <glyph glyph-name="Rcaron" unicode="&#x158;" horiz-adv-x="646" 
d="M188 308v-308h-83v714h245q63 0 102.5 -12t67.5 -40q51 -52 51 -147q0 -93 -41 -142q-36 -43 -106 -56l157 -317h-92l-147 308h-154zM187 377h164q137 0 137 134q0 73 -40 106q-36 28 -106 28h-155v-268zM316 845l68 81h84l-127 -134h-51l-127 134h84z" />
    <glyph glyph-name="rcaron" unicode="&#x159;" horiz-adv-x="375" 
d="M89 0v502h62l8 -47q40 57 120 57q50 0 97 -26l-33 -68q-36 24 -71 24q-58 0 -83 -53q-21 -47 -21 -144v-245h-79zM219 638l68 80h84l-127 -133h-51l-127 133h84z" />
    <glyph glyph-name="Sacute" unicode="&#x15a;" horiz-adv-x="579" 
d="M45 96l65 42q46 -77 176 -77q83 0 126 38q38 33 38 90q0 62 -43 92q-20 14 -36.5 20t-95.5 25q-117 29 -163 81q-41 45 -41 122q0 98 66 149q57 45 153 45q147 0 206 -90l-63 -41q-45 62 -146 62q-67 0 -104 -36q-31 -32 -31 -84q0 -58 42 -90q36 -28 122 -50
q70 -17 95.5 -26t52.5 -28q67 -46 67 -147q0 -104 -72 -156q-63 -46 -173 -46q-175 0 -241 105zM243 789l75 142h97l-112 -142h-60z" />
    <glyph glyph-name="sacute" unicode="&#x15b;" horiz-adv-x="473" 
d="M29 69l58 37q27 -27 56.5 -38t78.5 -11q127 0 127 84q0 45 -34 62q-23 12 -93 21q-53 8 -80 17t-45 24q-40 34 -40 98q0 77 49 115q43 34 117 34q125 0 182 -80l-60 -37q-23 28 -49.5 39.5t-66.5 11.5q-96 0 -96 -79q0 -39 31 -58q21 -11 79 -19q59 -8 88 -16.5t49 -23.5
q45 -33 45 -111q0 -148 -200 -148q-142 0 -196 78zM187 582l75 142h97l-112 -142h-60z" />
    <glyph glyph-name="Scircumflex" unicode="&#x15c;" horiz-adv-x="579" 
d="M45 96l65 42q46 -77 176 -77q83 0 126 38q38 33 38 90q0 62 -43 92q-20 14 -36.5 20t-95.5 25q-117 29 -163 81q-41 45 -41 122q0 98 66 149q57 45 153 45q147 0 206 -90l-63 -41q-45 62 -146 62q-67 0 -104 -36q-31 -32 -31 -84q0 -58 42 -90q36 -28 122 -50
q70 -17 95.5 -26t52.5 -28q67 -46 67 -147q0 -104 -72 -156q-63 -46 -173 -46q-175 0 -241 105zM293 874l-68 -80h-84l127 133h51l127 -133h-84z" />
    <glyph glyph-name="scircumflex" unicode="&#x15d;" horiz-adv-x="473" 
d="M29 69l58 37q27 -27 56.5 -38t78.5 -11q127 0 127 84q0 45 -34 62q-23 12 -93 21q-53 8 -80 17t-45 24q-40 34 -40 98q0 77 49 115q43 34 117 34q125 0 182 -80l-60 -37q-23 28 -49.5 39.5t-66.5 11.5q-96 0 -96 -79q0 -39 31 -58q21 -11 79 -19q59 -8 88 -16.5t49 -23.5
q45 -33 45 -111q0 -148 -200 -148q-142 0 -196 78zM232 667l-68 -81h-84l127 134h51l127 -134h-84z" />
    <glyph glyph-name="Tcommaaccent" unicode="&#x162;" horiz-adv-x="554" 
d="M237 0v644h-206v70h493v-70h-204v-644h-83zM190 -222l52 153h83l-79 -153h-56z" />
    <glyph glyph-name="tcommaaccent" unicode="&#x163;" horiz-adv-x="334" 
d="M105 436h-61v66h61l4 161h75v-161h99v-66h-99v-277q0 -53 18 -73t67 -19h17v-67h-18q-68 0 -100 13q-35 14 -49 48.5t-14 105.5v269zM103 -222l52 153h83l-79 -153h-56z" />
    <glyph glyph-name="Tcaron" unicode="&#x164;" horiz-adv-x="554" 
d="M237 0v644h-206v70h493v-70h-204v-644h-83zM278 845l68 81h84l-127 -134h-51l-127 134h84z" />
    <glyph glyph-name="tcaron" unicode="&#x165;" horiz-adv-x="377" 
d="M105 436h-61v66h61l4 161h75v-161h99v-66h-99v-277q0 -53 18 -73t67 -19h17v-67h-18q-68 0 -100 13q-35 14 -49 48.5t-14 105.5v269zM295 555l24 207h82l-50 -207h-56z" />
    <glyph glyph-name="Tbar" unicode="&#x166;" horiz-adv-x="554" 
d="M237 0v327h-140v69h140v248h-206v70h493v-70h-204v-248h138v-69h-138v-327h-83z" />
    <glyph glyph-name="tbar" unicode="&#x167;" horiz-adv-x="336" 
d="M107 436h-61v66h61l4 161h75v-161h99v-66h-99v-88h99v-56h-99v-139q0 -49 18.5 -68t66.5 -18h18v-67h-19q-100 -1 -133 35q-29 32 -30 117v140h-61v56h61v88z" />
    <glyph glyph-name="Utilde" unicode="&#x168;" horiz-adv-x="690" 
d="M101 714h83v-452q0 -53 6 -83.5t20 -54.5q22 -33 53.5 -48t81.5 -15q53 0 87 17.5t54 55.5q20 40 20 128v452h83v-452q0 -76 -9 -116.5t-34 -71.5q-33 -43 -81 -63t-120 -20q-149 0 -210 95q-19 30 -26.5 68t-7.5 108v452zM238 804h-51q13 52 25 71q25 43 72 43
q37 0 73 -32t53 -32q15 0 24 12.5t17 43.5h51q-12 -50 -23 -73q-23 -41 -71 -41q-38 0 -75 34q-21 18 -31 24t-21 6q-29 0 -43 -56z" />
    <glyph glyph-name="utilde" unicode="&#x169;" horiz-adv-x="555" 
d="M84 502h79v-280q0 -66 13 -101q24 -62 96 -62q66 0 93 50q23 43 23 138v255h79v-502h-61l-6 56q-42 -65 -138 -65q-130 0 -163 97q-15 42 -15 126v288zM171 596h-51q13 52 25 72q25 43 72 43q37 0 73 -32t53 -32q15 0 24 12.5t17 43.5h51q-12 -52 -23 -73
q-22 -42 -71 -42q-38 0 -75 34q-34 30 -51 30q-30 0 -44 -56z" />
    <glyph glyph-name="Umacron" unicode="&#x16a;" horiz-adv-x="690" 
d="M101 714h83v-452q0 -53 6 -83.5t20 -54.5q22 -33 53.5 -48t81.5 -15q53 0 87 17.5t54 55.5q20 40 20 128v452h83v-452q0 -76 -9 -116.5t-34 -71.5q-33 -43 -81 -63t-120 -20q-149 0 -210 95q-19 30 -26.5 68t-7.5 108v452zM216 827v58h257v-58h-257z" />
    <glyph glyph-name="umacron" unicode="&#x16b;" horiz-adv-x="555" 
d="M84 502h79v-280q0 -66 13 -101q24 -62 96 -62q66 0 93 50q23 43 23 138v255h79v-502h-61l-6 56q-42 -65 -138 -65q-130 0 -163 97q-15 42 -15 126v288zM149 619v58h257v-58h-257z" />
    <glyph glyph-name="Ubreve" unicode="&#x16c;" horiz-adv-x="690" 
d="M101 714h83v-452q0 -53 6 -83.5t20 -54.5q22 -33 53.5 -48t81.5 -15q53 0 87 17.5t54 55.5q20 40 20 128v452h83v-452q0 -76 -9 -116.5t-34 -71.5q-33 -43 -81 -63t-120 -20q-149 0 -210 95q-19 30 -26.5 68t-7.5 108v452zM206 923h54q5 -43 24 -60t61 -17q43 0 61.5 17
t23.5 60h55q-4 -59 -18 -85q-30 -53 -122 -53q-97 0 -126 61q-10 24 -13 77z" />
    <glyph glyph-name="ubreve" unicode="&#x16d;" horiz-adv-x="555" 
d="M84 502h79v-280q0 -66 13 -101q24 -62 96 -62q66 0 93 50q23 43 23 138v255h79v-502h-61l-6 56q-42 -65 -138 -65q-130 0 -163 97q-15 42 -15 126v288zM138 715h54q5 -43 24 -60t61 -17q43 0 61.5 17t23.5 60h55q-4 -59 -18 -85q-30 -53 -122 -53q-97 0 -126 62
q-10 22 -13 76z" />
    <glyph glyph-name="Uring" unicode="&#x16e;" horiz-adv-x="690" 
d="M101 714h83v-452q0 -53 6 -83.5t20 -54.5q22 -33 53.5 -48t81.5 -15q53 0 87 17.5t54 55.5q20 40 20 128v452h83v-452q0 -76 -9 -116.5t-34 -71.5q-33 -43 -81 -63t-120 -20q-149 0 -210 95q-19 30 -26.5 68t-7.5 108v452zM346 984q50 0 78 -31q25 -27 25 -70
q0 -49 -33 -77q-28 -25 -72 -25q-51 0 -80 32q-25 27 -25 70q0 50 33 77q28 24 74 24zM345 942q-51 0 -51 -60q0 -59 50 -59t50 59q0 60 -49 60z" />
    <glyph glyph-name="uring" unicode="&#x16f;" horiz-adv-x="555" 
d="M84 502h79v-280q0 -66 13 -101q24 -62 96 -62q66 0 93 50q23 43 23 138v255h79v-502h-61l-6 56q-42 -65 -138 -65q-130 0 -163 97q-15 42 -15 126v288zM278 777q50 0 79 -32q25 -27 25 -69q0 -50 -33 -78q-28 -25 -72 -25q-51 0 -80 32q-25 28 -25 71q0 50 32 77
q29 24 74 24zM278 735q-51 0 -51 -60t50 -60t50 60t-49 60z" />
    <glyph glyph-name="Uhungarumlaut" unicode="&#x170;" horiz-adv-x="690" 
d="M101 714h83v-452q0 -53 6 -83.5t20 -54.5q22 -33 53.5 -48t81.5 -15q53 0 87 17.5t54 55.5q20 40 20 128v452h83v-452q0 -76 -9 -116.5t-34 -71.5q-33 -43 -81 -63t-120 -20q-149 0 -210 95q-19 30 -26.5 68t-7.5 108v452zM244 789l60 142h90l-93 -142h-57zM379 789
l60 142h89l-92 -142h-57z" />
    <glyph glyph-name="uhungarumlaut" unicode="&#x171;" horiz-adv-x="555" 
d="M84 502h79v-280q0 -66 13 -101q24 -62 96 -62q66 0 93 50q23 43 23 138v255h79v-502h-61l-6 56q-42 -65 -138 -65q-130 0 -163 97q-15 42 -15 126v288zM174 582l60 142h90l-93 -142h-57zM309 582l60 142h89l-92 -142h-57z" />
    <glyph glyph-name="Uogonek" unicode="&#x172;" horiz-adv-x="690" 
d="M103 714h83v-452q0 -53 6 -83.5t20 -54.5q22 -33 53.5 -48t81.5 -15q53 0 87 17.5t54 55.5q20 40 20 128v452h83v-452q4 -114 -35 -177q-34 -55 -107 -81q-46 -32 -64.5 -56t-18.5 -52q0 -42 50 -42q26 0 59 10l8 -46q-43 -14 -80 -14q-110 0 -110 81q0 59 64 107
q-71 0 -113.5 13t-76.5 46q-38 38 -51.5 82t-12.5 129v452z" />
    <glyph glyph-name="uogonek" unicode="&#x173;" horiz-adv-x="555" 
d="M467 502v-502q-51 -30 -73.5 -54.5t-22.5 -50.5q0 -41 51 -41q25 0 58 10l8 -46q-39 -14 -80 -14q-110 0 -110 79q0 74 107 121l-5 52q-42 -65 -138 -65q-130 0 -163 97q-15 42 -15 126v288h79v-280q0 -66 13 -101q24 -62 96 -62q66 0 93 50q23 43 23 138v255h79z" />
    <glyph glyph-name="Wcircumflex" unicode="&#x174;" horiz-adv-x="876" 
d="M208 0l-180 714h84l135 -586l161 586h59l161 -586l136 586h84l-180 -714h-71l-159 569l-159 -569h-71zM437 874l-68 -80h-84l127 133h51l127 -133h-84z" />
    <glyph glyph-name="wcircumflex" unicode="&#x175;" horiz-adv-x="771" 
d="M193 0l-155 502h81l110 -394l129 394h55l129 -394l111 394h81l-155 -502h-65l-128 378l-129 -378h-64zM385 667l-68 -81h-84l127 134h51l127 -134h-84z" />
    <glyph glyph-name="Ycircumflex" unicode="&#x176;" horiz-adv-x="532" 
d="M225 0v258l-225 456h88l179 -371l178 371h88l-225 -456v-258h-83zM265 874l-68 -80h-84l127 133h51l127 -133h-84z" />
    <glyph glyph-name="ycircumflex" unicode="&#x177;" horiz-adv-x="488" 
d="M207 1l-185 501h80l147 -412l131 412h80l-197 -583q-20 -57 -37 -84.5t-39 -41.5q-35 -22 -127 -23v67q59 0 82 19q20 17 40 71zM243 667l-68 -81h-84l127 134h51l127 -134h-84z" />
    <glyph glyph-name="Zacute" unicode="&#x179;" horiz-adv-x="543" 
d="M51 0v59l330 585h-312v70h405v-59l-330 -585h346v-70h-439zM244 789l75 142h97l-112 -142h-60z" />
    <glyph glyph-name="zacute" unicode="&#x17a;" horiz-adv-x="475" 
d="M45 0v51l255 385h-235v66h334v-51l-255 -385h271v-66h-370zM200 582l75 142h97l-112 -142h-60z" />
    <glyph glyph-name="Zdotaccent" unicode="&#x17b;" horiz-adv-x="543" 
d="M51 0v59l330 585h-312v70h405v-59l-330 -585h346v-70h-439zM244 797v104h78v-104h-78z" />
    <glyph glyph-name="zdotaccent" unicode="&#x17c;" horiz-adv-x="475" 
d="M45 0v51l255 385h-235v66h334v-51l-255 -385h271v-66h-370zM201 590v104h78v-104h-78z" />
    <glyph glyph-name="Ohorn" unicode="&#x1a0;" horiz-adv-x="701" 
d="M629 724h71q7 -21 7 -37q0 -67 -59 -114q-23 -18 -66 -43q7 -42 7 -85v-176q0 -76 -13.5 -122.5t-45.5 -81.5q-67 -74 -192 -74q-136 0 -202 86q-26 34 -37.5 78.5t-11.5 113.5v176q0 75 13.5 122.5t45.5 82.5q67 74 192 74q178 0 233 -143q41 27 55.5 46.5t14.5 49.5
q0 23 -12 47zM506 277v160q0 60 -9 96.5t-30 63.5q-42 57 -129 57q-94 0 -136 -67q-32 -51 -32 -150v-160q0 -60 9 -96t30 -63q42 -57 129 -57q93 0 136 66q32 51 32 150z" />
    <glyph glyph-name="ohorn" unicode="&#x1a1;" horiz-adv-x="582" 
d="M521 512h72q6 -19 6 -40q0 -46 -26.5 -80.5t-89.5 -69.5q3 -28 3 -44v-66q0 -122 -58 -174q-50 -47 -151 -47q-113 0 -162 61q-44 54 -44 160v78q0 121 58 175q50 47 150 47q165 0 198 -136l6 4q29 22 39.5 39.5t10.5 44.5q0 23 -12 48zM407 217v68q0 88 -36 127
q-31 34 -93 34q-70 0 -101 -45q-27 -39 -27 -116v-68q0 -87 36 -126q31 -34 92 -34q70 0 102 45q27 39 27 115z" />
    <glyph glyph-name="Uhorn" unicode="&#x1af;" horiz-adv-x="728" 
d="M101 714h83v-452q0 -53 6 -83.5t20 -54.5q22 -33 53.5 -48t81.5 -15q53 0 87 17.5t54 55.5q20 40 20 128v452h83v-149q52 25 73.5 49.5t21.5 60.5q0 25 -12 49h72q6 -19 6 -40q0 -56 -40 -96q-34 -34 -121 -78v-248q0 -76 -9 -116.5t-34 -71.5q-33 -43 -81 -63t-120 -20
q-149 0 -210 95q-19 30 -26.5 68t-7.5 108v452z" />
    <glyph glyph-name="uhorn" unicode="&#x1b0;" horiz-adv-x="598" 
d="M84 502h79v-280q0 -66 13 -101q24 -62 96 -62q66 0 93 50q23 43 23 138v255h79v-149q54 26 74.5 50t20.5 60q0 24 -12 49h72q6 -20 6 -40q0 -72 -75 -125q-23 -17 -86 -49v-298h-61l-6 56q-42 -65 -138 -65q-130 0 -163 97q-15 42 -15 126v288z" />
    <glyph glyph-name="uni01C4" unicode="&#x1c4;" horiz-adv-x="1181" 
d="M104 0v714h228q139 2 205 -77q57 -69 54 -195v-170q4 -144 -71 -213q-66 -60 -188 -59h-228zM187 69h131q105 -2 150 56q40 51 40 155v154q0 118 -52 169q-46 44 -138 42h-131v-576zM688 0v59l331 585h-313v70h406v-59l-331 -585h346v-70h-439zM908 845l69 81h84
l-127 -134h-51l-127 134h84z" />
    <glyph glyph-name="uni01C5" unicode="&#x1c5;" horiz-adv-x="1112" 
d="M104 0v714h228q139 2 205 -77q57 -69 54 -195v-170q4 -144 -71 -213q-66 -60 -188 -59h-228zM187 69h131q105 -2 150 56q40 51 40 155v154q0 118 -52 169q-46 44 -138 42h-131v-576zM682 0v51l255 385h-235v66h334v-51l-255 -385h271v-66h-370zM873 638l68 80h84
l-127 -133h-51l-127 133h84z" />
    <glyph glyph-name="uni01C6" unicode="&#x1c6;" horiz-adv-x="1040" 
d="M414 0l-5 43l-3 -3l-2 -1q-9 -9 -14 -13q-16 -16 -52 -25.5t-77 -9.5q-104 0 -150 62q-40 53 -40 160v76q0 122 52 176q46 47 136 47q66 0 110 -25l2 -1q14 -11 26 -22v250h79v-714h-62zM150 284v-66q0 -161 122 -161q125 0 125 153v82q0 154 -125 154q-122 0 -122 -162z
M609 0v51l256 385h-236v66h335v-51l-256 -385h272v-66h-371zM807 638l68 80h84l-127 -133h-51l-127 133h84z" />
    <glyph glyph-name="uni01C7" unicode="&#x1c7;" horiz-adv-x="824" 
d="M104 0v714h83v-644h336v-70h-419zM638 714h83v-669q0 -91 -5 -131t-21 -69q-47 -88 -170 -88q-46 0 -94 16l27 65q32 -11 59 -11q83 0 109 75q12 35 12 141v671z" />
    <glyph glyph-name="uni01C8" unicode="&#x1c8;" horiz-adv-x="794" 
d="M104 0v714h83v-644h336v-70h-419zM626 611v106h79v-106h-79zM626 502h79v-514q2 -133 -48 -178q-44 -41 -155 -40v67q73 -3 101 35q25 34 23 108v522z" />
    <glyph glyph-name="uni01C9" unicode="&#x1c9;" horiz-adv-x="553" 
d="M87 714h79v-554q0 -54 18 -74t67 -19h26v-67h-29q-101 0 -133 39q-28 35 -28 128v547zM385 611v106h79v-106h-79zM385 502h79v-514q2 -133 -48 -178q-44 -41 -155 -40v67q73 -3 101 35q25 34 23 108v522z" />
    <glyph glyph-name="uni01CA" unicode="&#x1ca;" horiz-adv-x="1013" 
d="M104 0v714h80l352 -572v572h81v-714h-80l-352 572v-572h-81zM826 714h83v-669q0 -91 -5 -131t-21 -69q-47 -88 -170 -88q-46 0 -94 16l27 65q32 -11 59 -11q83 0 109 75q12 35 12 141v671z" />
    <glyph glyph-name="uni01CB" unicode="&#x1cb;" horiz-adv-x="983" 
d="M104 0v714h80l352 -572v572h81v-714h-80l-352 572v-572h-81zM815 502h79v-514q2 -133 -48 -178q-44 -41 -155 -40v67q73 -3 101 35q25 34 23 108v522zM815 611v106h79v-106h-79z" />
    <glyph glyph-name="uni01CC" unicode="&#x1cc;" horiz-adv-x="827" 
d="M88 0v502h61l6 -56q43 66 142 66q135 0 169 -97q15 -43 15 -127v-288h-79v281q0 93 -30 130q-27 33 -84 33q-69 0 -97 -50q-24 -44 -24 -139v-255h-79zM659 502h79v-514q2 -133 -48 -178q-44 -41 -155 -40v67q73 -3 101 35q25 34 23 108v522zM659 611v106h79v-106h-79z
" />
    <glyph glyph-name="uni01CD" unicode="&#x1cd;" horiz-adv-x="600" 
d="M457 156h-313l-54 -156h-90l261 714h79l261 -714h-90zM436 225l-135 383l-135 -383h270zM301 845l68 81h84l-127 -134h-51l-127 134h84z" />
    <glyph glyph-name="uni01CE" unicode="&#x1ce;" horiz-adv-x="525" 
d="M361 295v35q0 54 -18 80q-27 36 -92 36q-75 0 -120 -51l-55 42q65 75 182 75q118 0 161 -73q21 -38 21 -121v-318h-63l-6 36q-24 -25 -56.5 -35t-89.5 -10q-103 0 -142 39q-34 33 -34 110q0 92 48 126q42 29 143 29h121zM361 235h-113q-71 0 -99 -24q-24 -22 -24 -69
q0 -51 29 -69q26 -16 89 -16q78 0 104 33q14 18 14 67v78zM265 638l68 80h84l-127 -133h-51l-127 133h84z" />
    <glyph glyph-name="uni01CF" unicode="&#x1cf;" horiz-adv-x="291" 
d="M104 0v714h83v-714h-83zM146 845l68 81h84l-127 -134h-51l-127 134h84z" />
    <glyph glyph-name="uni01D0" unicode="&#x1d0;" horiz-adv-x="255" 
d="M88 0v502h79v-502h-79zM128 638l68 80h84l-127 -133h-51l-127 133h84z" />
    <glyph glyph-name="uni01D1" unicode="&#x1d1;" horiz-adv-x="676" 
d="M87 269v176q0 74 13.5 121t45.5 83q67 74 192 74q136 0 202 -86q26 -34 37.5 -78.5t11.5 -113.5v-176q0 -76 -13.5 -122.5t-45.5 -81.5q-67 -74 -192 -74q-136 0 -202 86q-26 34 -37.5 78.5t-11.5 113.5zM506 277v160q0 60 -8.5 95.5t-29.5 63.5q-44 57 -130 57
q-93 0 -136 -66q-32 -51 -32 -150v-160q0 -60 9 -96t30 -63q42 -57 129 -57q93 0 136 66q18 27 25 60.5t7 89.5zM338 845l68 81h85l-127 -134h-52l-126 134h84z" />
    <glyph glyph-name="uni01D2" unicode="&#x1d2;" horiz-adv-x="557" 
d="M71 212v78q0 121 57 175q50 47 149 47q115 0 165 -61q44 -54 44 -161v-78q0 -122 -58 -174q-50 -47 -151 -47q-113 0 -162 61q-44 54 -44 160zM407 217v68q0 88 -36 127q-31 34 -93 34q-70 0 -101 -45q-27 -39 -27 -116v-68q0 -87 36 -126q31 -34 92 -34q70 0 102 45
q27 39 27 115zM279 638l68 80h84l-127 -133h-51l-127 133h84z" />
    <glyph glyph-name="uni01D3" unicode="&#x1d3;" horiz-adv-x="690" 
d="M101 714h83v-452q0 -53 6 -83.5t20 -54.5q22 -33 53.5 -48t81.5 -15q53 0 87 17.5t54 55.5q20 40 20 128v452h83v-452q0 -76 -9 -116.5t-34 -71.5q-33 -43 -81 -63t-120 -20q-149 0 -210 95q-19 30 -26.5 68t-7.5 108v452zM345 845l68 81h84l-127 -134h-51l-127 134h84z
" />
    <glyph glyph-name="uni01D4" unicode="&#x1d4;" horiz-adv-x="555" 
d="M84 502h79v-280q0 -66 13 -101q24 -62 96 -62q66 0 93 50q23 43 23 138v255h79v-502h-61l-6 56q-42 -65 -138 -65q-130 0 -163 97q-15 42 -15 126v288zM278 638l68 80h84l-127 -133h-51l-127 133h84z" />
    <glyph glyph-name="Gcaron" unicode="&#x1e6;" horiz-adv-x="663" 
d="M356 308v67h231v-112q0 -71 -12 -115.5t-41 -79.5q-65 -77 -196 -77q-142 0 -207 90q-24 35 -34 80.5t-10 121.5v146q0 83 12.5 132t42.5 84q64 77 190 77q114 0 174 -53q53 -46 58 -127l-77 -6q-8 59 -53 90q-39 26 -100 26q-93 0 -131 -60q-33 -53 -33 -167v-138
q0 -129 44 -181q39 -45 123 -45q93 0 135 59q33 44 33 126v62h-149zM334 845l68 81h84l-127 -134h-51l-127 134h84z" />
    <glyph glyph-name="gcaron" unicode="&#x1e7;" horiz-adv-x="565" 
d="M397 -8l1 47q-47 -48 -139 -48q-103 0 -148 62q-40 53 -40 160v76q0 122 52 176q46 47 138 47q98 0 147 -55l6 45h62v-502q0 -234 -214 -234q-120 0 -175 79l59 36q22 -27 48 -39t65 -12q74 0 107 44q29 39 31 118zM150 284v-66q0 -161 122 -161q125 0 125 153v82
q0 154 -125 154q-122 0 -122 -162zM294 638l68 80h84l-127 -133h-51l-127 133h84z" />
    <glyph glyph-name="uni01EA" unicode="&#x1ea;" horiz-adv-x="676" 
d="M597 445v-176q2 -113 -39 -180q-37 -57 -110 -84q-84 -56 -84 -109q0 -42 51 -42q27 0 58 10l8 -46q-38 -14 -80 -14q-109 0 -109 80q0 58 62 107h-3h-5q-134 -1 -198 80q-56 72 -53 198v176q0 74 13.5 121t45.5 83q67 74 192 74q136 0 203 -86q26 -34 37 -78.5
t11 -113.5zM514 277v160q0 60 -9 96t-30 63q-42 57 -129 57q-93 0 -136 -66q-32 -51 -32 -150v-160q0 -60 9 -96t30 -64q42 -57 129 -57q94 0 136 67q32 50 32 150z" />
    <glyph glyph-name="uni01EB" unicode="&#x1eb;" horiz-adv-x="557" 
d="M488 290v-78q0 -172 -120 -210q-69 -50 -69 -106q0 -42 51 -42q26 0 59 10l8 -46q-39 -14 -81 -14q-110 0 -110 81q0 57 55 106q-113 -1 -164 61q-45 55 -44 160v78q0 121 57 175q50 47 149 47q115 0 165 -61q44 -54 44 -161zM409 217v68q0 88 -36 127q-31 34 -93 34
q-70 0 -101 -45q-27 -39 -27 -116v-68q0 -87 36 -126q31 -34 92 -34q70 0 102 45q27 39 27 115z" />
    <glyph glyph-name="uni01F1" unicode="&#x1f1;" horiz-adv-x="1181" 
d="M104 0v714h228q139 2 205 -77q57 -69 54 -195v-170q4 -144 -71 -213q-66 -60 -188 -59h-228zM187 69h131q105 -2 150 56q40 51 40 155v154q0 118 -52 169q-46 44 -138 42h-131v-576zM688 0v59l331 585h-313v70h406v-59l-331 -585h346v-70h-439z" />
    <glyph glyph-name="uni01F2" unicode="&#x1f2;" horiz-adv-x="1112" 
d="M104 0v714h228q139 2 205 -77q57 -69 54 -195v-170q4 -144 -71 -213q-66 -60 -188 -59h-228zM187 69h131q105 -2 150 56q40 51 40 155v154q0 118 -52 169q-46 44 -138 42h-131v-576zM682 0v51l255 385h-235v66h334v-51l-255 -385h271v-66h-370z" />
    <glyph glyph-name="uni01F3" unicode="&#x1f3;" horiz-adv-x="1040" 
d="M414 0l-5 43l-3 -3l-2 -1q-9 -9 -14 -13q-16 -16 -52 -25.5t-77 -9.5q-104 0 -150 62q-40 53 -40 160v76q0 122 52 176q46 47 136 47q66 0 110 -25l2 -1q14 -11 26 -22v250h79v-714h-62zM150 284v-66q0 -161 122 -161q125 0 125 153v82q0 154 -125 154q-122 0 -122 -162z
M609 0v51l256 385h-236v66h335v-51l-256 -385h272v-66h-371z" />
    <glyph glyph-name="uni01F4" unicode="&#x1f4;" horiz-adv-x="663" 
d="M356 308v67h231v-112q0 -71 -12 -115.5t-41 -79.5q-65 -77 -196 -77q-142 0 -207 90q-24 35 -34 80.5t-10 121.5v146q0 83 12.5 132t42.5 84q64 77 190 77q114 0 174 -53q53 -46 58 -127l-77 -6q-8 59 -53 90q-39 26 -100 26q-93 0 -131 -60q-33 -53 -33 -167v-138
q0 -129 44 -181q39 -45 123 -45q93 0 135 59q33 44 33 126v62h-149zM286 789l75 142h97l-112 -142h-60z" />
    <glyph glyph-name="uni01F5" unicode="&#x1f5;" horiz-adv-x="565" 
d="M397 -8l1 47q-47 -48 -139 -48q-103 0 -148 62q-40 53 -40 160v76q0 122 52 176q46 47 138 47q98 0 147 -55l6 45h62v-502q0 -234 -214 -234q-120 0 -175 79l59 36q22 -27 48 -39t65 -12q74 0 107 44q29 39 31 118zM150 284v-66q0 -161 122 -161q125 0 125 153v82
q0 154 -125 154q-122 0 -122 -162zM236 582l75 142h97l-112 -142h-60z" />
    <glyph glyph-name="Aringacute" unicode="&#x1fa;" horiz-adv-x="600" 
d="M0 0l250 684q-26 12 -40.5 36.5t-14.5 55.5q0 49 32 77q28 24 73 24q51 0 80 -31q25 -27 25 -70q0 -31 -14.5 -55.5t-39.5 -36.5l250 -684h-90l-54 156h-313l-54 -156h-90zM436 225l-135 383l-135 -383h270zM301 835q-51 0 -51 -60q0 -59 50 -59t50 59q0 60 -49 60z
M263 896l56 117h93l-98 -117h-51z" />
    <glyph glyph-name="aringacute" unicode="&#x1fb;" horiz-adv-x="525" 
d="M361 295v35q0 54 -18 80q-27 36 -92 36q-75 0 -120 -51l-55 42q65 75 182 75q118 0 161 -73q21 -38 21 -121v-318h-63l-6 36q-24 -25 -56.5 -35t-89.5 -10q-103 0 -142 39q-34 33 -34 110q0 92 48 126q42 29 143 29h121zM361 235h-113q-71 0 -99 -24q-24 -22 -24 -69
q0 -51 29 -69q26 -16 89 -16q78 0 104 33q14 18 14 67v78zM267 757q50 0 79 -32q25 -27 25 -69q0 -50 -33 -78q-28 -25 -72 -25q-51 0 -80 32q-25 28 -25 71q0 50 32 77q29 24 74 24zM267 715q-51 0 -51 -60t50 -60t50 60t-49 60zM229 795l56 118h93l-98 -118h-51z" />
    <glyph glyph-name="AEacute" unicode="&#x1fc;" horiz-adv-x="950" 
d="M476 165h-316l-105 -165h-96l469 714h465v-70h-335v-248h285v-70h-285v-256h335v-70h-417v165zM476 234v410h-11l-265 -410h276zM604 789l75 142h97l-112 -142h-60z" />
    <glyph glyph-name="aeacute" unicode="&#x1fd;" horiz-adv-x="834" 
d="M131 395l-55 42q63 75 181 75q108 0 153 -67q26 35 63.5 51t95.5 16q111 0 160 -67q42 -58 42 -174v-36h-329v-21q0 -82 41 -122q35 -35 99 -35q76 0 115 49l60 -38q-30 -41 -73 -59t-108 -18q-62 0 -103.5 19t-69.5 60q-28 -45 -66 -62t-112 -17q-103 0 -142 39
q-34 33 -34 110q0 92 48 126q42 29 143 29h121v35q0 54 -18 80q-27 36 -92 36q-75 0 -120 -51zM361 235h-113q-71 0 -99 -24q-24 -22 -24 -69q0 -50 30 -69q26 -16 86 -16q41 0 64.5 8.5t37.5 28.5q18 26 18 87v54zM442 295h253v8q0 62 -27 100q-30 43 -99 43
q-77 0 -105 -51q-22 -38 -22 -92v-8zM367 582l75 142h97l-112 -142h-60z" />
    <glyph glyph-name="Oslashacute" unicode="&#x1fe;" horiz-adv-x="675" 
d="M601 692l-49 -73q20 -35 28 -73.5t8 -100.5v-176q0 -76 -13.5 -122.5t-45.5 -81.5q-34 -39 -80.5 -56.5t-114.5 -17.5q-105 0 -165 51l-41 -62l-54 39l49 74q-37 63 -37 176v176q0 74 13.5 121t45.5 83q67 74 192 74q107 0 170 -52l40 60zM496 534l-282 -425
q44 -48 123 -48q93 0 136 66q18 28 25 61t7 89v160q0 65 -9 97zM179 177l283 426q-43 50 -125 50q-93 0 -136 -66q-32 -51 -32 -150v-160q0 -66 10 -100zM288 789l75 142h97l-112 -142h-60z" />
    <glyph glyph-name="oslashacute" unicode="&#x1ff;" horiz-adv-x="557" 
d="M487 490l-37 -52q36 -49 36 -148v-77q0 -121 -58 -175q-50 -47 -150 -47q-81 0 -127 31l-33 -46l-48 37l37 51q-36 53 -35 149v77q0 122 57 175q51 47 150 47q79 0 127 -31l33 46zM397 364l-202 -280q30 -27 83 -27q129 0 129 161v67q0 42 -10 79zM161 139l201 280
q-31 27 -82 27q-129 0 -129 -161v-67q0 -49 10 -79zM228 582l75 142h97l-112 -142h-60z" />
    <glyph glyph-name="uni0200" unicode="&#x200;" horiz-adv-x="600" 
d="M457 156h-313l-54 -156h-90l261 714h79l261 -714h-90zM436 225l-135 383l-135 -383h270zM402 789h-57l-92 142h89zM268 789h-57l-93 142h90z" />
    <glyph glyph-name="uni0201" unicode="&#x201;" horiz-adv-x="525" 
d="M361 295v35q0 54 -18 80q-27 36 -92 36q-75 0 -120 -51l-55 42q65 75 182 75q118 0 161 -73q21 -38 21 -121v-318h-63l-6 36q-24 -25 -56.5 -35t-89.5 -10q-103 0 -142 39q-34 33 -34 110q0 92 48 126q42 29 143 29h121zM361 235h-113q-71 0 -99 -24q-24 -22 -24 -69
q0 -51 29 -69q26 -16 89 -16q78 0 104 33q14 18 14 67v78zM378 582h-57l-92 142h89zM244 582h-57l-93 142h90z" />
    <glyph glyph-name="uni0202" unicode="&#x202;" horiz-adv-x="600" 
d="M457 156h-313l-54 -156h-90l261 714h79l261 -714h-90zM436 225l-135 383l-135 -383h270zM440 793h-55q-4 43 -23 60t-61 17q-43 0 -62.5 -17t-23.5 -60h-54q4 62 18 85q30 53 121 53q98 0 126 -61q10 -23 14 -77z" />
    <glyph glyph-name="uni0203" unicode="&#x203;" horiz-adv-x="525" 
d="M361 295v35q0 54 -18 80q-27 36 -92 36q-75 0 -120 -51l-55 42q65 75 182 75q118 0 161 -73q21 -38 21 -121v-318h-63l-6 36q-24 -25 -56.5 -35t-89.5 -10q-103 0 -142 39q-34 33 -34 110q0 92 48 126q42 29 143 29h121zM361 235h-113q-71 0 -99 -24q-24 -22 -24 -69
q0 -51 29 -69q26 -16 89 -16q78 0 104 33q14 18 14 67v78zM402 586h-55q-5 43 -23.5 60t-60.5 17q-43 0 -62.5 -17t-23.5 -60h-54q4 62 18 85q30 53 121 53q98 0 126 -61q10 -23 14 -77z" />
    <glyph glyph-name="uni0204" unicode="&#x204;" horiz-adv-x="579" 
d="M104 0v714h417v-70h-335v-248h286v-70h-286v-256h336v-70h-418zM418 789h-57l-92 142h89zM284 789h-57l-93 142h90z" />
    <glyph glyph-name="uni0205" unicode="&#x205;" horiz-adv-x="543" 
d="M151 235v-21q0 -82 41 -122q35 -35 99 -35q40 0 66.5 11.5t48.5 37.5l59 -38q-30 -41 -73 -59t-109 -18q-115 0 -167 66q-45 58 -45 171v43q0 133 56 190q49 51 148 51q113 0 161 -66q43 -59 43 -175v-36h-328zM151 295h252v8q0 62 -27 100q-30 43 -98 43q-40 0 -65 -12
t-41 -39q-21 -39 -21 -92v-8zM384 582h-57l-92 142h89zM250 582h-57l-93 142h90z" />
    <glyph glyph-name="uni0206" unicode="&#x206;" horiz-adv-x="579" 
d="M104 0v714h417v-70h-335v-248h286v-70h-286v-256h336v-70h-418zM459 793h-55q-4 43 -23 60t-61 17q-43 0 -62.5 -17t-23.5 -60h-54q4 62 18 85q30 53 121 53q98 0 126 -61q10 -23 14 -77z" />
    <glyph glyph-name="uni0207" unicode="&#x207;" horiz-adv-x="543" 
d="M151 235v-21q0 -82 41 -122q35 -35 99 -35q40 0 66.5 11.5t48.5 37.5l59 -38q-30 -41 -73 -59t-109 -18q-115 0 -167 66q-45 58 -45 171v43q0 133 56 190q49 51 148 51q113 0 161 -66q43 -59 43 -175v-36h-328zM151 295h252v8q0 62 -27 100q-30 43 -98 43q-40 0 -65 -12
t-41 -39q-21 -39 -21 -92v-8zM411 586h-55q-5 43 -23.5 60t-60.5 17q-43 0 -62.5 -17t-23.5 -60h-54q4 62 18 85q30 53 121 53q98 0 126 -61q10 -23 14 -77z" />
    <glyph glyph-name="uni0208" unicode="&#x208;" horiz-adv-x="291" 
d="M104 0v714h83v-714h-83zM248 789h-57l-92 142h89zM114 789h-57l-93 142h90z" />
    <glyph glyph-name="uni0209" unicode="&#x209;" horiz-adv-x="255" 
d="M88 0v502h79v-502h-79zM230 582h-57l-92 142h89zM96 582h-57l-93 142h90z" />
    <glyph glyph-name="uni020A" unicode="&#x20a;" horiz-adv-x="291" 
d="M104 0v714h83v-714h-83zM285 793h-55q-4 43 -23 60t-61 17q-43 0 -62.5 -17t-23.5 -60h-54q4 62 18 85q30 53 121 53q98 0 126 -61q10 -23 14 -77z" />
    <glyph glyph-name="uni020B" unicode="&#x20b;" horiz-adv-x="255" 
d="M87 0v502h79v-502h-79zM267 586h-55q-5 43 -23.5 60t-60.5 17q-43 0 -62.5 -17t-23.5 -60h-54q4 62 18 85q30 53 121 53q98 0 126 -61q10 -23 14 -77z" />
    <glyph glyph-name="uni020C" unicode="&#x20c;" horiz-adv-x="676" 
d="M87 269v176q0 74 13.5 121t45.5 83q67 74 192 74q136 0 203 -86q26 -34 37 -78.5t11 -113.5v-176q0 -76 -13.5 -122.5t-45.5 -81.5q-67 -74 -192 -74q-136 0 -202 86q-26 34 -37.5 78.5t-11.5 113.5zM506 277v160q0 60 -9 96t-30 63q-42 57 -129 57q-93 0 -136 -66
q-32 -51 -32 -150v-160q0 -60 9 -96t30 -63q42 -57 129 -57q93 0 136 66q32 51 32 150zM440 789h-57l-92 142h89zM306 789h-57l-93 142h90z" />
    <glyph glyph-name="uni020D" unicode="&#x20d;" horiz-adv-x="557" 
d="M71 212v78q0 121 57 175q50 47 149 47q115 0 165 -61q44 -54 44 -161v-78q0 -122 -58 -174q-50 -47 -151 -47q-113 0 -162 61q-44 54 -44 160zM407 217v68q0 88 -36 127q-31 34 -93 34q-70 0 -101 -45q-27 -39 -27 -116v-68q0 -87 36 -126q31 -34 92 -34q70 0 102 45
q27 39 27 115zM381 582h-57l-92 142h89zM247 582h-57l-93 142h90z" />
    <glyph glyph-name="uni020E" unicode="&#x20e;" horiz-adv-x="676" 
d="M87 269v176q0 74 13.5 121t45.5 83q67 74 192 74q136 0 203 -86q26 -34 37 -78.5t11 -113.5v-176q0 -76 -13.5 -122.5t-45.5 -81.5q-67 -74 -192 -74q-136 0 -202 86q-26 34 -37.5 78.5t-11.5 113.5zM506 277v160q0 60 -9 96t-30 63q-42 57 -129 57q-93 0 -136 -66
q-32 -51 -32 -150v-160q0 -60 9 -96t30 -63q42 -57 129 -57q93 0 136 66q32 51 32 150zM478 793h-55q-4 43 -23 60t-61 17q-43 0 -62.5 -17t-23.5 -60h-54q4 62 18 85q30 53 121 53q98 0 126 -61q10 -23 14 -77z" />
    <glyph glyph-name="uni020F" unicode="&#x20f;" horiz-adv-x="557" 
d="M71 212v78q0 121 57 175q50 47 149 47q115 0 165 -61q44 -54 44 -161v-78q0 -122 -58 -174q-50 -47 -151 -47q-113 0 -162 61q-44 54 -44 160zM407 217v68q0 88 -36 127q-31 34 -93 34q-70 0 -101 -45q-27 -39 -27 -116v-68q0 -87 36 -126q31 -34 92 -34q70 0 102 45
q27 39 27 115zM418 586h-55q-5 43 -23.5 60t-60.5 17q-43 0 -62.5 -17t-23.5 -60h-54q4 62 18 85q30 53 121 53q98 0 126 -61q10 -23 14 -77z" />
    <glyph glyph-name="uni0210" unicode="&#x210;" horiz-adv-x="646" 
d="M188 308v-308h-83v714h245q63 0 102.5 -12t67.5 -40q51 -52 51 -147q0 -93 -41 -142q-36 -43 -106 -56l157 -317h-92l-147 308h-154zM187 377h164q137 0 137 134q0 73 -40 106q-36 28 -106 28h-155v-268zM402 789h-57l-92 142h89zM268 789h-57l-93 142h90z" />
    <glyph glyph-name="uni0211" unicode="&#x211;" horiz-adv-x="375" 
d="M88 0v502h62l8 -47q40 57 120 57q50 0 97 -26l-33 -68q-36 24 -71 24q-58 0 -83 -53q-21 -47 -21 -144v-245h-79zM323 582h-57l-92 142h89zM189 582h-57l-93 142h90z" />
    <glyph glyph-name="uni0212" unicode="&#x212;" horiz-adv-x="646" 
d="M188 308v-308h-83v714h245q63 0 102.5 -12t67.5 -40q51 -52 51 -147q0 -93 -41 -142q-36 -43 -106 -56l157 -317h-92l-147 308h-154zM187 377h164q137 0 137 134q0 73 -40 106q-36 28 -106 28h-155v-268zM436 793h-55q-4 43 -23 60t-61 17q-43 0 -62.5 -17t-23.5 -60h-54
q4 62 18 85q30 53 121 53q98 0 126 -61q10 -23 14 -77z" />
    <glyph glyph-name="uni0213" unicode="&#x213;" horiz-adv-x="375" 
d="M88 0v502h62l8 -47q40 57 120 57q50 0 97 -26l-33 -68q-36 24 -71 24q-58 0 -83 -53q-21 -47 -21 -144v-245h-79zM347 586h-55q-5 43 -23.5 60t-60.5 17q-43 0 -62.5 -17t-23.5 -60h-54q4 62 18 85q30 53 121 53q98 0 126 -61q10 -23 14 -77z" />
    <glyph glyph-name="uni0214" unicode="&#x214;" horiz-adv-x="690" 
d="M101 714h83v-452q0 -53 6 -83.5t20 -54.5q22 -33 53.5 -48t81.5 -15q53 0 87 17.5t54 55.5q20 40 20 128v452h83v-452q0 -76 -9 -116.5t-34 -71.5q-33 -43 -81 -63t-120 -20q-149 0 -210 95q-19 30 -26.5 68t-7.5 108v452zM447 789h-57l-92 142h89zM313 789h-57l-93 142
h90z" />
    <glyph glyph-name="uni0215" unicode="&#x215;" horiz-adv-x="555" 
d="M84 502h79v-280q0 -66 13 -101q24 -62 96 -62q66 0 93 50q23 43 23 138v255h79v-502h-61l-6 56q-42 -65 -138 -65q-130 0 -163 97q-15 42 -15 126v288zM380 582h-57l-92 142h89zM246 582h-57l-93 142h90z" />
    <glyph glyph-name="uni0216" unicode="&#x216;" horiz-adv-x="690" 
d="M101 714h83v-452q0 -53 6 -83.5t20 -54.5q22 -33 53.5 -48t81.5 -15q53 0 87 17.5t54 55.5q20 40 20 128v452h83v-452q0 -76 -9 -116.5t-34 -71.5q-33 -43 -81 -63t-120 -20q-149 0 -210 95q-19 30 -26.5 68t-7.5 108v452zM485 793h-55q-4 43 -23 60t-61 17
q-43 0 -62.5 -17t-23.5 -60h-54q4 62 18 85q30 53 121 53q98 0 126 -61q10 -23 14 -77z" />
    <glyph glyph-name="uni0217" unicode="&#x217;" horiz-adv-x="555" 
d="M84 502h79v-280q0 -66 13 -101q24 -62 96 -62q66 0 93 50q23 43 23 138v255h79v-502h-61l-6 56q-42 -65 -138 -65q-130 0 -163 97q-15 42 -15 126v288zM417 586h-55q-5 43 -23.5 60t-60.5 17q-43 0 -62.5 -17t-23.5 -60h-54q4 62 18 85q30 53 121 53q98 0 126 -61
q10 -23 14 -77z" />
    <glyph glyph-name="Scommaaccent" unicode="&#x218;" horiz-adv-x="579" 
d="M45 96l65 42q46 -77 176 -77q83 0 126 38q38 33 38 90q0 62 -43 92q-20 14 -36.5 20t-95.5 25q-117 29 -163 81q-41 45 -41 122q0 98 66 149q57 45 153 45q147 0 206 -90l-63 -41q-45 62 -146 62q-67 0 -104 -36q-31 -32 -31 -84q0 -58 42 -90q36 -28 122 -50
q70 -17 95.5 -26t52.5 -28q67 -46 67 -147q0 -104 -72 -156q-63 -46 -173 -46q-175 0 -241 105zM212 -222l52 153h83l-79 -153h-56z" />
    <glyph glyph-name="scommaaccent" unicode="&#x219;" horiz-adv-x="473" 
d="M29 69l58 37q27 -27 56.5 -38t78.5 -11q127 0 127 84q0 45 -34 62q-23 12 -93 21q-53 8 -80 17t-45 24q-40 34 -40 98q0 77 49 115q43 34 117 34q125 0 182 -80l-60 -37q-23 28 -49.5 39.5t-66.5 11.5q-96 0 -96 -79q0 -39 31 -58q21 -11 79 -19q59 -8 88 -16.5t49 -23.5
q45 -33 45 -111q0 -148 -200 -148q-142 0 -196 78zM145 -222l52 153h83l-79 -153h-56z" />
    <glyph glyph-name="uni021A" unicode="&#x21a;" horiz-adv-x="554" 
d="M237 0v644h-206v70h493v-70h-204v-644h-83zM190 -222l52 153h83l-79 -153h-56z" />
    <glyph glyph-name="uni021B" unicode="&#x21b;" horiz-adv-x="334" 
d="M105 436h-61v66h61l4 161h75v-161h99v-66h-99v-277q0 -53 18 -73t67 -19h17v-67h-18q-68 0 -100 13q-35 14 -49 48.5t-14 105.5v269zM103 -222l52 153h83l-79 -153h-56z" />
    <glyph glyph-name="uni0226" unicode="&#x226;" horiz-adv-x="600" 
d="M457 156h-313l-54 -156h-90l261 714h79l261 -714h-90zM436 225l-135 383l-135 -383h270zM261 797v104h78v-104h-78z" />
    <glyph glyph-name="uni0227" unicode="&#x227;" horiz-adv-x="525" 
d="M361 295v35q0 54 -18 80q-27 36 -92 36q-75 0 -120 -51l-55 42q65 75 182 75q118 0 161 -73q21 -38 21 -121v-318h-63l-6 36q-24 -25 -56.5 -35t-89.5 -10q-103 0 -142 39q-34 33 -34 110q0 92 48 126q42 29 143 29h121zM361 235h-113q-71 0 -99 -24q-24 -22 -24 -69
q0 -51 29 -69q26 -16 89 -16q78 0 104 33q14 18 14 67v78zM231 590v104h78v-104h-78z" />
    <glyph glyph-name="uni0237" unicode="&#x237;" horiz-adv-x="261" 
d="M93 502h79v-514q2 -133 -48 -178q-44 -41 -155 -40v67q73 -3 101 35q25 34 23 108v522z" />
    <glyph glyph-name="afii57929" unicode="&#x2bc;" horiz-adv-x="187" 
d="M33 476l36 238h85l-55 -238h-66z" />
    <glyph glyph-name="uni02C0" unicode="&#x2c0;" horiz-adv-x="500" 
d="M285 779h-58q1 34 4.5 45t22.5 39q10 13 10 26q0 24 -31 24q-18 0 -47 -13l-15 46q39 15 74 15q41 0 63.5 -18t22.5 -50q0 -15 -5 -26.5t-23 -34.5q-12 -16 -14.5 -23.5t-3.5 -29.5z" />
    <glyph glyph-name="uni02C9" unicode="&#x2c9;" horiz-adv-x="500" 
d="M122 619v58h257v-58h-257z" />
    <glyph glyph-name="uni0309" unicode="&#x309;" horiz-adv-x="500" 
d="M285 575h-58q1 34 4.5 45t22.5 39q10 14 10 26q0 24 -31 24q-20 0 -47 -13l-15 47q39 14 74 14q41 0 63.5 -18t22.5 -50q0 -15 -5 -26.5t-23 -34.5q-12 -16 -14.5 -23.5t-3.5 -29.5z" />
    <glyph glyph-name="uni0312" unicode="&#x312;" horiz-adv-x="500" 
d="M200 582l111 142h61l-75 -142h-97z" />
    <glyph glyph-name="uni0313" unicode="&#x313;" horiz-adv-x="76" 
d="M-8 492l26 230h82l-52 -230h-56z" />
    <glyph glyph-name="uni031B" unicode="&#x31b;" horiz-adv-x="76" 
d="M-8 492l26 230h82l-52 -230h-56z" />
    <glyph glyph-name="uni0323" unicode="&#x323;" horiz-adv-x="500" 
d="M211 -193v104h78v-104h-78z" />
    <glyph glyph-name="uni037E" unicode="&#x37e;" horiz-adv-x="282" 
d="M57 -188l47 287h90l-68 -287h-69zM107 403v100h83v-100h-83z" />
    <glyph glyph-name="uni0387" unicode="&#x387;" horiz-adv-x="281" 
d="M100 314v99h83v-99h-83z" />
    <glyph glyph-name="uni04D4" unicode="&#x4d4;" horiz-adv-x="950" 
d="M476 165h-316l-105 -165h-96l469 714h465v-70h-335v-248h285v-70h-285v-256h335v-70h-417v165zM476 234v410h-11l-265 -410h276z" />
    <glyph glyph-name="uni04D5" unicode="&#x4d5;" horiz-adv-x="834" 
d="M131 395l-55 42q63 75 181 75q108 0 153 -67q26 35 63.5 51t95.5 16q111 0 160 -67q42 -58 42 -174v-36h-329v-21q0 -82 41 -122q35 -35 99 -35q76 0 115 49l60 -38q-30 -41 -73 -59t-108 -18q-62 0 -103.5 19t-69.5 60q-28 -45 -66 -62t-112 -17q-103 0 -142 39
q-34 33 -34 110q0 92 48 126q42 29 143 29h121v35q0 54 -18 80q-27 36 -92 36q-75 0 -120 -51zM361 235h-113q-71 0 -99 -24q-24 -22 -24 -69q0 -50 30 -69q26 -16 86 -16q41 0 64.5 8.5t37.5 28.5q18 26 18 87v54zM442 295h253v8q0 62 -27 100q-30 43 -99 43
q-77 0 -105 -51q-22 -38 -22 -92v-8z" />
    <glyph glyph-name="uni060C" unicode="&#x60c;" horiz-adv-x="226" 
d="M45 0l67 287h70l-48 -287h-89z" />
    <glyph glyph-name="uni0615" unicode="&#x615;" horiz-adv-x="0" 
d="M-116 565v43h32l-1 155h46l2 -73q32 33 74 33q48 0 69 -36q12 -21 12 -47q0 -75 -79 -75h-155zM-37 608h83q25 0 25 34q0 18 -9.5 30t-24.5 12q-27 0 -45 -20q-22 -23 -29 -56z" />
    <glyph glyph-name="uni061B" unicode="&#x61b;" horiz-adv-x="260" 
d="M79 403l67 287h70l-48 -287h-89zM82 0v99h83v-99h-83z" />
    <glyph glyph-name="uni061F" unicode="&#x61f;" horiz-adv-x="554" 
d="M325 192h-66v28q0 37 -17.5 65t-66.5 69q-63 52 -86 87q-26 42 -26 96q0 92 64 144q56 45 145 45q190 0 227 -197l-76 -13q-18 75 -55 109q-36 32 -94 32q-61 0 -97 -37q-31 -31 -31 -79q0 -39 19.5 -68.5t77.5 -78.5q48 -43 65 -77.5t17 -89.5v-35zM331 0h-80v99h80v-99
z" />
    <glyph glyph-name="uni0621" unicode="&#x621;" horiz-adv-x="553" 
d="M55 -41v58q45 30 124 39q-72 59 -72 168q0 104 59 166q54 57 141 57q105 0 169 -91l-57 -31q-44 63 -113 63q-57 0 -94 -48q-35 -44 -35 -110q1 -99 62 -142q40 -29 96 -29h163v-59h-238q-32 0 -75 -5q-68 -9 -122 -36q-1 0 -2 -1q-3 -2 -4 -2q-2 0 -2 3z" />
    <glyph glyph-name="uni0622" unicode="&#x622;" horiz-adv-x="253" 
d="M78 838q19 0 45 -13q1 -1 6 -4q27 -15 39 -15q16 0 31 28l34 -22q-27 -48 -64 -48q-19 0 -49 18q-25 14 -39 14q-18 0 -33 -28l-34 22q27 48 64 48zM165 0h-78v658h78v-658z" />
    <glyph glyph-name="uni0623" unicode="&#x623;" horiz-adv-x="253" 
d="M209 764h-167v43h32q-13 18 -13 42q0 32 21.5 52.5t54.5 20.5q20 0 39 -11t26 -27l-35 -20l-1 1q-12 18 -30 18q-29 0 -29 -36q0 -17 12.5 -28t32.5 -12h57v-43zM165 658v-658h-78v658h78z" />
    <glyph glyph-name="uni0624" unicode="&#x624;" horiz-adv-x="564" 
d="M357 599h-167v43h32q-13 18 -13 42q0 32 21.5 52.5t54.5 20.5q20 0 39 -11t26 -27l-35 -20l-1 1q-12 18 -30 18q-29 0 -29 -36q0 -17 12.5 -28t32.5 -12h57v-43zM278 496q107 0 156 -59q43 -53 43 -158v-296q0 -133 -61 -192q-52 -51 -154 -51q-89 0 -161 39l26 60
q58 -32 128 -32q145 0 145 158v57q-58 -31 -129 -31q-194 0 -194 216v72q0 119 58 172q49 45 143 45zM277 431q-123 0 -123 -145v-86q0 -145 123 -145q73 0 122 38v193q0 78 -32 113q-30 32 -90 32z" />
    <glyph glyph-name="uni0625" unicode="&#x625;" horiz-adv-x="253" 
d="M165 714v-714h-78v714h78zM209 -265h-167v43h32q-13 18 -13 41q0 32 21.5 53t54.5 21q20 0 39 -11t26 -27l-35 -20l-1 1q-12 18 -30 18q-29 0 -29 -36q0 -17 12.5 -28t32.5 -12h57v-43z" />
    <glyph glyph-name="uni0626" unicode="&#x626;" horiz-adv-x="744" 
d="M218 341h-167v43h32q-13 18 -13 42q0 32 21.5 52.5t54.5 20.5q20 0 39 -11t26 -27l-35 -20l-1 1q-12 18 -30 18q-29 0 -29 -36q0 -17 12.5 -28t32.5 -12h57v-43zM509 496q52 0 102 -28q46 -26 69 -65l-61 -33q-21 28 -51 44.5t-61 16.5q-60 0 -101 -50q-38 -48 -39 -124
q1 -112 71 -161q44 -31 106 -31h83q61 0 61 -58q0 -57 -31 -115q-35 -66 -100 -106q-76 -46 -180 -46q-152 0 -238 95q-76 83 -76 214q0 107 49 188l57 -38q-33 -70 -33 -141q0 -126 76 -193q64 -57 166 -57q118 0 186 80q19 23 31.5 51t12.5 49q0 12 -12 12h-83
q-98 0 -164 78q-59 70 -59 170q0 118 65 187q59 61 154 61z" />
    <glyph glyph-name="uni0627" unicode="&#x627;" horiz-adv-x="253" 
d="M165 714v-714h-78v714h78z" />
    <glyph glyph-name="uni0628" unicode="&#x628;" horiz-adv-x="881" 
d="M794 485v-278q0 -107 -57 -161q-48 -46 -133 -46h-321q-110 0 -172 76q-48 60 -48 141q0 128 76 214l55 -38q-60 -72 -60 -170q0 -69 46 -114q44 -44 117 -44h307q57 0 87 41q25 35 25 94v285h78zM472 -210h-78v103h78v-103z" />
    <glyph glyph-name="uni0629" unicode="&#x629;" horiz-adv-x="554" 
d="M241 598h-67v102h67v-102zM380 598h-67v102h67v-102zM278 496q108 0 156 -59q44 -53 44 -158v-72q0 -119 -57 -171q-49 -45 -143 -45q-108 0 -157 59q-44 53 -44 157v72q0 119 58 172q49 45 143 45zM277 431q-123 0 -123 -145v-86q0 -145 123 -145q68 0 98 42
q25 35 25 103v86q0 78 -33 113q-30 32 -90 32z" />
    <glyph glyph-name="uni062A" unicode="&#x62a;" horiz-adv-x="881" 
d="M408 546h-67v102h67v-102zM547 546h-67v102h67v-102zM794 485v-278q0 -107 -57 -161q-48 -46 -133 -46h-321q-110 0 -172 76q-48 60 -48 141q0 128 76 214l55 -38q-60 -72 -60 -170q0 -69 46 -114q44 -44 117 -44h307q57 0 87 41q25 35 25 94v285h78z" />
    <glyph glyph-name="uni062B" unicode="&#x62b;" horiz-adv-x="881" 
d="M476 694h-63v90h63v-90zM408 546h-67v102h67v-102zM547 546h-67v102h67v-102zM794 485v-278q0 -107 -57 -161q-48 -46 -133 -46h-321q-110 0 -172 76q-48 60 -48 141q0 128 76 214l55 -38q-60 -72 -60 -170q0 -69 46 -114q44 -44 117 -44h307q57 0 87 41q25 35 25 94v285
h78z" />
    <glyph glyph-name="uni062C" unicode="&#x62c;" horiz-adv-x="697" 
d="M252 -15q-58 -18 -89 -63q-28 -40 -28 -90q0 -76 57 -125q43 -37 100 -45q20 -3 45 -3q91 0 183 49l27 -58q-97 -58 -214 -58q-28 0 -39 1q-103 9 -170 72q-68 64 -68 162q0 77 39 132q38 54 109 82q52 19 146 24h151q-18 23 -27 54.5t-17 98.5q-12 101 -34 143
q-17 33 -50 51.5t-76 18.5q-73 0 -128 -73l-60 36q31 48 81 75t108 27q136 0 194 -99q20 -33 27.5 -65.5t15.5 -112.5q7 -71 25 -107q13 -27 30 -37t48 -10h2v-65h-268q-73 0 -120 -15zM411 -209h-78v103h78v-103z" />
    <glyph glyph-name="uni062D" unicode="&#x62d;" horiz-adv-x="697" 
d="M252 -15q-58 -18 -89 -63q-28 -40 -28 -90q0 -76 57 -125q43 -37 100 -45q20 -3 45 -3q91 0 183 49l27 -58q-97 -58 -214 -58q-28 0 -39 1q-103 9 -170 72q-68 64 -68 162q0 77 39 132q38 54 109 82q52 19 146 24h151q-18 23 -27 54.5t-17 98.5q-12 101 -34 143
q-17 33 -50 51.5t-76 18.5q-73 0 -128 -73l-60 36q31 48 81 75t108 27q136 0 194 -99q20 -33 27.5 -65.5t15.5 -112.5q7 -71 25 -107q13 -27 30 -37t48 -10h2v-65h-268q-73 0 -120 -15z" />
    <glyph glyph-name="uni062E" unicode="&#x62e;" horiz-adv-x="697" 
d="M342 599h-78v102h78v-102zM252 -15q-58 -18 -89 -63q-28 -40 -28 -90q0 -76 57 -125q43 -37 100 -45q20 -3 45 -3q91 0 183 49l27 -58q-97 -58 -214 -58q-28 0 -39 1q-103 9 -170 72q-68 64 -68 162q0 77 39 132q38 54 109 82q52 19 146 24h151q-18 23 -27 54.5t-17 98.5
q-12 101 -34 143q-17 33 -50 51.5t-76 18.5q-73 0 -128 -73l-60 36q31 48 81 75t108 27q136 0 194 -99q20 -33 27.5 -65.5t15.5 -112.5q7 -71 25 -107q13 -27 30 -37t48 -10h2v-65h-268q-73 0 -120 -15z" />
    <glyph glyph-name="uni062F" unicode="&#x62f;" horiz-adv-x="515" 
d="M172 435l32 61q247 -41 247 -287q0 -209 -199 -209h-196v65h196q122 -1 122 142q0 113 -65 170q-49 43 -137 58z" />
    <glyph glyph-name="uni0630" unicode="&#x630;" horiz-adv-x="515" 
d="M252 599h-78v102h78v-102zM172 435l32 61q247 -41 247 -287q0 -209 -199 -209h-196v65h196q122 -1 122 142q0 113 -65 170q-49 43 -137 58z" />
    <glyph glyph-name="uni0631" unicode="&#x631;" horiz-adv-x="344" 
d="M256 485v-471q0 -80 -8 -124.5t-28 -78.5q-43 -71 -146 -71q-67 0 -114 25l24 60q35 -18 79 -18q65 0 90.5 43t25.5 153v482h77z" />
    <glyph glyph-name="uni0632" unicode="&#x632;" horiz-adv-x="344" 
d="M256 599h-78v102h78v-102zM256 485v-471q0 -80 -8 -124.5t-28 -78.5q-43 -71 -146 -71q-67 0 -114 25l24 60q35 -18 79 -18q65 0 90.5 43t25.5 153v482h77z" />
    <glyph glyph-name="uni0633" unicode="&#x633;" horiz-adv-x="1345" 
d="M1257 484v-289q0 -107 -56 -159q-49 -46 -133 -46q-107 0 -151 75q-42 -74 -147 -74q-79 0 -118 47v-8q-5 -149 -90 -224q-75 -66 -202 -66q-78 0 -145 35q-69 36 -108 101q-43 71 -43 164q0 68 21.5 134t59.5 114l56 -38q-30 -41 -47.5 -95t-17.5 -108q0 -121 79 -187
q61 -52 146 -52q105 0 162 65q53 60 53 166v446h77v-296q0 -67 33 -102q29 -32 79 -32q58 0 88 41q25 34 25 93v296h77v-297q0 -67 33 -102q29 -31 80 -31q57 0 87 41q25 34 25 93v295h77z" />
    <glyph glyph-name="uni0634" unicode="&#x634;" horiz-adv-x="1345" 
d="M948 747h-63v90h63v-90zM880 599h-67v102h67v-102zM1019 599h-67v102h67v-102zM1257 484v-289q0 -107 -56 -159q-49 -46 -133 -46q-107 0 -151 75q-42 -74 -147 -74q-79 0 -118 47v-8q-5 -149 -90 -224q-75 -66 -202 -66q-78 0 -145 35q-69 36 -108 101q-43 71 -43 164
q0 68 21.5 134t59.5 114l56 -38q-30 -41 -47.5 -95t-17.5 -108q0 -121 79 -187q61 -52 146 -52q105 0 162 65q53 60 53 166v446h77v-296q0 -67 33 -102q29 -32 79 -32q58 0 88 41q25 34 25 93v296h77v-297q0 -67 33 -102q29 -31 80 -31q57 0 87 41q25 34 25 93v295h77z" />
    <glyph glyph-name="uni0635" unicode="&#x635;" horiz-adv-x="1286" 
d="M958 496q140 0 211 -99q54 -76 54 -190q0 -109 -59 -163q-48 -44 -131 -44h-383q-13 -133 -97 -200q-74 -60 -194 -60q-78 0 -145 35q-69 36 -108 101q-43 71 -43 164q0 68 21.5 134t59.5 114l56 -38q-30 -41 -47.5 -95t-17.5 -108q0 -121 79 -187q61 -52 146 -52
q105 0 162 65q53 60 53 166v446h77v-188q46 98 136 152q78 47 170 47zM953 431q-128 0 -217 -133q-68 -102 -83 -233h380q57 0 87 42q26 36 26 94q0 109 -55 171q-51 59 -138 59z" />
    <glyph glyph-name="uni0636" unicode="&#x636;" horiz-adv-x="1286" 
d="M982 599h-78v102h78v-102zM958 496q140 0 211 -99q54 -76 54 -190q0 -109 -59 -163q-48 -44 -131 -44h-383q-13 -133 -97 -200q-74 -60 -194 -60q-78 0 -145 35q-69 36 -108 101q-43 71 -43 164q0 68 21.5 134t59.5 114l56 -38q-30 -41 -47.5 -95t-17.5 -108
q0 -121 79 -187q61 -52 146 -52q105 0 162 65q53 60 53 166v446h77v-188q46 98 136 152q78 47 170 47zM953 431q-128 0 -217 -133q-68 -102 -83 -233h380q57 0 87 42q26 36 26 94q0 109 -55 171q-51 59 -138 59z" />
    <glyph glyph-name="uni0637" unicode="&#x637;" horiz-adv-x="906" 
d="M273 714v-417q46 98 135 152q78 47 170 47q140 0 211 -99q54 -76 54 -190q0 -109 -58 -163q-49 -44 -132 -44h-597v65h139v649h78zM572 431q-128 0 -217 -133q-68 -102 -83 -233h380q57 0 87 42q26 36 26 94q0 108 -55 171q-51 59 -138 59z" />
    <glyph glyph-name="uni0638" unicode="&#x638;" horiz-adv-x="906" 
d="M273 714v-417q46 98 135 152q78 47 170 47q140 0 211 -99q54 -76 54 -190q0 -109 -58 -163q-49 -44 -132 -44h-597v65h139v649h78zM606 599h-78v102h78v-102zM572 431q-128 0 -217 -133q-68 -102 -83 -233h380q57 0 87 42q26 36 26 94q0 108 -55 171q-51 59 -138 59z" />
    <glyph glyph-name="uni0639" unicode="&#x639;" horiz-adv-x="592" 
d="M168 259q0 -113 71 -162q46 -32 110 -32h183v-65h-160q-73 0 -120 -15q-58 -18 -89 -63q-28 -40 -28 -90q0 -76 56 -125q43 -36 100 -45q21 -3 46 -3q91 0 183 49l27 -58q-97 -58 -214 -58q-24 0 -39 1q-103 9 -170 72q-68 64 -68 162q0 89 54 149q39 42 95 60
q-56 32 -87 92q-28 54 -28 120q0 116 71 186q64 62 161 62q67 0 122 -32q44 -26 67 -66l-61 -34q-49 67 -130 67q-64 0 -109 -50q-43 -48 -43 -122z" />
    <glyph glyph-name="uni063A" unicode="&#x63a;" horiz-adv-x="592" 
d="M359 599h-78v102h78v-102zM168 259q0 -113 71 -162q46 -32 110 -32h183v-65h-160q-73 0 -120 -15q-58 -18 -89 -63q-28 -40 -28 -90q0 -76 56 -125q43 -36 100 -45q21 -3 46 -3q91 0 183 49l27 -58q-97 -58 -214 -58q-24 0 -39 1q-103 9 -170 72q-68 64 -68 162
q0 89 54 149q39 42 95 60q-56 32 -87 92q-28 54 -28 120q0 116 71 186q64 62 161 62q67 0 122 -32q44 -26 67 -66l-61 -34q-49 67 -130 67q-64 0 -109 -50q-43 -48 -43 -122z" />
    <glyph glyph-name="uni0640" unicode="&#x640;" horiz-adv-x="188" 
d="M208 0h-208v65h208v-65z" />
    <glyph glyph-name="uni0641" unicode="&#x641;" horiz-adv-x="1004" 
d="M765 599h-78v102h78v-102zM728 496q107 0 156 -59q44 -54 44 -158v-63q0 -118 -57 -171q-49 -45 -143 -45h-445q-110 0 -172 76q-48 60 -48 141q0 128 76 214l55 -38q-60 -72 -60 -170q0 -69 46 -114q44 -44 117 -44h283q-53 45 -53 151v63q0 119 58 172q49 45 143 45z
M727 431q-123 0 -123 -145v-77q0 -78 33 -113q30 -31 90 -31q68 0 98 41q25 35 25 103v77q0 78 -33 113q-30 32 -90 32z" />
    <glyph glyph-name="uni0642" unicode="&#x642;" horiz-adv-x="768" 
d="M455 599h-67v102h67v-102zM594 599h-67v102h67v-102zM492 496q108 0 156 -59q44 -53 44 -158v-232q0 -74 -29 -139q-34 -75 -99 -118q-76 -50 -187 -50q-152 0 -238 95q-76 83 -76 214q0 107 49 188l57 -38q-33 -70 -33 -141q0 -126 76 -193q64 -57 166 -57q119 0 185 80
q48 59 48 132q-54 -29 -126 -29q-194 0 -194 216v72q0 119 58 172q49 45 143 45zM492 431q-123 0 -123 -145v-86q0 -145 123 -145q73 0 122 38v193q0 78 -32 113q-30 32 -90 32z" />
    <glyph glyph-name="uni0643" unicode="&#x643;" horiz-adv-x="881" 
d="M794 714v-507q0 -107 -57 -161q-48 -46 -133 -46h-321q-110 0 -172 76q-48 60 -48 141q0 128 76 214l55 -38q-60 -72 -60 -170q0 -69 46 -114q44 -44 117 -44h307q57 0 87 41q25 35 25 94v514h78zM448 484h13q42 0 64 -21q22 -20 22 -56t-22.5 -56.5t-63.5 -20.5h-89v42
h92q16 0 26 9.5t10 24.5q0 16 -9.5 25.5t-26.5 9.5h-68v14q0 25 19 49l30 37h50z" />
    <glyph glyph-name="uni0644" unicode="&#x644;" horiz-adv-x="741" 
d="M653 714v-666q0 -156 -85 -237q-76 -71 -208 -71q-78 0 -145 35q-69 36 -108 101q-43 71 -43 164q0 68 21.5 134t59.5 114l56 -38q-30 -41 -47.5 -95t-17.5 -108q0 -121 79 -187q61 -52 146 -52q105 0 162 65q53 60 53 166v675h77z" />
    <glyph glyph-name="uni0645" unicode="&#x645;" horiz-adv-x="668" 
d="M392 496q108 0 156 -59q44 -53 44 -158v-103q0 -119 -57 -171q-49 -45 -143 -45q-137 0 -176 101q-43 -4 -62 -24t-19 -61v-324h-78v315q0 87 41 124q32 29 96 35q-3 23 -3 50v103q0 119 58 172q49 45 143 45zM514 169v117q0 78 -33 113q-30 32 -90 32q-123 0 -123 -145
v-117q0 -145 123 -145q68 0 98 42q25 35 25 103z" />
    <glyph glyph-name="uni0646" unicode="&#x646;" horiz-adv-x="741" 
d="M402 521h-78v102h78v-102zM653 485v-437q0 -156 -85 -237q-76 -71 -208 -71q-78 0 -145 35q-69 36 -108 101q-43 71 -43 164q0 68 21.5 134t59.5 114l56 -38q-30 -41 -47.5 -95t-17.5 -108q0 -121 79 -187q61 -52 146 -52q105 0 162 65q53 60 53 166v446h77z" />
    <glyph glyph-name="uni0647" unicode="&#x647;" horiz-adv-x="554" 
d="M278 496q108 0 156 -59q44 -53 44 -158v-72q0 -119 -57 -171q-49 -45 -143 -45q-108 0 -157 59q-44 53 -44 157v72q0 119 58 172q49 45 143 45zM277 431q-123 0 -123 -145v-86q0 -145 123 -145q68 0 98 42q25 35 25 103v86q0 78 -33 113q-30 32 -90 32z" />
    <glyph glyph-name="uni0648" unicode="&#x648;" horiz-adv-x="564" 
d="M278 496q107 0 156 -59q43 -53 43 -158v-296q0 -133 -61 -192q-52 -51 -154 -51q-89 0 -161 39l26 60q58 -32 128 -32q145 0 145 158v57q-58 -31 -129 -31q-194 0 -194 216v72q0 119 58 172q49 45 143 45zM277 431q-123 0 -123 -145v-86q0 -145 123 -145q73 0 122 38v193
q0 78 -32 113q-30 32 -90 32z" />
    <glyph glyph-name="uni0649" unicode="&#x649;" horiz-adv-x="744" 
d="M509 496q52 0 102 -28q46 -26 69 -65l-61 -33q-21 28 -51 44.5t-61 16.5q-60 0 -101 -50q-38 -48 -39 -124q1 -112 71 -161q44 -31 106 -31h83q61 0 61 -58q0 -57 -31 -115q-35 -66 -100 -106q-76 -46 -180 -46q-152 0 -238 95q-76 83 -76 214q0 107 49 188l57 -38
q-33 -70 -33 -141q0 -126 76 -193q64 -57 166 -57q118 0 186 80q19 23 31.5 51t12.5 49q0 12 -12 12h-83q-98 0 -164 78q-59 70 -59 170q0 118 65 187q59 61 154 61z" />
    <glyph glyph-name="uni064A" unicode="&#x64a;" horiz-adv-x="744" 
d="M509 496q52 0 102 -28q46 -26 69 -65l-61 -33q-21 28 -51 44.5t-61 16.5q-60 0 -101 -50q-38 -48 -39 -124q1 -112 71 -161q44 -31 106 -31h83q61 0 61 -58q0 -57 -31 -115q-35 -66 -100 -106q-76 -46 -180 -46q-152 0 -238 95q-76 83 -76 214q0 107 49 188l57 -38
q-33 -70 -33 -141q0 -126 76 -193q64 -57 166 -57q118 0 186 80q19 23 31.5 51t12.5 49q0 12 -12 12h-83q-98 0 -164 78q-59 70 -59 170q0 118 65 187q59 61 154 61zM339 -464h-67v102h67v-102zM478 -464h-67v102h67v-102z" />
    <glyph glyph-name="uni064B" unicode="&#x64b;" horiz-adv-x="0" 
d="M84 674h-167v43h167v-43zM84 562h-167v43h167v-43z" />
    <glyph glyph-name="uni064C" unicode="&#x64c;" horiz-adv-x="0" 
d="M54 735q39 0 61 -27q18 -22 18 -53q0 -45 -32 -73q-28 -24 -68 -24q-63 0 -95 21q-2 1 -6 4q-8 5 -11 5q-4 0 -20 -23l-35 24l28 40q7 10 16 10t19 -8q41 -32 73 -35q-26 20 -26 60q0 35 22 57t56 22zM55 697q-15 0 -24.5 -11.5t-9.5 -30.5q0 -36 33 -54q14 5 24 21
t10 35q0 18 -9 29t-24 11z" />
    <glyph glyph-name="uni064D" unicode="&#x64d;" horiz-adv-x="0" 
d="M83 -135h-167v42h167v-42zM83 -248h-167v43h167v-43z" />
    <glyph glyph-name="uni064E" unicode="&#x64e;" horiz-adv-x="0" 
d="M83 562h-167v43h167v-43z" />
    <glyph glyph-name="uni064F" unicode="&#x64f;" horiz-adv-x="0" 
d="M36 769q39 0 61 -28q18 -22 18 -52q-1 -38 -21 -59.5t-74 -39.5l-17 -6q-63 -22 -103 -32l-17 35q57 14 106 35q-31 24 -31 67q0 34 23 58q22 22 55 22zM34 638q15 3 25.5 18t10.5 33q0 19 -9.5 30.5t-24.5 11.5q-14 0 -23.5 -11.5t-9.5 -29.5q0 -36 31 -52z" />
    <glyph glyph-name="uni0650" unicode="&#x650;" horiz-adv-x="0" 
d="M83 -138h-167v43h167v-43z" />
    <glyph glyph-name="uni0651" unicode="&#x651;" horiz-adv-x="0" 
d="M135 726v-80q0 -80 -82 -80q-33 0 -52 16q-19 -16 -52 -16q-82 0 -82 80v80h46v-84q0 -33 33 -33q32 0 32 33v69h46v-69q0 -33 32 -33q33 0 33 33v84h46z" />
    <glyph glyph-name="uni0652" unicode="&#x652;" horiz-adv-x="0" 
d="M0 725q39 0 62 -28q18 -23 18 -54q0 -37 -24 -60q-22 -21 -56 -21q-39 0 -62 27q-19 22 -19 54q0 36 24 60q23 22 57 22zM0 687q-16 0 -26.5 -12.5t-10.5 -31.5t10.5 -31t26.5 -12t26.5 12t10.5 31t-10.5 31.5t-26.5 12.5z" />
    <glyph glyph-name="uni0653" unicode="&#x653;" horiz-adv-x="0" 
d="M-48 640q19 0 45 -13q1 -1 6 -4q27 -15 39 -15q16 0 31 28l34 -22q-27 -48 -64 -48q-19 0 -49 17q-25 15 -39 15q-18 0 -33 -28l-34 22q27 48 64 48z" />
    <glyph glyph-name="uni0654" unicode="&#x654;" horiz-adv-x="0" 
d="M83 563h-167v43h32q-13 17 -13 42q0 31 21.5 52t54.5 21q20 0 39 -11.5t26 -26.5l-35 -20l-1 1q-12 18 -30 18q-29 0 -29 -36q0 -17 12.5 -28.5t32.5 -11.5h57v-43z" />
    <glyph glyph-name="uni0655" unicode="&#x655;" horiz-adv-x="0" 
d="M83 -251h-167v43h32q-13 18 -13 41q0 32 21.5 53t54.5 21q20 0 39 -11t26 -27l-35 -20l-1 1q-12 18 -30 18q-29 0 -29 -36q0 -17 12.5 -28t32.5 -12h57v-43z" />
    <glyph glyph-name="uni0660" unicode="&#x660;" horiz-adv-x="291" 
d="M241 272l-94 -92l-97 98l93 93z" />
    <glyph glyph-name="uni0661" unicode="&#x661;" horiz-adv-x="253" 
d="M165 714v-714h-78v714h78z" />
    <glyph glyph-name="uni0662" unicode="&#x662;" horiz-adv-x="510" 
d="M291 726q60 0 105 -26q42 -23 65 -64l-61 -34q-23 32 -48.5 45.5t-63.5 13.5q-56 0 -90 -38q-32 -36 -32 -99v-524h-78v521q0 100 61 156q54 49 142 49z" />
    <glyph glyph-name="uni0663" unicode="&#x663;" horiz-adv-x="846" 
d="M769 714v-217q0 -106 -57 -159q-48 -46 -133 -46q-105 0 -148 76q-43 -76 -150 -76q-77 0 -116 47v-339h-78v714h78v-223q0 -67 33 -103q29 -31 79 -31q58 0 87 41q25 34 25 93v223h78v-223q0 -67 33 -103q29 -31 79 -31q58 0 87 41q25 34 25 93v223h78z" />
    <glyph glyph-name="uni0664" unicode="&#x664;" horiz-adv-x="503" 
d="M281 727q60 0 105 -25q42 -23 65 -65l-62 -34q-23 32 -48 45.5t-61 13.5q-59 0 -94 -38q-33 -36 -33 -93q0 -61 46 -97q37 -29 84 -29h121v-65h-135q-58 0 -98 -39q-38 -38 -39 -97q0 -71 45 -113q38 -36 93 -36q81 0 121 58l61 -34q-23 -42 -71 -65t-111 -23
q-103 0 -163 64q-52 55 -52 139q1 65 28 113q27 47 77 71q-84 50 -84 153q0 90 60 145q55 51 145 51z" />
    <glyph glyph-name="uni0665" unicode="&#x665;" horiz-adv-x="503" 
d="M251 602q181 0 191 -217l10 -178q1 -216 -201 -216q-201 0 -200 216l10 178q9 217 190 217zM251 537q-108 0 -112 -141l-10 -196q-4 -145 122 -145t123 145l-11 196q-3 141 -112 141z" />
    <glyph glyph-name="uni0666" unicode="&#x666;" horiz-adv-x="510" 
d="M219 726q101 0 156 -63q47 -55 47 -142v-521h-78v524q0 72 -41 108q-32 29 -81 29q-38 0 -63.5 -13.5t-48.5 -45.5l-61 34q24 43 68.5 66.5t101.5 23.5z" />
    <glyph glyph-name="uni0667" unicode="&#x667;" horiz-adv-x="644" 
d="M368 0h-91l-227 714h82l190 -593l191 593h82z" />
    <glyph glyph-name="uni0668" unicode="&#x668;" horiz-adv-x="644" 
d="M513 0l-191 593l-190 -593h-82l227 714h91l227 -714h-82z" />
    <glyph glyph-name="uni0669" unicode="&#x669;" horiz-adv-x="551" 
d="M263 726q93 0 141 -45q59 -51 59 -156v-525h-78l1 293h-123q-104 0 -152 54q-45 51 -48 145v33q2 96 49 148q50 53 151 53zM263 661q-62 0 -92 -33q-31 -34 -31 -103v-30q0 -68 31 -104q29 -33 92 -33h122v167q0 67 -31 103q-30 33 -91 33z" />
    <glyph glyph-name="uni066A" unicode="&#x66a;" horiz-adv-x="436" 
d="M368 714l-225 -714h-75l224 714h76zM149 681v-89h-73v89h73zM287 33v89h73v-89h-73z" />
    <glyph glyph-name="uni066B" unicode="&#x66b;" horiz-adv-x="226" 
d="M182 65l-68 -287h-69l47 287h90z" />
    <glyph glyph-name="uni066C" unicode="&#x66c;" horiz-adv-x="226" 
d="M182 287l-68 -287h-69l47 287h90z" />
    <glyph glyph-name="uni066E" unicode="&#x66e;" horiz-adv-x="881" 
d="M794 485v-278q0 -107 -57 -161q-48 -46 -133 -46h-321q-110 0 -172 76q-48 60 -48 141q0 128 76 214l55 -38q-60 -72 -60 -170q0 -69 46 -114q44 -44 117 -44h307q57 0 87 41q25 35 25 94v285h78z" />
    <glyph glyph-name="uni0670" unicode="&#x670;" horiz-adv-x="0" 
d="M22 569h-46v159h46v-159z" />
    <glyph glyph-name="uni0671" unicode="&#x671;" horiz-adv-x="253" 
d="M171 915q42 0 66 -25q20 -20 20 -51q0 -36 -21.5 -57t-57.5 -21q-26 0 -67 19l-3 1q-31 15 -48 15q-20 0 -33 -28l-35 22q27 49 65 49q8 0 18 -2q27 78 96 78zM171 875q-14 0 -29.5 -14.5t-23.5 -36.5q42 -22 58 -22q15 0 24.5 9.5t9.5 24.5q0 39 -39 39zM165 0h-78v658
h78v-658z" />
    <glyph glyph-name="uni0679" unicode="&#x679;" horiz-adv-x="881" 
d="M406 744v-73q27 33 72 33q40 0 62 -22t22 -61q0 -75 -78 -75h-155v43h32l-1 155h46zM479 665q-25 0 -45 -21.5t-28 -54.5h83q12 0 19.5 9.5t7.5 24.5q0 19 -10 30.5t-27 11.5zM794 485v-278q0 -107 -57 -161q-48 -46 -133 -46h-321q-110 0 -172 76q-48 60 -48 141
q0 128 76 214l55 -38q-60 -72 -60 -170q0 -69 46 -114q44 -44 117 -44h307q57 0 87 41q25 35 25 94v285h78z" />
    <glyph glyph-name="uni067E" unicode="&#x67e;" horiz-adv-x="881" 
d="M794 485v-278q0 -107 -57 -161q-48 -46 -133 -46h-321q-110 0 -172 76q-48 60 -48 141q0 128 76 214l55 -38q-60 -72 -60 -170q0 -69 46 -114q44 -44 117 -44h307q57 0 87 41q25 35 25 94v285h78zM401 -210h-67v102h67v-102zM540 -210h-67v102h67v-102zM469 -346h-63v90
h63v-90z" />
    <glyph glyph-name="uni0686" unicode="&#x686;" horiz-adv-x="697" 
d="M298 496q136 0 194 -99q20 -33 27.5 -65.5t15.5 -112.5q7 -71 25 -107q13 -27 30 -37t48 -10h2v-65h-268q-73 0 -120 -15q-58 -18 -89 -63q-28 -40 -28 -90q0 -73 53 -123q40 -37 93 -45q10 -2 27 -2l29 -62q-13 -2 -34 -2q-14 0 -38 2q-93 13 -152 76q-57 61 -57 151
q0 77 39 132q38 54 109 82q52 19 146 24h151q-18 23 -27 54.5t-17 98.5q-12 101 -34 143q-17 33 -50 51.5t-76 18.5q-73 0 -128 -73l-60 36q31 48 81 75t108 27zM402 -195h-54v88h54v-88zM523 -195h-54v88h54v-88zM462 -314h-51v78h51v-78z" />
    <glyph glyph-name="uni0688" unicode="&#x688;" horiz-adv-x="515" 
d="M240 796v-73q27 33 72 33q40 0 62 -22t22 -61q0 -75 -78 -75h-155v43h32l-1 155h46zM313 717q-25 0 -45 -21.5t-28 -54.5h83q12 0 19.5 9.5t7.5 24.5q0 19 -10 30.5t-27 11.5zM172 435l32 61q247 -41 247 -287q0 -209 -199 -209h-196v65h196q122 -1 122 142
q0 113 -65 170q-49 43 -137 58z" />
    <glyph glyph-name="uni0691" unicode="&#x691;" horiz-adv-x="344" 
d="M175 797v-73q28 33 72 33q40 0 62 -22t22 -61q0 -75 -78 -75h-155v43h32l-1 155h46zM248 718q-24 0 -44.5 -21.5t-28.5 -54.5h83q12 0 19.5 9.5t7.5 23.5q0 20 -10 31.5t-27 11.5zM256 485v-471q0 -80 -8 -124.5t-28 -78.5q-43 -71 -146 -71q-67 0 -114 25l24 60
q35 -18 79 -18q65 0 90.5 43t25.5 153v482h77z" />
    <glyph glyph-name="uni0698" unicode="&#x698;" horiz-adv-x="344" 
d="M249 747h-63v90h63v-90zM181 599h-67v102h67v-102zM320 599h-67v102h67v-102zM256 485v-471q0 -80 -8 -124.5t-28 -78.5q-43 -71 -146 -71q-67 0 -114 25l24 60q35 -18 79 -18q65 0 90.5 43t25.5 153v482h77z" />
    <glyph glyph-name="uni06A1" unicode="&#x6a1;" horiz-adv-x="1004" 
d="M728 496q107 0 156 -59q44 -54 44 -158v-63q0 -118 -57 -171q-49 -45 -143 -45h-445q-110 0 -172 76q-48 60 -48 141q0 128 76 214l55 -38q-60 -72 -60 -170q0 -69 46 -114q44 -44 117 -44h283q-53 45 -53 151v63q0 119 58 172q49 45 143 45zM727 431q-123 0 -123 -145
v-77q0 -78 33 -113q30 -31 90 -31q68 0 98 41q25 35 25 103v77q0 78 -33 113q-30 32 -90 32z" />
    <glyph glyph-name="uni06A4" unicode="&#x6a4;" horiz-adv-x="1004" 
d="M759 746h-63v90h63v-90zM691 598h-67v102h67v-102zM830 598h-67v102h67v-102zM728 496q107 0 156 -59q44 -54 44 -158v-63q0 -118 -57 -171q-49 -45 -143 -45h-445q-110 0 -172 76q-48 60 -48 141q0 128 76 214l55 -38q-60 -72 -60 -170q0 -69 46 -114q44 -44 117 -44
h283q-53 45 -53 151v63q0 119 58 172q49 45 143 45zM727 431q-123 0 -123 -145v-77q0 -78 33 -113q30 -31 90 -31q68 0 98 41q25 35 25 103v77q0 78 -33 113q-30 32 -90 32z" />
    <glyph glyph-name="uni06A9" unicode="&#x6a9;" horiz-adv-x="871" 
d="M482 485h122q97 0 146 -60q44 -53 44 -147v-71q0 -107 -57 -161q-48 -46 -133 -46h-321q-110 0 -172 76q-48 60 -48 141q0 128 76 214l55 -38q-60 -72 -60 -170q0 -69 46 -114q44 -44 117 -44h307q58 0 87 41q25 35 25 94v85q0 67 -33 103q-29 32 -79 32h-213v27
q0 21 8 37.5t32 46.5l151 183h88z" />
    <glyph glyph-name="uni06AF" unicode="&#x6af;" horiz-adv-x="980" 
d="M592 485h121q98 0 147 -60q44 -53 44 -147v-71q0 -107 -57 -161q-49 -46 -134 -46h-430q-110 0 -172 76q-48 60 -48 141q0 126 79 214l55 -38q-63 -70 -63 -169q0 -69 45 -115q45 -44 118 -44h416q58 0 88 41q25 35 25 94v85q0 67 -33 103q-30 32 -80 32h-212v28
q0 22 7 37t33 46l150 183h89zM373 485h-58l188 229h59z" />
    </font>
</defs>
</svg>
