<svg xmlns="http://www.w3.org/2000/svg">
    <symbol id="arrow-right" viewBox="0 0 25.737 19.749">
        <g transform="translate(-605.25 -275.941)">
            <path d="M0,8.816H23.929m0,0L13.948,0m9.981,8.816-9.981,8.816" transform="translate(606 277)"
                stroke="" stroke-linecap="round" stroke-linejoin="round" stroke-width="1.5" />
        </g>
    </symbol>

    <symbol id="notification" viewBox="0 0 15.234 20">
        <g transform="translate(-2.383)">
            <path
                d="M.586,17.656H5.273a2.344,2.344,0,0,0,4.688,0h4.688a.586.586,0,0,0,.586-.586,5.331,5.331,0,0,0-1.3-3.9A4.192,4.192,0,0,1,12.891,10V7.617a5.283,5.283,0,0,0-3.719-5.04,1.758,1.758,0,1,0-3.109,0,5.283,5.283,0,0,0-3.719,5.04V10A4.192,4.192,0,0,1,1.3,13.172,5.331,5.331,0,0,0,0,17.07a.586.586,0,0,0,.586.586Zm7.031,1.172a1.173,1.173,0,0,1-1.172-1.172H8.789A1.173,1.173,0,0,1,7.617,18.828ZM7.031,1.758a.586.586,0,1,1,.586.586A.587.587,0,0,1,7.031,1.758ZM2.218,13.9a5.331,5.331,0,0,0,1.3-3.9V7.617a4.1,4.1,0,0,1,8.2,0V10a5.331,5.331,0,0,0,1.3,3.9,3.944,3.944,0,0,1,1.028,2.586H1.19A3.944,3.944,0,0,1,2.218,13.9Z"
                transform="translate(2.383)" />
            <path
                d="M1.172,6.674A6.474,6.474,0,0,1,4.4,1.093.586.586,0,1,0,3.808.079,7.623,7.623,0,0,0,0,6.674a.586.586,0,1,0,1.172,0Z"
                transform="translate(2.383 0.943)" />
            <path
                d="M.88.079A.586.586,0,1,0,.292,1.093,6.474,6.474,0,0,1,3.516,6.674a.586.586,0,0,0,1.172,0A7.623,7.623,0,0,0,.88.079Z"
                transform="translate(12.929 0.943)" />
        </g>


    </symbol>
    <symbol id="printer" viewBox="0 0 14 14">
        <path
            d="M12.542,7h-1.75a.292.292,0,1,1,0-.583h1.75a.876.876,0,0,0,.875-.875V1.458a.876.876,0,0,0-.875-.875H1.458a.876.876,0,0,0-.875.875V5.542a.876.876,0,0,0,.875.875h1.75a.292.292,0,1,1,0,.583H1.458A1.46,1.46,0,0,1,0,5.542V1.458A1.46,1.46,0,0,1,1.458,0H12.542A1.46,1.46,0,0,1,14,1.458V5.542A1.46,1.46,0,0,1,12.542,7Z"
            transform="translate(0 3.5)" />
        <path d="M3.792.583H.292A.292.292,0,1,1,.292,0h3.5a.292.292,0,1,1,0,.583Z"
            transform="translate(4.667 11.667)" />
        <path d="M3.792.583H.292A.292.292,0,1,1,.292,0h3.5a.292.292,0,1,1,0,.583Z" transform="translate(4.667 10.5)" />
        <path d="M1.458.583H.292A.292.292,0,1,1,.292,0H1.458a.292.292,0,1,1,0,.583Z"
            transform="translate(4.667 9.333)" />
        <path
            d="M7.875,4.083a.292.292,0,0,1-.292-.292V1.458A.876.876,0,0,0,6.708.583H1.458a.876.876,0,0,0-.875.875V3.792a.292.292,0,1,1-.583,0V1.458A1.46,1.46,0,0,1,1.458,0h5.25A1.46,1.46,0,0,1,8.167,1.458V3.792A.292.292,0,0,1,7.875,4.083Z"
            transform="translate(2.917 0)" />
        <path
            d="M6.708,6.417H1.458A1.46,1.46,0,0,1,0,4.958V.292A.292.292,0,0,1,.292,0H7.875a.292.292,0,0,1,.292.292V4.958A1.46,1.46,0,0,1,6.708,6.417ZM.583.583V4.958a.876.876,0,0,0,.875.875h5.25a.876.876,0,0,0,.875-.875V.583Z"
            transform="translate(2.917 7.583)" />

    </symbol>
    <symbol id="eye" viewBox="0 0 18.637 12.08">
        <g transform="translate(-224 -515)">
            <path
                d="M9.319,0A10.224,10.224,0,0,0,.056,5.8a.547.547,0,0,0,0,.48,10.3,10.3,0,0,0,18.526,0,.547.547,0,0,0,0-.48A10.226,10.226,0,0,0,9.319,0Zm0,10.982A9.131,9.131,0,0,1,1.165,6.04a9.2,9.2,0,0,1,16.308,0A9.131,9.131,0,0,1,9.319,10.982Z"
                transform="translate(224 515)" />
            <path
                d="M3.432,0A3.432,3.432,0,1,0,6.864,3.432,3.437,3.437,0,0,0,3.432,0Zm0,5.765A2.334,2.334,0,1,1,5.765,3.432,2.335,2.335,0,0,1,3.432,5.765Z"
                transform="translate(229.887 517.608)" />
        </g>

    </symbol>
    <symbol id="download" viewBox="0 0 6.668 10">
        <g id="download_2_1" data-name="download (2) 1" transform="translate(-1.667)">
            <path
                d="M3.039,8.211h0l.03.027.015.011.018.013.018.011.017.01.019.009.018.008.019.007.02.007.019,0,.021.005.022,0,.018,0a.419.419,0,0,0,.082,0l.018,0,.022,0,.021-.005.019,0,.02-.007L3.493,8.3l.018-.008.019-.009.017-.01.018-.011.018-.013L3.6,8.239l.03-.027h0L6.545,5.295a.417.417,0,0,0-.589-.589L3.75,6.911V.417a.417.417,0,0,0-.833,0V6.911L.711,4.705a.417.417,0,0,0-.589.589Z"
                transform="translate(1.668)" />
            <path d="M6.25,0H.417a.417.417,0,0,0,0,.833H6.25A.417.417,0,1,0,6.25,0Z"
                transform="translate(1.667 9.167)" />
        </g>
    </symbol>
    <symbol id="search" viewBox="0 0 20 20">
        <path
            d="M19.766,18.589l-4.97-4.97A8.34,8.34,0,1,0,13.619,14.8l4.97,4.97a.833.833,0,0,0,1.177-1.177ZM8.353,15.014a6.669,6.669,0,1,1,4.708-1.953A6.661,6.661,0,0,1,8.353,15.014Z" />

    </symbol>
    <symbol id="user" viewBox="0 0 16.25 17">
        <g transform="translate(-0.375)">
            <path
                d="M8.125,0A8.134,8.134,0,0,0,0,8.125a.353.353,0,0,0,.707,0,7.418,7.418,0,0,1,14.837,0,.353.353,0,0,0,.707,0A8.134,8.134,0,0,0,8.125,0Z"
                transform="translate(0.375 8.522)" />
            <path
                d="M3.886,0A3.886,3.886,0,1,0,7.772,3.886,3.89,3.89,0,0,0,3.886,0Zm0,7.065A3.179,3.179,0,1,1,7.065,3.886,3.183,3.183,0,0,1,3.886,7.065Z"
                transform="translate(4.614)" />
        </g>
    </symbol>



    <symbol id="user-2" viewBox="0 0 19.5 26">
        <g transform="translate(-3.25)">
            <path
                d="M6.5,13a6.507,6.507,0,1,0-4.594-1.906A6.5,6.5,0,0,0,6.5,13Zm0-10.833A4.333,4.333,0,1,1,3.436,3.436,4.333,4.333,0,0,1,6.5,2.167Z"
                transform="translate(6.5 0)" />
            <path data-name="Vector"
                d="M9.75,0A9.761,9.761,0,0,0,0,9.75a1.083,1.083,0,1,0,2.167,0,7.583,7.583,0,0,1,15.167,0,1.083,1.083,0,1,0,2.167,0A9.761,9.761,0,0,0,9.75,0Z"
                transform="translate(3.25 15.167)" />
        </g>
    </symbol>

    <symbol id="marker" viewBox="0 0 16.072 19">
        <g transform="translate(-1.464)">

            <path
                d="M13.718,2.354A8.036,8.036,0,0,0,0,8.036c0,4.342,4.106,7.954,6.311,9.894.307.27.571.5.782.7a1.385,1.385,0,0,0,1.885,0c.211-.2.476-.43.782-.7,2.206-1.94,6.311-5.552,6.311-9.894A7.984,7.984,0,0,0,13.718,2.354ZM9.025,17.095c-.313.276-.584.514-.807.722a.269.269,0,0,1-.365,0c-.223-.208-.494-.446-.807-.722-2.074-1.824-5.934-5.22-5.934-9.059a6.923,6.923,0,0,1,13.846,0C14.959,11.875,11.1,15.27,9.025,17.095Z"
                transform="translate(1.464)" />

            <path
                d="M3.541,0A3.541,3.541,0,1,0,7.083,3.541,3.545,3.545,0,0,0,3.541,0Zm0,5.97A2.428,2.428,0,1,1,5.97,3.541,2.431,2.431,0,0,1,3.541,5.97Z"
                transform="translate(5.959 4.191)" />

        </g>

    </symbol>
    <symbol id="gallery" viewBox="0 0 61 53.464">
        <g id="" transform="translate(0 -3.768)">

            <path
                d="M6.222,0a6.222,6.222,0,1,0,6.222,6.222A6.222,6.222,0,0,0,6.222,0Zm0,9.482A3.259,3.259,0,1,1,9.482,6.222,3.259,3.259,0,0,1,6.222,9.482Z"
                transform="translate(24.669 22.638)" />
            <path
                d="M55.707,4.648,15.262.055a5.555,5.555,0,0,0-4.37,1.259A5.63,5.63,0,0,0,8.743,5.167L8,11.241h-2.3A5.953,5.953,0,0,0,0,17.389v30.3a5.63,5.63,0,0,0,5.479,5.776q.112,0,.225,0H46.373A6.08,6.08,0,0,0,52.6,47.686V46.5a7.407,7.407,0,0,0,2.815-1.185,6.149,6.149,0,0,0,2.148-4l3.408-30.075A6,6,0,0,0,55.707,4.648ZM49.632,47.686A3.119,3.119,0,0,1,46.373,50.5H5.706a2.667,2.667,0,0,1-2.744-2.587q0-.114,0-.228V42.2L14.447,33.76a3.556,3.556,0,0,1,4.593.222l8.074,7.111a6.964,6.964,0,0,0,4.371,1.63,6.741,6.741,0,0,0,3.556-.963l14.593-8.445V47.686Zm0-17.852L33.484,39.241a3.778,3.778,0,0,1-4.371-.37l-8.148-7.185a6.593,6.593,0,0,0-8.222-.3L2.965,38.5V17.389A2.99,2.99,0,0,1,5.706,14.2H46.373a3.408,3.408,0,0,1,3.259,3.185V29.834Zm8.373-18.993c0,.01,0,.02,0,.029L54.521,40.945a2.518,2.518,0,0,1-.963,2c-.3.3-.963.444-.963.593V17.389a6.37,6.37,0,0,0-6.222-6.148H10.965l.667-5.778a3.408,3.408,0,0,1,1.111-1.926,3.407,3.407,0,0,1,2.222-.593L55.336,7.611A2.963,2.963,0,0,1,58.006,10.841Z"
                transform="translate(0 3.768)" />
        </g>

    </symbol>
    <symbol id="arrow-right-2" viewBox="0 0 27.594 21.117">

        <g transform="translate(-1367.25 -39.941)">
            <path d="M0,9.5H25.786m0,0L15.03,0M25.786,9.5,15.03,19" transform="translate(1368 41)"
                stroke-linecap="round" stroke-linejoin="round" stroke-width="1.5" />
        </g>
    </symbol>
    <symbol id="arrow-3" viewBox="0 0 13 9">

        <path d="M1 1.5L6.5 7.5L12 1.5" stroke="#77787B" stroke-width="1" stroke-linecap="round" stroke-linejoin="round"/>

    </symbol>
    <symbol id="arrow-left" viewBox="0 0 8 13">

        <path d="M7 1L1 6.5L7 12" stroke="#1C1F2C" stroke-width="2" stroke-linecap="round" stroke-linejoin="round"/>

    </symbol>
    <symbol id="phone" viewBox="0 0 16.453 18.045">
        <g transform="translate(-6.272 -5.477)">
            <path id="XMLID_794" data-name="XMLID 794"
                d="M7.413,3.191,4.995.256A.7.7,0,0,0,4.519,0a.686.686,0,0,0-.513.157l-2.9,2.39A3.04,3.04,0,0,0,.691,6.825L9.023,16.94a3.042,3.042,0,0,0,4.275.415l2.9-2.39a.7.7,0,0,0,.1-.989l-2.419-2.935a.689.689,0,0,0-.574-.255A5.658,5.658,0,0,1,7.55,3.8.7.7,0,0,0,7.413,3.191ZM7.6,9.623A7.009,7.009,0,0,0,13.007,12.2l1.755,2.132L12.4,16.27a1.636,1.636,0,0,1-2.3-.223L1.776,5.934A1.636,1.636,0,0,1,2,3.635L4.357,1.692,6.111,3.823A7.015,7.015,0,0,0,7.6,9.623Z"
                transform="translate(6.272 5.477)" />
        </g>
    </symbol>
    <symbol id="envelope" viewBox="0 0 490 490">
        <path xmlns="http://www.w3.org/2000/svg"
            d="M479.574,78.191H10.425c-0.071,0-0.141,0.007-0.211,0.008l0.001,0.003C4.556,78.315,0,82.925,0,88.617v312.766  c0,5.762,4.669,10.426,10.425,10.426h469.149c5.758,0,10.426-4.664,10.426-10.426V88.617C490,82.854,485.332,78.191,479.574,78.191z   M454.407,99.043l-138.581,138.58c-0.002,0.002-0.004,0.003-0.006,0.005L245,308.449l-70.82-70.821  c-0.004-0.004-0.008-0.007-0.013-0.012L35.594,99.043H454.407z M20.851,113.784l131.215,131.215L20.851,376.215V113.784z   M35.594,390.957l131.215-131.216l70.821,70.821c3.629,3.629,9.303,5.439,14.743,0l70.82-70.82l131.215,131.215H35.594z   M469.149,376.213L337.935,244.999l131.214-131.214V376.213z"
            style="&#10;" />
    </symbol>
    <symbol id="whatsapp" viewBox="0 0 30 30">
        <path
            d="M15,30a14.867,14.867,0,0,1-7.79-2.259l-6.6,1.65,1.65-6.6A14.867,14.867,0,0,1,0,15,15,15,0,1,1,15,30ZM7.52,25.852l.321.208A13.191,13.191,0,1,0,1.758,15,13.164,13.164,0,0,0,3.94,22.16l.208.321-1.124,4.5Z"
            transform="translate(0 0)" />
        <path
            d="M12.252,17.829A7.481,7.481,0,0,1,8.39,16.186,29.348,29.348,0,0,1,1.512,9.247,7.206,7.206,0,0,1,0,5.566C0,3.8,1.252,2.688,2.463,1.612c.354-.315.721-.64,1.071-.99L4.156,0,9.127,4.972,7.313,6.786a.9.9,0,0,0-.262.631.818.818,0,0,0,.193.535c2.3,2.719,3.019,2.826,3.048,2.83h.027l.092,0a.9.9,0,0,0,.631-.262L12.856,8.7l4.972,4.972-.622.621c-.351.351-.677.716-.992,1.068-1.133,1.268-2.2,2.467-3.963,2.467ZM4.14,2.47c-.171.156-.341.307-.509.456-1.2,1.063-1.873,1.709-1.873,2.64a5.476,5.476,0,0,0,1.211,2.7,27.838,27.838,0,0,0,6.424,6.48c1.726,1.2,2.574,1.329,2.859,1.329.927,0,1.579-.679,2.652-1.88.148-.166.3-.334.454-.5l-2.5-2.5-.571.571a2.67,2.67,0,0,1-1.864.777h-.009c-.79.041-1.883-.347-4.509-3.448a2.587,2.587,0,0,1-.61-1.671,2.669,2.669,0,0,1,.777-1.874l.571-.571Z"
            transform="translate(6.237 5.935)" />

    </symbol>
    <symbol id="location" viewBox="0 0 31.325 30.887">
        <g transform="translate(-1010.089 -267.801)">
            <path d="M0,0H31.325V30.887H0Z" transform="translate(1010.089 267.801)" fill="none" />
            <path
                d="M21.251,12.635a9.353,9.353,0,0,1-2.736,5.621,9.594,9.594,0,0,1-5.7,2.7v1.158a1.04,1.04,0,0,1-.081.4,1.052,1.052,0,0,1-.231.342,1.069,1.069,0,0,1-.346.228,1.082,1.082,0,0,1-.817,0,1.069,1.069,0,0,1-.346-.228,1.052,1.052,0,0,1-.231-.342,1.04,1.04,0,0,1-.081-.4V20.954A9.4,9.4,0,0,1,4.939,18.3a9.16,9.16,0,0,1-2.7-5.66H1.068a1.081,1.081,0,0,1-.409-.08,1.069,1.069,0,0,1-.346-.228,1.052,1.052,0,0,1-.231-.342,1.039,1.039,0,0,1,0-.806,1.052,1.052,0,0,1,.231-.342,1.069,1.069,0,0,1,.346-.228,1.081,1.081,0,0,1,.409-.08H2.242a9.16,9.16,0,0,1,2.7-5.66,9.4,9.4,0,0,1,5.74-2.659V1.053a1.04,1.04,0,0,1,.081-.4,1.052,1.052,0,0,1,.231-.342A1.069,1.069,0,0,1,11.338.08a1.082,1.082,0,0,1,.817,0A1.069,1.069,0,0,1,12.5.308a1.052,1.052,0,0,1,.231.342,1.04,1.04,0,0,1,.081.4V2.211a9.594,9.594,0,0,1,5.7,2.7,9.353,9.353,0,0,1,2.736,5.621h1.175a1.081,1.081,0,0,1,.409.08,1.069,1.069,0,0,1,.346.228,1.052,1.052,0,0,1,.231.342,1.039,1.039,0,0,1,0,.806,1.052,1.052,0,0,1-.231.342,1.069,1.069,0,0,1-.346.228,1.081,1.081,0,0,1-.409.08Zm-9.5,6.318A7.551,7.551,0,0,0,15.9,17.711,7.394,7.394,0,0,0,18.653,14.4a7.3,7.3,0,0,0-1.62-8.032,7.533,7.533,0,0,0-11.5,1.117,7.31,7.31,0,0,0,.916,9.32,7.438,7.438,0,0,0,2.431,1.6,7.521,7.521,0,0,0,2.868.549Zm0-3.159a4.315,4.315,0,0,1-2.373-.71A4.226,4.226,0,0,1,7.8,13.193,4.169,4.169,0,0,1,8.727,8.6a4.305,4.305,0,0,1,6.573.64,4.16,4.16,0,0,1-.535,5.316,4.315,4.315,0,0,1-3.017,1.237Zm0-2.105a2.157,2.157,0,0,0,1.186-.355,2.112,2.112,0,0,0,.786-.945,2.084,2.084,0,0,0-.463-2.294,2.152,2.152,0,0,0-3.285.319,2.078,2.078,0,0,0,.267,2.657,2.157,2.157,0,0,0,1.508.619Z"
                transform="translate(1014.005 271.662)" fill="#454f63" />
        </g>


    </symbol>
    <symbol id="chart-up" viewBox="0 0 21 11">

        <path
            d="M20.3439 0.906249C20.3439 0.732201 20.2748 0.565282 20.1517 0.442211C20.0286 0.31914 19.8617 0.25 19.6876 0.25H14.2736C14.0995 0.25 13.9326 0.31914 13.8095 0.442211C13.6865 0.565282 13.6173 0.732201 13.6173 0.906249C13.6173 1.0803 13.6865 1.24722 13.8095 1.37029C13.9326 1.49336 14.0995 1.5625 14.2736 1.5625H18.0897L12.6461 6.94374L7.68155 3.40656C7.55415 3.31578 7.39851 3.2735 7.24269 3.28734C7.08687 3.30118 6.94112 3.37022 6.83171 3.48203L0.843427 9.63437C0.731553 9.76055 0.672548 9.92496 0.678653 10.0935C0.684759 10.262 0.755506 10.4217 0.876219 10.5395C0.996931 10.6572 1.15834 10.724 1.32697 10.7259C1.49559 10.7279 1.65849 10.6648 1.78186 10.5498L7.37968 4.80109L12.3344 8.33171C12.4605 8.42155 12.6143 8.46391 12.7686 8.4513C12.9229 8.43869 13.0678 8.37192 13.1776 8.2628L19.0314 2.47797V6.32031C19.0314 6.49435 19.1005 6.66127 19.2236 6.78435C19.3467 6.90742 19.5136 6.97656 19.6876 6.97656C19.8617 6.97656 20.0286 6.90742 20.1517 6.78435C20.2748 6.66127 20.3439 6.49435 20.3439 6.32031V0.906249Z"
            fill="#2DA840" />
    </symbol>
    <symbol id="chart-down" viewBox="0 0 21 11">
        <path
            d="M20.3439 10.0938C20.3439 10.2678 20.2748 10.4347 20.1517 10.5578C20.0286 10.6809 19.8617 10.75 19.6876 10.75H14.2736C14.0995 10.75 13.9326 10.6809 13.8095 10.5578C13.6865 10.4347 13.6173 10.2678 13.6173 10.0938C13.6173 9.9197 13.6865 9.75278 13.8095 9.62971C13.9326 9.50664 14.0995 9.4375 14.2736 9.4375H18.0897L12.6461 4.05626L7.68155 7.59344C7.55415 7.68422 7.39851 7.7265 7.24269 7.71266C7.08687 7.69882 6.94112 7.62978 6.83171 7.51797L0.843427 1.36563C0.731553 1.23945 0.672548 1.07504 0.678653 0.906515C0.684759 0.737989 0.755506 0.578282 0.876219 0.460525C0.996931 0.342767 1.15834 0.275998 1.32697 0.27407C1.49559 0.272141 1.65849 0.3352 1.78186 0.450167L7.37968 6.19891L12.3344 2.66829C12.4605 2.57845 12.6143 2.53609 12.7686 2.5487C12.9229 2.56131 13.0678 2.62808 13.1776 2.7372L19.0314 8.52203V4.67969C19.0314 4.50565 19.1005 4.33873 19.2236 4.21565C19.3467 4.09258 19.5136 4.02344 19.6876 4.02344C19.8617 4.02344 20.0286 4.09258 20.1517 4.21565C20.2748 4.33873 20.3439 4.50565 20.3439 4.67969V10.0938Z"
            fill="#D64F3C" />

    </symbol>
    <symbol id="shop" viewBox="0 0 24 24">
        <path
            d="M10.875 18C10.7755 18 10.6802 18.0395 10.6098 18.1098C10.5395 18.1802 10.5 18.2755 10.5 18.375V18.75C10.5 18.8495 10.5395 18.9448 10.6098 19.0152C10.6802 19.0855 10.7755 19.125 10.875 19.125C10.9745 19.125 11.0698 19.0855 11.1402 19.0152C11.2105 18.9448 11.25 18.8495 11.25 18.75V18.375C11.25 18.2755 11.2105 18.1802 11.1402 18.1098C11.0698 18.0395 10.9745 18 10.875 18Z" />
        <path
            d="M13.125 18C13.0255 18 12.9302 18.0395 12.8598 18.1098C12.7895 18.1802 12.75 18.2755 12.75 18.375V18.75C12.75 18.8495 12.7895 18.9448 12.8598 19.0152C12.9302 19.0855 13.0255 19.125 13.125 19.125C13.2245 19.125 13.3198 19.0855 13.3902 19.0152C13.4605 18.9448 13.5 18.8495 13.5 18.75V18.375C13.5 18.2755 13.4605 18.1802 13.3902 18.1098C13.3198 18.0395 13.2245 18 13.125 18Z" />
        <path
            d="M9.375 4.5C9.375 4.20163 9.25647 3.91548 9.04549 3.70451C8.83452 3.49353 8.54837 3.375 8.25 3.375C8.17583 3.375 8.10333 3.35301 8.04166 3.3118C7.97999 3.2706 7.93193 3.21203 7.90354 3.14351C7.87516 3.07498 7.86774 2.99958 7.88221 2.92684C7.89667 2.8541 7.93239 2.78728 7.98483 2.73484C8.03728 2.68239 8.1041 2.64668 8.17684 2.63221C8.24958 2.61774 8.32498 2.62516 8.39351 2.65355C8.46203 2.68193 8.52059 2.72999 8.5618 2.79166C8.60301 2.85333 8.625 2.92583 8.625 3C8.625 3.09946 8.66451 3.19484 8.73483 3.26517C8.80516 3.33549 8.90054 3.375 9 3.375C9.09945 3.375 9.19484 3.33549 9.26516 3.26517C9.33549 3.19484 9.375 3.09946 9.375 3C9.375 2.7775 9.30902 2.55999 9.1854 2.37498C9.06179 2.18998 8.88608 2.04578 8.68052 1.96064C8.47495 1.87549 8.24875 1.85321 8.03052 1.89662C7.81229 1.94003 7.61184 2.04717 7.4545 2.20451C7.29717 2.36184 7.19003 2.5623 7.14662 2.78052C7.10321 2.99875 7.12549 3.22495 7.21064 3.43052C7.29578 3.63609 7.43998 3.81179 7.62498 3.9354C7.80999 4.05902 8.0275 4.125 8.25 4.125C8.32417 4.125 8.39667 4.14699 8.45834 4.1882C8.52001 4.2294 8.56807 4.28797 8.59645 4.35649C8.62484 4.42502 8.63226 4.50042 8.61779 4.57316C8.60332 4.6459 8.56761 4.71272 8.51516 4.76517C8.46272 4.81761 8.3959 4.85333 8.32316 4.86779C8.25042 4.88226 8.17502 4.87484 8.10649 4.84646C8.03797 4.81807 7.9794 4.77001 7.9382 4.70834C7.89699 4.64667 7.875 4.57417 7.875 4.5C7.875 4.40054 7.83549 4.30516 7.76517 4.23484C7.69484 4.16451 7.59946 4.125 7.5 4.125C7.40054 4.125 7.30516 4.16451 7.23484 4.23484C7.16451 4.30516 7.125 4.40054 7.125 4.5C7.125 4.79837 7.24353 5.08452 7.4545 5.2955C7.66548 5.50647 7.95163 5.625 8.25 5.625C8.54837 5.625 8.83452 5.50647 9.04549 5.2955C9.25647 5.08452 9.375 4.79837 9.375 4.5Z" />
        <path
            d="M13.5 5.625C13.7984 5.625 14.0845 5.50647 14.2955 5.2955C14.5065 5.08452 14.625 4.79837 14.625 4.5V3C14.625 2.70163 14.5065 2.41548 14.2955 2.2045C14.0845 1.99353 13.7984 1.875 13.5 1.875C13.2016 1.875 12.9155 1.99353 12.7045 2.2045C12.4935 2.41548 12.375 2.70163 12.375 3V4.5C12.375 4.79837 12.4935 5.08452 12.7045 5.2955C12.9155 5.50647 13.2016 5.625 13.5 5.625ZM13.125 3C13.125 2.90054 13.1645 2.80516 13.2348 2.73484C13.3052 2.66451 13.4005 2.625 13.5 2.625C13.5995 2.625 13.6948 2.66451 13.7652 2.73484C13.8355 2.80516 13.875 2.90054 13.875 3V4.5C13.875 4.59946 13.8355 4.69484 13.7652 4.76516C13.6948 4.83549 13.5995 4.875 13.5 4.875C13.4005 4.875 13.3052 4.83549 13.2348 4.76516C13.1645 4.69484 13.125 4.59946 13.125 4.5V3Z" />
        <path
            d="M10.125 5.625C10.2245 5.625 10.3198 5.58549 10.3902 5.51516C10.4605 5.44484 10.5 5.34946 10.5 5.25V4.125H11.25V5.25C11.25 5.34946 11.2895 5.44484 11.3598 5.51516C11.4302 5.58549 11.5255 5.625 11.625 5.625C11.7245 5.625 11.8198 5.58549 11.8902 5.51516C11.9605 5.44484 12 5.34946 12 5.25V2.25C12 2.15054 11.9605 2.05516 11.8902 1.98484C11.8198 1.91451 11.7245 1.875 11.625 1.875C11.5255 1.875 11.4302 1.91451 11.3598 1.98484C11.2895 2.05516 11.25 2.15054 11.25 2.25V3.375H10.5V2.25C10.5 2.15054 10.4605 2.05516 10.3902 1.98484C10.3198 1.91451 10.2245 1.875 10.125 1.875C10.0255 1.875 9.93016 1.91451 9.85983 1.98484C9.78951 2.05516 9.75 2.15054 9.75 2.25V5.25C9.75 5.34946 9.78951 5.44484 9.85983 5.51516C9.93016 5.58549 10.0255 5.625 10.125 5.625Z" />
        <path
            d="M15.375 5.625C15.4745 5.625 15.5698 5.58549 15.6402 5.51516C15.7105 5.44484 15.75 5.34946 15.75 5.25V4.125H16.125C16.4234 4.125 16.7095 4.00647 16.9205 3.7955C17.1315 3.58452 17.25 3.29837 17.25 3C17.25 2.70163 17.1315 2.41548 16.9205 2.2045C16.7095 1.99353 16.4234 1.875 16.125 1.875H15.375C15.2755 1.875 15.1802 1.91451 15.1098 1.98484C15.0395 2.05516 15 2.15054 15 2.25V5.25C15 5.34946 15.0395 5.44484 15.1098 5.51516C15.1802 5.58549 15.2755 5.625 15.375 5.625ZM15.75 2.625H16.125C16.2245 2.625 16.3198 2.66451 16.3902 2.73484C16.4605 2.80516 16.5 2.90054 16.5 3C16.5 3.09946 16.4605 3.19484 16.3902 3.26516C16.3198 3.33549 16.2245 3.375 16.125 3.375H15.75V2.625Z" />
        <path
            d="M22.125 21H21.375V13.4625C21.798 13.3749 22.1779 13.1445 22.4511 12.8099C22.7242 12.4753 22.8739 12.0569 22.875 11.625V10.875C22.8755 10.8048 22.856 10.7358 22.8187 10.6762L20.9437 7.67625C20.9097 7.6225 20.8626 7.57819 20.8069 7.54739C20.7512 7.51659 20.6886 7.50029 20.625 7.5H15.75V6.75H17.625C17.9231 6.74911 18.2087 6.6303 18.4195 6.41951C18.6303 6.20873 18.7491 5.92309 18.75 5.625V1.875C18.7491 1.57691 18.6303 1.29127 18.4195 1.08049C18.2087 0.869703 17.9231 0.75089 17.625 0.75H6.375C6.07691 0.75089 5.79127 0.869703 5.58049 1.08049C5.3697 1.29127 5.25089 1.57691 5.25 1.875V5.625C5.25089 5.92309 5.3697 6.20873 5.58049 6.41951C5.79127 6.6303 6.07691 6.74911 6.375 6.75H8.25V7.5H3.375C3.31135 7.50029 3.2488 7.51659 3.1931 7.54739C3.1374 7.57819 3.09034 7.6225 3.05625 7.67625L1.18125 10.6762C1.14404 10.7358 1.12453 10.8048 1.125 10.875V11.625C1.12611 12.0569 1.2758 12.4753 1.54894 12.8099C1.82208 13.1445 2.20204 13.3749 2.625 13.4625V21H1.875C1.57691 21.0009 1.29127 21.1197 1.08049 21.3305C0.869703 21.5413 0.75089 21.8269 0.75 22.125V22.875C0.75 22.9745 0.789509 23.0698 0.859835 23.1402C0.930161 23.2105 1.02554 23.25 1.125 23.25H22.875C22.9745 23.25 23.0698 23.2105 23.1402 23.1402C23.2105 23.0698 23.25 22.9745 23.25 22.875V22.125C23.2491 21.8269 23.1303 21.5413 22.9195 21.3305C22.7087 21.1197 22.4231 21.0009 22.125 21ZM22.125 11.625C22.125 11.9234 22.0065 12.2095 21.7955 12.4205C21.5845 12.6315 21.2984 12.75 21 12.75C20.7016 12.75 20.4155 12.6315 20.2045 12.4205C19.9935 12.2095 19.875 11.9234 19.875 11.625V11.25H22.125V11.625ZM16.5 15H7.5C7.20191 15.0009 6.91627 15.1197 6.70549 15.3305C6.4947 15.5413 6.37589 15.8269 6.375 16.125V21H3.375V13.4625C3.82654 13.3685 4.22731 13.1107 4.5 12.7388C4.67256 12.9746 4.89832 13.1665 5.15895 13.2988C5.41958 13.431 5.70773 13.5 6 13.5C6.29227 13.5 6.58042 13.431 6.84105 13.2988C7.10168 13.1665 7.32744 12.9746 7.5 12.7388C7.67256 12.9746 7.89832 13.1665 8.15895 13.2988C8.41958 13.431 8.70773 13.5 9 13.5C9.29227 13.5 9.58042 13.431 9.84105 13.2988C10.1017 13.1665 10.3274 12.9746 10.5 12.7388C10.6726 12.9746 10.8983 13.1665 11.159 13.2988C11.4196 13.431 11.7077 13.5 12 13.5C12.2923 13.5 12.5804 13.431 12.841 13.2988C13.1017 13.1665 13.3274 12.9746 13.5 12.7388C13.6726 12.9746 13.8983 13.1665 14.159 13.2988C14.4196 13.431 14.7077 13.5 15 13.5C15.2923 13.5 15.5804 13.431 15.841 13.2988C16.1017 13.1665 16.3274 12.9746 16.5 12.7388C16.6726 12.9746 16.8983 13.1665 17.159 13.2988C17.4196 13.431 17.7077 13.5 18 13.5C18.2923 13.5 18.5804 13.431 18.841 13.2988C19.1017 13.1665 19.3274 12.9746 19.5 12.7388C19.7727 13.1107 20.1735 13.3685 20.625 13.4625V21H17.625V16.125C17.6241 15.8269 17.5053 15.5413 17.2945 15.3305C17.0837 15.1197 16.7981 15.0009 16.5 15ZM16.875 16.125V21H12.375V15.75H16.5C16.5995 15.75 16.6948 15.7895 16.7652 15.8598C16.8355 15.9302 16.875 16.0255 16.875 16.125ZM11.625 15.75V21H7.125V16.125C7.125 16.0255 7.16451 15.9302 7.23483 15.8598C7.30516 15.7895 7.40054 15.75 7.5 15.75H11.625ZM4.875 11.625V11.25H7.125V11.625C7.125 11.9234 7.00647 12.2095 6.7955 12.4205C6.58452 12.6315 6.29837 12.75 6 12.75C5.70163 12.75 5.41548 12.6315 5.2045 12.4205C4.99353 12.2095 4.875 11.9234 4.875 11.625ZM7.875 11.625V11.25H10.125V11.625C10.125 11.9234 10.0065 12.2095 9.7955 12.4205C9.58452 12.6315 9.29837 12.75 9 12.75C8.70163 12.75 8.41548 12.6315 8.2045 12.4205C7.99353 12.2095 7.875 11.9234 7.875 11.625ZM13.125 11.25V11.625C13.125 11.9234 13.0065 12.2095 12.7955 12.4205C12.5845 12.6315 12.2984 12.75 12 12.75C11.7016 12.75 11.4155 12.6315 11.2045 12.4205C10.9935 12.2095 10.875 11.9234 10.875 11.625V11.25H13.125ZM10.9237 10.5L11.205 8.25H12.795L13.0763 10.5H10.9237ZM9 7.5V6.75H15V7.5H9ZM13.875 11.625V11.25H16.125V11.625C16.125 11.9234 16.0065 12.2095 15.7955 12.4205C15.5845 12.6315 15.2984 12.75 15 12.75C14.7016 12.75 14.4155 12.6315 14.2045 12.4205C13.9935 12.2095 13.875 11.9234 13.875 11.625ZM16.875 11.625V11.25H19.125V11.625C19.125 11.9234 19.0065 12.2095 18.7955 12.4205C18.5845 12.6315 18.2984 12.75 18 12.75C17.7016 12.75 17.4155 12.6315 17.2045 12.4205C16.9935 12.2095 16.875 11.9234 16.875 11.625ZM20.4188 8.25L21.825 10.5H19.7325L18.6075 8.25H20.4188ZM17.7675 8.25L18.8925 10.5H16.7587L15.915 8.25H17.7675ZM15.96 10.5H13.83L13.5487 8.25H15.1163L15.96 10.5ZM6.375 6C6.27554 6 6.18016 5.96049 6.10983 5.89016C6.03951 5.81984 6 5.72446 6 5.625V1.875C6 1.77554 6.03951 1.68016 6.10983 1.60984C6.18016 1.53951 6.27554 1.5 6.375 1.5H17.625C17.7245 1.5 17.8198 1.53951 17.8902 1.60984C17.9605 1.68016 18 1.77554 18 1.875V5.625C18 5.72446 17.9605 5.81984 17.8902 5.89016C17.8198 5.96049 17.7245 6 17.625 6H6.375ZM8.88375 8.25H10.4513L10.17 10.5H8.04L8.88375 8.25ZM8.085 8.25L7.24125 10.5H5.1075L6.2325 8.25H8.085ZM3.58125 8.25H5.3925L4.2675 10.5H2.175L3.58125 8.25ZM1.875 11.625V11.25H4.125V11.625C4.125 11.9234 4.00647 12.2095 3.7955 12.4205C3.58452 12.6315 3.29837 12.75 3 12.75C2.70163 12.75 2.41548 12.6315 2.2045 12.4205C1.99353 12.2095 1.875 11.9234 1.875 11.625ZM22.5 22.5H1.5V22.125C1.5 22.0255 1.53951 21.9302 1.60984 21.8598C1.68016 21.7895 1.77554 21.75 1.875 21.75H22.125C22.2245 21.75 22.3198 21.7895 22.3902 21.8598C22.4605 21.9302 22.5 22.0255 22.5 22.125V22.5Z" />

    </symbol>
    <symbol id="lock" viewBox="0 0 21 21">

        <path
            d="M10.4999 0.617188C7.41166 0.617188 4.94108 3.08778 4.94108 6.17601V8.6466C3.89108 8.6466 3.08813 9.44955 3.08813 10.4995V18.529C3.08813 19.579 3.89108 20.3819 4.94108 20.3819H16.0587C17.1087 20.3819 17.9117 19.579 17.9117 18.529V10.4995C17.9117 9.44955 17.1087 8.6466 16.0587 8.6466V6.17601C16.0587 3.08778 13.5881 0.617188 10.4999 0.617188ZM16.6764 10.4995V18.529C16.6764 18.8996 16.4293 19.1466 16.0587 19.1466H4.94108C4.57049 19.1466 4.32343 18.8996 4.32343 18.529V10.4995C4.32343 10.129 4.57049 9.8819 4.94108 9.8819H5.55872H15.4411H16.0587C16.4293 9.8819 16.6764 10.129 16.6764 10.4995ZM6.17637 8.6466V6.17601C6.17637 3.76719 8.09108 1.85248 10.4999 1.85248C12.9087 1.85248 14.8234 3.76719 14.8234 6.17601V8.6466H6.17637Z" />
        <path
            d="M10.4998 11.7344C9.44979 11.7344 8.64685 12.5373 8.64685 13.5873C8.64685 14.3903 9.14097 15.0697 9.88215 15.3167V16.6756C9.88215 17.0461 10.1292 17.2932 10.4998 17.2932C10.8704 17.2932 11.1174 17.0461 11.1174 16.6756V15.3167C11.8586 15.0697 12.3527 14.3903 12.3527 13.5873C12.3527 12.5373 11.5498 11.7344 10.4998 11.7344ZM10.4998 14.205C10.1292 14.205 9.88215 13.9579 9.88215 13.5873C9.88215 13.2167 10.1292 12.9697 10.4998 12.9697C10.8704 12.9697 11.1174 13.2167 11.1174 13.5873C11.1174 13.9579 10.8704 14.205 10.4998 14.205Z" />

    </symbol>
    <symbol id="settings" viewBox="0 0 26 26">

        <path
            d="M17.4688 24.3661H8.53128C7.3564 24.3661 5.97678 23.5698 5.39015 22.5526L0.921402 14.8143C0.325027 13.7808 0.325027 12.2208 0.921402 11.1865L5.39096 3.44827C5.97759 2.43102 7.35721 1.63477 8.53209 1.63477H17.4688C18.6437 1.63477 20.0233 2.43102 20.6099 3.44827L25.0786 11.1865C25.675 12.22 25.675 13.78 25.0786 14.8143L20.6091 22.5526C20.0233 23.5698 18.6428 24.3661 17.4688 24.3661ZM8.53128 3.25895C7.92596 3.25895 7.09965 3.73589 6.7974 4.25995L2.32784 11.9982C2.02559 12.5223 2.02559 13.477 2.32784 14.001L6.79659 21.7393C7.09965 22.2641 7.92596 22.7403 8.53046 22.7403H17.4688C18.0741 22.7403 18.9004 22.2633 19.2027 21.7393L23.6722 14.001C23.9745 13.477 23.9745 12.5223 23.6722 11.9982L19.2035 4.25995C18.9004 3.73508 18.0741 3.25895 17.4696 3.25895H8.53128ZM13 17.8068C10.3488 17.8068 8.19246 15.6504 8.19246 13C8.19246 10.3496 10.3488 8.19326 13 8.19326C15.6512 8.19326 17.8076 10.3496 17.8076 13C17.8076 15.6504 15.6512 17.8068 13 17.8068ZM13 9.81826C11.245 9.81826 9.81746 11.2458 9.81746 13C9.81746 14.7542 11.245 16.1818 13 16.1818C14.755 16.1818 16.1826 14.7542 16.1826 13C16.1826 11.2458 14.755 9.81826 13 9.81826Z" />

    </symbol>
    <symbol id="settings-1" viewBox="0 0 23 23">

        <path
            d="M22.4879 9.55039L19.7971 8.89004C19.6488 8.41836 19.4602 7.96016 19.2311 7.51543L20.6057 5.22441C20.7674 4.95488 20.727 4.61797 20.5113 4.40234L18.5977 2.48867C18.382 2.27305 18.0451 2.23262 17.7756 2.39434L15.4846 3.76895C15.0398 3.53984 14.5816 3.35117 14.11 3.20293L13.4631 0.512109C13.3822 0.215625 13.1127 0 12.8027 0H10.1074C9.79746 0 9.52793 0.215625 9.44707 0.512109L8.80019 3.20293C8.32852 3.35117 7.87031 3.53984 7.42559 3.76895L5.13457 2.39434C4.86504 2.23262 4.52812 2.27305 4.3125 2.48867L2.39883 4.40234C2.1832 4.61797 2.14277 4.95488 2.30449 5.22441L3.6791 7.51543C3.45 7.96016 3.26133 8.41836 3.11309 8.89004L0.512109 9.55039C0.215625 9.61777 0 9.8873 0 10.1973V12.8926C0 13.2025 0.215625 13.4721 0.512109 13.5395L3.11309 14.1998C3.26133 14.6715 3.45 15.1297 3.6791 15.5744L2.30449 17.8654C2.14277 18.135 2.1832 18.4719 2.39883 18.6875L4.3125 20.6012C4.52812 20.8168 4.86504 20.8572 5.13457 20.6955L7.42559 19.3209C7.87031 19.55 8.32852 19.7387 8.80019 19.8869L9.44707 22.4879C9.52793 22.7844 9.79746 23 10.1074 23H12.8027C13.1127 23 13.3822 22.7844 13.4631 22.4879L14.11 19.8869C14.5816 19.7387 15.0398 19.55 15.4846 19.3209L17.7756 20.6955C18.0451 20.8572 18.382 20.8168 18.5977 20.6012L20.5113 18.6875C20.727 18.4719 20.7674 18.135 20.6057 17.8654L19.2311 15.5744C19.4602 15.1297 19.6488 14.6715 19.7971 14.1998L22.4879 13.5395C22.7844 13.4721 23 13.2025 23 12.8926V10.1973C23 9.8873 22.7844 9.61777 22.4879 9.55039ZM11.4551 14.9141C9.59531 14.9141 8.08594 13.4047 8.08594 11.5449C8.08594 9.68516 9.59531 8.17578 11.4551 8.17578C13.3148 8.17578 14.8242 9.68516 14.8242 11.5449C14.8242 13.4047 13.3148 14.9141 11.4551 14.9141Z" />

    </symbol>
    <symbol id="contract" viewBox="0 0 28 28">

        <g clip-path="url(#clip0_231_1742)">
            <path
                d="M13.9817 17.3537C14.8767 18.2486 19.6624 13.8975 21.5145 12.1252L19.2096 9.82031C17.4333 11.6712 13.0766 16.4435 13.9817 17.3537Z" />
            <path
                d="M25.0438 4.65165C23.6722 5.63077 22.0321 7.04729 20.3716 8.6632L22.6729 10.9645C24.2888 9.30397 25.7053 7.66384 26.6844 6.29227C27.7803 4.75818 28.2129 3.74324 27.9013 3.43157C27.4323 2.96263 25.5842 4.26528 25.0438 4.65165Z" />
            <path d="M4.97663 4.97638V0.480469L0.480713 4.97638H4.97663Z" />
            <path
                d="M13.5429 18.9538L12.0015 20.4953L10.8415 19.3353L12.3306 17.8461C11.8506 16.7673 12.2623 14.4345 18.6224 8.07446C19.5702 7.12629 20.5224 6.23626 21.4375 5.43837V0.000976562H6.61716V6.61814H0V28.0009H21.4374V14.4692C19.4964 16.2627 15.7776 19.7245 13.5429 18.9538ZM3.33592 8.25876H11.5937V9.89937H3.33592V8.25876ZM3.33592 11.54H8.25778V13.1806H3.33592V11.54ZM3.33592 14.8212H8.25778V16.4618H3.33592V14.8212ZM10.0252 24.1811C9.79766 23.6788 9.43159 23.2086 9.21688 23.0659C9.16641 23.1605 9.10795 23.2943 9.06868 23.3864C8.72021 24.1945 8.20632 24.8018 7.30611 24.6544C6.316 24.4934 6.1678 23.42 6.04841 22.5572C5.99712 22.1879 5.90262 21.5022 5.75764 21.3596C5.54294 21.3836 5.06388 22.534 4.97496 23.8974L3.33756 23.7925C3.38082 23.1164 3.70047 19.743 5.79691 19.743C7.31574 19.743 7.54001 21.3636 7.67383 22.3321C7.67542 22.3441 7.67706 22.3553 7.67864 22.3674C7.91495 21.9107 8.3694 21.3836 9.13283 21.3836C10.5011 21.3836 11.363 23.154 11.5224 23.5097L10.0252 24.1811Z" />
        </g>
        <defs>
            <clipPath id="clip0_231_1742">
                <rect width="28" height="28" fill="white" />
            </clipPath>
        </defs>

    </symbol>
    <symbol id="settings-2" viewBox="0 0 97 40">
        <path
            d="M94.8283 40.2442L83.4831 37.4911C82.8496 35.4952 82.051 33.5639 81.0969 31.7198L86.9175 22.0192C87.5883 20.901 87.4122 19.4697 86.4901 18.5477L78.4525 10.5099C77.5305 9.58784 76.099 9.41165 74.9812 10.0825L65.2799 15.9029C63.4355 14.9484 61.5039 14.1499 59.5089 13.5167L56.7558 2.1717C56.4464 0.89725 55.3055 0 53.9941 0H42.627C41.3156 0 40.1747 0.89725 39.8653 2.1717L37.1122 13.5167C35.1172 14.1499 33.1856 14.9486 31.3412 15.9029L21.6401 10.0825C20.5221 9.41165 19.091 9.58784 18.1687 10.5099L10.131 18.5475C9.20894 19.4695 9.03275 20.9008 9.7036 22.019L15.5242 31.7196C14.568 33.5675 13.7679 35.5031 13.134 37.5034L2.15276 40.2487C0.887588 40.5651 0 41.7019 0 43.0059V54.373C0 55.6771 0.887588 56.8138 2.15257 57.13L13.1338 59.8753C13.7681 61.876 14.5676 63.811 15.5238 65.659L9.70341 75.3595C9.03256 76.4777 9.20875 77.909 10.1308 78.8311L18.1686 86.869C19.0904 87.7911 20.5218 87.9673 21.6401 87.2964L31.3407 81.476C33.1886 82.4322 35.1244 83.2321 37.1245 83.8662L39.8698 94.8474C40.1862 96.1124 41.3229 97 42.627 97H53.9941C55.2981 97 56.4349 96.1124 56.7511 94.8474L59.4964 83.8662C61.4967 83.2321 63.4323 82.4322 65.2802 81.476L74.9808 87.2964C76.0988 87.9673 77.5303 87.7911 78.4523 86.869L86.4901 78.8311C87.4122 77.909 87.5883 76.4777 86.9175 75.3595L81.0971 65.659C82.0512 63.8152 82.8496 61.8839 83.4831 59.888L94.8283 57.1347C96.1027 56.8255 97 55.6844 97 54.373V43.0059C97 41.6945 96.1027 40.5534 94.8283 40.2442ZM91.3164 52.1384L80.5471 54.752C79.5368 54.9971 78.7409 55.7744 78.4721 56.7789C77.7624 59.4309 76.716 61.9618 75.3626 64.3011C74.8452 65.1956 74.8537 66.3003 75.3855 67.1863L80.9024 76.3811L76.0025 81.2811L66.808 75.7644C65.9219 75.2326 64.817 75.2239 63.9228 75.7413C61.5825 77.0951 59.0514 78.1413 56.3998 78.8512C55.4022 79.1181 54.6279 79.9053 54.3776 80.9071L51.7753 91.3164H44.8458L42.2435 80.9071C41.9932 79.9053 41.2189 79.1181 40.2213 78.8512C37.5697 78.1415 35.0386 77.0951 32.6983 75.7413C31.8041 75.2241 30.6994 75.2326 29.8131 75.7644L20.6186 81.2811L15.7187 76.3811L21.2356 67.1863C21.7674 66.3003 21.7761 65.1954 21.2585 64.3011C19.9049 61.9618 18.8587 59.4309 18.149 56.7789C17.8821 55.7814 17.0949 55.0071 16.0929 54.7567L5.68359 52.1542V45.2245L16.0929 42.6222C17.0947 42.3718 17.8819 41.5977 18.149 40.6C18.8587 37.948 19.9051 35.4171 21.2587 33.0772C21.7759 32.1828 21.7672 31.0781 21.2356 30.192L15.7187 20.9973L20.6186 16.0975L29.8137 21.6143C30.6994 22.1459 31.8043 22.1546 32.6987 21.6373C35.0399 20.2829 37.571 19.2367 40.2211 18.5276C41.2256 18.2589 42.0029 17.463 42.2482 16.4525L44.8616 5.68359H51.7595L54.3729 16.4529C54.6182 17.4632 55.3955 18.2591 56.4 18.5279C59.0501 19.2371 61.5812 20.2832 63.9224 21.6376C64.8165 22.155 65.9215 22.1463 66.8074 21.6147L76.0025 16.0978L80.9024 20.9977L75.3855 30.1924C74.8539 31.0785 74.845 32.1832 75.3624 33.0776C76.7162 35.4175 77.7624 37.9484 78.4721 40.6004C78.7409 41.6047 79.5368 42.3822 80.5471 42.6273L91.3164 45.2405V52.1384Z" />
        <path
            d="M48.3105 28.7969C37.3418 28.7969 28.418 37.7207 28.418 48.6895C28.418 59.6582 37.3418 68.582 48.3105 68.582C59.2793 68.582 68.2031 59.6582 68.2031 48.6895C68.2031 37.7207 59.2793 28.7969 48.3105 28.7969ZM48.3105 62.8984C40.4757 62.8984 34.1016 56.5243 34.1016 48.6895C34.1016 40.8546 40.4757 34.4805 48.3105 34.4805C56.1454 34.4805 62.5195 40.8546 62.5195 48.6895C62.5195 56.5243 56.1454 62.8984 48.3105 62.8984Z" />

    </symbol>
    <symbol id="marker-1" viewBox="0 0 74 42">

        <path
            d="M36.96 0C16.5798 0 0 16.5798 0 36.96C0 43.6693 3.00898 50.8852 3.13507 51.1895C4.1069 53.4963 6.02447 57.0792 7.40721 59.1794L32.7487 97.5765C33.7858 99.1505 35.3207 100.053 36.96 100.053C38.5992 100.053 40.1342 99.1505 41.1712 97.5787L66.5149 59.1794C67.8998 57.0792 69.8152 53.4963 70.787 51.1895C70.9131 50.8873 73.9199 43.6715 73.9199 36.96C73.9199 16.5798 57.3401 0 36.96 0ZM66.778 49.5024C65.9105 51.57 64.1255 54.9029 62.8841 56.7857L37.5405 95.1849C37.0404 95.9437 36.8817 95.9437 36.3816 95.1849L11.038 56.7857C9.79656 54.9029 8.01161 51.5678 7.14414 49.5003C7.10718 49.4111 4.34823 42.7692 4.34823 36.96C4.34823 18.9779 18.9779 4.34823 36.96 4.34823C54.9421 4.34823 69.5717 18.9779 69.5717 36.96C69.5717 42.7779 66.8062 49.4372 66.778 49.5024Z" />
        <path
            d="M36.9599 17.3945C26.1697 17.3945 17.3928 26.1736 17.3928 36.9616C17.3928 47.7495 26.1697 56.5286 36.9599 56.5286C47.75 56.5286 56.5269 47.7495 56.5269 36.9616C56.5269 26.1736 47.75 17.3945 36.9599 17.3945ZM36.9599 52.1804C28.57 52.1804 21.7411 45.3537 21.7411 36.9616C21.7411 28.5695 28.57 21.7428 36.9599 21.7428C45.3498 21.7428 52.1787 28.5695 52.1787 36.9616C52.1787 45.3537 45.3498 52.1804 36.9599 52.1804Z" />
    </symbol>
    <symbol id="link" viewBox="0 0 103 53">

        <path
            d="M95.4874 -17.4874C90.6428 -22.3319 84.2017 -25 77.3506 -25C70.4993 -25 64.0584 -22.3319 59.2137 -17.4874L41.8981 -0.17197C38.8171 2.90898 36.6869 6.5856 35.5042 10.4901C31.4906 11.7082 27.814 13.9123 24.828 16.8983L7.51236 34.2137C2.66794 39.0584 0 45.4993 0 52.3506C0 59.2019 2.66794 65.6428 7.51256 70.4874C12.357 75.3319 18.7981 78 25.6494 78C32.5007 78 38.9418 75.3319 43.7863 70.4874L61.1019 53.172C64.1827 50.091 66.3131 46.4146 67.4956 42.5101C71.5092 41.2918 75.1858 39.0879 78.172 36.1019L95.4874 18.7863C100.332 13.9416 103 7.50072 103 0.649414C103 -6.20169 100.332 -12.6428 95.4874 -17.4874ZM36.051 27.0538C37.2965 30.3551 39.2454 33.4493 41.8981 36.1021C44.4705 38.6745 47.5671 40.6699 50.9438 41.9512C50.78 42.1397 50.6114 42.325 50.4332 42.5032L33.1175 59.8189C31.1227 61.8135 28.4704 62.9121 25.6494 62.9121C22.8284 62.9121 20.1761 61.8135 18.1813 59.8187C14.0633 55.7007 14.0633 49.0005 18.1813 44.8825L35.4968 27.567C35.6752 27.3886 35.8611 27.2186 36.051 27.0538ZM58.9679 51.0381L41.6524 68.3536C37.3779 72.6283 31.6946 74.9824 25.6494 74.9824C19.6042 74.9824 13.9209 72.6283 9.64639 68.3536C5.37169 64.0791 3.01758 58.3958 3.01758 52.3506C3.01758 46.3054 5.37169 40.6221 9.64619 36.3476L26.9619 19.0321C29.1768 16.817 31.8224 15.0925 34.7114 13.9602C34.1908 17.2805 34.3211 20.6839 35.1041 23.9624C34.4861 24.4022 33.9029 24.8934 33.3631 25.4332L16.0477 42.7486C13.4827 45.3136 12.0703 48.7235 12.0703 52.3506C12.0703 55.9777 13.4827 59.3876 16.0477 61.9525C18.6122 64.5173 22.0223 65.9297 25.6494 65.9297C29.2765 65.9297 32.6864 64.5173 35.2511 61.9525L52.5666 44.6369C55.1316 42.0721 56.544 38.6622 56.544 35.0351C56.544 31.408 55.1316 27.9981 52.5666 25.4332C48.4486 21.3152 48.4486 14.6152 52.5666 10.4972L69.8821 -6.81829C71.8773 -8.81331 74.5296 -9.91211 77.3506 -9.91211C80.1716 -9.91211 82.8239 -8.81331 84.8187 -6.81849C86.8133 -4.82387 87.9121 -2.17162 87.9121 0.649414C87.9121 3.47045 86.8133 6.1227 84.8185 8.11752L67.503 25.4332C67.3246 25.6116 67.1389 25.7814 66.949 25.9464C65.7035 22.6451 63.7548 19.5509 61.1019 16.8983C59.5795 15.3758 57.8765 14.0515 56.0407 12.9621C55.3245 12.5375 54.3983 12.7734 53.9732 13.4898C53.5481 14.2066 53.7843 15.132 54.5009 15.5573C56.1205 16.5183 57.6235 17.6875 58.9681 19.0321C67.7921 27.8561 67.7921 42.2139 58.9679 51.0381ZM93.3536 16.6524L76.0383 33.9681C73.8232 36.183 71.1776 37.9074 68.2886 39.04C68.8092 35.7197 68.6789 32.3163 67.8959 29.0378C68.5139 28.598 69.0973 28.1066 69.6369 27.567L86.9523 10.2515C89.5173 7.68641 90.9297 4.27654 90.9297 0.649414C90.9297 -2.97771 89.5173 -6.38758 86.9523 -8.95232C84.3876 -11.5173 80.9777 -12.9297 77.3506 -12.9297C73.7235 -12.9297 70.3136 -11.5173 67.7486 -8.95232L50.4332 8.36315C47.8684 10.9281 46.4558 14.338 46.4558 17.9651C46.4558 21.592 47.8682 25.0019 50.4332 27.5668C52.428 29.5616 53.5266 32.2139 53.5266 35.0349C53.5266 36.5461 53.2086 38.0074 52.6093 39.3466C49.3992 38.2317 46.4532 36.3894 44.0319 33.9679C35.2079 25.1439 35.2079 10.7859 44.0319 1.96166L61.3478 -15.3538C65.6221 -19.6283 71.3054 -21.9824 77.3506 -21.9824C83.3958 -21.9824 89.0791 -19.6283 93.3536 -15.3536C97.6283 -11.0791 99.9824 -5.3958 99.9824 0.649414C99.9824 6.69463 97.6283 12.3779 93.3536 16.6524Z" />
    </symbol>
    <symbol id="linkk" viewBox="0 0 180 180">
        <g clip-path="url(#clip0_51_3839)">
            <path d="M167.644 12.3568C151.169 -4.11886 124.458 -4.11886 107.982 12.3564L72.7224 47.616C55.6804 64.6587 57.2582 91.8134 72.7224 107.278C75.312 109.868 78.1772 111.979 81.2028 113.714L87.6381 107.278C91.859 103.057 90.3733 98.1218 90.2973 94.5609C89.371 93.9041 88.4699 93.1943 87.6381 92.3625C79.7023 84.4274 79.3455 70.8241 87.6381 62.5314C88.8696 61.2999 122.15 28.0199 122.897 27.2725C131.123 19.0463 144.502 19.0463 152.728 27.2725C160.954 35.4987 160.954 48.8774 152.728 57.1036L129.422 80.4098C130.096 84.1388 134.141 92.9722 132.06 107.544C132.162 107.444 132.283 107.38 132.385 107.279L167.644 72.019C184.119 55.5434 184.119 28.8324 167.644 12.3568Z" fill="#D0D0D0"/>
            <path d="M110.01 69.9895C107.421 67.3999 104.555 65.2885 101.53 63.5542L95.095 69.9895C90.8735 74.2104 92.3592 79.1453 92.4351 82.7063C93.3622 83.363 94.2632 84.0728 95.095 84.9046C103.031 92.8404 103.388 106.443 95.095 114.736C93.8607 115.97 57.8241 152.007 57.1031 152.728C48.8769 160.954 35.4981 160.954 27.2719 152.728C19.0457 144.501 19.0457 131.123 27.2719 122.897L53.3111 96.8574C52.6372 93.1283 48.5921 84.295 50.673 69.7234C50.5714 69.8233 50.449 69.8883 50.3478 69.9892L12.3562 107.982C-4.11873 124.457 -4.11873 151.168 12.3562 167.644C28.8318 184.119 55.5425 184.119 72.0181 167.644L110.01 129.652C126.736 112.926 125.822 85.8011 110.01 69.9895Z" fill="#FDB933"/>
        </g>
        <defs>
            <clipPath id="clip0_51_3839">
                <rect width="180" height="180" fill="white"/>
            </clipPath>
        </defs>
    </symbol>

    <symbol id="ask" viewBox="0 0 31 31">

        <path
            d="M15.4998 1.29199C12.6897 1.29199 9.94267 2.1253 7.60612 3.68653C5.26957 5.24776 3.44845 7.4668 2.37306 10.063C1.29766 12.6593 1.01629 15.5161 1.56452 18.2722C2.11275 21.0284 3.46596 23.5601 5.45303 25.5471C7.44011 27.5342 9.97179 28.8874 12.7279 29.4357C15.4841 29.9839 18.3409 29.7025 20.9371 28.6271C23.5334 27.5517 25.7524 25.7306 27.3136 23.3941C28.8749 21.0575 29.7082 18.3105 29.7082 15.5003C29.7037 11.7334 28.2054 8.12204 25.5417 5.45843C22.8781 2.79481 19.2668 1.29644 15.4998 1.29199ZM15.4998 24.542C15.2444 24.542 14.9946 24.4662 14.7822 24.3243C14.5698 24.1824 14.4043 23.9806 14.3065 23.7446C14.2087 23.5086 14.1832 23.2489 14.233 22.9983C14.2828 22.7478 14.4059 22.5176 14.5865 22.337C14.7671 22.1563 14.9973 22.0333 15.2479 21.9835C15.4984 21.9336 15.7581 21.9592 15.9941 22.057C16.2302 22.1547 16.4319 22.3203 16.5738 22.5327C16.7158 22.7451 16.7915 22.9949 16.7915 23.2503C16.7915 23.5929 16.6554 23.9214 16.4132 24.1637C16.171 24.4059 15.8424 24.542 15.4998 24.542ZM18.5223 15.8155C18.0104 16.1533 17.5864 16.6083 17.2854 17.1427C16.9844 17.6771 16.8151 18.2755 16.7915 18.8884V19.3753C16.7915 19.7179 16.6554 20.0464 16.4132 20.2887C16.171 20.5309 15.8424 20.667 15.4998 20.667C15.1573 20.667 14.8287 20.5309 14.5865 20.2887C14.3443 20.0464 14.2082 19.7179 14.2082 19.3753V18.8884C14.2287 17.866 14.4937 16.8635 14.9811 15.9646C15.4686 15.0657 16.1642 14.2966 17.0098 13.7217C17.4207 13.4264 17.7358 13.0169 17.916 12.5441C18.0962 12.0713 18.1336 11.556 18.0235 11.0621C17.9135 10.5683 17.6608 10.1176 17.2969 9.76603C16.933 9.41448 16.4738 9.17754 15.9765 9.08462C15.6032 9.01455 15.2191 9.02764 14.8515 9.12296C14.4839 9.21827 14.1418 9.39347 13.8496 9.63608C13.5574 9.87868 13.3223 10.1827 13.161 10.5266C12.9997 10.8704 12.9163 11.2456 12.9165 11.6253C12.9165 11.9679 12.7804 12.2964 12.5382 12.5387C12.296 12.7809 11.9674 12.917 11.6248 12.917C11.2823 12.917 10.9537 12.7809 10.7115 12.5387C10.4693 12.2964 10.3332 11.9679 10.3332 11.6253C10.3331 10.7406 10.5603 9.87059 10.993 9.09881C11.4256 8.32702 12.0492 7.67926 12.8039 7.2176C13.5587 6.75593 14.4194 6.49583 15.3035 6.46222C16.1877 6.4286 17.0656 6.6226 17.8533 7.02562C18.6409 7.42864 19.3119 8.02718 19.8019 8.76389C20.2919 9.50061 20.5845 10.3508 20.6516 11.233C20.7188 12.1152 20.5582 12.9999 20.1854 13.8023C19.8126 14.6047 19.2399 15.2979 18.5223 15.8155Z" />

    </symbol>
    <symbol id="ask-1" viewBox="0 0 97 53">

        <path
            d="M48.5 97C21.756 97 0 75.244 0 48.5C0 21.756 21.756 0 48.5 0C75.244 0 97 21.756 97 48.5C97 75.244 75.244 97 48.5 97ZM48.5 6.0625C25.0988 6.0625 6.0625 25.0988 6.0625 48.5C6.0625 71.9012 25.0988 90.9375 48.5 90.9375C71.9012 90.9375 90.9375 71.9012 90.9375 48.5C90.9375 25.0988 71.9012 6.0625 48.5 6.0625Z" />
        <path
            d="M48.5001 59.6144C46.8268 59.6144 45.4688 58.2564 45.4688 56.5832V52.5011C45.4688 48.6535 47.9103 45.2056 51.5395 43.9246C56.369 42.2232 59.6149 37.0776 59.6149 33.3433C59.6149 27.212 54.6314 22.2285 48.5001 22.2285C42.3688 22.2285 37.3853 27.212 37.3853 33.3433C37.3853 35.0166 36.0273 36.3746 34.354 36.3746C32.6807 36.3746 31.3228 35.0166 31.3228 33.3433C31.3228 23.8736 39.0267 16.166 48.5001 16.166C57.9735 16.166 65.6774 23.8736 65.6774 33.3433C65.6774 40.0852 60.3542 47.243 53.5561 49.6437C52.3439 50.0678 51.5313 51.2193 51.5313 52.5048V56.5832C51.5313 58.2564 50.1733 59.6144 48.5001 59.6144Z" />
    </symbol>
    <symbol id="refresh" viewBox="0 0 297 297">


        <path d="M296.141,186.356l-27.126-48.715c-1.336-2.4-3.989-3.766-6.714-3.45l-55.4,6.303c-2.261,0.257-4.244,1.627-5.284,3.651
				l-18.85,36.679c-1.156,2.249-0.969,4.953,0.485,7.023c1.454,2.068,3.929,3.159,6.444,2.836l23.051-2.993
				c-20.337,35.353-64.85,49.091-101.028,30.524c-11.011-5.65-20.55-13.969-27.589-24.062c-6.989-10.021-20.236-13.018-30.816-6.966
				c-5.686,3.253-9.774,8.785-11.212,15.178c-1.435,6.378-0.119,13.112,3.614,18.471c11.497,16.508,27.12,30.076,45.179,39.237
				c17.456,8.855,36.103,13.048,54.536,13.048c43.693-0.002,86.158-23.572,108.507-64.484l11.434,20.968
				c1.206,2.213,3.55,3.533,6.057,3.548c2.521-0.032,4.817-1.453,5.97-3.695l18.85-36.679
				C297.288,190.753,297.248,188.343,296.141,186.356z" />
        <path d="M95.385,152.854l18.85-36.679c1.156-2.249,0.969-4.953-0.485-7.023c-1.454-2.068-3.932-3.157-6.444-2.836l-23.051,2.993
				c20.335-35.353,64.848-49.092,101.028-30.524c11.012,5.65,20.551,13.97,27.589,24.061c6.989,10.022,20.235,13.016,30.816,6.968
				c5.686-3.253,9.774-8.785,11.212-15.178c1.436-6.379,0.119-13.112-3.614-18.472c-11.497-16.508-27.12-30.076-45.179-39.237
				C147.277,7.083,74.841,30.192,43.065,88.364L31.631,67.395c-1.193-2.189-3.486-3.548-5.975-3.548c-0.028,0-0.055,0-0.083,0
				c-2.521,0.032-4.817,1.453-5.97,3.695l-18.85,36.679c-1.04,2.023-1,4.433,0.107,6.42l27.126,48.715
				c1.209,2.174,3.495,3.494,5.943,3.494c0.256,0,0.513-0.014,0.771-0.044l55.4-6.303C92.362,156.248,94.345,154.878,95.385,152.854
				z" />


    </symbol>
    <symbol id="send" viewBox="0 0 17 17">
        <path
            d="M2.00556 1.60035C1.70966 1.67101 1.50831 1.99613 1.61297 2.29098C1.61297 2.29098 6.12063 15.0628 6.12222 15.0649C6.195 15.2609 6.382 15.4049 6.5961 15.4155C6.80169 15.4251 7.01578 15.2981 7.10291 15.1106L9.41225 10.1636C9.41225 10.1636 7.00197 7.75329 6.99772 7.74904C6.5196 7.27092 7.2591 6.50751 7.74891 6.99785L10.1634 9.41239C10.1634 9.41239 15.1051 7.10623 15.1131 7.10198C15.2937 7.00795 15.4085 6.82413 15.4175 6.62226C15.4276 6.40285 15.2597 6.19992 15.0632 6.12129C15.0632 6.12129 2.29881 1.61629 2.29085 1.61364C2.19894 1.58017 2.0996 1.57804 2.00556 1.60035Z" />
    </symbol>
    <symbol id="read-check" viewBox="0 0 13 18">
        <path
            d="M4.7022 18C4.29947 18 3.91556 17.8338 3.65199 17.5429L0.332904 13.8778C-0.164116 13.3288 -0.0969282 12.5026 0.483075 12.0321C1.06282 11.5612 1.93571 11.6248 2.43332 12.174L4.60316 14.57L11.461 6.74277C12.5225 5.33536 13.6336 6.11472 12.5673 7.52815L5.82738 17.4518C5.58012 17.7793 5.18761 17.9809 4.76307 17.9987C4.74257 17.9995 4.7224 18 4.7022 18Z"
            fill="#2DA840" />
        <path
            d="M4.7022 12C4.29947 12 3.91556 11.8338 3.65199 11.5429L0.332904 7.87777C-0.164116 7.32879 -0.0969282 6.50255 0.483075 6.03212C1.06282 5.56116 1.93571 5.62476 2.43332 6.17401L4.60316 8.56996L11.461 0.742768C12.5225 -0.664642 13.6336 0.114722 12.5673 1.52815L5.82738 11.4518C5.58012 11.7793 5.18761 11.9809 4.76307 11.9987C4.74257 11.9995 4.7224 12 4.7022 12Z"
            fill="#2DA840" />

    </symbol>
    <symbol id="check" viewBox="0 0 23 19">
        <path d="M8.80713 18.634C8.58758 18.8689 8.28804 19 7.97689 19C7.66573 19 7.36619 18.8689 7.14664 18.634L0.516081 11.5787C-0.172027 10.8467 -0.172027 9.65957 0.516081 8.92888L1.34633 8.04537C2.03465 7.31331 3.14917 7.31331 3.83728 8.04537L7.97689 12.4496L19.1627 0.549047C19.851 -0.183016 20.9666 -0.183016 21.6537 0.549047L22.4839 1.43256C23.172 2.16462 23.172 3.35147 22.4839 4.08239L8.80713 18.634Z" fill=""/>
    </symbol>
    <symbol id="checklist" viewBox="0 0 30 30" fill="none">
        <g clip-path="url(#clip0_103_7928)">
            <path d="M26.8328 15.4743C26.8328 22.8838 20.8262 28.8904 13.4161 28.8904C6.00662 28.8904 0 22.8838 0 15.4743C0 8.06424 6.00662 2.05762 13.4161 2.05762C17.013 2.05762 20.2793 3.47312 22.6883 5.77715C23.5968 6.64639 24.3839 7.64172 25.0201 8.73549C26.1724 10.716 26.8328 13.0182 26.8328 15.4743Z" fill="#FDB933"/>
            <path d="M25.0201 8.73471L14.5998 19.155C14.2461 19.5088 13.7765 19.7031 13.2773 19.7031C12.7775 19.7031 12.3079 19.5088 11.9541 19.155L7.864 15.0643C7.51027 14.7112 7.31592 14.2415 7.31592 13.7418C7.31592 13.2426 7.51027 12.7723 7.864 12.4193C8.21715 12.0661 8.68672 11.8718 9.18652 11.8718C9.68574 11.8718 10.156 12.0661 10.509 12.4193L13.2772 15.1875L22.6883 5.77637C23.5968 6.64561 24.3839 7.641 25.0201 8.73471Z" fill="#FDB933"/>
            <path d="M13.4166 27.4047C6.83759 27.4047 1.48523 22.0523 1.48523 15.4733C1.48523 8.89436 6.83759 3.54199 13.4166 3.54199C19.9955 3.54199 25.3479 8.89436 25.3479 15.4733C25.3479 22.0523 19.9956 27.4047 13.4166 27.4047Z" fill="#FDB933"/>
            <path d="M24.5634 15.4743C24.5634 21.63 19.5727 26.6207 13.4164 26.6207C7.26062 26.6207 2.2699 21.63 2.2699 15.4743C2.2699 9.31793 7.26062 4.32715 13.4164 4.32715C16.3868 4.32715 19.085 5.48853 21.0829 7.38269C21.9992 8.2507 22.7676 9.27264 23.3484 10.4074C24.1251 11.928 24.5634 13.6501 24.5634 15.4743Z" fill="#FDB933"/>
            <path d="M13.8085 26.6135C13.6781 26.6183 13.5477 26.6207 13.4161 26.6207C7.26038 26.6207 2.26965 21.63 2.26965 15.4743C2.26965 9.31793 7.26038 4.32715 13.4161 4.32715C13.5477 4.32715 13.6781 4.32955 13.8085 4.33441C7.83442 4.54084 3.05434 9.44953 3.05434 15.4743C3.05434 21.4983 7.83442 26.407 13.8085 26.6135Z" fill="#FFC95E" fill-opacity="0.4"/>
            <path d="M23.3481 10.4075L14.5998 19.1558C14.2461 19.5095 13.7765 19.7039 13.2773 19.7039C12.7775 19.7039 12.3079 19.5095 11.9541 19.1558L7.864 15.0651C7.51027 14.712 7.31592 14.2423 7.31592 13.7426C7.31592 13.2434 7.51027 12.7731 7.864 12.4201C8.21715 12.0669 8.68672 11.8726 9.18652 11.8726C9.68574 11.8726 10.156 12.0669 10.509 12.4201L13.2772 15.1883L21.0827 7.38281C21.999 8.25076 22.7674 9.27269 23.3481 10.4075Z" fill="#FDB933"/>
            <path d="M13.2772 18.9191C12.9892 18.9191 12.7131 18.8047 12.5095 18.6011L8.41882 14.5104C7.99483 14.0864 7.99483 13.3989 8.41882 12.975C8.8428 12.551 9.53023 12.551 9.95421 12.975L13.2772 16.298L28.1467 1.42834C28.5707 1.00436 29.2582 1.00436 29.6821 1.42834C30.1062 1.85232 30.1062 2.5398 29.6821 2.96373L14.0449 18.6011C13.8413 18.8047 13.5651 18.9191 13.2772 18.9191Z" fill="white"/>
            <path d="M13.4163 9.78125C14.1622 9.78125 14.7668 9.17657 14.7668 8.43067C14.7668 7.68476 14.1622 7.08008 13.4163 7.08008C12.6704 7.08008 12.0657 7.68476 12.0657 8.43067C12.0657 9.17657 12.6704 9.78125 13.4163 9.78125Z" fill="white"/>
            <path d="M15.0727 22.9728H11.7601C11.51 22.9728 11.3074 22.7701 11.3074 22.5201C11.3074 22.2701 11.51 22.0674 11.7601 22.0674H15.0727C15.3227 22.0674 15.5254 22.2701 15.5254 22.5201C15.5254 22.7701 15.3227 22.9728 15.0727 22.9728Z" fill="white"/>
            <path d="M15.0727 24.2179H11.7601C11.51 24.2179 11.3074 24.0152 11.3074 23.7652C11.3074 23.5152 11.51 23.3125 11.7601 23.3125H15.0727C15.3227 23.3125 15.5254 23.5152 15.5254 23.7652C15.5254 24.0152 15.3227 24.2179 15.0727 24.2179Z" fill="white"/>
        </g>
        <defs>
            <clipPath id="clip0_103_7928">
                <rect width="30" height="30" fill="white"/>
            </clipPath>
        </defs>
    </symbol>
    
    <symbol id="calender" viewBox="0 0 25 25" fill="none">
        <path d="M3.31482 25H20.7593C22.588 25 24.0741 23.5139 24.0741 21.6852V5.16664C24.0741 3.33794 22.588 1.85182 20.7593 1.85182H19.4445V0.925909C19.4445 0.416643 19.0277 0 18.5185 0C18.0092 0 17.5926 0.416643 17.5926 0.925909V1.85182H6.48152V0.925909C6.48152 0.416643 6.0648 0 5.55553 0C5.04626 0 4.62962 0.416643 4.62962 0.925909V1.85182H3.31482C1.48612 1.85182 0 3.33794 0 5.16664V21.6852C0 23.5139 1.48612 25 3.31482 25ZM1.85189 5.16664C1.85189 4.36111 2.50929 3.70371 3.31482 3.70371H4.62962V4.62962C4.62962 5.13889 5.04626 5.55553 5.55553 5.55553C6.0648 5.55553 6.48144 5.13889 6.48144 4.62962V3.70371H17.5926V4.62962C17.5926 5.13889 18.0092 5.55553 18.5185 5.55553C19.0277 5.55553 19.4444 5.13889 19.4444 4.62962V3.70371H20.7592C21.5647 3.70371 22.2221 4.36111 22.2221 5.16664V21.6852C22.2221 22.4907 21.5647 23.1481 20.7592 23.1481H3.31482C2.50929 23.1481 1.85189 22.4907 1.85189 21.6852V5.16664Z" fill="black"/>
        <path d="M6.71207 10.648C7.35128 10.648 7.86946 10.1298 7.86946 9.49064C7.86946 8.85143 7.35128 8.33325 6.71207 8.33325C6.07287 8.33325 5.55469 8.85143 5.55469 9.49064C5.55469 10.1298 6.07287 10.648 6.71207 10.648Z" fill="black"/>
        <path d="M11.8058 10.648C12.445 10.648 12.9632 10.1298 12.9632 9.49064C12.9632 8.85143 12.445 8.33325 11.8058 8.33325C11.1666 8.33325 10.6484 8.85143 10.6484 9.49064C10.6484 10.1298 11.1666 10.648 11.8058 10.648Z" fill="black"/>
        <path d="M16.8976 10.648C17.5368 10.648 18.055 10.1298 18.055 9.49064C18.055 8.85143 17.5368 8.33325 16.8976 8.33325C16.2584 8.33325 15.7402 8.85143 15.7402 9.49064C15.7402 10.1298 16.2584 10.648 16.8976 10.648Z" fill="black"/>
        <path d="M6.71207 15.2777C7.35128 15.2777 7.86946 14.7595 7.86946 14.1203C7.86946 13.4811 7.35128 12.9629 6.71207 12.9629C6.07287 12.9629 5.55469 13.4811 5.55469 14.1203C5.55469 14.7595 6.07287 15.2777 6.71207 15.2777Z" fill="black"/>
        <path d="M11.8058 15.2777C12.445 15.2777 12.9632 14.7595 12.9632 14.1203C12.9632 13.4811 12.445 12.9629 11.8058 12.9629C11.1666 12.9629 10.6484 13.4811 10.6484 14.1203C10.6484 14.7595 11.1666 15.2777 11.8058 15.2777Z" fill="black"/>
        <path d="M16.8976 15.2777C17.5368 15.2777 18.055 14.7595 18.055 14.1203C18.055 13.4811 17.5368 12.9629 16.8976 12.9629C16.2584 12.9629 15.7402 13.4811 15.7402 14.1203C15.7402 14.7595 16.2584 15.2777 16.8976 15.2777Z" fill="black"/>
        <path d="M6.71207 19.9073C7.35128 19.9073 7.86946 19.3891 7.86946 18.7499C7.86946 18.1107 7.35128 17.5925 6.71207 17.5925C6.07287 17.5925 5.55469 18.1107 5.55469 18.7499C5.55469 19.3891 6.07287 19.9073 6.71207 19.9073Z" fill="black"/>
        <path d="M11.8058 19.9073C12.445 19.9073 12.9632 19.3891 12.9632 18.7499C12.9632 18.1107 12.445 17.5925 11.8058 17.5925C11.1666 17.5925 10.6484 18.1107 10.6484 18.7499C10.6484 19.3891 11.1666 19.9073 11.8058 19.9073Z" fill="black"/>
        <path d="M16.8976 19.9073C17.5368 19.9073 18.055 19.3891 18.055 18.7499C18.055 18.1107 17.5368 17.5925 16.8976 17.5925C16.2584 17.5925 15.7402 18.1107 15.7402 18.7499C15.7402 19.3891 16.2584 19.9073 16.8976 19.9073Z" fill="black"/>
    </symbol>
    <symbol id="clock" viewBox="0 0 24 24" fill="none">
        <path d="M12 0C5.38332 0 0 5.38332 0 12C0 18.6166 5.38332 24 12 24C18.6166 24 24 18.6166 24 12C24 5.38332 18.6167 0 12 0ZM12 22.9565C5.95824 22.9565 1.04346 18.0417 1.04346 12C1.04346 5.95824 5.95824 1.04346 12 1.04346C18.0417 1.04346 22.9565 5.95824 22.9565 12C22.9565 18.0417 18.0417 22.9565 12 22.9565Z" fill="black"/>
        <path d="M17.0653 16.3272L12.522 11.7839V3.65213C12.522 3.36413 12.2883 3.13037 12.0003 3.13037C11.7123 3.13037 11.4785 3.36413 11.4785 3.65213V12C11.4785 12.1387 11.5338 12.2713 11.6309 12.3694L16.3265 17.065C16.4288 17.1662 16.5623 17.2174 16.6959 17.2174C16.8295 17.2174 16.963 17.1663 17.0653 17.065C17.2688 16.8615 17.2688 16.5307 17.0653 16.3272Z" fill="black"/>
    </symbol>
    <symbol id="delete" viewBox="0 0 23 24">
        <g clip-path="url(#clip0_51_2645)">
        <path d="M21.2798 4.15376H16.1842V2.99909C16.1842 1.31964 14.8721 -0.046875 13.2593 -0.046875H9.7533C8.1405 -0.046875 6.82854 1.31964 6.82854 2.99909V4.15376H1.73276C1.35985 4.15376 1.05762 4.46852 1.05762 4.85688C1.05762 5.24525 1.35985 5.56001 1.73276 5.56001H3.43645V21.8376C3.43645 23.0041 4.34773 23.9532 5.46787 23.9532H17.5447C18.6649 23.9532 19.5762 23.0041 19.5762 21.8376V5.56001H21.2798C21.6528 5.56001 21.955 5.24525 21.955 4.85688C21.955 4.46852 21.6528 4.15376 21.2798 4.15376ZM8.17866 2.99909C8.17866 2.09491 8.8851 1.35938 9.7533 1.35938H13.2593C14.1275 1.35938 14.8338 2.09491 14.8338 2.99909V4.15376H8.17866V2.99909ZM18.2259 21.8376C18.2259 22.2287 17.9205 22.5469 17.5447 22.5469H5.46787C5.09215 22.5469 4.78675 22.2287 4.78675 21.8376V5.56001H18.2259V21.8376Z" fill="#F50900"/>
        <path d="M8.01499 13.5552C7.64208 13.5552 7.33984 13.8699 7.33984 14.2583V20.7053C7.33984 21.0936 7.64208 21.4084 8.01499 21.4084C8.3879 21.4084 8.69014 21.0936 8.69014 20.7053V14.2583C8.69014 13.8699 8.3879 13.5552 8.01499 13.5552Z" fill="#F50900"/>
        <path d="M11.5062 13.5552C11.1335 13.5552 10.8311 13.8699 10.8311 14.2583V20.7053C10.8311 21.0936 11.1335 21.4084 11.5062 21.4084C11.8791 21.4084 12.1813 21.0936 12.1813 20.7053V14.2583C12.1813 13.8699 11.8791 13.5552 11.5062 13.5552Z" fill="#F50900"/>
        <path d="M14.9974 13.5552C14.6245 13.5552 14.3223 13.8699 14.3223 14.2583V20.7053C14.3223 21.0936 14.6245 21.4084 14.9974 21.4084C15.3703 21.4084 15.6726 21.0936 15.6726 20.7053V14.2583C15.6726 13.8699 15.3703 13.5552 14.9974 13.5552Z" fill="#F50900"/>
        </g>
        <defs>
        <clipPath id="clip0_51_2645">
        <rect width="23" height="24" fill="white"/>
        </clipPath>
        </defs>
    </symbol>
    <symbol id="edit" viewBox="0 0 27 27">
        <path d="M5.06728 18.1548C4.85928 18.1548 4.65169 18.0756 4.49284 17.9168C4.17556 17.5995 4.17556 17.0852 4.49284 16.7679L17.1898 4.07097C17.5067 3.75369 18.0214 3.75369 18.3387 4.07097C18.6559 4.38825 18.6559 4.90256 18.3387 5.21984L5.64172 17.9168C5.48328 18.0752 5.27528 18.1548 5.06728 18.1548Z" fill="black"/>
        <path d="M3.81233 24.0067C3.75586 24.0067 3.69858 24.0006 3.6413 23.9884C3.20255 23.8941 2.92305 23.4623 3.0173 23.0235L4.27261 17.1723C4.36686 16.7336 4.80074 16.4549 5.23745 16.5483C5.6762 16.6426 5.9557 17.0744 5.86145 17.5132L4.60614 23.3644C4.52449 23.7458 4.1873 24.0067 3.81233 24.0067Z" fill="black"/>
        <path d="M9.66201 22.7521C9.45401 22.7521 9.24641 22.6729 9.08757 22.514C8.77029 22.1967 8.77029 21.6824 9.08757 21.3652L21.7845 8.66862C22.1014 8.35134 22.6161 8.35134 22.9334 8.66862C23.2507 8.98591 23.2507 9.50022 22.9334 9.8175L10.2369 22.514C10.078 22.6729 9.87001 22.7521 9.66201 22.7521Z" fill="black"/>
        <path d="M3.811 24.0068C3.43603 24.0068 3.09925 23.746 3.01718 23.3645C2.92334 22.9258 3.20243 22.4939 3.64118 22.3997L9.4924 21.1444C9.93156 21.0513 10.3634 21.33 10.4572 21.7684C10.5511 22.2071 10.272 22.639 9.83325 22.7332L3.98203 23.9885C3.92475 24.0011 3.86746 24.0068 3.811 24.0068Z" fill="black"/>
        <path d="M20.0616 12.3527C19.8536 12.3527 19.6456 12.2734 19.4872 12.1146L14.8913 7.51868C14.574 7.20139 14.574 6.68708 14.8913 6.3698C15.2082 6.05252 15.7233 6.05252 16.0402 6.3698L20.636 10.9657C20.9533 11.283 20.9533 11.7973 20.636 12.1146C20.4776 12.2734 20.2696 12.3527 20.0616 12.3527Z" fill="black"/>
        <path d="M22.3593 10.0541C22.1513 10.0541 21.9433 9.9749 21.7845 9.81605C21.4672 9.49877 21.4672 8.98446 21.7845 8.66677C22.2366 8.21462 22.4857 7.6024 22.4857 6.94346C22.4857 6.28452 22.2366 5.6723 21.7845 5.22015C21.3319 4.76759 20.7197 4.51855 20.0607 4.51855C19.4018 4.51855 18.7896 4.76759 18.3374 5.22015C18.0206 5.53743 17.5062 5.53784 17.1882 5.22015C16.8709 4.90287 16.8709 4.38855 17.1882 4.07087C17.947 3.31159 18.9671 2.89355 20.0607 2.89355C21.154 2.89355 22.1745 3.31159 22.9333 4.07087C23.6926 4.82974 24.1107 5.84984 24.1107 6.94346C24.1107 8.03708 23.6926 9.05718 22.9333 9.81605C22.7753 9.97449 22.5673 10.0541 22.3593 10.0541Z" fill="black"/>
    </symbol>    <symbol id="notifi" viewBox="0 0 32 33">
        <path fill-rule="evenodd" clip-rule="evenodd" d="M19.8017 29.7431C19.5049 30.6115 18.8802 31.2787 18.1104 31.6552C17.3713 32.0168 16.498 32.1105 15.652 31.8573L3.2849 27.7343C2.40579 27.4411 1.73036 26.824 1.34896 26.0636C0.96826 25.304 0.880905 24.4011 1.17726 23.5345L6.06404 9.23816C6.30432 8.53527 6.76381 7.94361 7.38989 7.53437L13.2665 2.69927C13.6456 2.37151 14.2786 2.12569 14.7729 2.04467C15.3151 1.9554 15.8719 2.00072 16.3914 2.17353L20.8094 3.63768C21.3984 3.83429 21.8959 4.176 22.2745 4.60859C22.6605 5.04987 22.9233 5.58614 23.0341 6.15926L24.7404 13.5251C24.828 13.8437 24.8643 14.1673 24.8544 14.4873C24.844 14.8201 24.7842 15.1428 24.6801 15.4461L23.9021 17.7244C24.4086 17.8933 24.951 18.0439 25.5347 18.1723C25.8547 18.2421 26.0567 18.5548 25.9858 18.8708C25.9154 19.1869 25.5986 19.3867 25.2786 19.3169C24.6526 19.1791 24.0689 19.0176 23.5227 18.8363L19.8017 29.7431ZM10.0393 22.4878C10.0393 22.2196 9.89329 22.0173 9.63632 21.9314L6.54785 20.9047C6.2369 20.8019 5.90045 20.9676 5.79618 21.2748C5.69214 21.5817 5.8599 21.9143 6.17086 22.017L9.24195 23.0381C9.30567 23.0612 9.37449 23.0738 9.44609 23.0738C9.77373 23.0738 10.0393 22.7785 10.0393 22.4878ZM14.0525 23.3997C13.6843 23.2933 13.2918 23.589 13.2918 23.9637C13.2918 24.2257 13.4255 24.4175 13.6727 24.5112C13.6859 24.5155 13.6987 24.5203 13.7121 24.5244L16.7603 25.5377C17.0712 25.6404 17.4079 25.475 17.5119 25.1678C17.616 24.8607 17.4482 24.5281 17.1373 24.4253L14.0525 23.3997ZM11.6517 22.6465C11.3243 22.6465 11.0586 22.9088 11.0586 23.2324C11.0586 23.556 11.3243 23.8183 11.6517 23.8183C11.9794 23.8183 12.2449 23.556 12.2449 23.2324C12.2449 22.9088 11.9794 22.6465 11.6517 22.6465ZM15.8158 9.30934C15.8223 8.98571 16.0932 8.72844 16.4208 8.73485C16.7484 8.74103 17.0089 9.00859 17.0024 9.33223C17.0024 9.33887 16.9776 10.066 17.2418 11.1116C17.2598 11.1033 17.2774 11.0951 17.2951 11.0864C17.7525 10.8628 18.1232 10.467 18.2991 9.95273C18.4756 9.4366 18.4235 8.89827 18.1966 8.44555C17.97 7.99374 17.5696 7.62753 17.049 7.45381C16.5262 7.2794 15.9815 7.3309 15.5232 7.5552C15.0658 7.77882 14.695 8.17432 14.5192 8.68885C14.3426 9.2052 14.3947 9.7433 14.6216 10.196C14.8482 10.6478 15.2486 11.014 15.7692 11.1878C15.8668 11.2203 15.965 11.2448 16.0633 11.2619C15.7892 10.1118 15.8156 9.31644 15.8158 9.30934V9.30934ZM17.6081 12.2338C18.2896 13.924 19.7345 15.9764 22.7933 17.3016L23.554 15.0691C23.6221 14.8705 23.6613 14.6638 23.6678 14.455C23.6738 14.252 23.6495 14.0412 23.5911 13.8286L21.8755 6.42133C21.8034 6.02879 21.6413 5.67906 21.3764 5.37648C21.132 5.09702 20.8115 4.87661 20.4324 4.75004L16.0146 3.28589C15.6782 3.17396 15.3167 3.1449 14.9636 3.2028C14.876 3.21722 14.2098 3.46419 14.0059 3.6157L8.06278 8.50117C7.65473 8.76255 7.34563 9.15554 7.19015 9.61055L2.30314 23.9069C2.11152 24.4677 2.16829 25.0525 2.4146 25.5441C2.66067 26.035 3.09583 26.4331 3.66166 26.6219L15.927 30.7127C16.4947 30.902 17.0867 30.8461 17.5847 30.6026C18.0812 30.3595 18.4842 29.9301 18.6754 29.3714L22.4117 18.4195C18.8118 16.8983 17.175 14.4441 16.4315 12.4658C15.2215 12.4741 14.0991 11.7987 13.5559 10.7154C12.776 9.15943 13.4225 7.27276 14.9972 6.50258C16.5723 5.73217 18.4823 6.37074 19.262 7.92622C19.6233 8.64673 19.706 9.50321 19.4252 10.3251C19.1436 11.1491 18.5512 11.7819 17.8208 12.139C17.7513 12.1731 17.6804 12.2047 17.6081 12.2338V12.2338ZM8.34129 15.6672L18.9309 19.1878C19.2419 19.2906 19.5783 19.1249 19.6824 18.8177C19.7864 18.5106 19.6189 18.1782 19.3077 18.0755L8.71829 14.5548C8.40733 14.4521 8.07089 14.6175 7.96685 14.9247C7.86281 15.2319 8.03034 15.5644 8.34129 15.6672V15.6672ZM7.25596 18.842L17.8456 22.3626C18.1566 22.4656 18.493 22.2999 18.597 21.9928C18.7011 21.6856 18.5333 21.3533 18.2224 21.2505L7.63295 17.7299C7.322 17.6269 6.98555 17.7926 6.88152 18.0997C6.77748 18.4069 6.945 18.7392 7.25596 18.842V18.842Z" fill="#000" stroke="" stroke-width="0.5"/>
        <!-- <circle cx="24" cy="8" r="8" fill="#000"/> -->
        <path d="M24.036 3.948C24.8793 3.95533 25.532 4.35133 25.994 5.136C26.4487 5.91333 26.676 6.91067 26.676 8.128C26.676 9.36 26.4487 10.3353 25.994 11.054C25.5467 11.7653 24.8977 12.121 24.047 12.121C23.167 12.121 22.5033 11.747 22.056 10.999C21.6233 10.2657 21.407 9.31233 21.407 8.139C21.407 6.93633 21.6233 5.94633 22.056 5.169C22.5107 4.355 23.1707 3.948 24.036 3.948ZM25.334 8.15C25.334 7.36533 25.2533 6.709 25.092 6.181C24.872 5.455 24.52 5.08833 24.036 5.081C23.6033 5.081 23.2807 5.37067 23.068 5.95C22.8553 6.53667 22.749 7.26633 22.749 8.139C22.749 8.92367 22.8333 9.569 23.002 10.075C23.2 10.6763 23.5447 10.977 24.036 10.977C24.9013 10.977 25.334 10.0347 25.334 8.15Z"/>
    </symbol>
    <symbol id="heart" viewBox="0 0 31 31" fill="none">
        <path d="M23.7654 1.77055C22.8977 1.4864 21.9897 1.34447 21.0766 1.35027C19.059 1.34025 17.0956 2.00293 15.4967 3.23357C15.3573 3.13392 15.2122 3.0425 15.0621 2.95975C14.9157 2.8706 14.6546 2.65568 14.4381 2.53947L13.8873 2.29271C13.5956 2.13716 13.2896 2.01027 12.9735 1.91383C12.9347 1.87858 12.8906 1.84958 12.8429 1.82786H12.757C11.9012 1.5369 11.0066 1.37591 10.1031 1.35027H9.94395C9.53641 1.34989 9.12938 1.37916 8.72609 1.43783H8.55257C8.11416 1.49493 7.68266 1.59628 7.26466 1.7403C1.85515 3.51057 -0.0727201 9.38175 1.56542 14.5127C2.48978 17.1262 3.98226 19.5022 5.93537 21.4696C8.74984 24.1863 11.845 26.5963 15.1688 28.6589L15.5461 28.8929L15.9091 28.6748C19.2112 26.6057 22.2872 24.1961 25.0868 21.4855C27.0467 19.5195 28.5377 17.1366 29.4487 14.5143C31.0598 9.38334 29.1304 3.51216 23.7813 1.77851L23.7654 1.77055Z" stroke="" stroke-width="2"/>
    </symbol>
    <symbol id="heart-fill" viewBox="0 0 29 28" fill="none">
        <path d="M22.5982 1.15325C21.7654 0.880561 20.8941 0.744358 20.0178 0.74992C18.0816 0.740301 16.1973 1.37626 14.6629 2.55728C14.5291 2.46166 14.3899 2.37391 14.2459 2.2945C14.1053 2.20895 13.8547 2.0027 13.647 1.89117L13.1184 1.65436C12.8385 1.50509 12.5448 1.38331 12.2414 1.29075C12.2042 1.25693 12.1619 1.2291 12.1161 1.20825H12.0336C11.2124 0.929024 10.3539 0.774528 9.48682 0.74992H9.33405C8.94294 0.749559 8.55233 0.777642 8.1653 0.833947H7.99877C7.57804 0.888752 7.16394 0.986007 6.76279 1.12423C1.57141 2.82311 -0.278734 8.45756 1.29335 13.3816C2.18044 15.8897 3.61275 18.17 5.4871 20.058C8.18809 22.6652 11.1585 24.978 14.3482 26.9574L14.7103 27.182L15.0586 26.9727C18.2276 24.9871 21.1796 22.6746 23.8663 20.0733C25.7472 18.1865 27.1781 15.8997 28.0524 13.3831C29.5985 8.45909 27.7468 2.82464 22.6135 1.16089L22.5982 1.15325Z" fill="#EB631E"/>
    </symbol>
    <symbol id="cart" viewBox="0 0 30 31">
        <path d="M28.5156 4.36329C28.1162 3.87892 27.5242 3.60133 26.8916 3.60133H10.6453C10.3125 3.60133 10.0424 3.87138 10.0424 4.20415C10.0424 4.53692 10.3125 4.80697 10.6453 4.80697H26.8912C27.1664 4.80697 27.413 4.92181 27.5851 5.13039C27.76 5.34258 27.8298 5.6223 27.7771 5.89448L25.3679 17.9411C25.2745 18.3716 24.9095 18.6721 24.4802 18.6721H11.0802L5.54774 2.01556C5.2487 1.16134 4.43911 0.587453 3.51194 0.587453C3.51167 0.587453 3.51134 0.587453 3.51101 0.587453C2.72461 0.614578 1.9271 0.614305 1.73176 0.601016C1.53734 0.558797 1.32724 0.613047 1.17657 0.763765C0.941143 0.999195 0.941143 1.38075 1.17657 1.61618C1.36317 1.80277 1.42617 1.86577 3.53185 1.79282C3.92669 1.79282 4.27964 2.04241 4.40657 2.40466L10.0732 19.465C10.1551 19.7113 10.3854 19.8777 10.6453 19.8777H24.4802C25.4815 19.8777 26.3309 19.1865 26.5482 18.1873L28.9604 6.1274C29.0822 5.4969 28.9204 4.854 28.5156 4.36329Z" fill="black" stroke="#000" stroke-width="0.5"/>
        <path d="M24.209 23.1934H13.2375C12.8665 23.1934 12.5177 22.9378 12.392 22.5791L11.2165 19.0827C11.1104 18.7671 10.7677 18.5968 10.453 18.7035C10.1374 18.8093 9.96775 19.1514 10.0738 19.467L11.2518 22.9703C11.5511 23.8248 12.3489 24.3987 13.2375 24.3987H24.2089C24.5417 24.3987 24.8118 24.1289 24.8118 23.7961C24.8118 23.4633 24.5418 23.1934 24.209 23.1934Z" fill="black" stroke="#1C1F2C" stroke-width="0.5"/>
        <path d="M13.6592 26.1931C12.4957 26.1931 11.5493 27.1399 11.5493 28.303C11.5493 29.4662 12.4957 30.4129 13.6592 30.4129C14.8227 30.4129 15.7691 29.4662 15.7691 28.303C15.7691 27.1399 14.8227 26.1931 13.6592 26.1931ZM13.6592 29.2073C13.1607 29.2073 12.755 28.8015 12.755 28.303C12.755 27.8045 13.1607 27.3988 13.6592 27.3988C14.1577 27.3988 14.5635 27.8045 14.5635 28.303C14.5635 28.8016 14.1577 29.2073 13.6592 29.2073Z" fill="black"/>
        <path d="M24.209 26.1931C23.0459 26.1931 22.0991 27.1399 22.0991 28.303C22.0991 29.4662 23.0459 30.4129 24.209 30.4129C25.3722 30.4129 26.3189 29.4662 26.3189 28.303C26.3189 27.1399 25.3722 26.1931 24.209 26.1931ZM24.209 29.2073C23.7105 29.2073 23.3048 28.8015 23.3048 28.303C23.3048 27.8045 23.7105 27.3988 24.209 27.3988C24.7075 27.3988 25.1133 27.8045 25.1133 28.303C25.1133 28.8016 24.7075 29.2073 24.209 29.2073Z" fill="black"/>
    </symbol>
    <symbol id="person" viewBox="0 0 23 30">
        <path d="M11.2501 15C12.7335 15 14.1835 14.5601 15.4169 13.736C16.6502 12.9119 17.6115 11.7405 18.1792 10.3701C18.7468 8.99966 18.8954 7.49166 18.606 6.03681C18.3166 4.58196 17.6023 3.24559 16.5534 2.1967C15.5045 1.14781 14.1681 0.433502 12.7133 0.144113C11.2584 -0.145275 9.75043 0.00324964 8.37998 0.570905C7.00954 1.13856 5.8382 2.09985 5.0141 3.33322C4.18999 4.56658 3.75012 6.01663 3.75012 7.49998C3.75211 9.48849 4.54292 11.395 5.94901 12.8011C7.3551 14.2072 9.26159 14.998 11.2501 15ZM11.2501 2.5C12.239 2.5 13.2057 2.79324 14.0279 3.34265C14.8502 3.89205 15.4911 4.67294 15.8695 5.58657C16.2479 6.5002 16.3469 7.50553 16.154 8.47543C15.9611 9.44533 15.4849 10.3362 14.7856 11.0355C14.0864 11.7348 13.1955 12.211 12.2256 12.4039C11.2556 12.5968 10.2503 12.4978 9.33669 12.1194C8.42306 11.7409 7.64217 11.1001 7.09277 10.2778C6.54336 9.45558 6.25012 8.48889 6.25012 7.49998C6.25012 6.1739 6.7769 4.90214 7.71458 3.96446C8.65226 3.02678 9.92402 2.5 11.2501 2.5Z" fill="#000"/>
        <path d="M11.25 17.5C8.26731 17.5033 5.40776 18.6896 3.29869 20.7987C1.18963 22.9078 0.00330856 25.7673 0 28.75C0 29.0815 0.131696 29.3994 0.366115 29.6339C0.600535 29.8683 0.918477 30 1.25 30C1.58152 30 1.89946 29.8683 2.13388 29.6339C2.3683 29.3994 2.49999 29.0815 2.49999 28.75C2.49999 26.4293 3.42186 24.2037 5.0628 22.5628C6.70374 20.9219 8.92933 20 11.25 20C13.5706 20 15.7962 20.9219 17.4371 22.5628C19.0781 24.2037 19.9999 26.4293 19.9999 28.75C19.9999 29.0815 20.1316 29.3994 20.3661 29.6339C20.6005 29.8683 20.9184 30 21.2499 30C21.5815 30 21.8994 29.8683 22.1338 29.6339C22.3682 29.3994 22.4999 29.0815 22.4999 28.75C22.4966 25.7673 21.3103 22.9078 19.2012 20.7987C17.0922 18.6896 14.2326 17.5033 11.25 17.5Z" fill="#000"/>
    </symbol><symbol id="linkedin" viewBox="0 0 25 23" fill="none">
        <path d="M3.39638 5.74662C4.94255 5.74662 6.19596 4.4932 6.19596 2.94704C6.19596 1.40088 4.94255 0.147461 3.39638 0.147461C1.85022 0.147461 0.596802 1.40088 0.596802 2.94704C0.596802 4.4932 1.85022 5.74662 3.39638 5.74662Z" fill="white"/>
        <path d="M6.19584 7.14648H0.596802V22.544H6.19584V7.14648Z" fill="white"/>
        <path d="M19.2977 7.14648C15.0984 7.14648 14.5945 9.63811 14.5945 9.63811V7.14648H8.99548V22.544H14.5945V14.1454C14.5945 14.1454 14.5945 11.3458 16.9742 11.3458C18.3739 11.3458 18.7938 12.5915 18.7938 14.1454V22.544H24.3929V14.1454C24.3929 9.76406 22.4892 7.14648 19.2977 7.14648Z" fill="white"/>
    </symbol>
    <symbol id="list" viewBox="0 0 38 38">
        <g clip-path="url(#clip0_0_1098)">
            <path d="M6.72917 9.5H2.77083C1.24292 9.5 0 8.25708 0 6.72917V2.77083C0 1.24292 1.24292 0 2.77083 0H6.72917C8.25708 0 9.5 1.24292 9.5 2.77083V6.72917C9.5 8.25708 8.25708 9.5 6.72917 9.5ZM2.77083 2.375C2.55233 2.375 2.375 2.55233 2.375 2.77083V6.72917C2.375 6.94767 2.55233 7.125 2.77083 7.125H6.72917C6.94767 7.125 7.125 6.94767 7.125 6.72917V2.77083C7.125 2.55233 6.94767 2.375 6.72917 2.375H2.77083Z" fill="#B5B5B5"/>
            <path d="M35.229 9.5H15.4374C13.9095 9.5 12.6666 8.25708 12.6666 6.72917V2.77083C12.6666 1.24292 13.9095 0 15.4374 0H35.229C36.757 0 37.9999 1.24292 37.9999 2.77083V6.72917C37.9999 8.25708 36.757 9.5 35.229 9.5ZM15.4374 2.375C15.2189 2.375 15.0416 2.55233 15.0416 2.77083V6.72917C15.0416 6.94767 15.2189 7.125 15.4374 7.125H35.229C35.4475 7.125 35.6249 6.94767 35.6249 6.72917V2.77083C35.6249 2.55233 35.4475 2.375 35.229 2.375H15.4374Z" fill="#B5B5B5"/>
            <path d="M6.72917 23.75H2.77083C1.24292 23.75 0 22.5071 0 20.9792V17.0208C0 15.4929 1.24292 14.25 2.77083 14.25H6.72917C8.25708 14.25 9.5 15.4929 9.5 17.0208V20.9792C9.5 22.5071 8.25708 23.75 6.72917 23.75ZM2.77083 16.625C2.55233 16.625 2.375 16.8023 2.375 17.0208V20.9792C2.375 21.1977 2.55233 21.375 2.77083 21.375H6.72917C6.94767 21.375 7.125 21.1977 7.125 20.9792V17.0208C7.125 16.8023 6.94767 16.625 6.72917 16.625H2.77083Z" fill="#B5B5B5"/>
            <path d="M35.229 23.75H15.4374C13.9095 23.75 12.6666 22.5071 12.6666 20.9792V17.0208C12.6666 15.4929 13.9095 14.25 15.4374 14.25H35.229C36.757 14.25 37.9999 15.4929 37.9999 17.0208V20.9792C37.9999 22.5071 36.757 23.75 35.229 23.75ZM15.4374 16.625C15.2189 16.625 15.0416 16.8023 15.0416 17.0208V20.9792C15.0416 21.1977 15.2189 21.375 15.4374 21.375H35.229C35.4475 21.375 35.6249 21.1977 35.6249 20.9792V17.0208C35.6249 16.8023 35.4475 16.625 35.229 16.625H15.4374Z" fill="#B5B5B5"/>
            <path d="M6.72917 38H2.77083C1.24292 38 0 36.7571 0 35.2292V31.2708C0 29.7429 1.24292 28.5 2.77083 28.5H6.72917C8.25708 28.5 9.5 29.7429 9.5 31.2708V35.2292C9.5 36.7571 8.25708 38 6.72917 38ZM2.77083 30.875C2.55233 30.875 2.375 31.0523 2.375 31.2708V35.2292C2.375 35.4477 2.55233 35.625 2.77083 35.625H6.72917C6.94767 35.625 7.125 35.4477 7.125 35.2292V31.2708C7.125 31.0523 6.94767 30.875 6.72917 30.875H2.77083Z" fill="#B5B5B5"/>
            <path d="M35.229 38H15.4374C13.9095 38 12.6666 36.7571 12.6666 35.2292V31.2708C12.6666 29.7429 13.9095 28.5 15.4374 28.5H35.229C36.757 28.5 37.9999 29.7429 37.9999 31.2708V35.2292C37.9999 36.7571 36.757 38 35.229 38ZM15.4374 30.875C15.2189 30.875 15.0416 31.0523 15.0416 31.2708V35.2292C15.0416 35.4477 15.2189 35.625 15.4374 35.625H35.229C35.4475 35.625 35.6249 35.4477 35.6249 35.2292V31.2708C35.6249 31.0523 35.4475 30.875 35.229 30.875H15.4374Z" fill="#B5B5B5"/>
        </g>
        <defs>
            <clipPath id="clip0_0_1098">
                <rect width="38" height="38" fill="white"/>
            </clipPath>
        </defs>
    </symbol>
    <symbol id="list-active" viewBox="0 0 38 38">
        <g clip-path="url(#clip0_0_1405)">
        <path d="M7.91667 0H1.58333C0.709333 0 0 0.709333 0 1.58333V7.91667C0 8.79067 0.709333 9.5 1.58333 9.5H7.91667C8.79067 9.5 9.5 8.79067 9.5 7.91667V1.58333C9.5 0.709333 8.79067 0 7.91667 0Z" fill="#EB631E"/>
        <path d="M36.4166 0H14.25C13.376 0 12.6666 0.709333 12.6666 1.58333V7.91667C12.6666 8.79067 13.376 9.5 14.25 9.5H36.4166C37.2906 9.5 38 8.79067 38 7.91667V1.58333C38 0.709333 37.2906 0 36.4166 0Z" fill="#EB631E"/>
        <path d="M7.91667 14.25H1.58333C0.709333 14.25 0 14.9593 0 15.8333V22.1667C0 23.0407 0.709333 23.75 1.58333 23.75H7.91667C8.79067 23.75 9.5 23.0407 9.5 22.1667V15.8333C9.5 14.9593 8.79067 14.25 7.91667 14.25Z" fill="#EB631E"/>
        <path d="M36.4166 14.25H14.25C13.376 14.25 12.6666 14.9593 12.6666 15.8333V22.1667C12.6666 23.0407 13.376 23.75 14.25 23.75H36.4166C37.2906 23.75 38 23.0407 38 22.1667V15.8333C38 14.9593 37.2906 14.25 36.4166 14.25Z" fill="#EB631E"/>
        <path d="M7.91667 28.5H1.58333C0.709333 28.5 0 29.2093 0 30.0833V36.4167C0 37.2907 0.709333 38 1.58333 38H7.91667C8.79067 38 9.5 37.2907 9.5 36.4167V30.0833C9.5 29.2093 8.79067 28.5 7.91667 28.5Z" fill="#EB631E"/>
        <path d="M36.4166 28.5H14.25C13.376 28.5 12.6666 29.2093 12.6666 30.0833V36.4167C12.6666 37.2907 13.376 38 14.25 38H36.4166C37.2906 38 38 37.2907 38 36.4167V30.0833C38 29.2093 37.2906 28.5 36.4166 28.5Z" fill="#EB631E"/>
        </g>
        <defs>
        <clipPath id="clip0_0_1405">
        <rect width="38" height="38" fill="white"/>
        </clipPath>
        </defs>
    </symbol>
    <symbol id="list-2" viewBox="0 0 39 40" fill="none">
        <path d="M15.1 15.7667H0.5V1.16675H15.1V15.7667Z" stroke="#A0A0A0"/>
        <path d="M23.8999 1.16675H38.4999V15.7667H23.8999V1.16675Z" stroke="#A0A0A0"/>
        <path d="M38.4999 39.1667H23.8999V24.5667H38.4999V39.1667Z" stroke="#A0A0A0"/>
        <path d="M0.5 24.5667H15.1V39.1667H0.5V24.5667Z" stroke="#A0A0A0"/>
    </symbol> 
    <symbol id="list-2-active" viewBox="0 0 39 40">
        <path d="M0 0.666748V16.2667H15.6V0.666748H0Z" fill="#EB631E"/>
        <path d="M23.4 0.666748H39V16.2667H23.4V0.666748Z" fill="#EB631E"/>
        <path d="M23.4 24.0667V39.6667H39V24.0667H23.4Z" fill="#EB631E"/>
        <path d="M0 24.0667H15.6V39.6667H0V24.0667Z" fill="#EB631E"/>
    </symbol>
    <symbol id="arrow" viewBox="0 0 8 13">
        <path d="M7 1L1 6.5L7 12" stroke="#FDB933" stroke-width="2" stroke-linecap="round" stroke-linejoin="round"/>
    </symbol>
    <symbol id="power" viewBox="0 0 21 39">
        <path d="M20.8178 0H6.32022L0.523193 20.8723H6.33203L1.39294 38.6591H3.13288L19.9468 17.7859H11.429L20.8178 0Z" fill="#A485C7"/>    
    </symbol>
    <symbol id="close" viewBox="0 0 18 18" fill="none">
        <g clip-path="url(#clip0_51_9)">
            <path d="M1.42984 17.5001C1.26565 17.5001 1.10513 17.4515 0.968595 17.3603C0.832061 17.2691 0.725644 17.1394 0.662804 16.9877C0.599965 16.836 0.583526 16.6691 0.615568 16.5081C0.647609 16.347 0.726692 16.1991 0.842811 16.083L16.1827 0.743156C16.3383 0.587466 16.5495 0.5 16.7697 0.5C16.9899 0.5 17.201 0.587466 17.3567 0.743156C17.5124 0.898847 17.5999 1.11001 17.5999 1.33019C17.5999 1.55037 17.5124 1.76153 17.3567 1.91722L2.01687 17.2571C1.93985 17.3342 1.84835 17.3954 1.74761 17.4372C1.64687 17.4789 1.53888 17.5003 1.42984 17.5001Z" fill="black"/>
            <path d="M16.7697 17.5001C16.6606 17.5003 16.5526 17.4789 16.4519 17.4372C16.3512 17.3954 16.2596 17.3342 16.1826 17.2571L0.842766 1.91722C0.687075 1.76153 0.599609 1.55037 0.599609 1.33019C0.599609 1.11001 0.687075 0.898847 0.842766 0.743156C0.998456 0.587466 1.20962 0.5 1.4298 0.5C1.64998 0.5 1.86114 0.587466 2.01683 0.743156L17.3567 16.083C17.4728 16.1991 17.5519 16.347 17.5839 16.5081C17.616 16.6691 17.5995 16.836 17.5367 16.9877C17.4739 17.1394 17.3674 17.2691 17.2309 17.3603C17.0944 17.4515 16.9339 17.5001 16.7697 17.5001Z" fill="black"/>
        </g>
        <defs>
            <clipPath id="clip0_51_9">
                <rect width="17" height="17" fill="white" transform="translate(0.599609 0.5)"/>
            </clipPath>
        </defs>
    </symbol>
    <symbol id="plus" viewBox="0 0 31 31" fill="none">
        <path d="M15.4113 30.7164C14.2016 30.7164 13.2199 29.7346 13.2199 28.525V2.22803C13.2199 1.01837 14.2016 0.0366211 15.4113 0.0366211C16.621 0.0366211 17.6027 1.01837 17.6027 2.22803V28.525C17.6027 29.7346 16.621 30.7164 15.4113 30.7164Z" fill="#EB631E"/>
        <path d="M28.5597 17.5684H2.2627C1.05304 17.5684 0.0712891 16.5866 0.0712891 15.377C0.0712891 14.1673 1.05304 13.1855 2.2627 13.1855H28.5597C29.7693 13.1855 30.7511 14.1673 30.7511 15.377C30.7511 16.5866 29.7693 17.5684 28.5597 17.5684Z" fill="#EB631E"/>
    </symbol>
    <symbol id="instagram" viewBox="0 0 31 30">
        <path d="M15.4223 7.82373C13.9369 7.82373 12.4848 8.26405 11.2497 9.08902C10.0146 9.91398 9.05201 11.0865 8.48357 12.4584C7.91512 13.8303 7.76639 15.3398 8.05618 16.7962C8.34597 18.2526 9.06127 19.5903 10.1116 20.6403C11.162 21.6903 12.5002 22.4053 13.9571 22.695C15.414 22.9847 16.9241 22.836 18.2964 22.2678C19.6688 21.6995 20.8417 20.7372 21.667 19.5026C22.4923 18.2679 22.9327 16.8164 22.9327 15.3315C22.9333 14.3454 22.7395 13.3689 22.3622 12.4577C21.985 11.5465 21.4318 10.7187 20.7343 10.0214C20.0368 9.32411 19.2086 8.77111 18.2971 8.39402C17.3856 8.01693 16.4088 7.82314 15.4223 7.82373ZM15.4223 20.1988C14.4586 20.1988 13.5165 19.9131 12.7151 19.3779C11.9138 18.8426 11.2893 18.0819 10.9205 17.1918C10.5516 16.3017 10.4551 15.3223 10.6432 14.3774C10.8312 13.4326 11.2953 12.5646 11.9767 11.8834C12.6582 11.2022 13.5264 10.7383 14.4717 10.5503C15.4169 10.3624 16.3967 10.4588 17.287 10.8275C18.1774 11.1962 18.9384 11.8205 19.4739 12.6215C20.0093 13.4226 20.2951 14.3643 20.2951 15.3277C20.2954 15.9675 20.1695 16.601 19.9248 17.1922C19.68 17.7833 19.3211 18.3204 18.8685 18.7727C18.416 19.2251 17.8787 19.5839 17.2874 19.8286C16.6961 20.0733 16.0623 20.1991 15.4223 20.1988Z" fill="white"/>
        <path d="M21.4495 0.801757C18.7578 0.676378 12.0908 0.682384 9.39686 0.801757C7.02959 0.912871 4.9417 1.48421 3.25787 3.16669C0.44448 5.97984 0.804228 9.769 0.804228 15.327C0.804228 21.0156 0.487289 24.7177 3.25787 27.4895C6.08253 30.3117 9.92859 29.9423 15.4247 29.9423C21.0612 29.9423 23.0102 29.9423 25.0004 29.1743C27.7102 28.1232 29.756 25.7012 29.9573 21.3519C30.0842 18.6604 30.0767 11.9965 29.9573 9.30352C29.7117 4.16898 26.9554 1.05552 21.4495 0.801757ZM25.7102 25.6268C23.8656 27.4707 21.3068 27.3063 15.3871 27.3063C9.29171 27.3063 6.84783 27.3964 5.06412 25.6088C3.01003 23.5652 3.38179 20.2836 3.38179 15.3082C3.38179 8.57527 2.69084 3.72677 9.45018 3.38067C11.0033 3.32586 11.4607 3.30559 15.3699 3.30559L15.4247 3.34238C21.9212 3.34238 27.0177 2.66218 27.3234 9.41839C27.3932 10.9597 27.409 11.423 27.409 15.3247C27.409 21.3467 27.5224 23.8085 25.7094 25.6253L25.7102 25.6268Z" fill="white"/>
        <path d="M23.2271 9.28159C24.1961 9.28159 24.9816 8.49637 24.9816 7.52776C24.9816 6.55914 24.1961 5.77393 23.2271 5.77393C22.2582 5.77393 21.4727 6.55914 21.4727 7.52776C21.4727 8.49637 22.2582 9.28159 23.2271 9.28159Z" fill="white"/>
    </symbol>
    <symbol id="twitter" viewBox="0 0 30 25">
        <path d="M29.7743 3.46953C29.6967 3.39327 29.5993 3.34032 29.493 3.31669C29.3868 3.29306 29.2761 3.29972 29.1735 3.33589L28.1889 3.67674C28.7304 3.0467 29.1503 2.3217 29.4273 1.53854C29.459 1.43807 29.4612 1.33067 29.4338 1.22897C29.4064 1.12727 29.3505 1.03551 29.2727 0.964509C29.1949 0.893505 29.0984 0.846214 28.9946 0.828201C28.8908 0.810188 28.784 0.822206 28.6868 0.862841C27.2996 1.44394 26.0724 1.95071 25.0968 2.25327C25.0783 2.25893 25.0589 2.26058 25.0397 2.25812C25.0205 2.25566 25.0021 2.24915 24.9857 2.23901C24.2076 1.80356 22.2601 0.802777 20.8767 0.818544C19.159 0.884719 17.5348 1.61806 16.3495 2.86264C15.1643 4.10722 14.5114 5.76488 14.5297 7.48317V7.68062C9.37825 6.68359 6.53105 5.20307 3.44877 1.96948L2.96735 1.46421L2.64666 2.08435C0.973335 5.32019 2.15998 8.22043 4.11495 10.1732C3.36724 10.0895 2.66135 9.78528 2.08713 9.29929C1.98929 9.21379 1.86636 9.16231 1.73677 9.15256C1.60718 9.14281 1.47792 9.17533 1.36838 9.24524C1.26004 9.31322 1.17676 9.41459 1.13111 9.53404C1.08545 9.65349 1.0799 9.78454 1.11528 9.90742C1.83694 12.1637 3.35969 14.0779 5.39622 15.289C4.56164 15.3435 3.73033 15.1415 3.01392 14.7101C2.90888 14.6451 2.78633 14.6139 2.66297 14.621C2.53961 14.6281 2.42143 14.6731 2.32454 14.7497C2.22765 14.8264 2.15677 14.931 2.12154 15.0494C2.08631 15.1678 2.08846 15.2942 2.12769 15.4113C3.02894 17.9572 4.72705 19.2959 7.53519 19.6299C5.63093 20.6997 3.47578 21.2427 1.29178 21.2028C1.1523 21.2061 1.01717 21.252 0.904626 21.3344C0.792083 21.4169 0.70754 21.5318 0.662403 21.6638C0.617229 21.7931 0.61342 21.9333 0.651504 22.0648C0.689589 22.1964 0.767679 22.3128 0.874948 22.3981C2.65342 23.8313 6.6422 24.6872 11.5458 24.6872C20.3232 24.6872 27.4641 16.8791 27.4641 7.28271V7.11379C28.0626 6.80209 28.5902 6.36999 29.0136 5.84464C29.4371 5.3193 29.7472 4.71207 29.9245 4.06114C29.9572 3.95834 29.9604 3.84845 29.9339 3.7439C29.9073 3.63935 29.8521 3.54431 29.7743 3.46953Z" fill="white"/>
    </symbol>
    <symbol id="youtube" viewBox="0 0 32 33">
        <path d="M14.5632 11.649H15.1372C16.4073 11.649 17.4391 10.6235 17.4468 9.35329V5.61591C17.4241 4.36222 16.4051 3.35572 15.1511 3.34827H14.5772C13.307 3.34827 12.2753 4.37376 12.2676 5.64394V9.38132C12.2904 10.635 13.3093 11.6416 14.5632 11.649ZM13.9893 5.47601C13.9897 4.99676 14.3785 4.60834 14.8577 4.6087C15.3366 4.60906 15.7248 4.99712 15.725 5.47601V9.49331C15.7247 9.97256 15.3359 10.361 14.8566 10.3606C14.3778 10.3603 13.9897 9.9722 13.9893 9.49331V5.47601Z" fill="white"/>
        <path d="M7.74612 11.5095H9.77582V7.04421L12.0854 0.717285H10.1958L8.79592 4.91659L7.39619 0.717285H5.31055L7.77415 7.04421L7.74612 11.5095Z" fill="white"/>
        <path d="M20.3448 11.649C21.1618 11.5704 21.9274 11.2147 22.5144 10.6411V11.5091H24.1942V3.34839H22.5144V9.67532C22.5144 9.67532 21.9405 10.3472 21.3946 10.3472C20.8487 10.3472 20.8207 9.91325 20.8207 9.91325V3.34827H19.043V10.5292C19.14 11.1732 19.6935 11.6493 20.3448 11.649Z" fill="white"/>
        <path d="M19.196 21.0277C18.8587 21.0442 18.5438 21.2017 18.3281 21.4616V27.2567C18.5496 27.5016 18.8658 27.6394 19.196 27.6347C20.064 27.6347 20.064 26.6688 20.064 26.6688V21.9937C20.064 21.9935 19.91 21.0277 19.196 21.0277Z" fill="white"/>
        <path d="M25.8445 21.0277C24.9766 21.0277 24.9766 21.9935 24.9766 21.9935V23.2393H26.7123V21.9935C26.7124 21.9935 26.7124 21.0277 25.8445 21.0277Z" fill="white"/>
        <path d="M26.493 13.4394C26.4687 13.4398 26.4444 13.4404 26.4201 13.4412H26.3921C26.3921 13.4412 21.1149 13.1472 15.7958 13.1472C10.4767 13.1472 5.17154 13.4271 5.17154 13.4271C2.85362 13.3498 0.911847 15.1662 0.834619 17.4841C0.833055 17.5315 0.832213 17.579 0.832334 17.6264C0.565043 19.3873 0.41997 21.1646 0.398438 22.9456C0.418166 24.7451 0.563118 26.5412 0.832334 28.3207C0.83101 30.64 2.71011 32.5211 5.02936 32.5223C5.07675 32.5223 5.12427 32.5216 5.17166 32.52C5.17166 32.52 10.3929 32.8 15.7959 32.8C21.199 32.8 26.4202 32.52 26.4202 32.52C28.7381 32.5974 30.6799 30.781 30.7571 28.463C30.7587 28.4156 30.7595 28.3681 30.7594 28.3207C31.0273 26.5411 31.1723 24.7451 31.1933 22.9456C31.1756 21.1459 31.0306 19.3496 30.7594 17.5704C30.722 15.2516 28.8119 13.402 26.493 13.4394ZM9.51087 18.1304H7.3972V29.0206H5.31156V18.1304H3.19789V16.3386H9.55285L9.51087 18.1304ZM15.012 29.0206H13.2623V28.1948C12.6669 28.7493 11.9033 29.0893 11.0927 29.1606C10.4416 29.1742 9.88282 28.6995 9.79091 28.0548V19.5022H11.5966V27.4949C11.5966 27.4949 11.5966 27.9149 12.1705 27.9149C12.7445 27.9149 13.3323 27.229 13.3323 27.229V19.5022H15.068L15.012 29.0206ZM20.2052 29.1606C19.4688 29.1672 18.773 28.8245 18.3294 28.2368V29.0206H16.4397V16.3387H18.3155V20.4541C18.7956 19.9102 19.468 19.574 20.1912 19.5162C21.353 19.5162 21.7869 20.4821 21.7869 21.7278L21.8008 26.949C21.8008 26.949 21.8008 29.1606 20.2052 29.1606ZM28.5897 24.6534H24.9783V26.725C24.9783 26.725 24.9783 27.6909 25.8462 27.6909C26.7141 27.6909 26.7141 26.725 26.7141 26.725V25.7451H28.5898V27.2569C28.3388 28.4687 27.2188 29.2997 25.9862 29.1885C24.7094 29.3035 23.5323 28.4913 23.1866 27.2569V21.8538C23.2256 20.5091 24.3471 19.4507 25.6917 19.4897C25.7904 19.4926 25.8886 19.5013 25.9862 19.5161C27.2336 19.3376 28.3895 20.2041 28.5682 21.4514C28.5873 21.5846 28.5945 21.7193 28.5898 21.8538V24.6534H28.5897Z" fill="white"/>    </symbol>
    </symbol>
    
    <symbol id="star" viewBox="0 0 25 25">
        <g clip-path="url(#clip0_645_159)">
            <path
                d="M24.3001 9.06683L16.6529 7.95565L13.2329 1.02601C12.9337 0.419861 12.0665 0.419568 11.7671 1.02601L8.34722 7.95565L0.700001 9.06683C0.0312018 9.16405 -0.237402 9.98866 0.247071 10.4608L5.78062 15.8548L4.47427 23.4711C4.42163 23.7777 4.54766 24.0875 4.79942 24.2704C5.05108 24.4533 5.38467 24.4774 5.66006 24.3326L12.5 20.7368C19.9466 24.6516 19.4351 24.4265 19.7202 24.4265C20.2239 24.4265 20.6117 23.9725 20.5257 23.4711L19.2194 15.8548L24.753 10.4608C25.237 9.989 24.9694 9.16415 24.3001 9.06683Z"
                fill="#F7AC16" />
            <path
                d="M12.5 0.570312C12.1883 0.570312 11.9045 0.74751 11.7671 1.02588L8.34717 7.95552L0.700001 9.0667C0.0312018 9.16392 -0.237402 9.98853 0.247071 10.4607L5.78062 15.8546L4.47427 23.4709C4.42163 23.7776 4.54766 24.0874 4.79941 24.2703C5.05107 24.4531 5.38467 24.4772 5.66006 24.3325L12.5 20.7366H12.5V0.570312Z"
                fill="#F2D422" />
            <path
                d="M0.700001 9.06826C0.0312018 9.16548 -0.237402 9.99009 0.247071 10.4623L5.78062 15.8562L4.47427 23.4725C4.42163 23.7792 4.54766 24.089 4.79941 24.2719C5.05107 24.4547 5.38467 24.4788 5.66006 24.334L12.5 20.7382C19.9466 24.653 19.4351 24.428 19.7202 24.428C19.8896 24.428 20.0582 24.3753 20.2006 24.2719L8.34717 7.95703L0.700001 9.06826Z"
                fill="#F7AC16" />
            <path
                d="M8.71865 14.9143C2.79121 9.13638 3.046 9.44605 2.96646 9.14639C2.93408 9.02603 2.92744 8.88599 2.96265 8.73828L0.700001 9.06704C0.0312018 9.16426 -0.237402 9.98887 0.247071 10.461L5.78062 15.855L4.47427 23.4713C4.42163 23.778 4.54766 24.0878 4.79941 24.2707C5.05107 24.4535 5.38467 24.4776 5.66006 24.3329L7.67114 23.2756C7.46426 23.0893 7.36455 22.8088 7.41231 22.5306L8.71865 14.9143Z"
                fill="#F48B19" />
            <path
                d="M0.244059 10.4618L5.77761 15.8558L4.47126 23.4721C4.41862 23.7787 4.54465 24.0885 4.7964 24.2714C5.04806 24.4543 5.38166 24.4784 5.65705 24.3336L12.497 20.7377C19.9436 24.6525 19.4321 24.4275 19.7172 24.4275C20.2209 24.4275 20.6087 23.9734 20.5227 23.4721L19.2164 15.8558L0.0371745 9.62402C-0.0583821 9.96655 0.0372722 10.2604 0.244059 10.4618Z"
                fill="#F2D422" />
            <path
                d="M0.244059 10.4618L5.7776 15.8558L4.47126 23.4721C4.41862 23.7787 4.54464 24.0885 4.7964 24.2714C5.04806 24.4542 5.38166 24.4784 5.65705 24.3336L7.66813 23.2763C7.46125 23.09 7.36154 22.8095 7.40929 22.5313L8.71564 14.915L4.913 11.2083L0.0371745 9.62402C-0.0583821 9.96655 0.0372722 10.2604 0.244059 10.4618Z"
                fill="#EFB616" />
            <path
                d="M4.4747 23.4701C4.42206 23.7767 4.54808 24.0865 4.79984 24.2694C5.0515 24.4522 5.3851 24.4764 5.66049 24.3316L12.5004 20.7357C19.947 24.6505 19.4355 24.4255 19.7206 24.4255C20.2243 24.4255 20.6121 23.9714 20.5262 23.4701L19.2199 15.8538L24.7535 10.4598C24.9762 10.2427 25.0563 9.91787 24.9602 9.62207L5.78104 15.8538L4.4747 23.4701Z"
                fill="#F7AC16" />
            <path
                d="M4.4747 23.4728C4.42206 23.7794 4.54808 24.0892 4.79984 24.2721C5.0515 24.4549 5.3851 24.4791 5.66049 24.3343L7.67157 23.277C7.46469 23.0907 7.36498 22.8102 7.41273 22.532L8.71908 14.9157L8.70839 14.9053L5.78104 15.8564L4.4747 23.4728Z"
                fill="#F48B19" />
            <path
                d="M5.65952 24.333L12.4994 20.7372C19.946 24.652 19.4345 24.427 19.7196 24.427C20.2233 24.427 20.6111 23.9728 20.5251 23.4715L19.2188 15.8552L24.7524 10.4612C25.2363 9.9894 24.9688 9.16455 24.2995 9.06724L16.6522 7.95605L4.79883 24.2708C5.05049 24.4537 5.38408 24.4778 5.65952 24.333Z"
                fill="#F2D422" />
            <path
                d="M24.9593 9.62402L12.4994 13.6725L4.79883 24.2714C5.05049 24.4543 5.38408 24.4784 5.65947 24.3336L12.4994 20.7377C19.946 24.6525 19.4345 24.4275 19.7196 24.4275C20.2233 24.4275 20.6111 23.9734 20.5251 23.4721L19.2188 15.8558L24.7524 10.4618C24.9752 10.2446 25.0553 9.91987 24.9593 9.62402Z"
                fill="#F7AC16" />
            <path
                d="M19.2189 15.8552L12.4994 13.6719L4.79883 24.2709C5.05049 24.4537 5.38408 24.4778 5.65947 24.333L12.4994 20.7372C19.946 24.652 19.4345 24.427 19.7196 24.427C20.2233 24.427 20.6111 23.9729 20.5251 23.4715L19.2189 15.8552Z"
                fill="#F2D422" />
            <path
                d="M4.79883 24.2709C5.05049 24.4537 5.38408 24.4778 5.65947 24.333L12.4994 20.7372C19.946 24.652 19.4345 24.427 19.7196 24.427C19.889 24.427 20.0577 24.3743 20.2 24.2709L12.4994 13.6719L4.79883 24.2709Z"
                fill="#F7AC16" />
            <path
                d="M12.4995 13.672L12.4994 13.6719L4.79883 24.2708C5.05049 24.4537 5.38408 24.4778 5.65947 24.333L12.4994 20.7372H12.4995V13.672Z"
                fill="#F2D422" />
            <path
                d="M7.82847 20.1016L4.79883 24.2715C5.05049 24.4543 5.38408 24.4784 5.65947 24.3336L7.67056 23.2764C7.46367 23.09 7.36397 22.8096 7.41172 22.5313L7.82847 20.1016Z"
                fill="#EFB616" />
        </g>
        <defs>
            <clipPath id="clip0_645_159">
                <rect width="25" height="25" fill="white" />
            </clipPath>
        </defs>
    </symbol>


</svg>