<svg xmlns="http://www.w3.org/2000/svg">
    <symbol id="factory" viewBox="0 0 58 58">

        <path
            d="M57.0329 33.8336H54.0681L52.1996 6.70129C52.1646 6.1933 51.7423 5.79965 51.2329 5.80035H45.4329C44.9235 5.79965 44.5011 6.1933 44.4661 6.70129L42.5976 33.8336H40.6V28.0336C40.6 27.5001 40.1671 27.0668 39.6336 27.0668C39.4134 27.0664 39.2003 27.1415 39.0289 27.2788L30.9332 33.7553V28.0336C30.9332 27.5001 30.5006 27.0668 29.9668 27.0668C29.7469 27.0664 29.5338 27.1415 29.3625 27.2788L21.2668 33.7553V28.0336C21.2668 27.5001 20.8342 27.0668 20.3004 27.0668C20.0805 27.0664 19.8671 27.1415 19.6961 27.2788L11.6004 33.7553V28.0336C11.6 27.5001 11.1671 27.0671 10.6336 27.0671C10.4576 27.0671 10.2859 27.1149 10.1355 27.2052L0.468701 33.0052C0.178064 33.1801 0 33.4941 0 33.8336V57.0336C0 57.5674 0.432947 58 0.966785 58H57.0329C57.5667 58 57.9996 57.5674 57.9996 57.0336V34.8004C57.9996 34.2662 57.5667 33.8336 57.0329 33.8336ZM46.3356 7.73357H50.3302L52.1306 33.8336H44.5351L46.3356 7.73357ZM32.8661 56.0668V44.4668H38.6661V56.0668H32.8661ZM56.0664 56.0668H40.6V43.5C40.6 42.9665 40.1667 42.5336 39.6329 42.5336H31.8996C31.3658 42.5336 30.9329 42.9665 30.9329 43.5V56.0668H1.93322V34.3809L9.66643 29.7409V35.7668C9.66643 36.301 10.099 36.7336 10.6329 36.7343C10.8523 36.7343 11.0658 36.6592 11.2375 36.5219L19.3332 30.0454V35.7668C19.3332 36.301 19.7655 36.7336 20.2996 36.7343C20.5191 36.7343 20.7322 36.6592 20.9039 36.5222L28.9996 30.0457V35.7671C28.9996 36.301 29.4319 36.7343 29.9661 36.7343C30.1856 36.7343 30.3987 36.6592 30.5704 36.5222L38.6661 30.0457V34.8004C38.6661 35.3345 39.099 35.7671 39.6329 35.7671H56.0657V56.0668H56.0664Z" />
        <path
            d="M32.8596 1.93387C33.2111 2.1222 33.5287 2.36788 33.7995 2.66064C34.3415 3.32157 35.1132 3.75204 35.9596 3.86709C36.8513 3.75345 37.6656 3.30422 38.2373 2.61038C38.4819 2.35372 38.7555 2.12681 39.0533 1.93387C39.2522 1.94272 39.7733 2.43054 40.0537 2.69251C40.5751 3.33785 41.3242 3.75806 42.1462 3.86709C43.0956 3.74673 43.9633 3.27059 44.5747 2.53497C44.8115 2.31266 45.1701 1.97529 45.2395 1.93387C45.7584 1.93387 45.8774 2.10592 46.1967 2.56613C46.6162 3.35874 47.4361 3.85824 48.3331 3.86709C48.8666 3.86709 49.2995 3.43414 49.2995 2.90066C49.2995 2.36647 48.8666 1.93387 48.3331 1.93387C48.1395 1.93387 48.1019 1.92042 47.7879 1.46694C47.2746 0.544763 46.2944 -0.019165 45.2395 0.000305294C44.4575 0.108984 43.7459 0.511133 43.2503 1.12568C42.9292 1.42836 42.3912 1.93387 42.1869 1.93848C41.8874 1.75723 41.6141 1.53633 41.3727 1.28251C40.7914 0.5745 39.9616 0.116065 39.0529 0.000305294C38.215 0.114649 37.4517 0.541577 36.9154 1.19507C36.6443 1.48606 36.331 1.73492 35.9865 1.93387C35.6644 1.74908 35.3713 1.51827 35.1167 1.24746C34.5517 0.561401 33.7474 0.116065 32.866 0.000305294C32.3325 -0.00146473 31.8978 0.429712 31.896 0.963904C31.8942 1.49739 32.3258 1.9321 32.8596 1.93387Z" />
        <path
            d="M10.6336 44.4667H6.76648C6.23264 44.4667 5.80005 44.8997 5.80005 45.4332V51.2332C5.80005 51.7674 6.23264 52.2 6.76648 52.2H10.6336C11.1671 52.2 11.6 51.7674 11.6 51.2332V45.4332C11.6 44.8997 11.1671 44.4667 10.6336 44.4667ZM9.66648 50.2668H7.73326V46.4003H9.66648V50.2668Z" />
        <path
            d="M18.3668 44.4667H14.5C13.9658 44.4667 13.5332 44.8997 13.5332 45.4332V51.2332C13.5332 51.7674 13.9658 52.2 14.5 52.2H18.3668C18.9003 52.2 19.3332 51.7674 19.3332 51.2332V45.4332C19.3332 44.8997 18.9003 44.4667 18.3668 44.4667ZM17.3996 50.2668H15.4664V46.4003H17.3996V50.2668Z" />
        <path
            d="M26.1 44.4667H22.2333C21.6991 44.4667 21.2665 44.8997 21.2665 45.4332V51.2332C21.2665 51.7674 21.6991 52.2 22.2333 52.2H26.1C26.6335 52.2 27.0665 51.7674 27.0665 51.2332V45.4332C27.0665 44.8997 26.6335 44.4667 26.1 44.4667ZM25.1329 50.2668H23.1997V46.4003H25.1329V50.2668Z" />


    </symbol>
    <symbol id="brand-image" viewBox="0 0 56 56">
        <path
            d="M54.9817 25.7032C55.958 24.1802 56.2495 22.3046 55.7814 20.5571C55.3131 18.8096 54.1229 17.3309 52.5157 16.4999C51.043 15.7387 50.1412 14.1767 50.2182 12.5206C50.3023 10.7134 49.6168 8.94318 48.3376 7.66398C47.0586 6.38489 45.2882 5.69963 43.481 5.78341C43.2202 5.79566 42.9575 5.78374 42.6993 5.74797C42.1013 5.66463 41.5485 6.0829 41.466 6.68142C41.383 7.27984 41.801 7.8321 42.3994 7.91479C42.7902 7.96893 43.1884 7.98687 43.5827 7.96861C44.7922 7.91162 45.9331 8.3534 46.7907 9.21083C47.6481 10.0683 48.0894 11.2076 48.0329 12.4188C47.9164 14.926 49.2816 17.2907 51.5111 18.4432C52.5884 19.0001 53.3545 19.9518 53.6683 21.1232C53.9821 22.2944 53.7945 23.5016 53.1401 24.5224C51.7855 26.6353 51.7855 29.3659 53.1401 31.4789C53.7945 32.4997 53.9821 33.7069 53.6683 34.8781C53.3545 36.0495 52.5884 37.0012 51.5112 37.5581C49.2816 38.7106 47.9164 41.0753 48.0329 43.5825C48.0894 44.7938 47.648 45.9331 46.7907 46.7905C45.9334 47.648 44.7952 48.0901 43.5827 48.0327C41.0735 47.918 38.7108 49.2814 37.5584 51.5109C37.0014 52.5882 36.0497 53.3543 34.8783 53.6681C33.7069 53.982 32.4998 53.7944 31.4791 53.1399C29.3662 51.7855 26.6358 51.7851 24.5226 53.1399C23.502 53.7944 22.2949 53.9821 21.1234 53.6681C19.952 53.3543 19.0003 52.5882 18.4435 51.511C17.2909 49.2815 14.9283 47.9183 12.419 48.0327C11.2063 48.0882 10.0685 47.6478 9.21103 46.7905C8.3536 45.9332 7.91236 44.7938 7.9688 43.5825C8.08529 41.0753 6.72012 38.7106 4.49063 37.5582C3.41335 37.0012 2.64725 36.0495 2.33344 34.8781C2.01963 33.7069 2.20721 32.4997 2.86163 31.4789C4.2162 29.3661 4.2162 26.6354 2.86163 24.5224C2.20721 23.5016 2.01963 22.2944 2.33344 21.1232C2.64725 19.9518 3.41335 19.0001 4.49052 18.4433C6.72012 17.2907 8.08529 14.926 7.9688 12.4188C7.91236 11.2076 8.35371 10.0683 9.21103 9.21083C10.0686 8.3534 11.2079 7.91206 12.419 7.96861C14.9305 8.08433 17.2909 6.71992 18.4433 4.49043C19.0003 3.41315 19.952 2.64705 21.1234 2.33324C22.2948 2.01921 23.5018 2.20702 24.5227 2.86144C26.6355 4.21589 29.3661 4.21589 31.479 2.86144C32.3346 2.3129 33.3577 2.08812 34.3609 2.22813C34.959 2.31279 35.5118 1.89452 35.5954 1.29621C35.6791 0.697904 35.2618 0.145207 34.6635 0.0616406C33.1439 -0.150994 31.5937 0.189506 30.2984 1.01981C28.9027 1.91454 27.099 1.91465 25.7033 1.0197C24.1804 0.0433742 22.3049 -0.247905 20.5572 0.220023C18.8097 0.688278 17.331 1.87855 16.5 3.48567C15.7388 4.95836 14.1756 5.86195 12.5206 5.78319C10.711 5.69996 8.94327 6.38468 7.66407 7.66376C6.38487 8.94307 5.69939 10.7132 5.7835 12.5203C5.8605 14.1765 4.95867 15.7385 3.48587 16.4998C1.87886 17.3307 0.688583 18.8094 0.220328 20.5569C-0.247818 22.3044 0.0436792 24.18 1.02011 25.703C1.91495 27.0987 1.91495 28.9024 1.02 30.2981C0.0436792 31.8211 -0.247818 33.6967 0.220328 35.4442C0.688583 37.1917 1.87886 38.6705 3.48597 39.5014C4.95867 40.2626 5.8605 41.8246 5.7835 43.4808C5.69939 45.2879 6.38487 47.058 7.66407 48.3373C8.94338 49.6166 10.7143 50.302 12.5206 50.2179C14.175 50.1401 15.7387 51.0427 16.5001 52.5155C17.331 54.1226 18.8097 55.3128 20.5572 55.7811C21.1041 55.9275 21.6636 55.9997 22.2209 55.9997C23.4443 55.9997 24.6569 55.6521 25.7033 54.9814C27.0992 54.0866 28.9029 54.0866 30.2984 54.9814C31.8213 55.9577 33.6969 56.2491 35.4445 55.7811C37.1921 55.3128 38.6708 54.1226 39.5017 52.5154C40.263 51.0427 41.8252 50.1404 43.4811 50.2179C45.2908 50.3005 47.0583 49.6164 48.3376 48.3373C49.6168 47.0581 50.3023 45.2879 50.2182 43.4808C50.1412 41.8246 51.043 40.2626 52.5159 39.5013C54.1229 38.6705 55.3131 37.1917 55.7814 35.4442C56.2495 33.6967 55.958 31.8211 54.9816 30.2981C54.0869 28.9026 54.0869 27.0988 54.9817 25.7032Z" />
        <path
            d="M27.9998 49.2493C33.6756 49.2493 39.0115 47.039 43.0248 43.0258C43.4519 42.5987 43.4519 41.9061 43.0248 41.4788C42.5976 41.0518 41.9052 41.0518 41.4778 41.4788C37.8777 45.0791 33.0911 47.0617 27.9997 47.0617C22.9083 47.0617 18.1217 45.0791 14.5216 41.4788C14.0945 41.052 13.4021 41.0518 12.9746 41.4788C12.5475 41.906 12.5475 42.5986 12.9746 43.0258C16.9882 47.039 22.3242 49.2493 27.9998 49.2493Z" />
        <path
            d="M27.9999 6.75226C22.3241 6.75226 16.9881 8.9625 12.9749 12.9758C12.5478 13.4029 12.5478 14.0955 12.9749 14.5227C13.4021 14.9497 14.0945 14.9497 14.5218 14.5227C18.122 10.9225 22.9086 8.93986 28 8.93986C33.0914 8.93986 37.878 10.9225 41.4781 14.5227C41.6917 14.7362 41.9716 14.8431 42.2515 14.8431C42.5314 14.8431 42.8113 14.7362 43.0249 14.5227C43.4521 14.0956 43.4521 13.403 43.0249 12.9758C39.0116 8.9625 33.6756 6.75226 27.9999 6.75226Z" />
        <path
            d="M22.065 25.8997C22.065 24.0425 20.4963 22.5317 18.5683 22.5317H16.5711C16.5707 22.5317 16.5701 22.5318 16.5697 22.5318C16.5693 22.5318 16.5687 22.5317 16.5683 22.5317C15.9643 22.5317 15.4745 23.0215 15.4745 23.6255V32.3759C15.4745 32.9799 15.9643 33.4697 16.5683 33.4697C17.1723 33.4697 17.6621 32.9799 17.6621 32.3759V30.2717L20.15 33.0985C20.3663 33.3442 20.6681 33.4697 20.9716 33.4697C21.2283 33.4697 21.486 33.3799 21.6938 33.1971C22.1473 32.7979 22.1914 32.1068 21.7923 31.6534L19.5684 29.1266C21.0105 28.7112 22.065 27.4221 22.065 25.8997ZM18.5683 27.08C18.3311 27.08 17.9995 27.0814 17.675 27.083C17.6727 26.6427 17.6695 25.1812 17.6682 24.7193H18.5683C19.2778 24.7193 19.8774 25.2598 19.8774 25.8997C19.8774 26.5395 19.2778 27.08 18.5683 27.08Z" />
        <path
            d="M10.3804 22.5317H7.83855C7.23455 22.5317 6.74475 23.0215 6.74475 23.6255V32.3759C6.74475 32.6669 6.86069 32.9458 7.06677 33.1511C7.27185 33.3552 7.54935 33.4697 7.83855 33.4697H7.84336C7.84336 33.4697 10.1802 33.4593 10.8243 33.4593C12.7262 33.4593 14.2734 31.9121 14.2734 30.0102C14.2734 28.9269 13.771 27.9593 12.9875 27.3264C13.3034 26.8401 13.4877 26.2608 13.4877 25.639C13.4877 23.9258 12.0938 22.5317 10.3804 22.5317ZM10.3804 24.7193C10.8876 24.7193 11.3001 25.1318 11.3001 25.639C11.3001 26.1462 10.8876 26.5587 10.3804 26.5587C10.1935 26.5587 8.93246 26.561 8.93246 26.561V24.7192H10.3804V24.7193ZM10.8243 31.2719C10.4759 31.2719 9.63435 31.2748 8.93235 31.2777V28.7508C9.10779 28.7501 10.8243 28.7488 10.8243 28.7488C11.5198 28.7488 12.0858 29.3147 12.0858 30.0103C12.0858 30.7059 11.5198 31.2719 10.8243 31.2719Z" />
        <path
            d="M49.2551 28.0007C49.2551 24.7296 47.3954 22.5317 44.6276 22.5317H43.0511C42.7607 22.5317 42.4821 22.6472 42.2769 22.8529C42.0718 23.0585 41.9567 23.3372 41.9573 23.6276C41.9573 23.6277 41.9749 32.3483 41.975 32.38C41.9761 32.6708 42.0929 32.9492 42.2997 33.1537C42.5045 33.3563 42.7809 33.4698 43.0688 33.4698H43.077C43.0863 33.4697 44.0152 33.4627 44.7192 33.4504C47.3474 33.4044 49.2551 31.1125 49.2551 28.0007ZM44.1589 31.2709C44.1556 30.2355 44.1487 25.795 44.1468 24.7194H44.6277C45.8072 24.7194 47.0676 25.5815 47.0676 28.0008C47.0676 29.6038 46.3297 31.2343 44.6813 31.2632C44.5148 31.2661 44.3354 31.2686 44.1589 31.2709Z" />
        <path
            d="M23.9059 33.4124C24.0219 33.4515 24.1395 33.4701 24.2554 33.4701C24.7119 33.4701 25.1377 33.182 25.2918 32.7253L25.5264 32.0294H29.1018L29.3333 32.7225C29.5246 33.2954 30.144 33.6048 30.7172 33.4133C31.2901 33.222 31.5995 32.6024 31.4081 32.0294L28.526 23.4019C28.5229 23.3926 28.5197 23.3833 28.5164 23.3741C28.3328 22.8702 27.8546 22.5317 27.3262 22.5317C27.3258 22.5317 27.3253 22.5317 27.3249 22.5317C26.7958 22.5323 26.3177 22.8718 26.1352 23.3768C26.1324 23.3842 26.1298 23.3919 26.1273 23.3994L23.2187 32.0266C23.0258 32.5991 23.3334 33.2195 23.9059 33.4124ZM27.3223 26.7026L28.371 29.8418H26.2639L27.3223 26.7026Z" />
        <path
            d="M34.6073 32.3812V27.2103L38.3904 32.8109C38.7078 33.2801 39.2433 33.482 39.7535 33.3255C40.275 33.1656 40.612 32.6791 40.612 32.086V23.6204C40.612 23.0164 40.1222 22.5266 39.5182 22.5266C38.9142 22.5266 38.4244 23.0164 38.4244 23.6204V28.953L34.42 23.0246C34.1508 22.6261 33.6533 22.4502 33.1934 22.5909C32.7337 22.7317 32.4198 23.1561 32.4198 23.6368V32.3812C32.4198 32.9852 32.9096 33.475 33.5136 33.475C34.1176 33.475 34.6073 32.9853 34.6073 32.3812Z" />
        <path
            d="M25.2526 16.9198C25.4553 17.2707 25.8228 17.467 26.2009 17.467C26.3864 17.467 26.5745 17.4196 26.7467 17.3202L26.9061 17.2282V17.4123C26.9061 18.0163 27.3959 18.5061 27.9999 18.5061C28.6039 18.5061 29.0937 18.0163 29.0937 17.4123V17.2281L29.2532 17.3202C29.4254 17.4196 29.6135 17.467 29.799 17.467C30.177 17.467 30.5447 17.2707 30.7473 16.9198C31.0494 16.3967 30.8701 15.7277 30.347 15.4257L30.1876 15.3337L30.347 15.2417C30.8701 14.9397 31.0494 14.2708 30.7473 13.7476C30.4453 13.2245 29.7768 13.0453 29.2532 13.3473L29.0937 13.4394V13.2552C29.0937 12.6512 28.6039 12.1614 27.9999 12.1614C27.3959 12.1614 26.9061 12.6512 26.9061 13.2552V13.4393L26.7467 13.3473C26.2235 13.0453 25.5546 13.2244 25.2526 13.7476C24.9505 14.2708 25.1298 14.9397 25.6529 15.2417L25.8123 15.3337L25.6529 15.4257C25.1298 15.7276 24.9506 16.3967 25.2526 16.9198Z" />
        <path
            d="M30.7474 39.0817C30.4454 38.5587 29.7769 38.3793 29.2533 38.6814L29.0938 38.7735V38.5893C29.0938 37.9853 28.604 37.4955 28 37.4955C27.396 37.4955 26.9062 37.9853 26.9062 38.5893V38.7734L26.7469 38.6814C26.2236 38.3793 25.5547 38.5587 25.2527 39.0817C24.9506 39.6049 25.1299 40.2738 25.653 40.5758L25.8124 40.6678L25.653 40.7598C25.1299 41.0618 24.9506 41.7308 25.2527 42.254C25.4554 42.6048 25.8229 42.8011 26.201 42.8011C26.3866 42.8011 26.5746 42.7537 26.7469 42.6543L26.9062 42.5623V42.7464C26.9062 43.3504 27.396 43.8402 28 43.8402C28.604 43.8402 29.0938 43.3504 29.0938 42.7464V42.5622L29.2533 42.6543C29.4256 42.7537 29.6136 42.8011 29.7991 42.8011C30.1771 42.8011 30.5449 42.6048 30.7474 42.254C31.0495 41.7308 30.8703 41.0618 30.3471 40.7598L30.1877 40.6678L30.3471 40.5758C30.8703 40.274 31.0494 39.6049 30.7474 39.0817Z" />
        <path
            d="M38.5294 5.08203C39.1335 5.08203 39.6232 4.59234 39.6232 3.98828C39.6232 3.38422 39.1335 2.89453 38.5294 2.89453C37.9254 2.89453 37.4357 3.38422 37.4357 3.98828C37.4357 4.59234 37.9254 5.08203 38.5294 5.08203Z" />


    </symbol>
    <symbol id="warehouse" viewBox="0 0 48 48">
        <path fill-rule="evenodd" clip-rule="evenodd"
            d="M48 17.2029C48 16.3431 47.5706 15.5409 46.8549 15.0634C42.8529 12.396 24.4757 0.144 24.4757 0.144C24.1877 -0.048 23.8123 -0.048 23.5243 0.144C23.5243 0.144 5.14714 12.396 1.14514 15.0634C0.429429 15.5409 0 16.3431 0 17.2029V45.4286C0 46.8489 1.15114 48 2.57143 48H45.4286C46.8489 48 48 46.8489 48 45.4286V17.2029ZM42.8571 46.2857H45.4286C45.9017 46.2857 46.2857 45.9017 46.2857 45.4286V17.2029C46.2857 16.9166 46.1426 16.6491 45.9043 16.4897L24 1.88743L2.09571 16.4897C1.85743 16.6491 1.71429 16.9166 1.71429 17.2029V45.4286C1.71429 45.9017 2.09829 46.2857 2.57143 46.2857H5.14286V20.5714C5.14286 19.1511 6.294 18 7.71429 18H40.2857C41.706 18 42.8571 19.1511 42.8571 20.5714V46.2857ZM38.4249 46.2857H41.1429V20.5714C41.1429 20.0983 40.7589 19.7143 40.2857 19.7143H7.71429C7.24114 19.7143 6.85714 20.0983 6.85714 20.5714V46.2857H9.57514C9.48 46.0174 9.42857 45.7294 9.42857 45.4286V36.8571C9.42857 36.1989 9.67629 35.598 10.0834 35.1429C9.67629 34.6877 9.42857 34.0869 9.42857 33.4286V24.8571C9.42857 23.4369 10.5797 22.2857 12 22.2857H20.5714C21.9917 22.2857 23.1429 23.4369 23.1429 24.8571V33.4286C23.1429 34.0869 22.8951 34.6877 22.488 35.1429C22.8951 35.598 23.1429 36.1989 23.1429 36.8571V45.4286C23.1429 45.7294 23.0914 46.0174 22.9963 46.2857H25.0037C24.9086 46.0174 24.8571 45.7294 24.8571 45.4286V36.8571C24.8571 36.1989 25.1049 35.598 25.512 35.1429C25.1049 34.6877 24.8571 34.0869 24.8571 33.4286V24.8571C24.8571 23.4369 26.0083 22.2857 27.4286 22.2857H36C37.4203 22.2857 38.5714 23.4369 38.5714 24.8571V33.4286C38.5714 34.0869 38.3237 34.6877 37.9166 35.1429C38.3237 35.598 38.5714 36.1989 38.5714 36.8571V45.4286C38.5714 45.7294 38.52 46.0174 38.4249 46.2857ZM20.5714 46.2857C21.0446 46.2857 21.4286 45.9017 21.4286 45.4286V36.8571C21.4286 36.384 21.0446 36 20.5714 36H12C11.5269 36 11.1429 36.384 11.1429 36.8571V45.4286C11.1429 45.9017 11.5269 46.2857 12 46.2857H20.5714ZM36 46.2857C36.4731 46.2857 36.8571 45.9017 36.8571 45.4286V36.8571C36.8571 36.384 36.4731 36 36 36H27.4286C26.9554 36 26.5714 36.384 26.5714 36.8571V45.4286C26.5714 45.9017 26.9554 46.2857 27.4286 46.2857H36ZM33.4286 44.5714H35.1429C35.616 44.5714 36 44.1874 36 43.7143C36 43.2411 35.616 42.8571 35.1429 42.8571H33.4286C32.9554 42.8571 32.5714 43.2411 32.5714 43.7143C32.5714 44.1874 32.9554 44.5714 33.4286 44.5714ZM18 44.5714H19.7143C20.1874 44.5714 20.5714 44.1874 20.5714 43.7143C20.5714 43.2411 20.1874 42.8571 19.7143 42.8571H18C17.5269 42.8571 17.1429 43.2411 17.1429 43.7143C17.1429 44.1874 17.5269 44.5714 18 44.5714ZM33.4286 42H35.1429C35.616 42 36 41.616 36 41.1429C36 40.6697 35.616 40.2857 35.1429 40.2857H33.4286C32.9554 40.2857 32.5714 40.6697 32.5714 41.1429C32.5714 41.616 32.9554 42 33.4286 42ZM18 42H19.7143C20.1874 42 20.5714 41.616 20.5714 41.1429C20.5714 40.6697 20.1874 40.2857 19.7143 40.2857H18C17.5269 40.2857 17.1429 40.6697 17.1429 41.1429C17.1429 41.616 17.5269 42 18 42ZM36.8571 24.8571C36.8571 24.384 36.4731 24 36 24H27.4286C26.9554 24 26.5714 24.384 26.5714 24.8571V33.4286C26.5714 33.9017 26.9554 34.2857 27.4286 34.2857H36C36.4731 34.2857 36.8571 33.9017 36.8571 33.4286V24.8571ZM21.4286 24.8571C21.4286 24.384 21.0446 24 20.5714 24H12C11.5269 24 11.1429 24.384 11.1429 24.8571V33.4286C11.1429 33.9017 11.5269 34.2857 12 34.2857H20.5714C21.0446 34.2857 21.4286 33.9017 21.4286 33.4286V24.8571ZM33.4286 32.5714H35.1429C35.616 32.5714 36 32.1874 36 31.7143C36 31.2411 35.616 30.8571 35.1429 30.8571H33.4286C32.9554 30.8571 32.5714 31.2411 32.5714 31.7143C32.5714 32.1874 32.9554 32.5714 33.4286 32.5714ZM18 32.5714H19.7143C20.1874 32.5714 20.5714 32.1874 20.5714 31.7143C20.5714 31.2411 20.1874 30.8571 19.7143 30.8571H18C17.5269 30.8571 17.1429 31.2411 17.1429 31.7143C17.1429 32.1874 17.5269 32.5714 18 32.5714ZM18 30H19.7143C20.1874 30 20.5714 29.616 20.5714 29.1429C20.5714 28.6697 20.1874 28.2857 19.7143 28.2857H18C17.5269 28.2857 17.1429 28.6697 17.1429 29.1429C17.1429 29.616 17.5269 30 18 30ZM33.4286 30H35.1429C35.616 30 36 29.616 36 29.1429C36 28.6697 35.616 28.2857 35.1429 28.2857H33.4286C32.9554 28.2857 32.5714 28.6697 32.5714 29.1429C32.5714 29.616 32.9554 30 33.4286 30ZM30 10.2857C30 9.99943 29.8569 9.73114 29.6186 9.57257L24.4757 6.144C24.1877 5.952 23.8123 5.952 23.5243 6.144L18.3814 9.57257C18.1431 9.73114 18 9.99943 18 10.2857V13.7143C18 14.1874 18.384 14.5714 18.8571 14.5714H29.1429C29.616 14.5714 30 14.1874 30 13.7143V10.2857ZM19.7143 10.7443V12.8571H28.2857V10.7443L24 7.88743L19.7143 10.7443Z" />

    </symbol>
    <symbol id=" " viewBox="0 0 60 60">

        <path
            d="M17.8125 21.5625C18.848 21.5625 19.6875 20.723 19.6875 19.6875C19.6875 18.652 18.848 17.8125 17.8125 17.8125C16.777 17.8125 15.9375 18.652 15.9375 19.6875C15.9375 20.723 16.777 21.5625 17.8125 21.5625Z" />
        <path
            d="M25.3125 21.5625C26.348 21.5625 27.1875 20.723 27.1875 19.6875C27.1875 18.652 26.348 17.8125 25.3125 17.8125C24.277 17.8125 23.4375 18.652 23.4375 19.6875C23.4375 20.723 24.277 21.5625 25.3125 21.5625Z" />
        <path d="M18.75 46.875H13.125V48.75H18.75V46.875Z" />
        <path
            d="M57.1875 37.5H36.8625C36.3766 37.2303 35.8646 37.0105 35.3344 36.8437L29.2219 34.9312C28.5384 33.8894 27.4697 33.1612 26.25 32.9062V31.6781C27.798 30.8847 29.1207 29.7135 30.0958 28.2731C31.0708 26.8326 31.6667 25.1694 31.8282 23.4375H31.875C32.7471 23.4353 33.591 23.1292 34.2618 22.572C34.9325 22.0147 35.3881 21.2412 35.5502 20.3843C35.7122 19.5275 35.5706 18.641 35.1496 17.8773C34.7287 17.1136 34.0548 16.5205 33.2438 16.2C33.2719 16.1437 33.3094 16.0969 33.3375 16.0406L33.4407 15.8437C33.6192 15.4894 33.7202 15.101 33.7369 14.7045C33.7536 14.3081 33.6856 13.9126 33.5375 13.5445C33.3893 13.1763 33.1644 12.844 32.8778 12.5696C32.5911 12.2952 32.2493 12.085 31.875 11.9531V7.76248C31.8703 6.67211 31.4873 5.61716 30.7915 4.77768C30.0956 3.93821 29.13 3.36623 28.0594 3.15936L23.2125 2.18436C22.12 1.96874 20.9958 1.96874 19.9032 2.18436L15.0188 3.16874C13.9573 3.38253 13.0023 3.9566 12.3155 4.79375C11.6287 5.63089 11.2523 6.67966 11.25 7.76248V11.9531C10.8758 12.085 10.534 12.2952 10.2473 12.5696C9.96065 12.844 9.73576 13.1763 9.58762 13.5445C9.43948 13.9126 9.3715 14.3081 9.38819 14.7045C9.40488 15.101 9.50586 15.4894 9.68442 15.8437L9.77817 16.0406C9.81581 16.0915 9.85026 16.1448 9.88129 16.2C9.07031 16.5205 8.39639 17.1136 7.97545 17.8773C7.55451 18.641 7.41288 19.5275 7.57492 20.3843C7.73697 21.2412 8.19255 22.0147 8.8633 22.572C9.53405 23.1292 10.378 23.4353 11.25 23.4375H11.2969C11.5078 25.8402 12.5603 28.0913 14.2688 29.7937C15.0343 30.5535 15.9136 31.1893 16.875 31.6781V32.9062C15.6554 33.1612 14.5867 33.8894 13.9032 34.9312L7.79067 36.8344C6.07255 37.3668 4.57062 38.4364 3.50575 39.8861C2.44089 41.3357 1.8693 43.0888 1.87504 44.8875V57.1875C1.87504 57.4361 1.97381 57.6746 2.14963 57.8504C2.32545 58.0262 2.5639 58.125 2.81254 58.125H57.1875C57.4362 58.125 57.6746 58.0262 57.8505 57.8504C58.0263 57.6746 58.125 57.4361 58.125 57.1875V38.4375C58.125 38.1888 58.0263 37.9504 57.8505 37.7746C57.6746 37.5988 57.4362 37.5 57.1875 37.5ZM31.875 17.8125C32.3719 17.814 32.8479 18.012 33.1992 18.3633C33.5505 18.7146 33.7486 19.1907 33.75 19.6875C33.7464 20.1836 33.5476 20.6584 33.1968 21.0092C32.846 21.3601 32.3712 21.5588 31.875 21.5625V17.8125ZM11.25 21.5625C10.7539 21.5588 10.2791 21.3601 9.92828 21.0092C9.57745 20.6584 9.37872 20.1836 9.37504 19.6875C9.37653 19.1907 9.57455 18.7146 9.92586 18.3633C10.2772 18.012 10.7532 17.814 11.25 17.8125V21.5625ZM28.125 37.5V38.5969C27.5181 38.3843 26.857 38.3843 26.25 38.5969V34.8469C26.7976 35.0425 27.2714 35.4022 27.607 35.877C27.9425 36.3518 28.1234 36.9186 28.125 37.5ZM30 22.5C29.9978 23.8376 29.6764 25.1553 29.0625 26.3437V23.6344L30 21.4406V22.5ZM13.125 7.76248C13.1311 7.10467 13.3652 6.46935 13.7876 5.96497C14.2099 5.46059 14.7942 5.11841 15.4407 4.99686L20.2688 4.02186C21.1208 3.86249 21.9949 3.86249 22.8469 4.02186L27.7313 5.00624C28.3687 5.13472 28.9424 5.47899 29.3556 5.98104C29.7689 6.48309 29.9965 7.11224 30 7.76248V11.5969L23.9813 10.6781C22.3787 10.425 20.7464 10.425 19.1438 10.6781L13.125 11.5969V7.76248ZM11.4563 15.1969L11.3625 15.0094C11.297 14.8764 11.2636 14.7299 11.2652 14.5817C11.2669 14.4334 11.3034 14.2877 11.3719 14.1562C11.4377 14.0246 11.5343 13.9107 11.6534 13.8242C11.7725 13.7377 11.9107 13.6812 12.0563 13.6594L19.425 12.525C20.8421 12.3125 22.283 12.3125 23.7 12.525L31.0688 13.6594C31.2139 13.6824 31.3515 13.7392 31.4706 13.8252C31.5897 13.9112 31.6869 14.0239 31.7544 14.1544C31.8219 14.2848 31.8578 14.4293 31.8592 14.5762C31.8606 14.7231 31.8275 14.8683 31.7625 15L31.6688 15.1969C31.5775 15.3794 31.4295 15.5275 31.2469 15.6188C31.0644 15.7101 30.8571 15.7397 30.6563 15.7031L23.7469 14.4469C22.3034 14.175 20.8217 14.175 19.3782 14.4469L12.4688 15.7031C12.268 15.7397 12.0607 15.7101 11.8781 15.6188C11.6956 15.5275 11.5475 15.3794 11.4563 15.1969ZM14.0625 26.3625C13.4453 25.1686 13.1238 23.844 13.125 22.5V21.4406L14.0625 23.6344V26.3625ZM13.4438 17.4281L19.7157 16.2844C20.9376 16.0672 22.1886 16.0704 23.4094 16.2937L29.6813 17.4281L27.5063 22.5H15.6188L13.4438 17.4281ZM15.9375 28.7719V28.125H19.6875V26.25H15.9375V24.375H27.1875V26.25H23.4375V28.125H27.1875V28.7719C25.6456 30.1658 23.6411 30.9376 21.5625 30.9376C19.484 30.9376 17.4794 30.1658 15.9375 28.7719ZM24.375 32.4094V35.2406L21.5625 38.0531L18.75 35.2406V32.4187C20.5883 32.947 22.5386 32.9437 24.375 32.4094ZM15 37.5C15.0016 36.9186 15.1826 36.3518 15.5181 35.877C15.8537 35.4022 16.3275 35.0425 16.875 34.8469V38.5969C16.2681 38.3843 15.607 38.3843 15 38.5969V37.5ZM9.37504 56.25H3.75004V52.5H9.37504V56.25ZM35.625 56.25H33.75V52.5H35.625V56.25ZM35.625 50.625H33.75V45.9375H31.875V56.25H11.25V45.9375H9.37504V50.625H3.75004V44.8875C3.74486 43.4881 4.18942 42.1242 5.01819 40.9966C5.84696 39.8691 7.01607 39.0377 8.35317 38.625L13.1625 37.125C13.1532 37.2469 13.125 37.3687 13.125 37.5V41.25C13.125 41.4986 13.2238 41.7371 13.3996 41.9129C13.5754 42.0887 13.8139 42.1875 14.0625 42.1875C14.3112 42.1875 14.5496 42.0887 14.7255 41.9129C14.9013 41.7371 15 41.4986 15 41.25C15 41.0013 15.0988 40.7629 15.2746 40.5871C15.4504 40.4113 15.6889 40.3125 15.9375 40.3125C16.1862 40.3125 16.4246 40.4113 16.6005 40.5871C16.7763 40.7629 16.875 41.0013 16.875 41.25C16.875 41.4986 16.9738 41.7371 17.1496 41.9129C17.3254 42.0887 17.5639 42.1875 17.8125 42.1875C18.0612 42.1875 18.2996 42.0887 18.4755 41.9129C18.6513 41.7371 18.75 41.4986 18.75 41.25V37.8844L20.8969 40.0406C21.0746 40.2149 21.3136 40.3125 21.5625 40.3125C21.8115 40.3125 22.0504 40.2149 22.2282 40.0406L24.375 37.8844V41.25C24.375 41.4986 24.4738 41.7371 24.6496 41.9129C24.8254 42.0887 25.0639 42.1875 25.3125 42.1875C25.5612 42.1875 25.7996 42.0887 25.9755 41.9129C26.1513 41.7371 26.25 41.4986 26.25 41.25C26.25 41.0013 26.3488 40.7629 26.5246 40.5871C26.7004 40.4113 26.9389 40.3125 27.1875 40.3125C27.4362 40.3125 27.6746 40.4113 27.8505 40.5871C28.0263 40.7629 28.125 41.0013 28.125 41.25C28.125 41.4986 28.2238 41.7371 28.3996 41.9129C28.5754 42.0887 28.8139 42.1875 29.0625 42.1875C29.3112 42.1875 29.5496 42.0887 29.7255 41.9129C29.9013 41.7371 30 41.4986 30 41.25V37.5C30 37.3687 29.9719 37.2469 29.9625 37.125L34.7719 38.625C35.0629 38.7235 35.3478 38.8394 35.625 38.9719V50.625ZM45 39.375H48.75V46.875H45V39.375ZM37.5 39.375H43.125V43.125H37.5V39.375ZM56.25 56.25H37.5V45H43.125V47.8125C43.125 48.0611 43.2238 48.2996 43.3996 48.4754C43.5754 48.6512 43.8139 48.75 44.0625 48.75H49.6875C49.9362 48.75 50.1746 48.6512 50.3505 48.4754C50.5263 48.2996 50.625 48.0611 50.625 47.8125V45H56.25V56.25ZM56.25 43.125H50.625V39.375H56.25V43.125Z" />


    </symbol>
    <symbol id="sales-agent" viewBox="0 0 51 51">
        <path
            d="M19.9219 21.5156V20.7188H18.3281V21.5156C18.3281 22.3946 17.6133 23.1094 16.7344 23.1094C15.8554 23.1094 15.1406 22.3946 15.1406 21.5156V20.7188H13.5469V21.5156C13.5469 23.2735 14.9765 24.7031 16.7344 24.7031C18.4923 24.7031 19.9219 23.2735 19.9219 21.5156Z" />
        <path
            d="M40.6406 8.76562C35.3677 8.76562 31.0781 13.0552 31.0781 18.3281C31.0781 23.601 35.3677 27.8906 40.6406 27.8906C45.9135 27.8906 50.2031 23.601 50.2031 18.3281C50.2031 13.0552 45.9135 8.76562 40.6406 8.76562ZM40.6406 26.2969C36.2467 26.2969 32.6719 22.7221 32.6719 18.3281C32.6719 13.9342 36.2467 10.3594 40.6406 10.3594C45.0346 10.3594 48.6094 13.9342 48.6094 18.3281C48.6094 22.7221 45.0346 26.2969 40.6406 26.2969Z" />
        <path
            d="M32.6719 35.8594C33.5508 35.8594 34.2656 36.5742 34.2656 37.4531H35.8594C35.8594 35.9717 34.8394 34.735 33.4688 34.3788V32.6719H31.875V34.3788C30.5044 34.735 29.4844 35.9717 29.4844 37.4531C29.4844 39.211 30.914 40.6406 32.6719 40.6406C33.5508 40.6406 34.2656 41.3554 34.2656 42.2344C34.2656 43.1133 33.5508 43.8281 32.6719 43.8281C31.7929 43.8281 31.0781 43.1133 31.0781 42.2344H29.4844C29.4844 43.7158 30.5044 44.9525 31.875 45.3087V47.0156H33.4688V45.3087C34.8394 44.9525 35.8594 43.7158 35.8594 42.2344C35.8594 40.4765 34.4298 39.0469 32.6719 39.0469C31.7929 39.0469 31.0781 38.3321 31.0781 37.4531C31.0781 36.5742 31.7929 35.8594 32.6719 35.8594Z" />
        <path
            d="M32.6719 29.4844C31.6463 29.4844 30.6566 29.6398 29.7203 29.9187C27.7097 27.7297 24.9374 26.4419 21.9675 26.3224C24.1469 24.8904 25.7016 22.593 26.1526 19.9227H26.2969C28.0548 19.9227 29.4844 18.4931 29.4844 16.7352C29.4844 15.1996 28.3927 13.9142 26.9447 13.6138L27.7073 12.4703C28.87 10.7251 29.4844 8.6947 29.4844 6.59892C29.4844 3.40027 26.881 0.796875 23.6823 0.796875C22.5866 0.796875 21.5571 1.2232 20.7801 1.99856L20.7188 2.05992L20.6566 1.99777C19.8812 1.2232 18.8509 0.796875 17.7552 0.796875H10.8981C7.08581 0.796875 3.98438 3.89831 3.98438 7.71056C3.98438 9.08039 4.386 10.4064 5.14542 11.5451L6.52402 13.613C5.07609 13.9134 3.98438 15.1988 3.98438 16.7344C3.98438 18.4923 5.41397 19.9219 7.17188 19.9219H7.31611C7.76714 22.5914 9.32025 24.888 11.4981 26.32C5.5582 26.5614 0.796875 31.455 0.796875 37.4531V49.4062C0.796875 49.8469 1.15388 50.2031 1.59375 50.2031H32.6719C38.3839 50.2031 43.0312 45.5558 43.0312 39.8438C43.0312 34.1317 38.3839 29.4844 32.6719 29.4844ZM12.4703 27.8906L15.5415 30.3474L13.7652 32.1228L11.6567 27.905C11.7555 27.9026 11.8527 27.8906 11.9531 27.8906H12.4703ZM18.4469 27.8906L16.7344 29.2613L15.0219 27.8906H18.4469ZM15.6889 34.3477L16.1702 34.829C16.4818 35.1406 16.9854 35.1406 17.297 34.829L17.7783 34.3477L19.0716 42.7539L16.7344 45.092L14.3955 42.7531L15.6889 34.3477ZM16.7344 33.1388L15.869 32.2734L16.7344 31.408L17.5998 32.2734L16.7344 33.1388ZM17.9273 30.3474L20.9985 27.8906H21.5156C21.6152 27.8906 21.7125 27.9042 21.8121 27.9066L19.7035 32.1228L17.9273 30.3474ZM18.3281 13.5469C17.8883 13.5469 17.5312 13.9031 17.5312 14.3438V15.1406H15.9375V14.3438C15.9375 13.9031 15.5805 13.5469 15.1406 13.5469H8.76562V11.9531H11.9531C13.9796 11.9531 15.7574 10.867 16.7344 9.24614C17.7113 10.867 19.4892 11.9531 21.5156 11.9531H24.7031V13.5469H18.3281ZM22.3125 15.1406V16.7344H19.125V15.1406H22.3125ZM14.3438 15.1406V16.7344H11.1562V15.1406H14.3438ZM27.8906 16.7344C27.8906 17.6133 27.1758 18.3281 26.2969 18.3281V15.1406C27.1758 15.1406 27.8906 15.8554 27.8906 16.7344ZM6.47142 10.6614C5.88731 9.78403 5.57812 8.76403 5.57812 7.71056C5.57812 4.77727 7.96477 2.39062 10.8981 2.39062H17.7552C18.4253 2.39062 19.0557 2.6512 19.5298 3.12534L20.1554 3.75089C20.455 4.04972 20.9833 4.04972 21.2829 3.75089L21.9077 3.12614C22.3818 2.6512 23.0122 2.39062 23.6823 2.39062C26.0028 2.39062 27.8906 4.27842 27.8906 6.59892C27.8906 8.37914 27.3687 10.1036 26.3805 11.5858L26.2969 11.7117V11.1562C26.2969 10.7156 25.9399 10.3594 25.5 10.3594H21.5156C19.3186 10.3594 17.5312 8.57198 17.5312 6.375C17.5312 5.93433 17.1742 5.57812 16.7344 5.57812C16.2945 5.57812 15.9375 5.93433 15.9375 6.375C15.9375 8.57198 14.1501 10.3594 11.9531 10.3594H7.96875C7.52887 10.3594 7.17188 10.7156 7.17188 11.1562V11.7117L6.47142 10.6614ZM5.57812 16.7344C5.57812 15.8554 6.29292 15.1406 7.17188 15.1406V18.3281C6.29292 18.3281 5.57812 17.6133 5.57812 16.7344ZM8.76562 18.3281V15.1406H9.5625V17.5312C9.5625 17.9719 9.9195 18.3281 10.3594 18.3281H15.1406C15.5805 18.3281 15.9375 17.9719 15.9375 17.5312V16.7344H17.5312V17.5312C17.5312 17.9719 17.8883 18.3281 18.3281 18.3281H23.1094C23.5492 18.3281 23.9062 17.9719 23.9062 17.5312V15.1406H24.7031V18.3281C24.7031 22.7221 21.1283 26.2969 16.7344 26.2969C12.3404 26.2969 8.76562 22.7221 8.76562 18.3281ZM7.17188 48.6094V36.6562H5.57812V48.6094H2.39062V37.4531C2.39062 32.8599 5.64666 29.015 9.9713 28.1002L12.8337 33.8258C12.9484 34.0545 13.166 34.2146 13.4186 34.2561C13.4616 34.2624 13.5046 34.2656 13.5469 34.2656C13.7565 34.2656 13.9597 34.1828 14.1103 34.0321L14.1278 34.0146L12.7596 42.9101C12.7213 43.1611 12.8042 43.4153 12.9835 43.5946L16.171 46.7821C16.3264 46.9375 16.5304 47.0156 16.7344 47.0156C16.9384 47.0156 17.1424 46.9375 17.2978 46.7821L20.4853 43.5946C20.6646 43.4145 20.7482 43.1611 20.7092 42.9101L19.341 34.0146L19.3585 34.0321C19.5091 34.1828 19.7123 34.2656 19.9219 34.2656C19.9641 34.2656 20.0071 34.2624 20.0494 34.2553C20.302 34.2138 20.5195 34.0537 20.6343 33.825L23.4959 28.1018C25.233 28.4684 26.8372 29.3083 28.1289 30.5474C24.6912 32.2352 22.3125 35.7622 22.3125 39.8438C22.3125 43.5357 24.2601 46.7742 27.1766 48.6094H7.17188ZM32.6719 48.6094C27.8388 48.6094 23.9062 44.6768 23.9062 39.8438C23.9062 35.0107 27.8388 31.0781 32.6719 31.0781C37.5049 31.0781 41.4375 35.0107 41.4375 39.8438C41.4375 44.6768 37.5049 48.6094 32.6719 48.6094Z" />
        <path
            d="M39.0468 19.5919L38.0164 18.5616L36.8896 19.6884L38.4834 21.2821C38.6388 21.4375 38.8428 21.5156 39.0468 21.5156C39.2508 21.5156 39.4548 21.4375 39.6102 21.2821L44.3914 16.5009L43.2647 15.3741L39.0468 19.5919Z" />

    </symbol>
    <symbol id="position" viewBox="0 0 57 57">
        <path
            d="M28.8496 10.2224C27.2857 10.1154 25.8005 10.6413 24.6606 11.7042C23.5365 12.7525 22.8918 14.2344 22.8918 15.7699H26.2317C26.2317 15.1467 26.4831 14.569 26.9395 14.1433C27.3954 13.7183 27.9925 13.5067 28.6197 13.5512C29.718 13.6268 30.6034 14.5113 30.6791 15.6087C30.7365 16.4369 30.3355 17.223 29.6327 17.6603C27.8516 18.7689 26.7883 20.6627 26.7883 22.7262H30.1282C30.1282 21.8225 30.6032 20.9873 31.3988 20.4923C33.1526 19.4007 34.1536 17.4414 34.0112 15.3789C33.8213 12.629 31.6023 10.4123 28.8496 10.2224Z" />
        <path d="M26.7883 26.0629H30.1282V29.3995H26.7883V26.0629Z" />
        <path
            d="M51.1542 20.9978L46.3447 23.9224V33.9365H42.8896V14.4173C42.8896 6.46761 36.4158 0 28.4582 0C20.5005 0 14.0267 6.46761 14.0267 14.4173V33.9365H10.6554V23.9224L5.84587 20.9978L4.10938 23.8478L7.31551 25.7975V37.2731H12.0561L13.1694 43.9462H26.8301V50.2857H15.785L13.8425 55.9119L16.9996 57L18.166 53.6223H26.8301V57H30.17V53.6223H38.8341L40.0005 57L43.1576 55.9119L41.215 50.2857H30.17V43.9462H43.8307L44.944 37.2731H49.6846V25.7975L52.8907 23.8478L51.1542 20.9978ZM17.3666 14.4173C17.3666 8.30731 22.3421 3.3365 28.4582 3.3365C34.5742 3.3365 39.5498 8.30731 39.5498 14.4173V33.9365H17.3666V14.4173ZM41.0014 40.6097H15.9987L15.442 37.2731H41.558L41.0014 40.6097Z" />


    </symbol>
    <symbol id="delivery-man" viewBox="0 0 60 60">
        <path
            d="M17.8125 21.5625C18.848 21.5625 19.6875 20.723 19.6875 19.6875C19.6875 18.652 18.848 17.8125 17.8125 17.8125C16.777 17.8125 15.9375 18.652 15.9375 19.6875C15.9375 20.723 16.777 21.5625 17.8125 21.5625Z" />
        <path
            d="M25.3125 21.5625C26.348 21.5625 27.1875 20.723 27.1875 19.6875C27.1875 18.652 26.348 17.8125 25.3125 17.8125C24.277 17.8125 23.4375 18.652 23.4375 19.6875C23.4375 20.723 24.277 21.5625 25.3125 21.5625Z" />
        <path d="M18.75 46.875H13.125V48.75H18.75V46.875Z" />
        <path
            d="M57.1875 37.5H36.8625C36.3766 37.2303 35.8646 37.0105 35.3344 36.8437L29.2219 34.9312C28.5384 33.8894 27.4697 33.1612 26.25 32.9062V31.6781C27.798 30.8847 29.1207 29.7135 30.0958 28.2731C31.0708 26.8326 31.6667 25.1694 31.8282 23.4375H31.875C32.7471 23.4353 33.591 23.1292 34.2618 22.572C34.9325 22.0147 35.3881 21.2412 35.5502 20.3843C35.7122 19.5275 35.5706 18.641 35.1496 17.8773C34.7287 17.1136 34.0548 16.5205 33.2438 16.2C33.2719 16.1437 33.3094 16.0969 33.3375 16.0406L33.4407 15.8437C33.6192 15.4894 33.7202 15.101 33.7369 14.7045C33.7536 14.3081 33.6856 13.9126 33.5375 13.5445C33.3893 13.1763 33.1644 12.844 32.8778 12.5696C32.5911 12.2952 32.2493 12.085 31.875 11.9531V7.76248C31.8703 6.67211 31.4873 5.61716 30.7915 4.77768C30.0956 3.93821 29.13 3.36623 28.0594 3.15936L23.2125 2.18436C22.12 1.96874 20.9958 1.96874 19.9032 2.18436L15.0188 3.16874C13.9573 3.38253 13.0023 3.9566 12.3155 4.79375C11.6287 5.63089 11.2523 6.67966 11.25 7.76248V11.9531C10.8758 12.085 10.534 12.2952 10.2473 12.5696C9.96065 12.844 9.73576 13.1763 9.58762 13.5445C9.43948 13.9126 9.3715 14.3081 9.38819 14.7045C9.40488 15.101 9.50586 15.4894 9.68442 15.8437L9.77817 16.0406C9.81581 16.0915 9.85026 16.1448 9.88129 16.2C9.07031 16.5205 8.39639 17.1136 7.97545 17.8773C7.55451 18.641 7.41288 19.5275 7.57492 20.3843C7.73697 21.2412 8.19255 22.0147 8.8633 22.572C9.53405 23.1292 10.378 23.4353 11.25 23.4375H11.2969C11.5078 25.8402 12.5603 28.0913 14.2688 29.7937C15.0343 30.5535 15.9136 31.1893 16.875 31.6781V32.9062C15.6554 33.1612 14.5867 33.8894 13.9032 34.9312L7.79067 36.8344C6.07255 37.3668 4.57062 38.4364 3.50575 39.8861C2.44089 41.3357 1.8693 43.0888 1.87504 44.8875V57.1875C1.87504 57.4361 1.97381 57.6746 2.14963 57.8504C2.32545 58.0262 2.5639 58.125 2.81254 58.125H57.1875C57.4362 58.125 57.6746 58.0262 57.8505 57.8504C58.0263 57.6746 58.125 57.4361 58.125 57.1875V38.4375C58.125 38.1888 58.0263 37.9504 57.8505 37.7746C57.6746 37.5988 57.4362 37.5 57.1875 37.5ZM31.875 17.8125C32.3719 17.814 32.8479 18.012 33.1992 18.3633C33.5505 18.7146 33.7486 19.1907 33.75 19.6875C33.7464 20.1836 33.5476 20.6584 33.1968 21.0092C32.846 21.3601 32.3712 21.5588 31.875 21.5625V17.8125ZM11.25 21.5625C10.7539 21.5588 10.2791 21.3601 9.92828 21.0092C9.57745 20.6584 9.37872 20.1836 9.37504 19.6875C9.37653 19.1907 9.57455 18.7146 9.92586 18.3633C10.2772 18.012 10.7532 17.814 11.25 17.8125V21.5625ZM28.125 37.5V38.5969C27.5181 38.3843 26.857 38.3843 26.25 38.5969V34.8469C26.7976 35.0425 27.2714 35.4022 27.607 35.877C27.9425 36.3518 28.1234 36.9186 28.125 37.5ZM30 22.5C29.9978 23.8376 29.6764 25.1553 29.0625 26.3437V23.6344L30 21.4406V22.5ZM13.125 7.76248C13.1311 7.10467 13.3652 6.46935 13.7876 5.96497C14.2099 5.46059 14.7942 5.11841 15.4407 4.99686L20.2688 4.02186C21.1208 3.86249 21.9949 3.86249 22.8469 4.02186L27.7313 5.00624C28.3687 5.13472 28.9424 5.47899 29.3556 5.98104C29.7689 6.48309 29.9965 7.11224 30 7.76248V11.5969L23.9813 10.6781C22.3787 10.425 20.7464 10.425 19.1438 10.6781L13.125 11.5969V7.76248ZM11.4563 15.1969L11.3625 15.0094C11.297 14.8764 11.2636 14.7299 11.2652 14.5817C11.2669 14.4334 11.3034 14.2877 11.3719 14.1562C11.4377 14.0246 11.5343 13.9107 11.6534 13.8242C11.7725 13.7377 11.9107 13.6812 12.0563 13.6594L19.425 12.525C20.8421 12.3125 22.283 12.3125 23.7 12.525L31.0688 13.6594C31.2139 13.6824 31.3515 13.7392 31.4706 13.8252C31.5897 13.9112 31.6869 14.0239 31.7544 14.1544C31.8219 14.2848 31.8578 14.4293 31.8592 14.5762C31.8606 14.7231 31.8275 14.8683 31.7625 15L31.6688 15.1969C31.5775 15.3794 31.4295 15.5275 31.2469 15.6188C31.0644 15.7101 30.8571 15.7397 30.6563 15.7031L23.7469 14.4469C22.3034 14.175 20.8217 14.175 19.3782 14.4469L12.4688 15.7031C12.268 15.7397 12.0607 15.7101 11.8781 15.6188C11.6956 15.5275 11.5475 15.3794 11.4563 15.1969ZM14.0625 26.3625C13.4453 25.1686 13.1238 23.844 13.125 22.5V21.4406L14.0625 23.6344V26.3625ZM13.4438 17.4281L19.7157 16.2844C20.9376 16.0672 22.1886 16.0704 23.4094 16.2937L29.6813 17.4281L27.5063 22.5H15.6188L13.4438 17.4281ZM15.9375 28.7719V28.125H19.6875V26.25H15.9375V24.375H27.1875V26.25H23.4375V28.125H27.1875V28.7719C25.6456 30.1658 23.6411 30.9376 21.5625 30.9376C19.484 30.9376 17.4794 30.1658 15.9375 28.7719ZM24.375 32.4094V35.2406L21.5625 38.0531L18.75 35.2406V32.4187C20.5883 32.947 22.5386 32.9437 24.375 32.4094ZM15 37.5C15.0016 36.9186 15.1826 36.3518 15.5181 35.877C15.8537 35.4022 16.3275 35.0425 16.875 34.8469V38.5969C16.2681 38.3843 15.607 38.3843 15 38.5969V37.5ZM9.37504 56.25H3.75004V52.5H9.37504V56.25ZM35.625 56.25H33.75V52.5H35.625V56.25ZM35.625 50.625H33.75V45.9375H31.875V56.25H11.25V45.9375H9.37504V50.625H3.75004V44.8875C3.74486 43.4881 4.18942 42.1242 5.01819 40.9966C5.84696 39.8691 7.01607 39.0377 8.35317 38.625L13.1625 37.125C13.1532 37.2469 13.125 37.3687 13.125 37.5V41.25C13.125 41.4986 13.2238 41.7371 13.3996 41.9129C13.5754 42.0887 13.8139 42.1875 14.0625 42.1875C14.3112 42.1875 14.5496 42.0887 14.7255 41.9129C14.9013 41.7371 15 41.4986 15 41.25C15 41.0013 15.0988 40.7629 15.2746 40.5871C15.4504 40.4113 15.6889 40.3125 15.9375 40.3125C16.1862 40.3125 16.4246 40.4113 16.6005 40.5871C16.7763 40.7629 16.875 41.0013 16.875 41.25C16.875 41.4986 16.9738 41.7371 17.1496 41.9129C17.3254 42.0887 17.5639 42.1875 17.8125 42.1875C18.0612 42.1875 18.2996 42.0887 18.4755 41.9129C18.6513 41.7371 18.75 41.4986 18.75 41.25V37.8844L20.8969 40.0406C21.0746 40.2149 21.3136 40.3125 21.5625 40.3125C21.8115 40.3125 22.0504 40.2149 22.2282 40.0406L24.375 37.8844V41.25C24.375 41.4986 24.4738 41.7371 24.6496 41.9129C24.8254 42.0887 25.0639 42.1875 25.3125 42.1875C25.5612 42.1875 25.7996 42.0887 25.9755 41.9129C26.1513 41.7371 26.25 41.4986 26.25 41.25C26.25 41.0013 26.3488 40.7629 26.5246 40.5871C26.7004 40.4113 26.9389 40.3125 27.1875 40.3125C27.4362 40.3125 27.6746 40.4113 27.8505 40.5871C28.0263 40.7629 28.125 41.0013 28.125 41.25C28.125 41.4986 28.2238 41.7371 28.3996 41.9129C28.5754 42.0887 28.8139 42.1875 29.0625 42.1875C29.3112 42.1875 29.5496 42.0887 29.7255 41.9129C29.9013 41.7371 30 41.4986 30 41.25V37.5C30 37.3687 29.9719 37.2469 29.9625 37.125L34.7719 38.625C35.0629 38.7235 35.3478 38.8394 35.625 38.9719V50.625ZM45 39.375H48.75V46.875H45V39.375ZM37.5 39.375H43.125V43.125H37.5V39.375ZM56.25 56.25H37.5V45H43.125V47.8125C43.125 48.0611 43.2238 48.2996 43.3996 48.4754C43.5754 48.6512 43.8139 48.75 44.0625 48.75H49.6875C49.9362 48.75 50.1746 48.6512 50.3505 48.4754C50.5263 48.2996 50.625 48.0611 50.625 47.8125V45H56.25V56.25ZM56.25 43.125H50.625V39.375H56.25V43.125Z" />

    </symbol>
    <symbol id="other" viewBox="0 0 55 55">
        <path
            d="M27.8366 9.86376C26.3276 9.76042 24.8945 10.2679 23.7946 11.2935C22.71 12.305 22.0879 13.7349 22.0879 15.2166H25.3105C25.3105 14.6152 25.5531 14.0578 25.9935 13.647C26.4334 13.2369 27.0095 13.0328 27.6147 13.0757C28.6746 13.1486 29.5289 14.0021 29.6019 15.061C29.6573 15.8602 29.2703 16.6187 28.5922 17.0406C26.8736 18.1103 25.8477 19.9377 25.8477 21.9287H29.0703C29.0703 21.0568 29.5287 20.2509 30.2963 19.7732C31.9886 18.7199 32.9545 16.8294 32.8171 14.8393C32.6338 12.1859 30.4927 10.0469 27.8366 9.86376Z" />
        <path d="M25.8477 25.1484H29.0703V28.368H25.8477V25.1484Z" />
        <path
            d="M49.359 20.2611L44.7182 23.083V32.7457H41.3844V13.9115C41.3844 6.24067 35.1377 0 27.4593 0C19.7809 0 13.5342 6.24067 13.5342 13.9115V32.7457H10.2811V23.083L5.64041 20.2611L3.96484 23.0111L7.05849 24.8923V35.9653H11.6327L12.7069 42.4042H25.8884V48.5213H15.2308L13.3564 53.9501L16.4028 55L17.5283 51.7408H25.8884V55H29.111V51.7408H37.4711L38.5966 55L41.643 53.9501L39.7686 48.5213H29.111V42.4042H42.2924L43.3667 35.9653H47.9409V24.8923L51.0345 23.0111L49.359 20.2611ZM16.7569 13.9115C16.7569 8.01582 21.5579 3.21943 27.4593 3.21943C33.3607 3.21943 38.1617 8.01582 38.1617 13.9115V32.7457H16.7569V13.9115ZM39.5624 39.1848H15.437L14.8999 35.9653H40.0995L39.5624 39.1848Z" />


    </symbol>
    <symbol id=""></symbol>
    <symbol id=""></symbol>
    <symbol id=""></symbol>
    <symbol id=""></symbol>
    <symbol id=""></symbol>
    <symbol id=""></symbol>
    <symbol id=""></symbol>
    <symbol id=""></symbol>
    <symbol id=""></symbol>
    <symbol id=""></symbol>
    <symbol id=""></symbol>
    <symbol id=""></symbol>
    <symbol id=""></symbol>
    <symbol id=""></symbol>
    <symbol id=""></symbol>
    <symbol id=""></symbol>
    <symbol id=""></symbol>

</svg>