<svg width="39" height="31" viewBox="0 0 39 31" fill="none" xmlns="http://www.w3.org/2000/svg">
<path d="M9.76469 11.8619C9.41138 11.8636 9.06028 11.8062 8.72594 11.6919C8.35854 11.5721 7.96806 11.5406 7.58619 11.5999C7.20432 11.6593 6.84183 11.8078 6.52812 12.0335L0.233437 16.4332L0.230938 16.436C0.160507 16.4872 0.102969 16.5541 0.0628839 16.6314C0.0227989 16.7087 0.00126879 16.7942 0 16.8813V27.7072C0.000153144 28.0618 0.0749261 28.4124 0.219458 28.7362C0.363989 29.0599 0.575044 29.3497 0.8389 29.5865C1.10276 29.8234 1.41351 30.0021 1.75095 30.1109C2.08839 30.2198 2.44497 30.2565 2.7975 30.2185L21.0256 28.2497C21.456 28.1945 21.8655 28.0314 22.216 27.7756C22.5665 27.5198 22.8467 27.1796 23.0306 26.7866C23.1641 26.5172 23.3635 26.2858 23.6104 26.1141C23.8572 25.9423 24.1434 25.8358 24.4425 25.8042C24.7415 25.7727 25.0437 25.8173 25.3209 25.9338C25.5981 26.0503 25.8414 26.235 26.0281 26.4707C26.2878 26.8127 26.6299 27.0832 27.0225 27.2571C27.4151 27.4309 27.8454 27.5024 28.2731 27.4647L36.2731 26.6004C36.8928 26.5343 37.4661 26.2411 37.8825 25.7773C38.2988 25.3135 38.5287 24.712 38.5278 24.0888C38.5278 24.0888 38.5278 14.6432 38.5278 14.5604C38.5278 1.00536 24.0784 0.0100494 23.9412 0.00129944C23.8174 -0.00731865 23.6945 0.0271264 23.5931 0.0987995L13.1031 7.43599C12.6939 7.71896 12.3784 8.11759 12.1971 8.58087C12.0157 9.04416 11.9767 9.55103 12.085 10.0366C12.3191 11.0857 11.0009 11.8619 9.76469 11.8619ZM37.4359 24.0891C37.4365 24.4425 37.3061 24.7836 37.0699 25.0466C36.8338 25.3096 36.5086 25.4758 36.1572 25.5132L28.1572 26.3775C27.9127 26.3962 27.6675 26.352 27.445 26.249C27.2224 26.1461 27.03 25.9879 26.8859 25.7894C26.5845 25.4097 26.1921 25.1123 25.745 24.9247C25.298 24.7371 24.8108 24.6655 24.3286 24.7165C23.8465 24.7674 23.3851 24.9393 22.9871 25.2162C22.5892 25.4931 22.2676 25.866 22.0522 26.3004C21.951 26.5295 21.7929 26.7291 21.593 26.88C21.393 27.031 21.1578 27.1283 20.9097 27.1629L2.68156 29.1316C2.4816 29.1534 2.27928 29.1328 2.08781 29.0711C1.89635 29.0095 1.72002 28.9082 1.57032 28.7738C1.42063 28.6395 1.30093 28.4751 1.21903 28.2913C1.13713 28.1076 1.09487 27.9087 1.095 27.7076V17.3951L37.4344 15.1747L37.4359 24.0891ZM13.1522 9.79693C13.0919 9.52305 13.1146 9.23741 13.2176 8.97654C13.3205 8.71568 13.4989 8.49145 13.73 8.33255L24.0575 1.10849C25.6731 1.26255 36.3628 2.71224 37.3938 14.0825L2.45219 16.2172L7.15344 12.9294C7.32563 12.8027 7.52519 12.7183 7.73603 12.6829C7.94686 12.6475 8.16306 12.6621 8.36719 12.7257C8.81648 12.8794 9.28828 12.957 9.76313 12.9554C12.0431 12.9557 13.4987 11.3376 13.1522 9.79693Z" fill="#CACACA"/>
<path d="M32.854 10.145C32.854 8.8675 31.5368 7.82812 29.9165 7.82812C28.2962 7.82812 26.979 8.8675 26.979 10.145C26.979 11.4225 28.2962 12.4619 29.9165 12.4619C31.5368 12.4619 32.854 11.4225 32.854 10.145ZM28.0753 10.145C28.0753 9.48188 28.919 8.92188 29.919 8.92188C30.919 8.92188 31.7628 9.48188 31.7628 10.145C31.7628 10.8081 30.9165 11.3669 29.9178 11.3669C28.919 11.3669 28.0753 10.8078 28.0753 10.145Z" fill="#CACACA"/>
<path d="M23.009 9.5497C23.009 8.44126 21.9206 7.57251 20.5312 7.57251C19.1419 7.57251 18.0531 8.44126 18.0531 9.5497C18.0531 10.6581 19.1415 11.5272 20.5312 11.5272C21.9209 11.5272 23.009 10.6588 23.009 9.5497ZM19.1469 9.5497C19.1469 9.07938 19.7937 8.66626 20.5312 8.66626C21.2687 8.66626 21.9153 9.07938 21.9153 9.5497C21.9153 10.02 21.2684 10.4334 20.5312 10.4334C19.794 10.4334 19.1469 10.0206 19.1469 9.5497Z" fill="#CACACA"/>
<path d="M27.6397 4.84633C27.6397 3.73758 26.5512 2.86914 25.1618 2.86914C23.7725 2.86914 22.6837 3.73758 22.6837 4.84633C22.6837 5.95508 23.7725 6.82352 25.1618 6.82352C26.5512 6.82352 27.6397 5.95508 27.6397 4.84633ZM23.7775 4.84633C23.7775 4.3757 24.4247 3.96289 25.1618 3.96289C25.899 3.96289 26.5459 4.3757 26.5459 4.84633C26.5459 5.31695 25.899 5.72977 25.1618 5.72977C24.4247 5.72977 23.7784 5.31695 23.7784 4.84633H23.7775Z" fill="#CACACA"/>
<path d="M34.6431 19.4919C34.6431 19.0299 34.5061 18.5783 34.2494 18.1942C33.9927 17.81 33.6279 17.5106 33.2011 17.3338C32.7742 17.157 32.3045 17.1108 31.8514 17.2009C31.3983 17.291 30.9821 17.5135 30.6554 17.8402C30.3287 18.1669 30.1062 18.5831 30.0161 19.0362C29.9259 19.4894 29.9722 19.959 30.149 20.3859C30.3258 20.8127 30.6252 21.1775 31.0094 21.4342C31.3935 21.6909 31.8451 21.8279 32.3071 21.8279C32.9264 21.8271 33.5201 21.5808 33.9581 21.1429C34.396 20.705 34.6423 20.1112 34.6431 19.4919ZM31.0649 19.4919C31.0649 19.2463 31.1378 19.0061 31.2743 18.8018C31.4108 18.5975 31.6048 18.4383 31.8318 18.3443C32.0587 18.2503 32.3085 18.2257 32.5495 18.2736C32.7904 18.3216 33.0118 18.4399 33.1855 18.6136C33.3592 18.7873 33.4775 19.0086 33.5254 19.2496C33.5734 19.4906 33.5488 19.7403 33.4548 19.9673C33.3607 20.1943 33.2015 20.3883 32.9972 20.5248C32.793 20.6613 32.5528 20.7341 32.3071 20.7341C31.9778 20.7338 31.662 20.6028 31.4291 20.3699C31.1963 20.1371 31.0653 19.8213 31.0649 19.4919Z" fill="#CACACA"/>
<path d="M8.93841 21.2821C8.93841 20.8719 8.81677 20.4709 8.58887 20.1298C8.36097 19.7887 8.03704 19.5229 7.65806 19.3659C7.27907 19.2089 6.86205 19.1678 6.45972 19.2479C6.05739 19.3279 5.68783 19.5254 5.39776 19.8155C5.1077 20.1056 4.91016 20.4751 4.83014 20.8774C4.75011 21.2798 4.79118 21.6968 4.94816 22.0758C5.10514 22.4548 5.37098 22.7787 5.71206 23.0066C6.05314 23.2345 6.45414 23.3561 6.86435 23.3561C7.41425 23.3556 7.94146 23.1368 8.33029 22.748C8.71913 22.3592 8.93783 21.832 8.93841 21.2821ZM5.88435 21.2821C5.88435 21.0882 5.94185 20.8986 6.04958 20.7374C6.15731 20.5762 6.31044 20.4505 6.48958 20.3764C6.66873 20.3022 6.86585 20.2828 7.05602 20.3206C7.24619 20.3585 7.42087 20.4519 7.55796 20.589C7.69504 20.7261 7.78838 20.9008 7.82617 21.091C7.86396 21.2812 7.84451 21.4783 7.77026 21.6574C7.69602 21.8366 7.57032 21.9896 7.40907 22.0973C7.24781 22.205 7.05825 22.2624 6.86435 22.2624C6.60448 22.2621 6.35536 22.1587 6.17164 21.9749C5.98791 21.7911 5.8846 21.5419 5.88435 21.2821Z" fill="#CACACA"/>
<path d="M18.2544 22.1131C18.2544 21.5903 18.0994 21.0793 17.8089 20.6447C17.5185 20.21 17.1057 19.8712 16.6227 19.6712C16.1398 19.4711 15.6083 19.4188 15.0956 19.5208C14.5829 19.6227 14.1119 19.8745 13.7423 20.2441C13.3726 20.6138 13.1209 21.0847 13.0189 21.5974C12.9169 22.1102 12.9693 22.6416 13.1693 23.1246C13.3694 23.6075 13.7082 24.0203 14.1428 24.3108C14.5775 24.6012 15.0885 24.7562 15.6113 24.7562C16.312 24.7555 16.9839 24.4768 17.4794 23.9812C17.9749 23.4857 18.2536 22.8139 18.2544 22.1131ZM14.0622 22.1131C14.0622 21.8066 14.1531 21.5071 14.3233 21.2523C14.4936 20.9975 14.7356 20.7989 15.0187 20.6816C15.3019 20.5644 15.6134 20.5337 15.914 20.5935C16.2145 20.6533 16.4906 20.8009 16.7073 21.0176C16.9239 21.2343 17.0715 21.5105 17.1312 21.811C17.191 22.1116 17.1602 22.4231 17.0429 22.7062C16.9256 22.9893 16.727 23.2313 16.4721 23.4015C16.2173 23.5717 15.9177 23.6625 15.6113 23.6625C15.2005 23.662 14.8068 23.4986 14.5164 23.2081C14.2259 22.9176 14.0626 22.5238 14.0622 22.1131Z" fill="#CACACA"/>
<path d="M22.6835 19.3419C22.7856 19.2388 22.8429 19.0995 22.8429 18.9544C22.8429 18.8093 22.7856 18.67 22.6835 18.5669C22.5788 18.469 22.4408 18.4146 22.2975 18.4146C22.1542 18.4146 22.0162 18.469 21.9116 18.5669C21.8088 18.6693 21.7509 18.8083 21.7506 18.9533C21.7503 19.0983 21.8077 19.2376 21.91 19.3403C22.0124 19.4431 22.1514 19.501 22.2964 19.5013C22.4415 19.5016 22.5807 19.4443 22.6835 19.3419Z" fill="#CACACA"/>
<path d="M15.996 12.7982C16.0726 12.7218 16.1249 12.6243 16.1461 12.5182C16.1673 12.4121 16.1566 12.302 16.1153 12.202C16.0739 12.102 16.0038 12.0165 15.9139 11.9563C15.8239 11.8961 15.7181 11.864 15.6099 11.864C15.5016 11.864 15.3958 11.8961 15.3059 11.9563C15.2159 12.0165 15.1458 12.102 15.1045 12.202C15.0631 12.302 15.0524 12.4121 15.0736 12.5182C15.0949 12.6243 15.1471 12.7218 15.2238 12.7982C15.3266 12.8999 15.4653 12.9569 15.6099 12.9569C15.7544 12.9569 15.8932 12.8999 15.996 12.7982Z" fill="#CACACA"/>
<path d="M29.6178 23.995C29.6982 23.9158 29.7521 23.8135 29.772 23.7024C29.792 23.5912 29.7771 23.4766 29.7293 23.3743C29.6815 23.272 29.6032 23.187 29.5052 23.131C29.4072 23.0749 29.2942 23.0506 29.1818 23.0613C29.0694 23.072 28.9631 23.1173 28.8774 23.1909C28.7918 23.2645 28.731 23.3628 28.7034 23.4723C28.6759 23.5818 28.6829 23.6971 28.7235 23.8025C28.7641 23.9078 28.8364 23.998 28.9303 24.0607C29.0348 24.1309 29.1604 24.1628 29.2858 24.1508C29.4112 24.1389 29.5285 24.0838 29.6178 23.995Z" fill="#CACACA"/>
<path d="M8.44591 25.6325C8.52229 25.5562 8.57432 25.4589 8.5954 25.353C8.61649 25.2471 8.6057 25.1373 8.56438 25.0375C8.52307 24.9377 8.4531 24.8525 8.36331 24.7925C8.27353 24.7325 8.16797 24.7004 8.05998 24.7004C7.95199 24.7004 7.84643 24.7325 7.75664 24.7925C7.66686 24.8525 7.59688 24.9377 7.55557 25.0375C7.51426 25.1373 7.50346 25.2471 7.52455 25.353C7.54564 25.4589 7.59766 25.5562 7.67404 25.6325C7.72456 25.6835 7.78468 25.7239 7.85092 25.7515C7.91716 25.7791 7.98821 25.7934 8.05998 25.7934C8.13174 25.7934 8.20279 25.7791 8.26903 25.7515C8.33527 25.7239 8.39539 25.6835 8.44591 25.6325Z" fill="#CACACA"/>
</svg>
