<svg xmlns="http://www.w3.org/2000/svg" width="27" height="15.75" viewBox="0 0 27 15.75"><g transform="translate(0 -7.875)"><path d="M2.812,1.125H.562A.562.562,0,1,1,.562,0h2.25a.562.562,0,1,1,0,1.125Z" transform="translate(4.5 20.25)" fill="#1c1f2c"/><path d="M10.407,10.125H9A.563.563,0,0,1,9,9H9.94L10.7,4.959A3.937,3.937,0,0,0,6.751,1.125H3.057L1.267,9H4.5a.563.563,0,0,1,0,1.125H.563a.562.562,0,0,1-.549-.686l2.045-9A.562.562,0,0,1,2.608,0H6.751a5.069,5.069,0,0,1,5.062,5.063l-.854,4.6A.561.561,0,0,1,10.407,10.125Z" transform="translate(15.187 11.25)" fill="#1c1f2c"/><path d="M2.812,5.625A2.813,2.813,0,1,1,5.625,2.813,2.816,2.816,0,0,1,2.812,5.625Zm0-4.5A1.688,1.688,0,1,0,4.5,2.813,1.69,1.69,0,0,0,2.812,1.125Z" transform="translate(19.125 18)" fill="#1c1f2c"/><path d="M2.813,5.625A2.813,2.813,0,1,1,5.625,2.813,2.816,2.816,0,0,1,2.813,5.625Zm0-4.5A1.688,1.688,0,1,0,4.5,2.813,1.69,1.69,0,0,0,2.813,1.125Z" transform="translate(6.75 18)" fill="#1c1f2c"/><path d="M5.062,1.125H.562A.563.563,0,0,1,.562,0h4.5a.563.563,0,0,1,0,1.125Z" transform="translate(2.25 10.125)" fill="#1c1f2c"/><path d="M6.188,1.125H.563A.562.562,0,1,1,.563,0H6.188a.562.562,0,1,1,0,1.125Z" transform="translate(1.125 13.5)" fill="#1c1f2c"/><path d="M7.313,1.125H.563A.562.562,0,1,1,.563,0h6.75a.562.562,0,1,1,0,1.125Z" transform="translate(0 16.875)" fill="#1c1f2c"/><path d="M11.25,13.5H7.312a.563.563,0,0,1,0-1.125H10.8l2.556-11.25H.562A.563.563,0,0,1,.562,0h13.5a.562.562,0,0,1,.549.686L11.8,13.061A.563.563,0,0,1,11.25,13.5Z" transform="translate(4.5 7.875)" fill="#1c1f2c"/></g></svg>