<svg xmlns="http://www.w3.org/2000/svg" width="15.226" height="18" viewBox="0 0 15.226 18"><g transform="translate(-1.387)"><path d="M13,2.23A7.613,7.613,0,0,0,0,7.613c0,4.114,3.89,7.535,5.979,9.373.29.255.541.476.741.663a1.312,1.312,0,0,0,1.786,0c.2-.187.451-.407.741-.663,2.09-1.838,5.979-5.26,5.979-9.373A7.563,7.563,0,0,0,13,2.23ZM8.55,16.195c-.3.261-.553.486-.764.684a.254.254,0,0,1-.346,0c-.211-.2-.468-.423-.764-.684C4.711,14.467,1.054,11.25,1.054,7.613a6.559,6.559,0,0,1,13.117,0C14.172,11.25,10.515,14.467,8.55,16.195Z" transform="translate(1.387)" fill="#1c1f2c"/><path d="M3.355,0A3.355,3.355,0,1,0,6.71,3.355,3.359,3.359,0,0,0,3.355,0Zm0,5.656a2.3,2.3,0,1,1,2.3-2.3A2.3,2.3,0,0,1,3.355,5.656Z" transform="translate(5.645 3.97)" fill="#1c1f2c"/></g></svg>