<svg xmlns="http://www.w3.org/2000/svg" width="20" height="19.853" viewBox="0 0 20 19.853"><g transform="translate(0 -0.079)"><path d="M.612,8.6v.013A2.159,2.159,0,0,0,1.844,10.67l.008,0a1.451,1.451,0,0,1,.657.632l0,.006A2.255,2.255,0,0,0,4.632,12.5h.013a1.544,1.544,0,0,1,.913.237,2.314,2.314,0,0,0,2.454,0,1.544,1.544,0,0,1,.913-.237h.013a2.257,2.257,0,0,0,2.12-1.184l0,0a1.454,1.454,0,0,1,.659-.633l.007,0a2.159,2.159,0,0,0,1.232-2.059V8.6a1.381,1.381,0,0,1,.24-.856,2.124,2.124,0,0,0,0-2.4,1.381,1.381,0,0,1-.241-.856V4.473a2.159,2.159,0,0,0-1.233-2.06l-.007,0a1.45,1.45,0,0,1-.656-.63l0-.008A2.257,2.257,0,0,0,8.938.589H8.924A1.542,1.542,0,0,1,8.012.352h0a2.314,2.314,0,0,0-2.454,0,1.545,1.545,0,0,1-.913.237H4.632A2.256,2.256,0,0,0,2.512,1.771l0,.006a1.452,1.452,0,0,1-.658.633l-.008,0A2.158,2.158,0,0,0,.612,4.473v.012a1.38,1.38,0,0,1-.24.856,2.124,2.124,0,0,0,0,2.4,1.38,1.38,0,0,1,.24.856ZM.985,5.764a2.129,2.129,0,0,0,.371-1.321V4.43a1.416,1.416,0,0,1,.813-1.346l.006,0a2.193,2.193,0,0,0,.993-.956l0-.007a1.51,1.51,0,0,1,1.421-.785h.013A2.281,2.281,0,0,0,5.955.982a1.565,1.565,0,0,1,1.66,0,2.286,2.286,0,0,0,1.349.351h.013a1.508,1.508,0,0,1,1.42.784l0,.009a2.192,2.192,0,0,0,.992.955l.006,0a1.416,1.416,0,0,1,.814,1.347v.013a2.129,2.129,0,0,0,.371,1.321,1.375,1.375,0,0,1,0,1.556,2.131,2.131,0,0,0-.371,1.321v.013A1.417,1.417,0,0,1,11.4,10l-.005,0a2.195,2.195,0,0,0-.994.957l0,.005a1.509,1.509,0,0,1-1.421.785H8.964a2.286,2.286,0,0,0-1.35.351,1.565,1.565,0,0,1-1.66,0,2.282,2.282,0,0,0-1.223-.354q-.063,0-.126,0H4.592a1.508,1.508,0,0,1-1.421-.786l0-.007A2.19,2.19,0,0,0,2.176,10l-.007,0a1.416,1.416,0,0,1-.814-1.347V8.64A2.131,2.131,0,0,0,.984,7.32a1.375,1.375,0,0,1,0-1.556Z" transform="translate(5.312 0.079)" fill="#1c1f2c"/><path d="M.175,7.758a.372.372,0,0,0,.513-.119L5.1.573A.372.372,0,1,0,4.467.178L.057,7.245a.372.372,0,0,0,.119.513Z" transform="translate(9.519 2.712)" fill="#1c1f2c"/><path d="M1.644,3.75A1.773,1.773,0,0,0,3.289,1.875,1.773,1.773,0,0,0,1.644,0,1.773,1.773,0,0,0,0,1.875,1.773,1.773,0,0,0,1.644,3.75Zm0-3.006a1.036,1.036,0,0,1,.9,1.13,1.036,1.036,0,0,1-.9,1.131,1.037,1.037,0,0,1-.9-1.131A1.036,1.036,0,0,1,1.644.745Z" transform="translate(8.445 2.889)" fill="#1c1f2c"/><path d="M0,1.875A1.773,1.773,0,0,0,1.644,3.75,1.773,1.773,0,0,0,3.289,1.875,1.773,1.773,0,0,0,1.645,0,1.773,1.773,0,0,0,0,1.875Zm2.544,0a1.036,1.036,0,0,1-.9,1.13,1.036,1.036,0,0,1-.9-1.13,1.036,1.036,0,0,1,.9-1.13A1.036,1.036,0,0,1,2.544,1.875Z" transform="translate(12.459 6.603)" fill="#1c1f2c"/><path d="M19.952,2.241a1.881,1.881,0,0,0-2.484-.757L14.551,2.862a2.376,2.376,0,0,0-2.025-1.25L9.833,1.538a2.846,2.846,0,0,1-1.224-.316L8.335,1.08a4.833,4.833,0,0,0-4.477,0L3.876.464A.372.372,0,0,0,3.514.081L.561,0A.372.372,0,0,0,.179.362L0,6.842a.372.372,0,0,0,.362.383l2.953.081h.01A.373.373,0,0,0,3.7,6.944l.008-.31.767-.411a1.316,1.316,0,0,1,.982-.107L10.036,7.4l.024.006a4.9,4.9,0,0,0,1.007.1,4.968,4.968,0,0,0,2.075-.453.365.365,0,0,0,.046-.025l6.641-4.3a.372.372,0,0,0,.122-.5ZM.755,6.49.913.755,3.121.816,2.963,6.551Zm12.052-.1a4.22,4.22,0,0,1-2.582.288L5.656,5.4a2.058,2.058,0,0,0-1.535.168l-.392.21.105-3.813a4.093,4.093,0,0,1,4.158-.222l.274.142a3.6,3.6,0,0,0,1.546.4l2.693.074a1.633,1.633,0,0,1,1.552,1.3l-4.011-.11a.372.372,0,0,0-.02.745l4.426.122h.011a.373.373,0,0,0,.372-.362,2.376,2.376,0,0,0-.036-.483L17.79,2.155l.009,0a1.137,1.137,0,0,1,1.287.18Z" transform="translate(0 12.421)" fill="#1c1f2c"/></g></svg>