<svg xmlns="http://www.w3.org/2000/svg" width="20.234" height="18.36" viewBox="0 0 20.234 18.36"><g transform="translate(-0.383 -1.32)"><path d="M13.726,18.36H6.508A3.192,3.192,0,0,1,3.971,16.9L.361,10.645a3.151,3.151,0,0,1,0-2.93l3.61-6.25A3.192,3.192,0,0,1,6.508,0h7.218a3.192,3.192,0,0,1,2.537,1.465l3.609,6.25a3.151,3.151,0,0,1,0,2.93l-3.61,6.25a3.191,3.191,0,0,1-2.536,1.465ZM6.508,1.312a1.874,1.874,0,0,0-1.4.808L1.5,8.37a1.878,1.878,0,0,0,0,1.618l3.609,6.25a1.875,1.875,0,0,0,1.4.809h7.219a1.874,1.874,0,0,0,1.4-.809l3.61-6.25a1.878,1.878,0,0,0,0-1.618L15.128,2.12a1.875,1.875,0,0,0-1.4-.808Zm3.609,11.75A3.882,3.882,0,1,1,14,9.18,3.887,3.887,0,0,1,10.117,13.062Zm0-6.452a2.57,2.57,0,1,0,2.571,2.57A2.573,2.573,0,0,0,10.117,6.61Z" transform="translate(0.383 1.32)" fill="#1c1f2c"/></g></svg>