<svg xmlns="http://www.w3.org/2000/svg" width="19" height="18.124" viewBox="0 0 19 18.124"><g transform="translate(0 -0.438)"><path d="M16.229,0H2.771A2.774,2.774,0,0,0,0,2.771v7.917a2.774,2.774,0,0,0,2.771,2.771H16.229A2.774,2.774,0,0,0,19,10.687V2.771A2.774,2.774,0,0,0,16.229,0Zm1.979,10.688a1.981,1.981,0,0,1-1.979,1.979H2.771A1.981,1.981,0,0,1,.792,10.688V2.771A1.981,1.981,0,0,1,2.771.792H16.229a1.981,1.981,0,0,1,1.979,1.979v7.917Z" transform="translate(0 5.104)" fill="#1c1f2c"/><path d="M1.188,0A1.188,1.188,0,1,0,2.375,1.188,1.189,1.189,0,0,0,1.188,0Zm0,1.583a.4.4,0,1,1,.4-.4A.4.4,0,0,1,1.188,1.583Z" transform="translate(14.25 10.645)" fill="#1c1f2c"/><path d="M5.938,0H2.771a2.771,2.771,0,1,0,0,5.542H5.938a.4.4,0,0,0,.4-.4V.4A.4.4,0,0,0,5.938,0Zm-.4,4.75H2.771a1.979,1.979,0,1,1,0-3.958H5.542V4.75Z" transform="translate(12.667 9.062)" fill="#1c1f2c"/><path d="M13.812,4.884,12.136,1.532A2.771,2.771,0,0,0,8.344.332L.208,4.713a.4.4,0,0,0,.375.7l8.138-4.38a1.977,1.977,0,0,1,2.707.857L13.1,5.239a.4.4,0,0,0,.708-.355Z" transform="translate(2.375 0.438)" fill="#1c1f2c"/><path d="M6.626.209A.4.4,0,0,0,6.089.047L.208,3.214A.4.4,0,0,0,.4,3.958a.4.4,0,0,0,.188-.047L6.465.745A.4.4,0,0,0,6.626.209Z" transform="translate(7.973 1.938)" fill="#1c1f2c"/><path d="M7.125,0H4.354A4.359,4.359,0,0,0,0,4.354v.792a.4.4,0,0,0,.792,0V4.354A3.567,3.567,0,0,1,4.354.792H7.125a.4.4,0,1,0,0-.792Z" transform="translate(0 2.729)" fill="#1c1f2c"/><path d="M.4,0A.4.4,0,0,0,.4.792,3.567,3.567,0,0,1,3.958,4.354v.792a.4.4,0,1,0,.792,0V4.354A4.359,4.359,0,0,0,.4,0Z" transform="translate(14.25 2.729)" fill="#1c1f2c"/></g></svg>