<svg width="253" height="193" viewBox="0 0 253 193" fill="none" xmlns="http://www.w3.org/2000/svg">
<g clip-path="url(#clip0_103_7990)">
<path d="M138.162 164.685C133.385 165.561 128.461 166.019 123.431 166.019C78.7645 166.019 42.5228 129.948 42.2461 85.3465C41.9687 40.6472 78.227 3.91901 122.926 3.64695C123.133 3.64563 123.341 3.6453 123.547 3.64563C126.047 3.64927 128.07 5.67993 128.07 8.17915V8.26995C128.07 48.1372 160.389 80.4561 200.256 80.4561C202.653 80.4561 204.616 82.391 204.617 84.7882V84.8323C204.617 106.61 196.043 126.385 182.085 140.965C181.882 141.177 181.621 141.319 181.334 141.381C167.616 144.348 144.923 160.325 140.187 163.803C139.586 164.244 138.896 164.551 138.162 164.685Z" fill="#463B83"/>
<path d="M204.618 84.8321H123.418C120.729 84.8321 118.549 82.652 118.549 79.9626V8.51505C118.549 5.83987 120.706 3.64716 123.382 3.64551H123.431C168.269 3.64551 204.618 39.9939 204.618 84.8321Z" fill="#FDF061"/>
<path d="M118.368 79.8076C121.164 79.8076 123.431 82.0742 123.431 84.8703V166.019C78.5928 166.019 42.2444 129.67 42.2444 84.8319C42.2444 84.815 42.2444 84.7981 42.2444 84.7812C42.246 82.0282 44.5034 79.8076 47.2564 79.8076H118.368Z" fill="#03BDD6"/>
<path d="M123.431 3.64551V84.8321H42.2444C42.2444 39.9939 78.5928 3.64551 123.431 3.64551Z" fill="#FD4FB6"/>
<path d="M138.012 84.8314V79.7637C138.012 67.0698 148.302 56.7793 160.996 56.7793H168.068C180.762 56.7793 191.053 67.0698 191.053 79.7637V84.8314H138.012Z" fill="#03BDD6"/>
<path d="M149.681 79.6464V84.8314H138.012V79.7637C138.012 67.0698 148.302 56.7793 160.996 56.7793H167.285C157.187 59.257 149.681 68.555 149.681 79.6464Z" fill="#0198B0"/>
<path d="M190.373 33.1447V35.0588C190.373 37.7015 188.23 39.8441 185.587 39.8441C182.945 39.8441 180.802 37.7018 180.802 35.0588V33.1447C180.802 30.502 182.944 28.3594 185.587 28.3594C188.23 28.3594 190.373 30.502 190.373 33.1447Z" fill="#954D3B"/>
<path d="M185.587 24.5317V32.1881C185.587 41.5329 179.5 49.4557 171.074 52.2074V57.3099C171.074 60.9229 168.145 63.8516 164.532 63.8516C160.919 63.8516 157.991 60.9229 157.991 57.3099V52.2074C151.933 50.2295 147.084 45.579 144.837 39.6487C144.406 39.7763 143.95 39.8449 143.477 39.8449C140.834 39.8449 138.692 37.7025 138.692 35.0595V33.1455C138.692 30.5028 140.834 28.3601 143.477 28.3601V24.5317C143.477 12.9032 152.904 3.47656 164.532 3.47656C176.161 3.47623 185.587 12.9032 185.587 24.5317Z" fill="#A95947"/>
<path d="M141.563 32.1881V36.0165C141.563 37.5819 142.314 38.9717 143.477 39.8449C140.834 39.8445 138.692 37.7022 138.692 35.0595V33.1455C138.692 30.5028 140.834 28.3604 143.477 28.3601C142.314 29.2329 141.563 30.6227 141.563 32.1881ZM149.219 32.1881V24.5317C149.219 13.8771 157.133 5.07113 167.403 3.67075C166.465 3.54284 165.506 3.47656 164.532 3.47656C152.904 3.47656 143.477 12.9035 143.477 24.5317V32.1881C143.477 43.8167 152.904 53.2433 164.532 53.2433C165.506 53.2433 166.465 53.177 167.403 53.0491C157.133 51.6487 149.219 42.8428 149.219 32.1881ZM166.224 31.1731C165.771 31.6255 165.171 31.875 164.532 31.875C163.894 31.875 163.293 31.6258 162.84 31.1731C162.279 30.6124 161.37 30.6124 160.81 31.1731C160.249 31.7338 160.249 32.6428 160.81 33.2035C161.805 34.1982 163.126 34.746 164.532 34.746C165.937 34.746 167.259 34.1982 168.254 33.2035C168.814 32.6428 168.814 31.7338 168.254 31.1731C167.694 30.6124 166.785 30.6124 166.224 31.1731ZM171.289 39.9492C170.729 39.3886 169.82 39.3886 169.259 39.9492C166.653 42.5558 162.411 42.5558 159.805 39.9492C159.244 39.3886 158.335 39.3886 157.774 39.9492C157.214 40.5099 157.214 41.4189 157.774 41.9796C159.637 43.8426 162.085 44.774 164.532 44.774C166.979 44.774 169.426 43.8426 171.289 41.9796C171.85 41.4189 171.85 40.5099 171.289 39.9492Z" fill="#954D3B"/>
<path d="M143.51 23.3401C144.128 12.2659 153.303 3.47656 164.532 3.47656C175.761 3.47656 184.936 12.2663 185.554 23.3401C180.822 18.0971 173.169 14.6909 164.532 14.6909C155.895 14.6906 148.242 18.0968 143.51 23.3401Z" fill="#67382A"/>
<path d="M150.772 17.8738C147.94 19.3046 145.474 21.1643 143.51 23.3401C144.128 12.2659 153.303 3.47656 164.532 3.47656C165.589 3.47656 166.628 3.55444 167.643 3.70488C159.724 4.87695 153.242 10.4586 150.772 17.8738Z" fill="#533022"/>
<path d="M112.144 30.3091C112.144 47.0485 98.574 60.6182 81.8346 60.6182C65.0953 60.6182 51.5255 47.0485 51.5255 30.3091C51.5255 13.5698 65.0949 0 81.8343 0C98.5737 0 112.144 13.5698 112.144 30.3091Z" fill="#463B83"/>
<path d="M88.1759 59.9538C86.1306 60.3892 84.0092 60.6182 81.8344 60.6182C65.095 60.6182 51.5253 47.0481 51.5253 30.3091C51.5253 18.2925 58.5183 7.90918 68.657 3.00684C63.9508 8.79992 60.9774 16.4049 60.9774 24.733C60.9774 41.7557 73.6627 55.1939 88.3061 57.4406C89.3195 57.5964 90.8133 59.3921 88.1759 59.9538Z" fill="#012D4E"/>
<path d="M108.355 79.9727V84.8313H55.3137V79.9727C55.3137 67.2784 65.6042 56.9883 78.2982 56.9883H85.3703C98.0646 56.9883 108.355 67.2784 108.355 79.9727Z" fill="#FDF061"/>
<path d="M65.6569 79.9727V84.8313H55.3137V79.9727C55.3137 67.2784 65.6042 56.9883 78.2982 56.9883H85.3703C85.9201 56.9883 86.4655 57.0075 87.0057 57.0456C75.0752 57.8843 65.6569 67.8285 65.6569 79.9727Z" fill="#FDCB6B"/>
<path d="M107.675 33.3469V35.2609C107.675 37.9036 105.533 40.0463 102.89 40.0463C100.247 40.0463 98.1045 37.9039 98.1045 35.2609V33.3469C98.1045 30.7042 100.247 28.5615 102.89 28.5615C105.533 28.5615 107.675 30.7039 107.675 33.3469Z" fill="#D89C56"/>
<path d="M102.89 24.7339V32.3903C102.89 41.735 96.8021 49.6578 88.3762 52.4096V57.5121C88.3762 61.125 85.4472 64.0537 81.8346 64.0537C78.2216 64.0537 75.2929 61.1247 75.2929 57.5121V52.4096C69.2357 50.4316 64.3867 45.7811 62.1394 39.8508C61.7082 39.9784 61.2519 40.047 60.7794 40.047C58.1367 40.047 55.994 37.9047 55.994 35.2616V33.3476C55.994 30.7049 58.1364 28.5622 60.7794 28.5622V24.7339C60.7794 13.1053 70.2063 3.67871 81.8346 3.67871C93.4628 3.67871 102.89 13.1056 102.89 24.7339Z" fill="#E3AC6E"/>
<path d="M58.8651 32.3906V36.219C58.8651 37.7844 59.6167 39.1742 60.7788 40.0473C58.1361 40.047 55.9938 37.9047 55.9938 35.262V33.3479C55.9938 30.7052 58.1361 28.5629 60.7788 28.5626C59.6167 29.4354 58.8651 30.8252 58.8651 32.3906ZM66.5215 32.3906V24.7339C66.5215 14.0792 74.4354 5.27328 84.7057 3.8729C83.7669 3.74499 82.8086 3.67871 81.8346 3.67871C70.2061 3.67871 60.7795 13.1056 60.7795 24.7339V32.3903C60.7795 44.0188 70.2061 53.4454 81.8346 53.4454C82.8086 53.4454 83.7672 53.3792 84.7057 53.2513C74.4354 51.8512 66.5215 43.0449 66.5215 32.3906ZM83.5263 31.3753C83.0737 31.8276 82.4729 32.0771 81.8343 32.0771C81.1958 32.0771 80.595 31.8279 80.1423 31.3753C79.5816 30.8146 78.6727 30.8146 78.112 31.3753C77.5513 31.936 77.5513 32.8449 78.112 33.4056C79.1068 34.4004 80.4286 34.9481 81.834 34.9481C83.2393 34.9481 84.5612 34.4004 85.556 33.4056C86.1167 32.8449 86.1167 31.936 85.556 31.3753C84.996 30.8149 84.087 30.8149 83.5263 31.3753ZM88.592 40.1517C88.0313 39.591 87.1224 39.591 86.5617 40.1517C83.9551 42.7583 79.7139 42.7583 77.1073 40.1517C76.5466 39.591 75.6376 39.591 75.0769 40.1517C74.5163 40.7124 74.5163 41.6214 75.0769 42.182C76.9399 44.045 79.3871 44.9765 81.8343 44.9765C84.2815 44.9765 86.7287 44.045 88.5917 42.182C89.1527 41.6214 89.1527 40.7124 88.592 40.1517Z" fill="#D89C56"/>
<path d="M85.8876 13.0546L84.9545 19.2758C84.8743 19.8106 84.4147 20.2066 83.8739 20.2066H61.2672C62.6239 10.4109 71.7602 3.01562 81.8343 3.01562C91.9087 3.01562 102.402 10.8251 102.402 20.2063H92.3604C91.9465 20.2063 91.568 19.9724 91.3828 19.6022L87.9458 12.7279C87.7606 12.3577 87.3821 12.1238 86.9682 12.1238C86.4274 12.1238 85.9678 12.5194 85.8876 13.0546Z" fill="#463B83"/>
<path d="M155.44 28.8378C153.855 28.8378 152.569 27.5524 152.569 25.9667C152.569 24.3811 153.855 23.0957 155.44 23.0957C157.026 23.0957 158.311 24.3811 158.311 25.9667C158.311 27.5524 157.026 28.8378 155.44 28.8378ZM176.495 25.9667C176.495 24.3811 175.21 23.0957 173.624 23.0957C172.039 23.0957 170.753 24.3811 170.753 25.9667C170.753 27.5524 172.039 28.8378 173.624 28.8378C175.21 28.8378 176.495 27.5524 176.495 25.9667ZM72.7425 23.2975C71.1569 23.2975 69.8715 24.5829 69.8715 26.1685C69.8715 27.7542 71.1569 29.0396 72.7425 29.0396C74.3281 29.0396 75.6135 27.7542 75.6135 26.1685C75.6135 24.5829 74.3281 23.2975 72.7425 23.2975ZM93.7977 26.1689C93.7977 27.7545 92.5123 29.0399 90.9266 29.0399C89.341 29.0399 88.0556 27.7545 88.0556 26.1689C88.0556 24.5832 89.341 23.2978 90.9266 23.2978C92.5123 23.2975 93.7977 24.5829 93.7977 26.1689Z" fill="#533022"/>
<path d="M104.819 102.514V137.385C104.819 139.215 103.336 140.699 101.505 140.699H62.1637C60.3335 140.699 58.85 139.215 58.85 137.385V102.514C58.85 89.8198 69.1405 79.5293 81.8344 79.5293C94.5287 79.5293 104.819 89.8198 104.819 102.514Z" fill="#FCF6E7"/>
<path d="M70.4481 140.699H62.1637C60.3335 140.699 58.85 139.215 58.85 137.385V102.514C58.85 89.8198 69.1405 79.5293 81.8344 79.5293C83.2487 79.5293 84.6329 79.6572 85.9766 79.9018C75.2596 81.8522 67.1343 91.2341 67.1343 102.514V137.385C67.1343 139.215 68.6179 140.699 70.4481 140.699Z" fill="#FCF498"/>
<path d="M108.355 159.091V164.621C91.2445 161.408 76.0275 152.827 64.5186 140.694C68.3582 137.813 73.129 136.106 78.2984 136.106H85.3706C98.0645 136.106 108.355 146.397 108.355 159.091Z" fill="#013F69"/>
<path d="M108.355 160.965C96.3754 156.35 85.7085 148.825 77.111 139.192C78.6774 137.943 80.3985 136.902 82.2386 136.106H85.3708C98.0647 136.106 108.355 146.397 108.355 159.091V160.965Z" fill="#463B83"/>
<path d="M107.675 112.473V114.387C107.675 117.03 105.533 119.172 102.89 119.172C100.247 119.172 98.1045 117.03 98.1045 114.387V112.473C98.1045 109.83 100.247 107.688 102.89 107.688C105.533 107.688 107.675 109.83 107.675 112.473Z" fill="#E1A595"/>
<path d="M102.89 103.859V111.515C102.89 120.86 96.8021 128.783 88.3762 131.535V136.637C88.3762 140.25 85.4475 143.179 81.8346 143.179C78.2216 143.179 75.2929 140.25 75.2929 136.637V131.535C69.2357 129.557 64.3867 124.906 62.1394 118.976C61.7082 119.103 61.2519 119.172 60.7794 119.172C58.1367 119.172 55.994 117.03 55.994 114.387V112.473C55.994 109.83 58.1364 107.687 60.7794 107.687V103.859C60.7794 92.2303 70.2063 82.8037 81.8346 82.8037C93.4628 82.8034 102.89 92.2303 102.89 103.859Z" fill="#EAC0B5"/>
<path d="M58.8651 111.515V115.344C58.8651 116.909 59.6167 118.299 60.7788 119.172C58.1361 119.172 55.9938 117.029 55.9938 114.387V112.473C55.9938 109.83 58.1361 107.688 60.7788 107.687C59.6167 108.56 58.8651 109.95 58.8651 111.515ZM66.5215 111.515V103.859C66.5215 93.2042 74.4354 84.3983 84.7057 82.9979C83.7669 82.87 82.8086 82.8037 81.8346 82.8037C70.2061 82.8037 60.7795 92.2306 60.7795 103.859V111.515C60.7795 123.144 70.2061 132.57 81.8346 132.57C82.8086 132.57 83.7672 132.504 84.7057 132.376C74.4354 130.976 66.5215 122.17 66.5215 111.515ZM83.5263 110.5C83.0737 110.953 82.4729 111.202 81.8343 111.202C81.1958 111.202 80.595 110.953 80.1423 110.5C79.5816 109.94 78.6727 109.94 78.112 110.5C77.5513 111.061 77.5513 111.97 78.112 112.531C79.1068 113.525 80.4286 114.073 81.834 114.073C83.2393 114.073 84.5612 113.525 85.556 112.531C86.1167 111.97 86.1167 111.061 85.556 110.5C84.996 109.94 84.087 109.94 83.5263 110.5ZM88.592 119.277C88.0313 118.716 87.1224 118.716 86.5617 119.277C83.9551 121.883 79.7139 121.883 77.1073 119.277C76.5466 118.716 75.6376 118.716 75.0769 119.277C74.5163 119.837 74.5163 120.746 75.0769 121.307C76.9399 123.17 79.3871 124.102 81.8343 124.102C84.2815 124.102 86.7287 123.17 88.5917 121.307C89.1527 120.746 89.1527 119.837 88.592 119.277Z" fill="#E1A595"/>
<path d="M102.293 99.3313C97.1182 99.3313 92.5926 96.5521 90.1269 92.4049C86.0768 96.671 80.3514 99.3313 74.0046 99.3313C69.7073 99.3313 65.695 98.1118 62.2948 96C63.7303 88.3515 77.2043 81.4344 81.8346 81.1465C91.9087 81.1465 102.89 89.7191 102.402 99.3306C102.366 99.3309 102.329 99.3313 102.293 99.3313Z" fill="#FCF6E7"/>
<path d="M67.5076 98.367C65.6559 97.8016 63.9066 97.0014 62.2948 96.0006C62.2948 88.4526 72.8202 81.2585 81.6301 81.1484C74.378 84.0321 68.9408 90.5011 67.5076 98.367Z" fill="#FCF498"/>
<path d="M168.068 136.106C173.367 136.106 178.247 137.9 182.135 140.912C171.71 153.177 155.989 162.124 138.012 164.712V159.091C138.012 146.397 148.302 136.107 160.996 136.107H168.068V136.106Z" fill="#0ED1B2"/>
<path d="M148.691 162.365C145.242 163.394 141.674 164.185 138.012 164.712V159.091C138.012 146.397 148.302 136.106 160.996 136.106H164.793C155.415 139.395 148.691 148.325 148.691 158.826V162.365H148.691Z" fill="#0AB59E"/>
<path d="M187.517 81.1948V99.0804C187.517 100 186.771 100.746 185.851 100.746H143.213C142.293 100.746 141.548 100 141.548 99.0804C141.548 88.2825 150.301 79.5293 161.099 79.5293H185.851C186.771 79.5293 187.517 80.2749 187.517 81.1948Z" fill="#F4AA39"/>
<path d="M190.373 112.473V114.387C190.373 117.03 188.23 119.172 185.587 119.172C182.945 119.172 180.802 117.03 180.802 114.387V112.473C180.802 109.83 182.944 107.688 185.587 107.688C188.23 107.688 190.373 109.83 190.373 112.473Z" fill="#F3D6AC"/>
<path d="M185.587 103.859V111.515C185.587 120.86 179.5 128.783 171.074 131.535V136.637C171.074 140.25 168.145 143.179 164.532 143.179C160.919 143.179 157.991 140.25 157.991 136.637V131.535C151.933 129.557 147.084 124.906 144.837 118.976C144.406 119.103 143.95 119.172 143.477 119.172C140.834 119.172 138.692 117.03 138.692 114.387V112.473C138.692 109.83 140.834 107.687 143.477 107.687V103.859C143.477 92.2303 152.904 82.8037 164.532 82.8037C176.161 82.8034 185.587 92.2303 185.587 103.859Z" fill="#F8E6CC"/>
<path d="M141.563 111.515V115.344C141.563 116.909 142.314 118.299 143.477 119.172C140.834 119.172 138.692 117.029 138.692 114.387V112.473C138.692 109.83 140.834 107.688 143.477 107.687C142.314 108.56 141.563 109.95 141.563 111.515ZM149.219 111.515V103.859C149.219 93.2042 157.133 84.3983 167.403 82.9979C166.465 82.87 165.506 82.8037 164.532 82.8037C152.904 82.8037 143.477 92.2306 143.477 103.859V111.515C143.477 123.144 152.904 132.57 164.532 132.57C165.506 132.57 166.465 132.504 167.403 132.376C157.133 130.976 149.219 122.17 149.219 111.515Z" fill="#F3D6AC"/>
<path d="M160.81 112.531C160.249 111.97 160.249 111.061 160.81 110.501C161.371 109.94 162.28 109.94 162.84 110.501C163.293 110.953 163.894 111.202 164.532 111.202C165.171 111.202 165.772 110.953 166.224 110.501C166.785 109.94 167.694 109.94 168.255 110.501C168.815 111.061 168.815 111.97 168.255 112.531C167.26 113.526 165.938 114.073 164.533 114.073C163.127 114.074 161.805 113.526 160.81 112.531ZM171.289 119.277C170.729 118.716 169.82 118.716 169.259 119.277C166.652 121.884 162.411 121.884 159.805 119.277C159.244 118.716 158.335 118.716 157.774 119.277C157.214 119.838 157.214 120.747 157.774 121.307C159.637 123.17 162.084 124.102 164.532 124.102C166.979 124.102 169.426 123.17 171.289 121.307C171.85 120.747 171.85 119.838 171.289 119.277Z" fill="#EAC0B5"/>
<path d="M185.3 100.369C181.222 99.5881 177.563 97.631 174.688 94.865C171.677 96.5265 168.215 97.472 164.532 97.472C160.85 97.472 157.388 96.5265 154.376 94.865C151.501 97.6313 147.842 99.5881 143.765 100.369C143.765 90.4647 154.092 81.1465 164.532 81.1465C174.972 81.1465 185.588 89.3878 185.3 100.369Z" fill="#F4AA39"/>
<path d="M162.945 79.5293C149.775 84.8243 152.074 96.7962 150.019 98.0939C148.233 99.2219 144.966 100.431 143.705 100.746C143.455 100.808 143.019 100.737 142.926 100.721C142.143 100.585 141.548 99.9022 141.548 99.0804C141.548 88.2825 150.301 79.5293 161.099 79.5293H162.945Z" fill="#FC9302"/>
<path d="M72.7425 108.166C71.1569 108.166 69.8715 106.881 69.8715 105.295C69.8715 103.71 71.1569 102.424 72.7425 102.424C74.3281 102.424 75.6135 103.71 75.6135 105.295C75.6135 106.88 74.3281 108.166 72.7425 108.166ZM93.7977 105.295C93.7977 103.709 92.5123 102.424 90.9266 102.424C89.341 102.424 88.0556 103.709 88.0556 105.295C88.0556 106.88 89.341 108.166 90.9266 108.166C92.5123 108.166 93.7977 106.88 93.7977 105.295ZM158.311 105.295C158.311 103.709 157.026 102.424 155.44 102.424C153.855 102.424 152.569 103.709 152.569 105.295C152.569 106.88 153.855 108.166 155.44 108.166C157.026 108.166 158.311 106.88 158.311 105.295ZM176.495 105.295C176.495 103.709 175.21 102.424 173.624 102.424C172.039 102.424 170.753 103.709 170.753 105.295C170.753 106.88 172.039 108.166 173.624 108.166C175.21 108.166 176.495 106.88 176.495 105.295Z" fill="#463B83"/>
<path d="M157.354 23.0957C158.147 23.0957 158.79 23.7386 158.79 24.5312C158.79 25.3239 158.147 25.9667 157.354 25.9667C156.561 25.9667 155.919 25.3239 155.919 24.5312C155.919 23.7386 156.562 23.0957 157.354 23.0957ZM174.103 24.5315C174.103 25.3245 174.746 25.9671 175.538 25.9671C176.331 25.9671 176.974 25.3242 176.974 24.5315C176.974 23.7389 176.331 23.096 175.538 23.096C174.745 23.0957 174.103 23.7386 174.103 24.5315ZM73.2211 24.7334C73.2211 25.5263 73.8639 26.1689 74.6566 26.1689C75.4496 26.1689 76.0921 25.526 76.0921 24.7334C76.0921 23.9407 75.4492 23.2978 74.6566 23.2978C73.8639 23.2978 73.2211 23.9407 73.2211 24.7334ZM92.8407 23.2978C93.6337 23.2978 94.2762 23.9407 94.2762 24.7334C94.2762 25.526 93.6334 26.1689 92.8407 26.1689C92.0477 26.1689 91.4052 25.526 91.4052 24.7334C91.4052 23.9407 92.0481 23.2978 92.8407 23.2978ZM73.2211 103.859C73.2211 104.652 73.8639 105.295 74.6566 105.295C75.4492 105.295 76.0921 104.652 76.0921 103.859C76.0921 103.066 75.4492 102.424 74.6566 102.424C73.8639 102.424 73.2211 103.066 73.2211 103.859ZM91.4052 103.859C91.4052 104.652 92.0481 105.295 92.8407 105.295C93.6334 105.295 94.2762 104.652 94.2762 103.859C94.2762 103.066 93.6334 102.424 92.8407 102.424C92.0481 102.424 91.4052 103.066 91.4052 103.859ZM155.919 103.859C155.919 104.652 156.562 105.295 157.354 105.295C158.147 105.295 158.79 104.652 158.79 103.859C158.79 103.066 158.147 102.424 157.354 102.424C156.562 102.424 155.919 103.066 155.919 103.859ZM174.103 103.859C174.103 104.652 174.746 105.295 175.538 105.295C176.331 105.295 176.974 104.652 176.974 103.859C176.974 103.066 176.331 102.424 175.538 102.424C174.745 102.424 174.103 103.066 174.103 103.859Z" fill="#FFF5F5"/>
</g>
<path d="M242.973 41.0671L240.872 48.3934L240.822 48.568L240.973 48.6696L247.291 52.9313L239.675 53.1975L239.493 53.2038L239.443 53.3784L237.342 60.7047L234.736 53.543L234.673 53.3723L234.492 53.3786L226.875 53.6448L232.881 48.9524L233.024 48.8406L232.962 48.6699L230.355 41.5081L236.674 45.7698L236.824 45.8714L236.967 45.7595L242.973 41.0671Z" stroke="black" stroke-width="0.5"/>
<path d="M40.8057 167.373L38.7051 174.699L38.655 174.874L38.8056 174.975L45.1243 179.237L37.5074 179.503L37.3259 179.509L37.2758 179.684L35.1753 187.01L32.5684 179.849L32.5062 179.678L32.3247 179.684L24.7079 179.95L30.7135 175.258L30.8567 175.146L30.7945 174.976L28.1876 167.814L34.5063 172.075L34.6569 172.177L34.8 172.065L40.8057 167.373Z" stroke="black" stroke-width="0.5"/>
<path d="M219.817 167.373L217.716 174.699L217.666 174.874L217.817 174.975L224.135 179.237L216.519 179.503L216.337 179.509L216.287 179.684L214.186 187.01L211.579 179.849L211.517 179.678L211.336 179.684L203.719 179.95L209.725 175.258L209.868 175.146L209.806 174.976L207.199 167.814L213.517 172.075L213.668 172.177L213.811 172.065L219.817 167.373Z" stroke="black" stroke-width="0.5"/>
<path d="M22.0383 25.8962L19.9378 33.2225L19.8877 33.3971L20.0383 33.4987L26.3569 37.7604L18.7401 38.0266L18.5585 38.0329L18.5085 38.2075L16.4079 45.5338L13.801 38.3721L13.7389 38.2014L13.5574 38.2077L5.94052 38.4739L11.9462 33.7815L12.0893 33.6697L12.0272 33.499L9.42031 26.3372L15.7389 30.5989L15.8895 30.7005L16.0326 30.5886L22.0383 25.8962Z" stroke="black" stroke-width="0.5"/>
<defs>
<clipPath id="clip0_103_7990">
<rect width="166.018" height="166.018" fill="white" transform="translate(40.4219)"/>
</clipPath>
</defs>
</svg>
