<svg xmlns="http://www.w3.org/2000/svg" width="108.926" height="52" viewBox="0 0 108.926 52">
    <defs>
        <style>
            .cls-1{fill:#4e5356}.cls-2{fill:var(--main-color)}
        </style>
    </defs>
    <g id="Group" transform="translate(-1281.431 -43.958)">
        <g id="Group-2" data-name="Group">
            <path id="Vector" class="cls-1" d="M2.209 8.363 0 8.059c1.75-.654 6.405-2.847 6.412-4.99a1.05 1.05 0 0 0-1.018-1.124 1.154 1.154 0 0 0-1.058 1.249 2.567 2.567 0 0 0 .852 1.421L3.5 5.2a3.638 3.638 0 0 1-.949-2.147A3 3 0 0 1 5.566 0a2.76 2.76 0 0 1 2.76 2.845c-.01 3.032-3.709 4.702-6.117 5.518z" transform="translate(1372.335 49.239)"/>
            <path id="Vector-2" data-name="Vector" class="cls-2" d="M8.031 4.015A4.015 4.015 0 1 1 4.015 0a4.015 4.015 0 0 1 4.016 4.015z" transform="translate(1291.573 79.132)"/>
            <path id="Vector-3" data-name="Vector" class="cls-1" d="M3.9 0A3.951 3.951 0 0 0 0 4.007c.031 2.182 1.868 6.957 4.05 6.926S7.933 6.078 7.9 3.9a3.953 3.953 0 0 0-4-3.9zM4 6.738a2.787 2.787 0 1 1 2.738-2.826 2.788 2.788 0 0 1-2.747 2.826z" transform="translate(1343.495 76.577)"/>
            <path id="Vector-4" data-name="Vector" class="cls-2" d="M8.028 4.014A4.014 4.014 0 1 1 4.014 0a4.014 4.014 0 0 1 4.014 4.014z" transform="translate(1301.325 79.133)"/>
            <path id="Vector-5" data-name="Vector" class="cls-2" d="M14.894 0 .063 25c-.365.62.938 8.952 2.043 9.964a3.414 3.414 0 0 0 2.814 1.478h3.9a3.376 3.376 0 0 1-1.948-2.092H4.9a1.319 1.319 0 0 1-1.319-1.319v-.019A1.32 1.32 0 0 1 4.9 31.687h3.863a1.319 1.319 0 0 1 1.319 1.319l2.076.01a3.421 3.421 0 0 0-3.42-3.416h-3.39L16.4 11.312C18.324 8.165 17.925 1.938 14.894 0z" transform="translate(1315.765 43.958)"/>
            <path id="Vector-6" data-name="Vector" class="cls-1" d="m64.755 15.043-8.063 13.569a2.032 2.032 0 0 1-1.75 1h-2.681l1.154-1.984c1.924-3.148.561-7.6-2.471-9.541l-5.963 10.526a2.032 2.032 0 0 1-1.751 1h-2.682L41.7 27.63c1.924-3.148.561-7.6-2.471-9.541l-5.96 10.525a2.032 2.032 0 0 1-1.75 1h-5.142l1.154-1.984c1.924-3.148.561-7.6-2.471-9.541L19.1 28.615a2.032 2.032 0 0 1-1.75 1h-4.976l11.065-18.3C25.363 8.165 24.964 1.938 21.931 0L4.952 28.617a1.982 1.982 0 0 1-1.47.981c-.07.008-.236.02-.281.02 0 0 .291.091.383.133a2.826 2.826 0 0 1 1.678 1.938h1.973a1.319 1.319 0 0 1 1.319 1.319v.019a1.32 1.32 0 0 1-1.319 1.319H3.4a1.319 1.319 0 0 1-1.319-1.319L0 33.018a3.421 3.421 0 0 0 3.421 3.421h3.87c.017 0 .033-.006.05-.006a3.417 3.417 0 0 0 3.292-3.413c0-.056-.006-.11-.008-.164l1.772 2.794a1.7 1.7 0 0 0 1.44.791h5.908v-.021a4.824 4.824 0 0 1 9.648-.057 1.675 1.675 0 0 0 .487.079h5.729a1.7 1.7 0 0 0 1.455-.816l1.47-2.528 1.62 2.553a1.7 1.7 0 0 0 1.44.791h5.729a1.7 1.7 0 0 0 1.455-.816l1.47-2.528 1.62 2.553a1.7 1.7 0 0 0 1.44.791h5.729a1.7 1.7 0 0 0 1.455-.816l5.779-9.261c1.914-3.156 1.516-9.385-1.516-11.322z" transform="translate(1322.875 43.961)"/>
            <path id="Vector-7" data-name="Vector" class="cls-2" d="M3.9 0A3.951 3.951 0 0 0 0 4.007c.031 2.182 1.868 6.957 4.05 6.926S7.933 6.078 7.9 3.9a3.952 3.952 0 0 0-4-3.9zM4 6.738a2.787 2.787 0 1 1 2.738-2.826 2.788 2.788 0 0 1-2.747 2.826z" transform="translate(1293.46 50.522)"/>
            <path id="Vector-8" data-name="Vector" class="cls-2" d="M35.481 12.013Q29.256 1.093 28.274 0c-1.338.273-5.987 10.36-7.157 12.944a1.3 1.3 0 0 0 .052 1.169Q23.8 18.8 23.8 19.548v.11a6.258 6.258 0 0 1-1.092 2.4q-.465.763-2.511.764H12.44a3.2 3.2 0 0 1-1.8-.4l6.424-10.828a2.076 2.076 0 0 1-.969.272c-1.769.025-3.349-2.541-4.22-5.044l-10.7 17.7C-.75 27.672-.351 33.9 2.681 35.837l5.829-9.823a9.99 9.99 0 0 0 2.242 2.825 4.814 4.814 0 0 1 7.6.757h1.47a4.811 4.811 0 0 1 7.044-1.259 28.373 28.373 0 0 0 2.758-4.9 1.263 1.263 0 0 0 .089-.8l-.087-.39a1.208 1.208 0 0 0-.133-.34 48.807 48.807 0 0 1-2.764-5.169 1.238 1.238 0 0 1-.064-.578l.057-.517a1.333 1.333 0 0 1 .137-.452 29.494 29.494 0 0 1 2.863-4.841.443.443 0 0 1 .679.031c.74.964 3.516 5.94 3.516 5.94l1.683-2.97a1.143 1.143 0 0 0 0-1.131z" transform="translate(1281.431 50.778)"/>
        </g>
        <g id="Group-3" data-name="Group">
            <g id="Group-4" data-name="Group">
                <path id="Vector-9" data-name="Vector" class="cls-1" d="M3.4.661H.923v.812H3.28a1.1 1.1 0 0 1 .75.19.978.978 0 0 1 .194.7v.518a.984.984 0 0 1-.194.7 1.1 1.1 0 0 1-.75.19H.944a1.1 1.1 0 0 1-.75-.19A.978.978 0 0 1 0 2.885v-.1l.776-.161v.447h2.672v-.865H1.091a1.076 1.076 0 0 1-.744-.19.984.984 0 0 1-.193-.7V.894A.984.984 0 0 1 .347.19 1.078 1.078 0 0 1 1.091 0h2.146a1.115 1.115 0 0 1 .735.182.846.846 0 0 1 .2.647v.079l-.772.183v-.43z" transform="translate(1306.482 92.177)"/>
                <path id="Vector-10" data-name="Vector" class="cls-1" d="M.881 0v3.069h2.507V0h.876v2.887a.985.985 0 0 1-.193.707 1.085 1.085 0 0 1-.744.188H.938A1.088 1.088 0 0 1 .2 3.593a.979.979 0 0 1-.2-.706V0z" transform="translate(1313.996 92.176)"/>
                <path id="Vector-11" data-name="Vector" class="cls-1" d="M0 3.782V0h3.242a.973.973 0 0 1 .647.175.7.7 0 0 1 .2.558v.461a.578.578 0 0 1-.168.435.82.82 0 0 1-.483.2.8.8 0 0 1 .5.232.694.694 0 0 1 .178.493v.486a.623.623 0 0 1-.275.558 1.536 1.536 0 0 1-.838.182H0zM2.874.616H.866v.9h2.008a.587.587 0 0 0 .316-.061.239.239 0 0 0 .088-.211V.888a.238.238 0 0 0-.089-.209.562.562 0 0 0-.315-.063zm0 1.523H.866V3.1h2.008a.541.541 0 0 0 .337-.075.335.335 0 0 0 .089-.262v-.286a.33.33 0 0 0-.088-.263.551.551 0 0 0-.338-.075z" transform="translate(1321.661 92.175)"/>
                <path id="Vector-12" data-name="Vector" class="cls-1" d="M0 .894A.984.984 0 0 1 .193.19 1.078 1.078 0 0 1 .937 0H3.72a1.076 1.076 0 0 1 .744.19.984.984 0 0 1 .193.7v1.997a.985.985 0 0 1-.193.707 1.085 1.085 0 0 1-.744.188H.938a1.083 1.083 0 0 1-.744-.188A.985.985 0 0 1 0 2.887V.894zm.88 2.175h2.9V.676H.88z" transform="translate(1328.864 92.176)"/>
                <path id="Vector-13" data-name="Vector" class="cls-1" d="M0 3.782V0h.88v3.069h2.836v.712H0z" transform="translate(1336.84 92.175)"/>
                <path id="Vector-14" data-name="Vector" class="cls-2" d="M0 3.782 2.139 0h.847l2.169 3.782h-.987l-.454-.826h-2.4l-.44.826zm1.692-1.509h1.657L2.533.734z" transform="translate(1342.459 92.175)"/>
                <path id="Vector-15" data-name="Vector" class="cls-2" d="M0 3.782 2.139 0h.847l2.169 3.782h-.987l-.454-.826h-2.4l-.44.826zm1.692-1.509h1.657L2.533.734z" transform="translate(1349.312 92.175)"/>
                <path id="Vector-16" data-name="Vector" class="cls-2" d="M1.964 3.782V2.089L0 0h1.173l1.3 1.453L3.773 0h1.036L2.852 2.068v1.714z" transform="translate(1355.839 92.175)"/>
                <path id="Vector-17" data-name="Vector" class="cls-2" d="M3.4.661H.923v.812H3.28a1.1 1.1 0 0 1 .75.19.978.978 0 0 1 .194.7v.518a.984.984 0 0 1-.194.7 1.1 1.1 0 0 1-.75.19H.944a1.1 1.1 0 0 1-.75-.19A.978.978 0 0 1 0 2.885v-.1l.776-.161v.447h2.672v-.865H1.091a1.076 1.076 0 0 1-.744-.19.984.984 0 0 1-.193-.7V.894A.984.984 0 0 1 .347.19 1.078 1.078 0 0 1 1.091 0h2.146a1.115 1.115 0 0 1 .735.182.846.846 0 0 1 .2.647v.079l-.772.183v-.43z" transform="translate(1363.015 92.176)"/>
            </g>
            <g id="Group-5" data-name="Group">
                <g id="Group-6" data-name="Group">
                    <path id="Vector-18" data-name="Vector" class="cls-1" d="M0 0h20.424v.687H0z" transform="translate(1281.431 93.757)"/>
                </g>
                <g id="Group-7" data-name="Group">
                    <path id="Vector-19" data-name="Vector" class="cls-2" d="M0 0h20.424v.687H0z" transform="translate(1369.932 93.758)"/>
                </g>
            </g>
        </g>
    </g>
</svg>
