<svg width="31" height="31" viewBox="0 0 31 31" fill="none" xmlns="http://www.w3.org/2000/svg">
<g clip-path="url(#clip0_103_6724)">
<path d="M14.1723 28.5256H3.65653C3.26582 28.5256 2.9098 28.3445 2.67961 28.0287C2.44935 27.7127 2.38595 27.3181 2.50559 26.9459C3.7003 23.2316 7.34377 20.6375 11.3658 20.6375C13.2372 20.6375 15.0344 21.201 16.563 22.2671C17.1105 22.649 17.8639 22.5148 18.2459 21.9673C18.6277 21.4197 18.4935 20.6663 17.946 20.2844C17.1892 19.7566 16.3808 19.3261 15.5352 18.9974C16.6603 17.9744 17.4067 16.5419 17.5364 14.9378C19.2424 13.2759 21.4787 12.3653 23.8759 12.3653C25.7474 12.3653 27.5445 12.9289 29.0731 13.995C29.6207 14.3769 30.374 14.2426 30.756 13.6951C31.1378 13.1476 31.0036 12.3942 30.4561 12.0123C29.6994 11.4845 28.891 11.0539 28.0453 10.7252C29.2864 9.59674 30.0667 7.96997 30.0667 6.16434C30.0668 2.76536 27.3014 0 23.9024 0C20.5033 0 17.738 2.76536 17.738 6.16446C17.738 7.96276 18.512 9.58372 19.7444 10.7117C19.5758 10.7766 19.4084 10.8456 19.2422 10.9187C18.4859 11.2515 17.7745 11.6601 17.1133 12.1407C16.2009 9.87538 13.9802 8.27222 11.3922 8.27222C7.99308 8.27222 5.22778 11.0376 5.22778 14.4367C5.22778 16.2297 5.99733 17.8464 7.22341 18.9739C3.94491 20.2026 1.2866 22.8411 0.204388 26.2059C-0.154534 27.3218 0.0355835 28.5052 0.72606 29.4526C1.41642 30.3999 2.48446 30.9431 3.65659 30.9431H14.1724C14.84 30.9431 15.3811 30.402 15.3811 29.7345C15.3811 29.0669 14.8398 28.5256 14.1723 28.5256ZM23.9024 2.41739C25.9685 2.41739 27.6494 4.0983 27.6494 6.1644C27.6494 8.2305 25.9685 9.9114 23.9024 9.9114C21.8363 9.9114 20.1554 8.2305 20.1554 6.1644C20.1554 4.0983 21.8363 2.41739 23.9024 2.41739ZM11.3922 10.6896C13.4583 10.6896 15.1392 12.3705 15.1392 14.4366C15.1392 16.5027 13.4583 18.1836 11.3922 18.1836C9.32614 18.1836 7.64524 16.5027 7.64524 14.4366C7.64524 12.3705 9.32614 10.6896 11.3922 10.6896Z" fill="#1C1F2C"/>
<path d="M30.4682 19.7436C29.9254 19.355 29.1704 19.48 28.7818 20.0228L22.824 28.3448C22.6613 28.5335 22.4574 28.5742 22.3482 28.5815C22.2357 28.5892 22.0174 28.5746 21.8302 28.3964L17.9732 24.6929C17.4916 24.2304 16.7263 24.2461 16.2642 24.7275C15.8018 25.209 15.8174 25.9742 16.2988 26.4365L20.1597 30.1437C20.7379 30.6941 21.5098 31.0004 22.3039 31.0004C22.3722 31.0004 22.4406 30.9981 22.509 30.9935C23.3741 30.9359 24.1818 30.5152 24.725 29.8394C24.7391 29.8219 24.7525 29.804 24.7656 29.7858L30.7476 21.43C31.1361 20.8872 31.0111 20.1322 30.4682 19.7436Z" fill="#FDB933"/>
</g>
<defs>
<clipPath id="clip0_103_6724">
<rect width="31" height="31" fill="white"/>
</clipPath>
</defs>
</svg>
