<svg width="26" height="26" viewBox="0 0 26 26" fill="none" xmlns="http://www.w3.org/2000/svg">
<path d="M17.4687 24.3661H8.53122C7.35634 24.3661 5.97672 23.5698 5.39009 22.5526L0.921341 14.8143C0.324966 13.7808 0.324966 12.2208 0.921341 11.1865L5.3909 3.44827C5.97753 2.43102 7.35715 1.63477 8.53203 1.63477H17.4687C18.6436 1.63477 20.0232 2.43102 20.6098 3.44827L25.0786 11.1865C25.675 12.22 25.675 13.78 25.0786 14.8143L20.609 22.5526C20.0232 23.5698 18.6428 24.3661 17.4687 24.3661ZM8.53122 3.25895C7.9259 3.25895 7.09959 3.73589 6.79734 4.25995L2.32778 11.9982C2.02553 12.5223 2.02553 13.477 2.32778 14.001L6.79653 21.7393C7.09959 22.2641 7.9259 22.7403 8.5304 22.7403H17.4687C18.074 22.7403 18.9003 22.2633 19.2026 21.7393L23.6722 14.001C23.9744 13.477 23.9744 12.5223 23.6722 11.9982L19.2034 4.25995C18.9003 3.73508 18.074 3.25895 17.4695 3.25895H8.53122Z" fill="#1C1F2C"/>
<path d="M8.19238 13C8.19238 15.6504 10.3488 17.8066 12.9999 17.8066C15.6511 17.8066 17.8075 15.6504 17.8075 13C17.8075 10.3496 15.6511 8.19336 12.9999 8.19336C10.3488 8.19336 8.19238 10.3496 8.19238 13Z" stroke="#FDB933" stroke-width="2"/>
</svg>
