<svg xmlns="http://www.w3.org/2000/svg" width="16.453" height="18.045" viewBox="0 0 16.453 18.045">
  <g id="phone-icon" transform="translate(-6.272 -5.477)">
    <path id="XMLID_794" data-name="XMLID 794" d="M7.413,3.191,4.995.256A.7.7,0,0,0,4.519,0a.686.686,0,0,0-.513.157l-2.9,2.39A3.04,3.04,0,0,0,.691,6.825L9.023,16.94a3.042,3.042,0,0,0,4.275.415l2.9-2.39a.7.7,0,0,0,.1-.989l-2.419-2.935a.689.689,0,0,0-.574-.255A5.658,5.658,0,0,1,7.55,3.8.7.7,0,0,0,7.413,3.191ZM7.6,9.623A7.009,7.009,0,0,0,13.007,12.2l1.755,2.132L12.4,16.27a1.636,1.636,0,0,1-2.3-.223L1.776,5.934A1.636,1.636,0,0,1,2,3.635L4.357,1.692,6.111,3.823A7.015,7.015,0,0,0,7.6,9.623Z" transform="translate(6.272 5.477)"/>
  </g>
</svg>
