<svg width="27" height="27" viewBox="0 0 27 27" fill="none" xmlns="http://www.w3.org/2000/svg">
<path d="M2.47144 23.9347L6.2493 22.6757L2.47144 23.9347ZM2.47144 23.9347L3.79897 19.9502L3.79915 19.9497C3.86061 19.7638 3.83778 19.5613 3.73643 19.3941M2.47144 23.9347L6.24967 22.6756C6.4518 22.608 6.67539 22.6403 6.85015 22.7669C8.78816 24.1613 11.1141 24.9163 13.5009 24.9163C19.8106 24.9161 24.9165 19.81 24.9165 13.4999C24.9165 7.18984 19.8104 2.0837 13.5005 2.0837C7.19088 2.08354 2.08458 7.18971 2.08405 13.4999C2.08809 15.5788 2.65942 17.6166 3.73643 19.3941M3.73643 19.3941C3.73643 19.3941 3.73643 19.3941 3.73644 19.3941L3.52262 19.5237L3.73643 19.3941ZM0.750953 13.5004L0.750954 13.5009C0.755062 15.7157 1.34641 17.883 2.44324 19.8006L0.784938 24.7773C0.784936 24.7773 0.784934 24.7773 0.784932 24.7774C0.611236 25.2985 1.10691 25.7944 1.62813 25.6208L1.62817 25.6208L6.37188 24.0399C8.4744 25.4657 10.9514 26.2462 13.4997 26.25H13.5001C20.5369 26.2498 26.25 20.5367 26.25 13.5001C26.25 6.46332 20.5369 0.750161 13.5005 0.75C6.46403 0.75 0.750954 6.46333 0.750953 13.5004Z" fill="" stroke="#1C1F2C" stroke-width="1"/>
<path d="M10.2498 12C9.42636 12 8.74999 12.6765 8.75 13.4999C8.75001 14.3235 9.42638 14.9998 10.2498 14.9998C11.0733 14.9998 11.7497 14.3235 11.7497 13.4999C11.7497 12.6765 11.0733 12 10.2498 12ZM14.4266 12C13.6031 12 12.9268 12.6765 12.9268 13.4999C12.9268 14.3235 13.6032 14.9998 14.4266 14.9998C15.2501 14.9998 15.9265 14.3235 15.9265 13.4999C15.9265 12.6765 15.2501 12 14.4266 12ZM18.583 12C17.7596 12 17.0827 12.6764 17.0827 13.4999C17.0827 14.3236 17.7596 14.9998 18.583 14.9998C19.4064 14.9998 20.0828 14.3235 20.0828 13.4999C20.0828 12.6765 19.4065 12 18.583 12Z" fill="#FDB933" stroke="#FDB933" stroke-width="0.5"/>
</svg>
