<svg width="29" height="29" viewBox="0 0 29 29" fill="none" xmlns="http://www.w3.org/2000/svg">
<path d="M6.64581 20.542C7.64683 20.542 8.45831 19.7305 8.45831 18.7295C8.45831 17.7285 7.64683 16.917 6.64581 16.917C5.6448 16.917 4.83331 17.7285 4.83331 18.7295C4.83331 19.7305 5.6448 20.542 6.64581 20.542Z" fill="#FDB933"/>
<path d="M22.9583 3.625H6.04167C2.65833 3.625 0 6.28333 0 9.66667V19.3333C0 22.7167 2.65833 25.375 6.04167 25.375H22.9583C26.3417 25.375 29 22.7167 29 19.3333V9.66667C29 6.28333 26.3417 3.625 22.9583 3.625ZM6.04167 6.04167H22.9583C25.0125 6.04167 26.5833 7.6125 26.5833 9.66667H2.41667C2.41667 7.6125 3.9875 6.04167 6.04167 6.04167ZM22.9583 22.9583H6.04167C3.9875 22.9583 2.41667 21.3875 2.41667 19.3333V12.0833H26.5833V19.3333C26.5833 21.3875 25.0125 22.9583 22.9583 22.9583Z" fill="#1C1F2C"/>
</svg>
