<svg width="22" height="31" viewBox="0 0 22 31" fill="none" xmlns="http://www.w3.org/2000/svg">
<path d="M10.8774 0C4.88404 0 0 4.88635 0 10.8797C0 15.1521 2.57724 19.837 5.0723 23.5796C7.56737 27.3221 10.066 30.0898 10.066 30.0898C10.168 30.2027 10.2925 30.2929 10.4316 30.3547C10.5706 30.4165 10.721 30.4485 10.8732 30.4485C11.0253 30.4485 11.1758 30.4165 11.3148 30.3547C11.4538 30.2929 11.5783 30.2027 11.6803 30.0898C11.6803 30.0898 14.179 27.3221 16.674 23.5796C19.1691 19.837 21.7463 15.1521 21.7463 10.8797C21.7463 4.88635 16.8708 0 10.8774 0ZM10.8774 2.17509C15.6953 2.17509 19.5713 6.06182 19.5713 10.8797C19.5713 14.22 17.2653 18.7769 14.8664 22.3751C12.8713 25.3677 11.4924 26.8798 10.8774 27.5855C10.2638 26.8815 8.8826 25.3696 6.88627 22.3751C4.48745 18.7769 2.17506 14.22 2.17506 10.8797C2.17506 6.06182 6.05953 2.17509 10.8774 2.17509Z" fill="#1C1F2C"/>
<path d="M13.0524 10.8795C13.0524 9.66538 12.0915 8.70218 10.8774 8.70218C9.66326 8.70218 8.70233 9.66538 8.70233 10.8795C8.70233 12.0936 9.66326 13.0544 10.8774 13.0544C12.0915 13.0544 13.0524 12.0936 13.0524 10.8795Z" fill="#FDB933"/>
</svg>
