<svg width="31" height="31" viewBox="0 0 31 31" fill="none" xmlns="http://www.w3.org/2000/svg">
<path d="M4.69546 13.2208H6.70134C6.97487 13.2208 7.15722 13.0384 7.15722 12.7649V9.39135C7.15722 9.11782 6.97487 8.93547 6.70134 8.93547H6.01752C7.02046 4.51341 10.8955 1.36782 15.4999 1.36782C20.1043 1.36782 23.9793 4.51341 24.9822 8.93547H24.2984C24.0249 8.93547 23.8425 9.11782 23.8425 9.39135V12.7649C23.8425 13.0384 24.0249 13.2208 24.2984 13.2208H25.0734C24.5719 14.5884 23.0675 15.8649 21.1984 16.184C22.4293 14.7252 23.2499 12.7649 23.2499 10.7134C23.2499 6.51929 19.7852 3.10017 15.4999 3.10017C11.2146 3.10017 7.74987 6.51929 7.74987 10.7134C7.74987 15.0899 11.3513 18.9649 15.4999 18.9649C17.1866 18.9649 18.8278 18.2811 20.1499 17.1869C22.794 17.2325 25.3925 15.4546 25.9852 13.2208H26.3043C26.9881 13.2208 27.5352 12.6737 27.5352 11.9899V10.2119C27.5352 9.52811 26.9881 8.98105 26.3043 8.98105H25.9396C24.891 4.01194 20.6058 0.456055 15.4999 0.456055C10.394 0.456055 6.10869 4.01194 5.10575 8.93547H4.74105C4.05722 8.93547 3.51016 9.48252 3.51016 10.1663V11.9443C3.46458 12.6737 4.01163 13.2208 4.69546 13.2208ZM15.4999 18.0075C11.8528 18.0075 8.66163 14.5884 8.66163 10.6678C8.66163 6.97517 11.716 3.96635 15.4999 3.96635C19.2837 3.96635 22.3381 6.97517 22.3381 10.6678C22.3381 12.8561 21.3352 14.8619 19.8763 16.2296C19.2381 16.184 18.5999 16.0016 18.0072 15.6825C18.0528 15.5458 18.0984 15.3634 18.0984 15.2266C18.0984 14.2693 17.3234 13.4943 16.366 13.4943C15.4087 13.4943 14.5881 14.2693 14.5881 15.2266C14.5881 16.184 15.3631 16.959 16.3205 16.959C16.7763 16.959 17.1866 16.7766 17.5058 16.5031C17.916 16.7311 18.3719 16.9134 18.8734 17.0502C17.8249 17.6428 16.6852 18.0075 15.4999 18.0075ZM17.141 15.2266C17.141 15.6825 16.7763 16.0472 16.3205 16.0472C15.8646 16.0472 15.4999 15.6369 15.4999 15.2266C15.4999 14.7708 15.8646 14.4061 16.3205 14.4061C16.7763 14.4061 17.141 14.7708 17.141 15.2266ZM26.6234 10.2119V11.9899C26.6234 12.1722 26.4866 12.309 26.3043 12.309H24.7543V9.84723H26.3043C26.4866 9.84723 26.6234 10.0296 26.6234 10.2119ZM4.37634 10.2119C4.37634 10.0296 4.51311 9.89282 4.69546 9.89282H6.24546V12.309H4.69546C4.51311 12.309 4.37634 12.1722 4.37634 11.9899V10.2119Z" fill="#1C1F2C" stroke="#1C1F2C" stroke-width="0.7"/>
<path d="M18.1896 19.6943H12.8102C7.52199 19.6943 2.73523 23.934 2.73523 30.0884C2.73523 30.362 2.91758 30.5443 3.19111 30.5443H27.8088C28.0823 30.5443 28.2646 30.362 28.2646 30.0884C28.2646 23.9796 23.5235 19.6943 18.1896 19.6943ZM3.64699 29.6326C3.78376 24.6179 7.84111 20.6061 12.8102 20.6061H18.1896C23.1588 20.6061 27.2161 24.6179 27.3529 29.6326H3.64699Z" fill="#FDB933" stroke="#FDB933" stroke-width="0.7"/>
</svg>
