<svg xmlns="http://www.w3.org/2000/svg" width="38" height="34.832" viewBox="0 0 38 34.832">
  <g id="checkmark" transform="translate(0 -1.56)">
    <path id="Vector" d="M33.249,16.624A16.624,16.624,0,1,1,16.624,0,16.625,16.625,0,0,1,33.249,16.624Z" transform="translate(0.792 2.351)" fill="#fff"/>
    <path id="Vector-2" data-name="Vector" d="M17.416,34.832a17.416,17.416,0,1,1,9.4-32.079,1.187,1.187,0,1,1-1.281,2,15.041,15.041,0,1,0,6.927,12.665c0-.5-.024-.987-.07-1.469a1.187,1.187,0,0,1,2.364-.228q.08.838.081,1.7A17.436,17.436,0,0,1,17.416,34.832Z" transform="translate(0 1.56)" fill="#fdb933"/>
    <path id="Vector-3" data-name="Vector" d="M8.312,19.791a1.179,1.179,0,0,1-.839-.348L.348,12.318a1.188,1.188,0,0,1,1.68-1.68l6.286,6.286L24.889.348a1.188,1.188,0,0,1,1.68,1.68L9.152,19.444a1.19,1.19,0,0,1-.841.347Z" transform="translate(11.084 3.144)" fill="#fdb933"/>
  </g>
</svg>
