<svg xmlns="http://www.w3.org/2000/svg" width="15.234" height="20" viewBox="0 0 15.234 20">
  <g id="notification" transform="translate(-2.383)">
    <g id="Group">
      <path id="Vector" d="M.586,17.656H5.273a2.344,2.344,0,0,0,4.688,0h4.688a.586.586,0,0,0,.586-.586,5.331,5.331,0,0,0-1.3-3.9A4.192,4.192,0,0,1,12.891,10V7.617a5.283,5.283,0,0,0-3.719-5.04,1.758,1.758,0,1,0-3.109,0,5.283,5.283,0,0,0-3.719,5.04V10A4.192,4.192,0,0,1,1.3,13.172,5.331,5.331,0,0,0,0,17.07a.586.586,0,0,0,.586.586Zm7.031,1.172a1.173,1.173,0,0,1-1.172-1.172H8.789A1.173,1.173,0,0,1,7.617,18.828ZM7.031,1.758a.586.586,0,1,1,.586.586A.587.587,0,0,1,7.031,1.758ZM2.218,13.9a5.331,5.331,0,0,0,1.3-3.9V7.617a4.1,4.1,0,0,1,8.2,0V10a5.331,5.331,0,0,0,1.3,3.9,3.944,3.944,0,0,1,1.028,2.586H1.19A3.944,3.944,0,0,1,2.218,13.9Z" transform="translate(2.383)" fill="#a9c0d3"/>
      <path id="Vector-2" data-name="Vector" d="M1.172,6.674A6.474,6.474,0,0,1,4.4,1.093.586.586,0,1,0,3.808.079,7.623,7.623,0,0,0,0,6.674a.586.586,0,1,0,1.172,0Z" transform="translate(2.383 0.943)" fill="#a9c0d3"/>
      <path id="Vector-3" data-name="Vector" d="M.88.079A.586.586,0,1,0,.292,1.093,6.474,6.474,0,0,1,3.516,6.674a.586.586,0,0,0,1.172,0A7.623,7.623,0,0,0,.88.079Z" transform="translate(12.929 0.943)" fill="#a9c0d3"/>
    </g>
  </g>
</svg>
