<svg xmlns="http://www.w3.org/2000/svg" width="65.763" height="68" viewBox="0 0 65.763 68">
  <g id="waving-hand" transform="translate(-1.619 0)">
    <g id="Group">
      <path id="Vector" d="M54.039,35.4V11.112a5.847,5.847,0,0,0-11.692,0v5.961L26.506,1.463a5.121,5.121,0,0,0-7.167,0,4.943,4.943,0,0,0,0,7.063L15.721,4.96a5.121,5.121,0,0,0-7.167,0,4.943,4.943,0,0,0,0,7.063l2.095,2.064a5.121,5.121,0,0,0-7.167,0,4.943,4.943,0,0,0,0,7.063l5.169,5.094a5.121,5.121,0,0,0-7.167,0,4.943,4.943,0,0,0,0,7.063L17.441,49.033a21.194,21.194,0,0,0,29.663,0l2.056-2.026A16.247,16.247,0,0,0,54.04,35.4Z" transform="translate(13.342 12.912)" fill="#ffe2a9"/>
      <g id="Group-2" data-name="Group">
        <path id="Vector-2" data-name="Vector" d="M9.4,2.2l-.744-.734L6.809.3A5.122,5.122,0,0,0,1.484,1.462a4.943,4.943,0,0,0,0,7.063l9.854,9.711C8.132,12.764,7.486,5.976,9.4,2.2Z" transform="translate(13.342 37.695)" fill="#fdb933"/>
        <path id="Vector-3" data-name="Vector" d="M1.484,8.511l2.775,2.735C3.762,9.728,2.547,3.629,4.688,0a5.08,5.08,0,0,0-3.2,1.448,4.943,4.943,0,0,0,0,7.063Z" transform="translate(15.34 25.552)" fill="#fdb933"/>
        <path id="Vector-4" data-name="Vector" d="M10.833,11.672a1.016,1.016,0,0,1-.715-.292L.3,1.7A.986.986,0,0,1,.3.292a1.021,1.021,0,0,1,1.429,0l9.822,9.679a.986.986,0,0,1,0,1.409,1.015,1.015,0,0,1-.715.292Z" transform="translate(31.671 20.442)" fill="#fdb933"/>
        <path id="Vector-5" data-name="Vector" d="M12.471,13.287a1.016,1.016,0,0,1-.715-.292L.3,1.7A.986.986,0,0,1,.3.292a1.021,1.021,0,0,1,1.429,0l11.46,11.294a.986.986,0,0,1,0,1.409,1.015,1.015,0,0,1-.715.292Z" transform="translate(22.98 26.004)" fill="#fdb933"/>
        <path id="Vector-6" data-name="Vector" d="M8.571,9.443a1.015,1.015,0,0,1-.715-.292L.3,1.7A.986.986,0,0,1,.3.292a1.021,1.021,0,0,1,1.429,0l7.56,7.451a.986.986,0,0,1,0,1.409,1.016,1.016,0,0,1-.715.292Z" transform="translate(20.982 38.161)" fill="#fdb933"/>
      </g>
      <g id="Group-3" data-name="Group">
        <path id="Vector-7" data-name="Vector" d="M6.7,7.584A7.619,7.619,0,0,0,.808,1.972,1,1,0,0,1,.021.8,1.011,1.011,0,0,1,1.214.02a9.635,9.635,0,0,1,7.454,7.1,1,1,0,0,1-.746,1.2A1.012,1.012,0,0,1,6.7,7.584Z" transform="translate(42.019 7.1)" fill="#4e5660"/>
        <path id="Vector-8" data-name="Vector" d="M13.453,14.011A16.345,16.345,0,0,0,.808,1.972,1,1,0,0,1,.021.8,1.01,1.01,0,0,1,1.214.02a18.361,18.361,0,0,1,14.2,13.524,1,1,0,0,1-.746,1.2,1.012,1.012,0,0,1-1.219-.735Z" transform="translate(42.587 0)" fill="#4e5660"/>
      </g>
      <g id="Group-4" data-name="Group">
        <path id="Vector-9" data-name="Vector" d="M7.222,8.542A9.622,9.622,0,0,1,.021,1.2,1,1,0,0,1,.808.021,1.011,1.011,0,0,1,2,.8,7.609,7.609,0,0,0,7.7,6.606a1,1,0,0,1,.746,1.2,1.012,1.012,0,0,1-1.219.735Z" transform="translate(8.823 49.463)" fill="#4e5660"/>
        <path id="Vector-10" data-name="Vector" d="M13.743,15.2A18.336,18.336,0,0,1,.021,1.2,1,1,0,0,1,.808.021,1.01,1.01,0,0,1,2,.8,16.323,16.323,0,0,0,14.217,13.259a1,1,0,0,1,.746,1.2,1.012,1.012,0,0,1-1.219.735Z" transform="translate(1.619 50.023)" fill="#4e5660"/>
      </g>
      <path id="Vector-11" data-name="Vector" d="M2.29,16.029a1.012,1.012,0,0,1-.928-.6A16.073,16.073,0,0,1,2.417.477a1.019,1.019,0,0,1,1.39-.33.988.988,0,0,1,.335,1.369,14.1,14.1,0,0,0-.925,13.12.991.991,0,0,1-.525,1.31,1.021,1.021,0,0,1-.4.082Z" transform="translate(48.332 35.064)" fill="#fdb933"/>
    </g>
  </g>
</svg>
